<svg xmlns="http://www.w3.org/2000/svg" xmlns:xlink="http://www.w3.org/1999/xlink" width="1920" zoomAndPan="magnify" viewBox="0 0 1440 809.999993" height="1080" preserveAspectRatio="xMidYMid meet" version="1.0"><defs><clipPath id="cc8d68dde3"><path d="M 608 437 L 1066 437 L 1066 728 L 608 728 Z M 608 437 " clip-rule="nonzero"/></clipPath><clipPath id="69e68af86f"><path d="M 0 509.921875 L 498.011719 -258.570312 L 1494.347656 387.09375 L 996.335938 1155.585938 Z M 0 509.921875 " clip-rule="nonzero"/></clipPath><clipPath id="d4b9b722dc"><path d="M 0 509.921875 L 498.011719 -258.570312 L 1494.347656 387.09375 L 996.335938 1155.585938 Z M 0 509.921875 " clip-rule="nonzero"/></clipPath><clipPath id="c21ba6768d"><path d="M 0 509.921875 L 498.011719 -258.570312 L 1494.347656 387.09375 L 996.335938 1155.585938 Z M 0 509.921875 " clip-rule="nonzero"/></clipPath><clipPath id="83585d8983"><path d="M 909 426 L 1081 426 L 1081 601 L 909 601 Z M 909 426 " clip-rule="nonzero"/></clipPath><clipPath id="1ad6e2f3aa"><path d="M 0 509.921875 L 498.011719 -258.570312 L 1494.347656 387.09375 L 996.335938 1155.585938 Z M 0 509.921875 " clip-rule="nonzero"/></clipPath><clipPath id="ebc9377860"><path d="M 0 509.921875 L 498.011719 -258.570312 L 1494.347656 387.09375 L 996.335938 1155.585938 Z M 0 509.921875 " clip-rule="nonzero"/></clipPath><clipPath id="acd4fab83d"><path d="M 0 509.921875 L 498.011719 -258.570312 L 1494.347656 387.09375 L 996.335938 1155.585938 Z M 0 509.921875 " clip-rule="nonzero"/></clipPath><clipPath id="d1a821af40"><path d="M 991 445 L 1363 445 L 1363 636 L 991 636 Z M 991 445 " clip-rule="nonzero"/></clipPath><clipPath id="4a44948381"><path d="M 0 509.921875 L 498.011719 -258.570312 L 1494.347656 387.09375 L 996.335938 1155.585938 Z M 0 509.921875 " clip-rule="nonzero"/></clipPath><clipPath id="08c430af6d"><path d="M 0 509.921875 L 498.011719 -258.570312 L 1494.347656 387.09375 L 996.335938 1155.585938 Z M 0 509.921875 " clip-rule="nonzero"/></clipPath><clipPath id="0d4b0a4734"><path d="M 0 509.921875 L 498.011719 -258.570312 L 1494.347656 387.09375 L 996.335938 1155.585938 Z M 0 509.921875 " clip-rule="nonzero"/></clipPath><clipPath id="5eface51be"><path d="M 1026 608 L 1203 608 L 1203 788 L 1026 788 Z M 1026 608 " clip-rule="nonzero"/></clipPath><clipPath id="6944e600b9"><path d="M 0 509.921875 L 498.011719 -258.570312 L 1494.347656 387.09375 L 996.335938 1155.585938 Z M 0 509.921875 " clip-rule="nonzero"/></clipPath><clipPath id="a846cd59e1"><path d="M 0 509.921875 L 498.011719 -258.570312 L 1494.347656 387.09375 L 996.335938 1155.585938 Z M 0 509.921875 " clip-rule="nonzero"/></clipPath><clipPath id="969271bbd9"><path d="M 0 509.921875 L 498.011719 -258.570312 L 1494.347656 387.09375 L 996.335938 1155.585938 Z M 0 509.921875 " clip-rule="nonzero"/></clipPath><clipPath id="ebf8e69d29"><path d="M 1026 633 L 1123 633 L 1123 755 L 1026 755 Z M 1026 633 " clip-rule="nonzero"/></clipPath><clipPath id="3de03c61be"><path d="M 0 509.921875 L 498.011719 -258.570312 L 1494.347656 387.09375 L 996.335938 1155.585938 Z M 0 509.921875 " clip-rule="nonzero"/></clipPath><clipPath id="bbd7502ba1"><path d="M 0 509.921875 L 498.011719 -258.570312 L 1494.347656 387.09375 L 996.335938 1155.585938 Z M 0 509.921875 " clip-rule="nonzero"/></clipPath><clipPath id="9c916c480d"><path d="M 0 509.921875 L 498.011719 -258.570312 L 1494.347656 387.09375 L 996.335938 1155.585938 Z M 0 509.921875 " clip-rule="nonzero"/></clipPath><clipPath id="5d6d03a73c"><path d="M 989 315 L 1132 315 L 1132 519 L 989 519 Z M 989 315 " clip-rule="nonzero"/></clipPath><clipPath id="ecf7520c60"><path d="M 0 509.921875 L 498.011719 -258.570312 L 1494.347656 387.09375 L 996.335938 1155.585938 Z M 0 509.921875 " clip-rule="nonzero"/></clipPath><clipPath id="43053bbd38"><path d="M 0 509.921875 L 498.011719 -258.570312 L 1494.347656 387.09375 L 996.335938 1155.585938 Z M 0 509.921875 " clip-rule="nonzero"/></clipPath><clipPath id="8d30e84b63"><path d="M 0 509.921875 L 498.011719 -258.570312 L 1494.347656 387.09375 L 996.335938 1155.585938 Z M 0 509.921875 " clip-rule="nonzero"/></clipPath><clipPath id="28ff496fdf"><path d="M 556 508 L 1010 508 L 1010 684 L 556 684 Z M 556 508 " clip-rule="nonzero"/></clipPath><clipPath id="1b3ec83aa7"><path d="M 0 509.921875 L 498.011719 -258.570312 L 1494.347656 387.09375 L 996.335938 1155.585938 Z M 0 509.921875 " clip-rule="nonzero"/></clipPath><clipPath id="1607698586"><path d="M 0 509.921875 L 498.011719 -258.570312 L 1494.347656 387.09375 L 996.335938 1155.585938 Z M 0 509.921875 " clip-rule="nonzero"/></clipPath><clipPath id="eda1578c66"><path d="M 0 509.921875 L 498.011719 -258.570312 L 1494.347656 387.09375 L 996.335938 1155.585938 Z M 0 509.921875 " clip-rule="nonzero"/></clipPath><clipPath id="db2b43c37f"><path d="M 573 376 L 856 376 L 856 541 L 573 541 Z M 573 376 " clip-rule="nonzero"/></clipPath><clipPath id="f3994c37d0"><path d="M 0 509.921875 L 498.011719 -258.570312 L 1494.347656 387.09375 L 996.335938 1155.585938 Z M 0 509.921875 " clip-rule="nonzero"/></clipPath><clipPath id="0f0a2085cc"><path d="M 0 509.921875 L 498.011719 -258.570312 L 1494.347656 387.09375 L 996.335938 1155.585938 Z M 0 509.921875 " clip-rule="nonzero"/></clipPath><clipPath id="059c205830"><path d="M 0 509.921875 L 498.011719 -258.570312 L 1494.347656 387.09375 L 996.335938 1155.585938 Z M 0 509.921875 " clip-rule="nonzero"/></clipPath><clipPath id="d2a9d6755c"><path d="M 638 508 L 680 508 L 680 511 L 638 511 Z M 638 508 " clip-rule="nonzero"/></clipPath><clipPath id="a7ec227748"><path d="M 0 509.921875 L 498.011719 -258.570312 L 1494.347656 387.09375 L 996.335938 1155.585938 Z M 0 509.921875 " clip-rule="nonzero"/></clipPath><clipPath id="c75d588e56"><path d="M 0 509.921875 L 498.011719 -258.570312 L 1494.347656 387.09375 L 996.335938 1155.585938 Z M 0 509.921875 " clip-rule="nonzero"/></clipPath><clipPath id="cb2da763a7"><path d="M 0 509.921875 L 498.011719 -258.570312 L 1494.347656 387.09375 L 996.335938 1155.585938 Z M 0 509.921875 " clip-rule="nonzero"/></clipPath><clipPath id="4b8b64fe43"><path d="M 550 394 L 763 394 L 763 529 L 550 529 Z M 550 394 " clip-rule="nonzero"/></clipPath><clipPath id="2245175a4a"><path d="M 0 509.921875 L 498.011719 -258.570312 L 1494.347656 387.09375 L 996.335938 1155.585938 Z M 0 509.921875 " clip-rule="nonzero"/></clipPath><clipPath id="62c633dde0"><path d="M 0 509.921875 L 498.011719 -258.570312 L 1494.347656 387.09375 L 996.335938 1155.585938 Z M 0 509.921875 " clip-rule="nonzero"/></clipPath><clipPath id="98380cf058"><path d="M 0 509.921875 L 498.011719 -258.570312 L 1494.347656 387.09375 L 996.335938 1155.585938 Z M 0 509.921875 " clip-rule="nonzero"/></clipPath><clipPath id="ce9481083d"><path d="M 95 260 L 773 260 L 773 606 L 95 606 Z M 95 260 " clip-rule="nonzero"/></clipPath><clipPath id="8e7251f5de"><path d="M 0 509.921875 L 498.011719 -258.570312 L 1494.347656 387.09375 L 996.335938 1155.585938 Z M 0 509.921875 " clip-rule="nonzero"/></clipPath><clipPath id="fb6cd63d9c"><path d="M 0 509.921875 L 498.011719 -258.570312 L 1494.347656 387.09375 L 996.335938 1155.585938 Z M 0 509.921875 " clip-rule="nonzero"/></clipPath><clipPath id="98c0e0849b"><path d="M 0 509.921875 L 498.011719 -258.570312 L 1494.347656 387.09375 L 996.335938 1155.585938 Z M 0 509.921875 " clip-rule="nonzero"/></clipPath><clipPath id="04feeaed4a"><path d="M 125 420 L 322 420 L 322 599 L 125 599 Z M 125 420 " clip-rule="nonzero"/></clipPath><clipPath id="17956c2336"><path d="M 0 509.921875 L 498.011719 -258.570312 L 1494.347656 387.09375 L 996.335938 1155.585938 Z M 0 509.921875 " clip-rule="nonzero"/></clipPath><clipPath id="6398d72eb3"><path d="M 0 509.921875 L 498.011719 -258.570312 L 1494.347656 387.09375 L 996.335938 1155.585938 Z M 0 509.921875 " clip-rule="nonzero"/></clipPath><clipPath id="c202f23547"><path d="M 0 509.921875 L 498.011719 -258.570312 L 1494.347656 387.09375 L 996.335938 1155.585938 Z M 0 509.921875 " clip-rule="nonzero"/></clipPath><clipPath id="6eb8896bd6"><path d="M 535 237 L 677 237 L 677 452 L 535 452 Z M 535 237 " clip-rule="nonzero"/></clipPath><clipPath id="07f70d8d95"><path d="M 0 509.921875 L 498.011719 -258.570312 L 1494.347656 387.09375 L 996.335938 1155.585938 Z M 0 509.921875 " clip-rule="nonzero"/></clipPath><clipPath id="f2328751b1"><path d="M 0 509.921875 L 498.011719 -258.570312 L 1494.347656 387.09375 L 996.335938 1155.585938 Z M 0 509.921875 " clip-rule="nonzero"/></clipPath><clipPath id="0005dc74b5"><path d="M 0 509.921875 L 498.011719 -258.570312 L 1494.347656 387.09375 L 996.335938 1155.585938 Z M 0 509.921875 " clip-rule="nonzero"/></clipPath><clipPath id="93eb0d34f4"><path d="M 617 58 L 1017 58 L 1017 441 L 617 441 Z M 617 58 " clip-rule="nonzero"/></clipPath><clipPath id="45df5fa42f"><path d="M 0 509.921875 L 498.011719 -258.570312 L 1494.347656 387.09375 L 996.335938 1155.585938 Z M 0 509.921875 " clip-rule="nonzero"/></clipPath><clipPath id="5d575bb8cd"><path d="M 0 509.921875 L 498.011719 -258.570312 L 1494.347656 387.09375 L 996.335938 1155.585938 Z M 0 509.921875 " clip-rule="nonzero"/></clipPath><clipPath id="351898c041"><path d="M 0 509.921875 L 498.011719 -258.570312 L 1494.347656 387.09375 L 996.335938 1155.585938 Z M 0 509.921875 " clip-rule="nonzero"/></clipPath></defs><g clip-path="url(#cc8d68dde3)"><g clip-path="url(#69e68af86f)"><g clip-path="url(#d4b9b722dc)"><g clip-path="url(#c21ba6768d)"><path fill="#4d2e03" d="M 608.585938 540.414062 L 644.722656 569.160156 C 725.527344 605.601562 777.371094 626.582031 800.253906 632.105469 C 817.375 636.5 839.542969 639.976562 866.761719 642.539062 C 879.007812 643.617188 905.664062 643.441406 946.734375 642.007812 C 957.574219 642.824219 965.222656 644.484375 969.6875 646.988281 C 976.070312 650.371094 980.160156 654.441406 981.964844 659.203125 C 983.539062 668.007812 982.207031 675.039062 977.96875 680.296875 C 974.867188 684.984375 969.527344 689.660156 961.957031 694.324219 L 923.480469 711.667969 C 938.464844 721.269531 949.191406 726.136719 955.660156 726.265625 C 964.269531 727.832031 972.898438 727.539062 981.550781 725.386719 C 1016.03125 713.511719 1039.886719 690.539062 1053.117188 656.46875 C 1059.253906 635.535156 1059.355469 620.101562 1053.429688 610.164062 C 1049.984375 602.957031 1035.066406 587.808594 1008.671875 564.714844 C 1002.992188 556.941406 1000.539062 550.957031 1001.3125 546.769531 C 1001.726562 541.488281 1004.136719 536.6875 1008.542969 532.367188 C 1030.902344 516.921875 1044.992188 505.773438 1050.808594 498.90625 C 1061.734375 484.988281 1066.523438 473.90625 1065.179688 465.667969 C 1035.75 486.574219 1018.417969 496.140625 1013.183594 494.375 C 1010.820312 493.675781 1009.472656 492.382812 1009.136719 490.496094 C 1008.46875 477.058594 1007.03125 467.753906 1004.832031 462.589844 C 1002.046875 455.96875 997.421875 450.480469 990.953125 446.117188 C 985.796875 442.089844 975.667969 439.308594 960.554688 437.761719 C 951.675781 437.5 942.183594 438.800781 932.070312 441.679688 C 916.3125 450.117188 914.636719 459.875 927.046875 470.945312 C 931.972656 473.136719 942.835938 466.582031 959.632812 451.289062 C 962.3125 449.777344 964.992188 451.789062 967.671875 457.328125 C 971.230469 475.753906 968.15625 491.316406 958.453125 504.019531 C 943.886719 521.789062 934.332031 531.695312 929.785156 533.75 C 922.394531 539.417969 914.320312 544.460938 905.566406 548.882812 C 888.054688 557.71875 867.820312 564.050781 844.863281 567.886719 C 809.410156 573.90625 763.023438 573.386719 705.703125 566.320312 C 661.230469 560.835938 628.859375 552.199219 608.585938 540.414062 " fill-opacity="1" fill-rule="nonzero"/></g></g></g></g><g clip-path="url(#83585d8983)"><g clip-path="url(#1ad6e2f3aa)"><g clip-path="url(#ebc9377860)"><g clip-path="url(#acd4fab83d)"><path fill="#4d2e03" d="M 913.652344 444.265625 L 912.023438 447.183594 C 911.179688 448.082031 910.449219 451.210938 909.824219 456.570312 C 909.785156 458.761719 910.046875 461.027344 910.605469 463.363281 C 910.507812 464.441406 912.019531 468.109375 915.136719 474.359375 C 915.605469 475.007812 917.171875 476.246094 919.839844 478.070312 C 924.289062 480.59375 928.953125 481.351562 933.832031 480.339844 L 939.003906 479.28125 C 952.230469 473.824219 959.074219 471.355469 959.53125 471.875 C 961.496094 471.824219 963.023438 473.214844 964.117188 476.046875 C 967.238281 486.054688 964.742188 499.601562 956.632812 516.675781 C 950.300781 529.34375 939.46875 542.871094 924.132812 557.253906 L 962.710938 600.589844 C 982.167969 594.179688 999.847656 583.84375 1015.753906 569.574219 L 1023.558594 562.117188 C 1028.664062 556.925781 1033.570312 551.296875 1038.28125 545.234375 C 1050.464844 526.714844 1057.550781 515.234375 1059.542969 510.800781 C 1067.972656 495.253906 1073.796875 481.1875 1077.019531 468.601562 C 1080.03125 453.609375 1080.859375 444.90625 1079.496094 442.488281 C 1079.195312 442.222656 1078.402344 442.476562 1077.113281 443.25 C 1068.890625 451.773438 1061.632812 458.226562 1055.339844 462.617188 C 1040.363281 472.628906 1031.816406 477.539062 1029.703125 477.347656 C 1028.316406 477.4375 1027.367188 476.992188 1026.855469 476.015625 C 1023.726562 463.710938 1018.445312 453.953125 1011.019531 446.734375 C 1004.28125 439.523438 993.953125 434.066406 980.039062 430.363281 C 949.0625 422.355469 926.9375 426.992188 913.652344 444.265625 " fill-opacity="1" fill-rule="nonzero"/></g></g></g></g><g clip-path="url(#d1a821af40)"><g clip-path="url(#4a44948381)"><g clip-path="url(#08c430af6d)"><g clip-path="url(#0d4b0a4734)"><path fill="#4d2e03" d="M 991.207031 551.449219 L 1012.046875 561.757812 C 1066.203125 587.914062 1095.304688 600.839844 1099.355469 600.53125 C 1115.929688 605.011719 1130.667969 608.167969 1143.5625 609.996094 C 1152.953125 611.902344 1172.992188 613.363281 1203.683594 614.382812 C 1207.523438 614.035156 1204.699219 604.492188 1195.214844 585.753906 C 1190.332031 576.363281 1181.757812 565.515625 1169.484375 553.210938 C 1168.460938 551.546875 1168.304688 550.207031 1169.023438 549.191406 C 1169.894531 548.527344 1171.875 548.34375 1174.96875 548.636719 L 1266.574219 556.863281 C 1267.765625 548.535156 1266.566406 541.476562 1262.980469 535.691406 C 1259.632812 528.753906 1254.371094 520.78125 1247.207031 511.769531 C 1248.59375 508.183594 1257.109375 506.671875 1272.761719 507.234375 C 1280.816406 509.085938 1287.257812 512.6875 1292.082031 518.035156 C 1297.40625 525.480469 1300.113281 530.472656 1300.210938 533.007812 C 1301.410156 536.988281 1302.207031 541.410156 1302.597656 546.261719 C 1302.597656 553.308594 1300.386719 561.078125 1295.972656 569.578125 L 1267.441406 608.042969 C 1265.507812 613.378906 1265.417969 617.546875 1267.175781 620.542969 C 1270.449219 627.699219 1276.449219 632.230469 1285.164062 634.136719 C 1291.019531 635.5 1298.144531 635.828125 1306.535156 635.113281 C 1315.757812 633 1321.0625 631.484375 1322.449219 630.570312 C 1335.292969 626.011719 1345.394531 616.699219 1352.746094 602.628906 C 1361.699219 585 1364.214844 565.886719 1360.28125 545.292969 C 1358.972656 538.425781 1356.941406 531.398438 1354.199219 524.203125 C 1353 519.777344 1346.503906 509.605469 1334.714844 493.679688 C 1329.660156 487.671875 1324.121094 482.179688 1318.101562 477.203125 L 1308.707031 470.128906 C 1302.203125 465.671875 1295.214844 461.730469 1287.746094 458.300781 L 1276.179688 453.550781 L 1251.351562 447.921875 L 1225.835938 445.140625 L 1199.628906 445.199219 L 1172.730469 448.101562 L 1145.144531 453.84375 L 1116.867188 462.429688 C 1097.789062 469.101562 1078.246094 477.671875 1058.246094 488.132812 L 1027.898438 505.246094 L 991.207031 551.449219 " fill-opacity="1" fill-rule="nonzero"/></g></g></g></g><g clip-path="url(#5eface51be)"><g clip-path="url(#6944e600b9)"><g clip-path="url(#a846cd59e1)"><g clip-path="url(#969271bbd9)"><path fill="#4d2e03" d="M 1026.574219 608.773438 L 1030.089844 645.996094 C 1042.152344 643.417969 1049.371094 642.308594 1051.753906 642.65625 C 1056.550781 642.457031 1061.332031 642.613281 1066.101562 643.132812 C 1075.648438 644.171875 1085.140625 646.652344 1094.585938 650.574219 C 1106.039062 655.4375 1117.15625 661.613281 1127.933594 669.097656 L 1135.957031 674.953125 C 1141.261719 679.023438 1146.480469 683.421875 1151.613281 688.148438 C 1156.75 692.871094 1161.800781 697.925781 1166.769531 703.308594 C 1169.738281 706.507812 1172.328125 709.648438 1174.546875 712.734375 C 1176.761719 715.820312 1178.605469 718.847656 1180.070312 721.820312 L 1181.988281 726.238281 C 1184.167969 732.070312 1184.847656 737.679688 1184.027344 743.058594 C 1183.5625 746.515625 1181.742188 749.515625 1178.5625 752.054688 C 1163.910156 759.203125 1154.640625 764.75 1150.753906 768.695312 C 1148.707031 772.175781 1147.730469 774.925781 1147.824219 776.957031 C 1148.234375 779.519531 1148.75 780.941406 1149.375 781.214844 C 1150.0625 782.011719 1150.972656 782.710938 1152.113281 783.308594 C 1155.335938 784.613281 1158.421875 785.589844 1161.367188 786.242188 L 1165.683594 786.980469 C 1168.488281 787.308594 1171.160156 787.3125 1173.691406 786.992188 C 1178.753906 786.355469 1183.261719 784.417969 1187.214844 781.183594 C 1192.804688 776.539062 1196.675781 771.570312 1198.820312 766.28125 C 1200.613281 761.425781 1201.515625 758.417969 1201.527344 757.246094 C 1202.292969 752.972656 1202.476562 748.367188 1202.078125 743.421875 C 1200.128906 729.429688 1195.0625 715.765625 1186.886719 702.417969 C 1182.796875 695.75 1177.933594 689.15625 1172.289062 682.644531 C 1166.648438 676.136719 1160.222656 669.707031 1153.023438 663.355469 L 1141.640625 653.894531 C 1132.722656 647.328125 1123.894531 641.476562 1115.15625 636.34375 L 1102.105469 629.179688 C 1093.453125 624.765625 1084.882812 621.066406 1076.40625 618.082031 C 1059.445312 612.113281 1042.835938 609.011719 1026.574219 608.773438 " fill-opacity="1" fill-rule="nonzero"/></g></g></g></g><g clip-path="url(#ebf8e69d29)"><g clip-path="url(#3de03c61be)"><g clip-path="url(#bbd7502ba1)"><g clip-path="url(#9c916c480d)"><path fill="#4d2e03" d="M 1026.207031 645.519531 L 1034.371094 647.5 L 1042.144531 650.25 L 1049.523438 653.777344 L 1056.507812 658.074219 L 1063.09375 663.144531 C 1071.609375 670.421875 1079.070312 679.765625 1085.480469 691.164062 C 1090.953125 701.554688 1093.871094 710.824219 1094.230469 718.964844 C 1094.507812 723.398438 1093.90625 727.238281 1092.417969 730.488281 C 1090.96875 733.6875 1089.972656 735.660156 1089.433594 736.40625 C 1087.753906 739.296875 1085.292969 742.738281 1082.054688 746.726562 L 1081.648438 748.183594 C 1081.539062 749.074219 1081.75 749.792969 1082.285156 750.351562 C 1083.902344 751.507812 1086.078125 752.40625 1088.8125 753.042969 C 1093.980469 753.980469 1098.273438 754.375 1101.691406 754.21875 C 1104.015625 754.152344 1106.183594 753.710938 1108.191406 752.90625 C 1109.785156 752.507812 1112.046875 750.925781 1114.972656 748.15625 L 1118.542969 741.671875 C 1122.378906 733.15625 1123.347656 723.867188 1121.445312 713.8125 L 1119.480469 706.121094 C 1117.816406 700.902344 1115.429688 695.488281 1112.328125 689.882812 C 1101.199219 669.625 1084.125 653.445312 1061.109375 641.339844 C 1052.121094 636.609375 1044.207031 633.847656 1037.371094 633.058594 L 1026.207031 645.519531 " fill-opacity="1" fill-rule="nonzero"/></g></g></g></g><g clip-path="url(#5d6d03a73c)"><g clip-path="url(#ecf7520c60)"><g clip-path="url(#43053bbd38)"><g clip-path="url(#8d30e84b63)"><path fill="#4d2e03" d="M 996.5625 336.761719 L 995.734375 338.082031 C 990.503906 346.660156 988.53125 354.011719 989.8125 360.136719 C 990.679688 366.15625 993.996094 370.714844 999.746094 373.824219 C 1000.421875 375.054688 1006.109375 376.570312 1016.808594 378.371094 C 1023.925781 376.6875 1028.59375 374.765625 1030.8125 372.601562 C 1036.804688 367.417969 1039.6875 363.9375 1039.457031 362.148438 C 1039.363281 361.890625 1039.183594 361.707031 1038.917969 361.589844 C 1036.171875 362.527344 1033.722656 362.902344 1031.566406 362.71875 C 1030.9375 362.847656 1029.484375 362.398438 1027.214844 361.363281 C 1023.777344 359.078125 1022.640625 355.929688 1023.800781 351.925781 C 1024.804688 349 1027.414062 346.292969 1031.636719 343.8125 C 1034.183594 341.695312 1038.585938 340.484375 1044.839844 340.171875 C 1051.1875 340.1875 1058.605469 344.410156 1067.097656 352.84375 C 1069.292969 355.429688 1071.191406 358.335938 1072.785156 361.5625 C 1074.382812 364.789062 1075.671875 368.335938 1076.664062 372.199219 L 1077.925781 378.238281 C 1080.050781 403.441406 1074.875 427.246094 1062.410156 449.648438 C 1049.742188 471.390625 1032.511719 490.542969 1010.710938 507.109375 L 1087.1875 518.644531 C 1093.003906 515.609375 1098.253906 512.125 1102.9375 508.199219 C 1106.769531 505.503906 1111.738281 499.902344 1117.847656 491.382812 C 1129.492188 473.414062 1133.941406 449.777344 1131.191406 420.476562 L 1129.820312 409.222656 C 1126.882812 397.300781 1123.277344 386.476562 1119.007812 376.757812 C 1114.742188 367.039062 1109.808594 358.421875 1104.214844 350.910156 L 1095.320312 340.472656 L 1085.429688 331.683594 L 1074.546875 324.554688 L 1062.664062 319.078125 L 1049.78125 315.257812 C 1038.582031 314.578125 1028.855469 315.617188 1020.601562 318.371094 L 1014.691406 320.761719 C 1010.933594 322.570312 1007.542969 324.808594 1004.519531 327.472656 C 1001.5 330.136719 998.847656 333.234375 996.5625 336.761719 " fill-opacity="1" fill-rule="nonzero"/></g></g></g></g><g clip-path="url(#28ff496fdf)"><g clip-path="url(#1b3ec83aa7)"><g clip-path="url(#1607698586)"><g clip-path="url(#eda1578c66)"><path fill="#4d2e03" d="M 556.730469 508.117188 L 556.699219 508.191406 C 574.949219 528.671875 595.144531 546.503906 617.285156 561.683594 C 628.441406 569.480469 640.167969 576.820312 652.464844 583.710938 C 684.21875 600.128906 703.953125 609.433594 711.679688 611.625 C 758.332031 628.34375 797.652344 639.300781 829.644531 644.496094 C 839.652344 646.316406 854.367188 648.058594 873.789062 649.710938 L 954.199219 655.386719 C 972.335938 658.066406 985.910156 662.011719 994.925781 667.21875 L 916.640625 577.269531 C 934.730469 564.949219 950.046875 553.789062 962.601562 543.792969 C 982.671875 527.101562 994.039062 516.417969 996.710938 511.75 C 973.304688 526.820312 945.464844 538.855469 913.191406 547.847656 L 888.152344 554.027344 C 870.910156 557.765625 852.554688 560.742188 833.09375 562.960938 C 813.632812 565.183594 793.058594 566.644531 771.378906 567.34375 C 707.054688 567.019531 635.503906 547.273438 556.730469 508.117188 M 995.605469 668 L 1009.101562 683.507812 L 1008.441406 681.480469 L 1007.570312 679.523438 L 1006.503906 677.632812 L 1005.226562 675.808594 L 1003.746094 674.054688 L 1002.0625 672.367188 L 1000.171875 670.753906 L 998.078125 669.203125 L 995.78125 667.722656 L 995.605469 668 " fill-opacity="1" fill-rule="nonzero"/></g></g></g></g><g clip-path="url(#db2b43c37f)"><g clip-path="url(#f3994c37d0)"><g clip-path="url(#0f0a2085cc)"><g clip-path="url(#059c205830)"><path fill="#4d2e03" d="M 573.1875 494.992188 L 602.882812 508.6875 C 641.234375 525.324219 674.636719 535.472656 703.085938 539.132812 L 723.496094 540.664062 L 742.042969 539.757812 L 758.738281 536.421875 L 773.574219 530.648438 L 776.605469 528.820312 C 783.984375 524.027344 787.089844 518.371094 785.917969 511.84375 C 784.957031 507.753906 779.074219 502.148438 768.253906 495.03125 C 767.433594 494.128906 767.429688 493.171875 768.246094 492.167969 L 809.722656 472.898438 C 818.273438 468.484375 824.980469 464.542969 829.84375 461.078125 C 845.925781 449.527344 854.535156 439.621094 855.671875 431.351562 C 855.972656 421.71875 851.246094 414.816406 841.5 410.636719 C 837.117188 408.675781 824.558594 407.226562 803.816406 406.292969 C 803.3125 405.734375 803.203125 404.996094 803.484375 404.078125 C 807.910156 395.441406 809.785156 389.976562 809.113281 387.675781 C 808.714844 382.597656 807.015625 379.429688 804.007812 378.167969 C 799.515625 375.816406 793.6875 375.757812 786.515625 377.996094 C 777.332031 381.429688 769.917969 385.039062 764.269531 388.824219 C 752.640625 395.988281 743.179688 402.46875 735.882812 408.269531 C 703.617188 435.898438 679.890625 455.160156 664.703125 466.058594 C 651.03125 475.671875 638.507812 483.375 627.136719 489.167969 C 620.132812 492.648438 614.410156 494.773438 609.96875 495.539062 L 573.1875 494.992188 " fill-opacity="1" fill-rule="nonzero"/></g></g></g></g><g clip-path="url(#d2a9d6755c)"><g clip-path="url(#a7ec227748)"><g clip-path="url(#c75d588e56)"><g clip-path="url(#cb2da763a7)"><path fill="#4d2e03" d="M 638.597656 510.066406 L 643.539062 510.140625 C 656.589844 510.234375 668.605469 509.585938 679.578125 508.191406 L 638.773438 509.792969 L 638.597656 510.066406 " fill-opacity="1" fill-rule="nonzero"/></g></g></g></g><g clip-path="url(#4b8b64fe43)"><g clip-path="url(#2245175a4a)"><g clip-path="url(#62c633dde0)"><g clip-path="url(#98380cf058)"><path fill="#4d2e03" d="M 707.953125 528.277344 C 648.03125 520.953125 595.628906 507.273438 550.734375 487.234375 C 591.339844 488.625 624.921875 481.183594 652.722656 467.324219 C 678.210938 454.621094 719.304688 435.328125 762.304688 394.625 Z M 707.953125 528.277344 " fill-opacity="1" fill-rule="nonzero"/></g></g></g></g><g clip-path="url(#ce9481083d)"><g clip-path="url(#8e7251f5de)"><g clip-path="url(#fb6cd63d9c)"><g clip-path="url(#98c0e0849b)"><path fill="#4d2e03" d="M 100.292969 355.625 L 98.214844 359.289062 C 93.515625 368.980469 95.554688 378.03125 104.332031 386.441406 C 116.921875 392.429688 126.089844 394.363281 131.835938 392.238281 C 140.441406 390.65625 144.917969 385.992188 145.261719 378.246094 C 129.082031 371.628906 124.300781 363.90625 130.917969 355.082031 C 138.964844 348.042969 151.148438 346.253906 167.46875 349.710938 C 177.292969 352.273438 185.152344 357.601562 191.046875 365.695312 C 197.550781 377.027344 200.867188 384.652344 200.988281 388.578125 C 204.644531 400.667969 203.6875 416.800781 198.121094 436.988281 C 194.90625 446.242188 191.808594 452.859375 188.832031 456.832031 C 184.886719 463.558594 172.164062 480.15625 150.667969 506.632812 C 147.582031 510.976562 144.726562 515.921875 142.097656 521.472656 C 132.96875 542.453125 131.992188 556.320312 139.171875 563.078125 L 160.304688 565.089844 C 212.542969 585.03125 237.726562 593.921875 235.859375 591.765625 C 244.042969 593.984375 277.003906 594.65625 334.734375 593.785156 C 343.328125 594.890625 353.316406 598.878906 364.699219 605.753906 C 351.992188 584.125 334.699219 561.09375 312.820312 536.65625 C 358.996094 537.960938 377.410156 524.460938 368.058594 496.148438 C 364.605469 492.253906 360.425781 489.015625 355.519531 486.433594 C 353.972656 484.324219 344.976562 481.917969 328.53125 479.214844 C 314.355469 477.96875 297.273438 479.339844 277.28125 483.328125 C 284.125 477.738281 290.78125 472.953125 297.253906 468.972656 C 316.835938 456.773438 335.800781 450.226562 354.148438 449.339844 C 389.839844 449.382812 418.453125 454.835938 439.988281 465.703125 C 456.945312 474.855469 464.859375 487.097656 463.730469 502.433594 C 466.660156 507.371094 454.554688 520.144531 427.410156 540.761719 C 422.78125 547.785156 421.15625 553.34375 422.542969 557.445312 C 430.996094 570.683594 445.828125 575.199219 467.035156 570.996094 C 483.414062 567.589844 496.523438 554.511719 506.371094 531.757812 C 509.417969 521.949219 509.597656 511.449219 506.910156 500.265625 C 507.136719 497.6875 503.507812 488.914062 496.023438 473.953125 C 520.257812 475.625 543.046875 475.179688 564.398438 472.613281 L 595.34375 467.179688 C 615.257812 462.496094 633.726562 455.699219 650.753906 446.78125 C 667.785156 437.863281 683.375 426.824219 697.527344 413.667969 C 708.8125 405.230469 724.382812 385.242188 744.238281 353.707031 C 753.632812 336.292969 759.914062 323.226562 763.089844 314.507812 C 771.945312 292.816406 774.597656 283.46875 771.050781 286.472656 C 761.011719 295.914062 731.289062 329.605469 681.882812 387.550781 C 666.660156 402.464844 656.28125 410.328125 650.753906 411.148438 C 660.496094 392.109375 667.378906 374.835938 671.398438 359.335938 C 675.417969 343.835938 676.574219 330.105469 674.871094 318.152344 L 670.171875 301.542969 C 665.609375 291.355469 658.179688 282.941406 647.894531 276.296875 L 630.316406 267.65625 C 611.332031 261.714844 601.160156 259.679688 599.804688 261.546875 C 561.285156 262.964844 545.46875 278.847656 552.34375 309.199219 C 559.839844 324.746094 565.675781 333.140625 569.859375 334.382812 C 575.097656 337.933594 580.785156 338.953125 586.925781 337.449219 C 593.628906 334.402344 597.414062 329.566406 598.277344 322.953125 C 583.765625 323.476562 573.449219 321.355469 567.332031 316.585938 C 561.515625 309.472656 559.285156 304.410156 560.640625 301.394531 C 560.730469 297.027344 561.867188 291.996094 564.054688 286.308594 C 567.804688 279.464844 577.445312 274.753906 592.96875 272.179688 C 602.375 271.761719 613.132812 274.023438 625.246094 278.964844 C 636.910156 292.179688 642.828125 300.667969 643 304.425781 C 645.597656 310.777344 647.292969 317.601562 648.089844 324.882812 C 649.828125 339.089844 647.675781 355.875 641.628906 375.238281 C 629.496094 403.785156 590.859375 424.164062 525.722656 436.359375 C 502.789062 439.117188 485.421875 439.253906 473.609375 436.78125 C 404.667969 417.003906 363.699219 407.4375 350.707031 408.074219 C 332.027344 408.675781 316.496094 410.394531 304.125 413.222656 C 280.933594 419.679688 265.203125 425.996094 256.9375 432.167969 C 251.378906 366.980469 229.097656 331.1875 190.089844 324.78125 C 177.085938 322.648438 162.226562 323.777344 145.507812 328.175781 L 119.039062 337.21875 C 109.011719 344.945312 102.761719 351.082031 100.292969 355.625 " fill-opacity="1" fill-rule="nonzero"/></g></g></g></g><g clip-path="url(#04feeaed4a)"><g clip-path="url(#17956c2336)"><g clip-path="url(#6398d72eb3)"><g clip-path="url(#c202f23547)"><path fill="#4d2e03" d="M 147.714844 504.425781 L 146.621094 506.136719 C 139.535156 516.9375 134.207031 529.980469 130.632812 545.277344 C 127.078125 564.570312 125.417969 579.828125 125.652344 591.054688 C 141.484375 584.230469 157.8125 581.625 174.636719 583.238281 C 179.023438 583.347656 185.414062 584.046875 193.816406 585.335938 C 213.78125 590.894531 229.621094 594.609375 241.332031 596.476562 C 244.570312 597.460938 255.113281 598.144531 272.960938 598.527344 C 284.417969 598.320312 295.90625 596.835938 307.429688 594.078125 C 311.898438 593.21875 315.679688 590.800781 318.773438 586.824219 C 321.90625 580.078125 322.03125 574.542969 319.140625 570.222656 L 316.085938 566.300781 C 304.753906 556.175781 298.058594 549.8125 295.992188 547.222656 L 210.714844 420.472656 C 209.109375 426.183594 205.832031 432.398438 200.878906 439.117188 C 182.195312 460.03125 170.464844 473.660156 165.6875 479.996094 C 158.1875 489.367188 152.195312 497.507812 147.714844 504.425781 " fill-opacity="1" fill-rule="nonzero"/></g></g></g></g><g clip-path="url(#6eb8896bd6)"><g clip-path="url(#07f70d8d95)"><g clip-path="url(#f2328751b1)"><g clip-path="url(#0005dc74b5)"><path fill="#4d2e03" d="M 547.78125 262.277344 L 547.144531 263.28125 C 538.238281 279.835938 534.503906 294.191406 535.949219 306.359375 C 536.695312 314.722656 539.449219 322.457031 544.214844 329.554688 C 547.441406 333.242188 550.707031 336.222656 554.011719 338.5 L 558.992188 341.390625 C 565.675781 344.539062 572.507812 344.871094 579.492188 342.386719 C 582.984375 341.144531 586.515625 339.203125 590.082031 336.554688 C 592.421875 334.148438 594.339844 331.414062 595.828125 328.359375 C 597.882812 324.4375 598.34375 319.566406 597.210938 313.738281 C 597.035156 311.441406 592.671875 304.429688 584.121094 292.699219 C 583.65625 291.941406 583.261719 290.691406 582.945312 288.9375 C 582.859375 284.121094 585.527344 279.824219 590.953125 276.050781 C 595.371094 273.875 598.984375 272.804688 601.785156 272.84375 C 607.824219 273.589844 613.234375 275.003906 618.015625 277.078125 C 627.578125 281.230469 634.625 288.039062 639.160156 297.5 C 641.425781 302.230469 643.0625 307.628906 644.074219 313.6875 L 645.117188 323.277344 C 645.09375 332.53125 644.679688 341.359375 643.882812 349.753906 C 641.210938 370 639.148438 381.628906 637.6875 384.652344 C 633.78125 398.875 628.328125 411.378906 621.335938 422.171875 C 617.941406 427.40625 614.1875 432.242188 610.066406 436.667969 C 607.242188 440.125 601.464844 445.121094 592.742188 451.660156 L 642.375 443.164062 C 663.535156 394.085938 674.402344 362.757812 674.976562 349.175781 C 676.625 343.402344 676.796875 332.242188 675.488281 315.707031 C 675.523438 313.476562 674.078125 305.867188 671.15625 292.878906 L 666.097656 280.6875 C 662.335938 273.070312 657.789062 266.464844 652.457031 260.871094 L 643.875 253.246094 L 634.117188 247.136719 L 623.183594 242.550781 L 611.078125 239.484375 C 602.613281 237.945312 593.367188 237.421875 583.335938 237.910156 C 579.886719 238.710938 576.621094 239.738281 573.535156 240.984375 C 571.765625 241.332031 567.546875 243.703125 560.871094 248.101562 C 555.785156 251.933594 551.421875 256.660156 547.78125 262.277344 " fill-opacity="1" fill-rule="nonzero"/></g></g></g></g><g clip-path="url(#93eb0d34f4)"><g clip-path="url(#45df5fa42f)"><g clip-path="url(#5d575bb8cd)"><g clip-path="url(#351898c041)"><path fill="#4d2e03" d="M 701.453125 109.53125 L 698.648438 114.214844 C 690.75 130.945312 691.351562 142.203125 700.460938 147.984375 C 701.558594 147.964844 702.738281 147.476562 704.003906 146.519531 C 715.820312 126.925781 725.019531 115.085938 731.59375 110.996094 C 746.300781 104.054688 759.445312 105.660156 771.035156 115.804688 C 791.023438 131.523438 796.941406 157.203125 788.78125 192.835938 C 777.015625 236.230469 756.8125 278.617188 728.175781 319.988281 C 709.175781 347.75 693.191406 368.863281 680.21875 383.332031 C 673.3125 391.164062 666.738281 397.933594 660.496094 403.640625 C 654.257812 409.347656 648.355469 413.996094 642.78125 417.578125 L 634.671875 422.15625 L 617.5625 440.261719 C 634.058594 440.519531 650.816406 436.535156 667.835938 428.3125 C 672.007812 427.582031 684.921875 419.027344 706.574219 402.648438 C 715.277344 395.359375 724.050781 387.007812 732.886719 377.589844 C 741.949219 368.410156 752.546875 354.894531 764.675781 337.046875 L 879.503906 160.429688 C 897.59375 136.984375 913.664062 121.777344 927.714844 114.808594 C 938.054688 109.445312 947.460938 108.847656 955.933594 113.015625 L 962.113281 117.035156 C 966.117188 120.3125 969.886719 124.78125 973.421875 130.441406 C 977.953125 137.132812 980.261719 142.953125 980.347656 147.90625 C 984.425781 168.859375 975.292969 196.558594 952.953125 230.992188 C 978.816406 229.671875 995.847656 220.796875 1004.046875 204.367188 C 1016.570312 179.015625 1019.730469 151.835938 1013.539062 122.828125 C 1001.25 83.359375 986.109375 62.359375 968.125 59.824219 C 937.574219 55.351562 910.296875 63.03125 886.296875 82.863281 C 858.679688 106.320312 835.9375 143.695312 818.066406 194.988281 C 822.648438 172.425781 823.929688 152.652344 821.910156 135.675781 C 820.898438 127.183594 819.0625 119.394531 816.398438 112.300781 C 813.734375 105.207031 810.246094 98.8125 805.933594 93.113281 L 798.839844 85.09375 C 783.285156 75.890625 773.863281 71.808594 770.578125 72.847656 C 764.191406 71.921875 757.726562 72.203125 751.195312 73.675781 C 727.910156 81.375 711.332031 93.324219 701.453125 109.53125 " fill-opacity="1" fill-rule="nonzero"/></g></g></g></g></svg>