<svg xmlns="http://www.w3.org/2000/svg" xmlns:xlink="http://www.w3.org/1999/xlink" width="1920" zoomAndPan="magnify" viewBox="0 0 1440 809.999993" height="1080" preserveAspectRatio="xMidYMid meet" version="1.0"><defs><clipPath id="1666d0e76e"><path d="M 975 435 L 1338 435 L 1338 703.5 L 975 703.5 Z M 975 435 " clip-rule="nonzero"/></clipPath></defs><path fill="#25011e" d="M 1070.53125 368.96875 L 1070.675781 369.171875 L 1070.679688 369.171875 C 1070.636719 369.195312 1070.597656 369.222656 1070.554688 369.246094 L 1070.613281 369.246094 Z M 931.433594 250.847656 C 922.003906 250.847656 912.105469 251.96875 901.738281 254.21875 L 901.71875 254.21875 C 883.367188 258.785156 865.660156 266.882812 848.589844 278.511719 C 847.585938 279.195312 846.488281 279.730469 845.34375 280.101562 L 845.359375 280.214844 L 845.242188 280.214844 C 836.625 285.410156 801.179688 313.953125 738.898438 365.839844 L 738.148438 366.421875 C 717.652344 381.039062 697.207031 393.023438 676.808594 402.375 L 676.769531 402.390625 L 676.765625 402.390625 C 653.914062 412.769531 631.144531 420.042969 608.460938 424.214844 L 608.464844 424.261719 L 608.347656 424.261719 C 596.609375 427.085938 569.207031 429.429688 526.148438 431.296875 L 526.160156 431.859375 L 526.085938 431.859375 C 529.371094 435.992188 536.160156 441.367188 546.449219 447.988281 L 546.847656 448.253906 C 572.0625 465.867188 602.378906 479.734375 637.800781 489.855469 L 637.796875 489.855469 L 638.199219 489.976562 C 670.003906 500.207031 698.316406 505.324219 723.132812 505.324219 C 742.457031 505.324219 759.667969 502.222656 774.761719 496.027344 L 774.8125 496.027344 L 775.101562 495.667969 C 768.105469 450.835938 787.980469 415.617188 834.726562 390.003906 C 835.144531 389.773438 835.570312 389.570312 836.015625 389.390625 C 855.523438 381.4375 873.253906 377.464844 889.207031 377.464844 C 914.992188 377.464844 936.140625 387.859375 952.65625 408.652344 C 952.976562 409.058594 953.242188 409.433594 953.515625 409.878906 C 970.574219 437.625 970.632812 462.148438 953.691406 483.449219 C 952.988281 484.335938 952.167969 485.121094 951.25 485.785156 C 937.605469 495.695312 925.105469 500.648438 913.757812 500.648438 C 900.839844 500.648438 889.386719 494.21875 879.398438 481.367188 C 875.160156 475.914062 876.148438 468.050781 881.597656 463.8125 C 883.882812 462.039062 886.585938 461.179688 889.265625 461.179688 C 892.996094 461.179688 896.6875 462.839844 899.152344 466.015625 C 903.503906 471.613281 908.746094 474.414062 914.886719 474.414062 C 920.71875 474.414062 927.339844 471.882812 934.753906 466.816406 L 934.785156 466.816406 L 935.015625 466.6875 C 943.472656 455.09375 942.828125 441.011719 933.078125 424.445312 L 932.957031 424.445312 L 933.0625 424.210938 C 921.75 409.96875 906.773438 402.847656 888.132812 402.847656 C 875.632812 402.847656 861.492188 406.054688 845.707031 412.464844 L 845.726562 412.574219 L 845.609375 412.574219 C 802.8125 436.492188 789.695312 470.902344 806.261719 515.800781 L 806.578125 516.003906 L 806.492188 516.003906 C 827.582031 554.5625 870.429688 573.839844 935.042969 573.839844 C 936.761719 573.839844 938.496094 573.832031 940.242188 573.808594 L 940.261719 573.808594 L 940.378906 573.800781 L 940.402344 573.796875 C 968.53125 569.9375 998.148438 559.476562 1029.261719 542.40625 C 1030.085938 541.957031 1030.953125 541.597656 1031.851562 541.351562 L 1031.9375 541.253906 L 1031.867188 541.339844 C 1040.925781 538.453125 1074.765625 512.792969 1133.386719 464.367188 L 1133.382812 464.367188 L 1134.167969 463.769531 L 1134.175781 463.765625 L 1134.179688 463.761719 C 1146.410156 455.171875 1158.804688 448.550781 1171.363281 443.898438 L 1171.375 443.890625 L 1171.367188 443.890625 C 1184.453125 438.910156 1196.25 436.058594 1206.761719 435.332031 L 1206.757812 435.332031 L 1206.882812 435.324219 L 1206.914062 435.320312 C 1207.347656 435.246094 1207.796875 435.183594 1208.261719 435.136719 L 1208.269531 435.128906 L 1208.265625 435.128906 C 1209.46875 434.996094 1211.316406 434.929688 1213.800781 434.929688 C 1223.984375 434.929688 1244.828125 436.046875 1276.332031 438.289062 L 1276.394531 438.285156 L 1276.53125 438.285156 C 1276.96875 438.296875 1277.417969 438.300781 1277.871094 438.300781 C 1283.75 438.300781 1291.789062 437.359375 1301.992188 435.480469 C 1333.597656 429.433594 1361.414062 418.492188 1385.441406 402.648438 L 1385.476562 402.621094 L 1385.488281 402.613281 L 1385.492188 402.613281 C 1386.613281 401.828125 1387.777344 401.011719 1388.980469 400.164062 L 1388.820312 399.597656 L 1388.695312 399.589844 L 1388.644531 399.589844 C 1376.964844 400.75 1366.28125 401.328125 1356.597656 401.328125 C 1342.476562 401.328125 1330.480469 400.101562 1320.609375 397.644531 L 1320.484375 397.644531 L 1320.484375 397.597656 C 1306.234375 394.554688 1292.59375 389.144531 1279.566406 381.367188 C 1279.070312 381.070312 1278.59375 380.742188 1278.144531 380.378906 C 1230.667969 342.234375 1201.667969 322.558594 1191.144531 321.355469 C 1190.238281 321.25 1189.34375 321.050781 1188.480469 320.75 C 1179.800781 317.75 1171.335938 316.25 1163.085938 316.25 C 1151.621094 316.25 1140.566406 319.144531 1129.925781 324.933594 C 1134.28125 321.5 1136.140625 315.53125 1134.113281 310.054688 L 1134.109375 310.042969 C 1132.484375 305.660156 1130.199219 301.648438 1127.335938 298.058594 L 1127.109375 297.941406 L 1126.988281 297.933594 L 1126.859375 297.953125 L 1126.84375 297.957031 L 1126.832031 297.964844 C 1123.105469 299.546875 1119.414062 301.386719 1115.75 303.476562 C 1110.753906 306.332031 1108.339844 311.964844 1109.347656 317.3125 C 1106.1875 311.023438 1097.566406 303.707031 1076.859375 300.015625 L 1076.792969 300.015625 L 1076.707031 299.988281 C 1073.519531 299.425781 1070.335938 299.140625 1067.167969 299.140625 C 1054.800781 299.140625 1042.613281 303.460938 1030.691406 312.25 C 1019.667969 320.382812 1013.578125 330.617188 1011.757812 342.84375 C 1009.441406 358.347656 1012.109375 370.957031 1019.621094 380.613281 C 1029.183594 392.902344 1039.367188 398.738281 1050.242188 398.738281 C 1056.476562 398.738281 1062.917969 396.820312 1069.566406 393.148438 L 1069.570312 393.140625 L 1069.566406 393.140625 C 1079.347656 387.730469 1080.996094 381.578125 1079.511719 374.992188 L 1079.503906 374.992188 L 1079.496094 374.921875 C 1079.140625 373.355469 1078.289062 371.644531 1074.839844 370.007812 L 1074.71875 370.007812 L 1074.671875 369.921875 C 1072.636719 368.976562 1071.464844 368.832031 1070.933594 368.832031 C 1070.816406 368.832031 1070.695312 368.839844 1070.640625 368.855469 C 1070.601562 368.863281 1070.554688 368.875 1070.496094 368.914062 L 1070.5 368.914062 C 1068.445312 370.1875 1066.167969 370.792969 1063.917969 370.792969 C 1059.75 370.792969 1055.667969 368.710938 1053.296875 364.910156 C 1049.640625 359.054688 1051.425781 351.332031 1057.28125 347.671875 C 1057.867188 347.308594 1058.460938 346.96875 1059.066406 346.664062 L 1059.074219 346.652344 L 1059.070312 346.652344 C 1060.714844 345.800781 1062.425781 345.140625 1064.21875 344.675781 L 1064.222656 344.667969 L 1064.21875 344.667969 C 1066.460938 344.074219 1068.703125 343.808594 1070.921875 343.808594 C 1075.882812 343.808594 1080.734375 345.148438 1085.214844 347.238281 L 1085.230469 347.238281 C 1094.945312 351.757812 1101.605469 359.335938 1103.890625 369.359375 L 1103.890625 369.363281 C 1108.109375 387.863281 1100.285156 404.730469 1081.695312 415.03125 L 1081.679688 415.03125 C 1071.011719 420.9375 1060.417969 423.777344 1050.238281 423.777344 C 1031.441406 423.777344 1013.96875 414.089844 999.875 395.972656 C 987.089844 379.542969 983.980469 359.476562 987.011719 339.152344 C 989.730469 320.917969 998.835938 305.46875 1013.699219 293.757812 L 1013.820312 293.757812 C 1015.078125 295.40625 1016.324219 297.105469 1017.554688 298.859375 C 1020.109375 302.511719 1024.183594 304.464844 1028.324219 304.464844 C 1030.925781 304.464844 1033.550781 303.695312 1035.847656 302.085938 C 1041.789062 297.925781 1043.234375 289.738281 1039.074219 283.792969 C 1038.175781 282.511719 1037.269531 281.253906 1036.359375 280.023438 L 1036.128906 279.898438 L 1036.007812 279.890625 L 1035.867188 279.914062 C 1028.8125 282.867188 1022 286.796875 1015.472656 291.613281 C 1014.917969 292.019531 1014.414062 292.402344 1013.882812 292.816406 C 992.242188 264.835938 964.757812 250.847656 931.433594 250.847656 Z M 931.433594 250.847656 " fill-opacity="1" fill-rule="nonzero"/><path fill="#c18f3f" d="M 1162.871094 290.816406 C 1146.65625 290.816406 1131 295.128906 1115.902344 303.75 C 1109.753906 307.261719 1107.613281 315.089844 1111.125 321.242188 C 1113.492188 325.386719 1117.816406 327.707031 1122.273438 327.707031 C 1124.425781 327.707031 1126.609375 327.164062 1128.617188 326.019531 C 1139.660156 319.714844 1151.148438 316.5625 1163.085938 316.5625 C 1171.304688 316.5625 1179.734375 318.054688 1188.375 321.046875 C 1189.261719 321.351562 1190.175781 321.558594 1191.109375 321.664062 C 1201.570312 322.863281 1230.519531 342.515625 1277.949219 380.621094 C 1278.410156 380.996094 1278.898438 381.332031 1279.40625 381.636719 C 1292.464844 389.429688 1306.136719 394.851562 1320.421875 397.902344 L 1320.382812 397.902344 C 1330.308594 400.394531 1342.378906 401.640625 1356.597656 401.640625 C 1366.292969 401.640625 1376.984375 401.0625 1388.675781 399.902344 L 1388.800781 399.902344 C 1387.664062 400.707031 1386.492188 401.53125 1385.28125 402.382812 L 1385.269531 402.382812 C 1361.277344 418.207031 1333.496094 429.136719 1301.933594 435.171875 C 1291.75 437.050781 1283.730469 437.988281 1277.871094 437.988281 C 1277.371094 437.988281 1276.882812 437.980469 1276.414062 437.96875 L 1276.351562 437.96875 C 1244.839844 435.734375 1223.988281 434.617188 1213.800781 434.617188 C 1211.304688 434.617188 1209.449219 434.683594 1208.230469 434.816406 C 1207.757812 434.871094 1207.300781 434.9375 1206.859375 435.011719 L 1206.738281 435.011719 C 1196.195312 435.746094 1184.371094 438.605469 1171.257812 443.597656 C 1158.667969 448.265625 1146.246094 454.902344 1133.988281 463.515625 L 1133.195312 464.121094 C 1074.601562 512.527344 1040.792969 538.167969 1031.769531 541.042969 C 1030.847656 541.304688 1029.953125 541.671875 1029.113281 542.132812 C 998.035156 559.183594 968.449219 569.636719 940.359375 573.488281 L 940.238281 573.488281 C 938.492188 573.515625 936.757812 573.527344 935.042969 573.527344 C 870.460938 573.527344 827.667969 554.246094 806.671875 515.683594 L 806.554688 515.683594 C 790.027344 470.894531 803.15625 436.582031 845.941406 412.746094 L 845.824219 412.746094 C 861.570312 406.355469 875.675781 403.160156 888.132812 403.160156 C 906.675781 403.160156 921.570312 410.242188 932.816406 424.40625 L 932.695312 424.40625 C 942.484375 440.941406 943.171875 454.976562 934.761719 466.503906 L 934.644531 466.503906 C 927.253906 471.570312 920.671875 474.101562 914.886719 474.101562 C 908.847656 474.101562 903.6875 471.339844 899.398438 465.824219 C 896.871094 462.570312 893.089844 460.867188 889.265625 460.867188 C 886.515625 460.867188 883.746094 461.75 881.40625 463.566406 C 875.816406 467.910156 874.804688 475.964844 879.152344 481.558594 C 889.203125 494.492188 900.738281 500.960938 913.757812 500.960938 C 925.171875 500.960938 937.734375 495.988281 951.433594 486.039062 C 952.371094 485.355469 953.214844 484.550781 953.9375 483.644531 C 970.96875 462.226562 970.917969 437.582031 953.78125 409.714844 C 953.511719 409.277344 953.21875 408.859375 952.898438 408.457031 C 936.324219 387.585938 915.09375 377.152344 889.207031 377.152344 C 873.214844 377.152344 855.445312 381.132812 835.894531 389.101562 C 835.445312 389.285156 835.003906 389.496094 834.574219 389.730469 C 778.0625 420.691406 760.71875 465.675781 782.542969 524.683594 C 782.734375 525.203125 782.957031 525.703125 783.214844 526.191406 C 808.730469 574.847656 859.324219 599.171875 934.988281 599.171875 C 937.167969 599.171875 939.363281 599.152344 941.582031 599.113281 C 942.070312 599.105469 942.558594 599.066406 943.042969 599.003906 C 974.121094 594.859375 1006.503906 583.625 1040.1875 565.304688 L 1040.066406 565.304688 C 1052.675781 560.871094 1088.917969 533.9375 1148.792969 484.496094 L 1148.730469 484.496094 C 1159.085938 477.222656 1169.472656 471.636719 1179.894531 467.746094 L 1179.875 467.746094 L 1180.382812 467.5625 C 1191.507812 463.328125 1201.160156 460.988281 1209.34375 460.542969 C 1209.964844 460.507812 1210.585938 460.429688 1211.195312 460.308594 L 1211.046875 460.308594 C 1211.789062 460.222656 1212.964844 460.183594 1214.5625 460.183594 C 1222.933594 460.183594 1242.988281 461.308594 1274.730469 463.5625 L 1275.175781 463.585938 C 1276.003906 463.617188 1276.859375 463.628906 1277.746094 463.628906 C 1285.273438 463.628906 1294.910156 462.546875 1306.65625 460.378906 L 1306.691406 460.371094 L 1306.707031 460.367188 L 1306.753906 460.359375 C 1341.804688 453.65625 1372.792969 441.394531 1399.710938 423.578125 L 1399.984375 423.390625 C 1418.96875 410.101562 1430.511719 400.335938 1434.617188 394.085938 L 1434.617188 394.082031 C 1436.214844 391.648438 1437.207031 389.203125 1437.597656 386.742188 C 1439.136719 377.003906 1434.804688 371.328125 1424.597656 369.714844 C 1423.933594 369.613281 1423.265625 369.558594 1422.597656 369.558594 C 1421.894531 369.558594 1421.191406 369.617188 1420.492188 369.734375 C 1395.121094 373.953125 1373.816406 376.0625 1356.578125 376.0625 C 1344.480469 376.0625 1334.382812 375.023438 1326.289062 372.945312 L 1325.773438 372.824219 C 1314.683594 370.457031 1304.007812 366.289062 1293.742188 360.320312 L 1293.621094 360.320312 C 1244.605469 320.964844 1212.050781 299.691406 1195.957031 296.496094 L 1195.832031 296.496094 C 1184.601562 292.710938 1173.613281 290.816406 1162.871094 290.816406 Z M 1162.871094 290.816406 " fill-opacity="1" fill-rule="nonzero"/><path fill="#c18f3f" d="M 1109.769531 319.066406 C 1107.375 312.589844 1099.257812 304.292969 1076.65625 300.296875 C 1061.113281 297.546875 1045.800781 301.496094 1030.878906 312.503906 C 1019.917969 320.585938 1013.875 330.75 1012.066406 342.886719 C 1009.761719 358.335938 1012.421875 370.851562 1019.867188 380.421875 C 1034.859375 399.691406 1051.273438 402.90625 1069.417969 392.867188 L 1069.414062 392.867188 C 1079.113281 387.5 1080.667969 381.464844 1079.191406 374.992188 C 1078.855469 373.503906 1078.050781 371.835938 1074.539062 370.203125 C 1071.585938 368.832031 1070.527344 369.203125 1070.691406 369.160156 L 1070.6875 369.160156 C 1070.683594 369.160156 1070.71875 369.148438 1070.722656 369.144531 L 1070.71875 369.148438 C 1070.699219 369.15625 1070.710938 369.148438 1070.699219 369.160156 C 1064.691406 372.910156 1056.785156 371.082031 1053.03125 365.074219 C 1049.28125 359.070312 1051.109375 351.160156 1057.117188 347.410156 C 1057.714844 347.035156 1058.308594 346.695312 1058.929688 346.375 L 1058.925781 346.375 C 1060.597656 345.511719 1062.320312 344.847656 1064.140625 344.367188 C 1071.472656 342.429688 1078.8125 343.914062 1085.34375 346.949219 L 1085.347656 346.949219 C 1095.148438 351.503906 1101.882812 359.152344 1104.195312 369.292969 C 1108.449219 387.953125 1100.546875 404.949219 1081.832031 415.304688 C 1051.339844 432.179688 1021.421875 424.183594 999.625 396.167969 C 986.777344 379.648438 983.660156 359.492188 986.703125 339.105469 C 989.5625 319.925781 999.460938 303.808594 1015.65625 291.863281 C 1035.347656 277.339844 1057.644531 270.894531 1081.121094 275.046875 C 1107.640625 279.734375 1126.816406 291.238281 1133.820312 310.160156 C 1136.277344 316.800781 1132.886719 324.179688 1126.246094 326.636719 C 1119.605469 329.09375 1112.230469 325.707031 1109.769531 319.066406 Z M 1109.769531 319.066406 " fill-opacity="1" fill-rule="nonzero"/><path fill="#c18f3f" d="M 932.554688 225.355469 C 921.0625 225.355469 909.003906 226.722656 896.382812 229.453125 L 896.03125 229.535156 C 875.019531 234.703125 854.84375 243.785156 835.507812 256.78125 L 835.390625 256.78125 C 835.023438 256.945312 834.660156 257.125 834.292969 257.316406 C 825.773438 261.796875 788.570312 291.484375 722.683594 346.378906 L 722.621094 346.378906 C 703.710938 359.800781 684.921875 370.789062 666.253906 379.34375 C 645.300781 388.855469 624.511719 395.503906 603.882812 399.292969 L 602.902344 399.511719 C 593.359375 402.046875 566.4375 404.246094 522.144531 406.105469 L 521.429688 406.152344 C 516.847656 406.601562 513.070312 407.417969 510.089844 408.59375 L 510.089844 408.597656 C 507.679688 409.550781 505.625 410.792969 503.925781 412.320312 C 502.730469 413.394531 501.75 414.683594 500.988281 416.203125 L 500.9375 416.3125 L 500.921875 416.339844 C 498.902344 420.480469 498.101562 424.847656 498.523438 429.4375 C 499.683594 442.078125 511.089844 455.363281 532.746094 469.292969 L 532.730469 469.292969 C 560.179688 488.390625 592.882812 503.363281 630.839844 514.210938 L 630.816406 514.210938 C 664.933594 525.15625 695.726562 530.625 723.191406 530.625 C 747.4375 530.625 769.089844 526.363281 788.152344 517.835938 C 794.617188 514.945312 797.511719 507.359375 794.621094 500.894531 C 792.488281 496.132812 787.808594 493.304688 782.910156 493.304688 C 781.160156 493.304688 779.382812 493.667969 777.679688 494.425781 C 761.910156 501.480469 743.726562 505.011719 723.132812 505.011719 C 698.347656 505.011719 670.0625 499.898438 638.289062 489.679688 L 637.886719 489.554688 C 602.496094 479.441406 572.210938 465.589844 547.023438 447.996094 L 546.617188 447.722656 C 536.300781 441.089844 529.519531 435.714844 526.277344 431.601562 L 526.160156 431.601562 C 569.5 429.726562 596.992188 427.367188 608.632812 424.511719 L 608.515625 424.511719 C 631.226562 420.34375 654.019531 413.066406 676.894531 402.675781 L 676.9375 402.65625 C 697.355469 393.300781 717.824219 381.304688 738.339844 366.667969 L 739.101562 366.082031 C 801.746094 313.882812 837.234375 285.320312 845.558594 280.390625 L 845.4375 280.390625 C 846.613281 280.015625 847.734375 279.472656 848.765625 278.769531 C 865.8125 267.15625 883.5 259.070312 901.828125 254.515625 L 901.804688 254.515625 C 912.148438 252.277344 922.023438 251.160156 931.433594 251.160156 C 966.835938 251.160156 995.628906 267 1017.808594 298.679688 C 1020.304688 302.242188 1024.28125 304.152344 1028.324219 304.152344 C 1030.863281 304.152344 1033.429688 303.398438 1035.667969 301.832031 C 1041.46875 297.769531 1042.878906 289.773438 1038.816406 283.972656 C 1011.457031 244.894531 976.035156 225.355469 932.554688 225.355469 Z M 932.554688 225.355469 " fill-opacity="1" fill-rule="nonzero"/><path fill="#c18f3f" d="M 1195.605469 507.238281 C 1188.679688 507.238281 1182.328125 509.136719 1176.542969 512.933594 L 1175.761719 513.488281 C 1165.503906 521.378906 1161.777344 532.117188 1164.578125 545.699219 C 1165.832031 551.757812 1171.167969 555.929688 1177.125 555.929688 C 1177.980469 555.929688 1178.851562 555.84375 1179.726562 555.664062 C 1186.660156 554.234375 1191.125 547.449219 1189.691406 540.515625 C 1189.121094 537.753906 1189.511719 535.679688 1190.859375 534.292969 L 1190.738281 534.292969 C 1192.144531 533.40625 1193.84375 532.964844 1195.835938 532.964844 C 1197.867188 532.964844 1200.207031 533.425781 1202.851562 534.351562 L 1202.730469 534.351562 C 1210.507812 538.992188 1213 547.183594 1210.210938 558.929688 L 1210.097656 558.929688 C 1202.375 578.425781 1184.871094 589.273438 1157.574219 591.476562 L 1157.5 591.480469 C 1154.460938 591.746094 1151.394531 591.875 1148.308594 591.875 C 1132.316406 591.875 1115.71875 588.335938 1098.511719 581.261719 L 1098.46875 581.261719 C 1077.867188 571.484375 1064.347656 560.316406 1057.90625 547.746094 C 1055.632812 543.316406 1051.140625 540.769531 1046.484375 540.769531 C 1044.515625 540.769531 1042.519531 541.226562 1040.644531 542.1875 C 1034.34375 545.417969 1031.855469 553.144531 1035.085938 559.445312 C 1044.171875 577.171875 1061.636719 592.167969 1087.476562 604.429688 L 1088.046875 604.683594 C 1108.628906 613.242188 1128.699219 617.523438 1148.265625 617.523438 C 1152.074219 617.523438 1155.867188 617.359375 1159.636719 617.035156 C 1198.523438 613.902344 1223.558594 596.984375 1234.734375 566.28125 C 1234.902344 565.816406 1235.042969 565.339844 1235.160156 564.859375 C 1241.101562 539.84375 1234.015625 521.964844 1213.902344 511.21875 C 1213.382812 510.941406 1212.847656 510.699219 1212.296875 510.496094 C 1206.40625 508.324219 1200.84375 507.238281 1195.605469 507.238281 Z M 1195.605469 507.238281 " fill-opacity="1" fill-rule="nonzero"/><g clip-path="url(#1666d0e76e)"><path fill="#c18f3f" d="M 1217.101562 435.957031 C 1211.488281 435.957031 1206.335938 439.671875 1204.757812 445.34375 C 1202.859375 452.164062 1206.847656 459.234375 1213.671875 461.132812 C 1267.539062 476.132812 1299.859375 505.515625 1310.632812 549.28125 L 1310.578125 549.28125 C 1317.085938 593.835938 1298.5625 629.769531 1255.007812 657.085938 L 1254.980469 657.085938 C 1230.644531 670.726562 1204.65625 677.542969 1177.007812 677.542969 C 1160.953125 677.542969 1144.339844 675.246094 1127.171875 670.648438 L 1127.066406 670.648438 C 1067.859375 650.410156 1025.140625 619.742188 998.90625 578.644531 C 996.460938 574.8125 992.320312 572.71875 988.089844 572.71875 C 985.726562 572.71875 983.339844 573.371094 981.203125 574.734375 C 975.230469 578.542969 973.480469 586.472656 977.292969 592.441406 C 1006.742188 638.582031 1053.902344 672.742188 1118.769531 694.914062 L 1119.550781 695.152344 C 1139.390625 700.550781 1158.613281 703.25 1177.222656 703.25 C 1209.355469 703.25 1239.660156 695.203125 1268.128906 679.109375 L 1268.636719 678.808594 C 1322.078125 645.289062 1344.449219 600.4375 1335.753906 544.253906 C 1335.695312 543.882812 1335.625 543.515625 1335.535156 543.152344 C 1322.371094 489.683594 1284.042969 454.109375 1220.546875 436.429688 C 1219.398438 436.109375 1218.238281 435.957031 1217.101562 435.957031 Z M 1217.101562 435.957031 " fill-opacity="1" fill-rule="nonzero"/></g><path fill="#25011e" d="M 1211.3125 459.890625 L 1211.277344 459.890625 C 1211.171875 459.898438 1211.070312 459.910156 1210.976562 459.929688 L 1210.980469 459.972656 L 1210.859375 459.972656 C 1210.355469 460.0625 1209.828125 460.125 1209.320312 460.152344 C 1201.097656 460.597656 1191.40625 462.949219 1180.242188 467.199219 L 1179.742188 467.386719 L 1179.738281 467.386719 C 1169.289062 471.289062 1158.882812 476.890625 1148.507812 484.183594 L 1148.542969 484.292969 L 1148.421875 484.292969 C 1108.890625 516.933594 1079.675781 539.753906 1060.777344 552.75 L 1060.976562 553.390625 L 1060.859375 553.390625 C 1068.167969 563.832031 1080.648438 573.242188 1098.300781 581.621094 L 1098.539062 581.652344 L 1098.441406 581.652344 C 1115.664062 588.730469 1132.289062 592.269531 1148.308594 592.269531 C 1151.410156 592.269531 1154.484375 592.136719 1157.53125 591.871094 L 1157.609375 591.867188 C 1184.953125 589.660156 1202.539062 578.8125 1210.363281 559.324219 L 1210.238281 559.324219 L 1210.59375 559.023438 C 1213.410156 547.167969 1210.90625 538.863281 1203.085938 534.117188 L 1202.964844 534.117188 L 1202.980469 533.980469 C 1202.96875 533.976562 1202.957031 533.972656 1202.945312 533.96875 L 1202.824219 533.96875 L 1202.828125 533.960938 L 1202.921875 533.960938 C 1200.257812 533.035156 1197.898438 532.574219 1195.835938 532.574219 C 1193.769531 532.574219 1192 533.039062 1190.527344 533.972656 L 1190.582031 534.148438 L 1190.457031 534.148438 C 1189.113281 535.628906 1188.726562 537.777344 1189.308594 540.59375 C 1190.695312 547.316406 1186.371094 553.890625 1179.648438 555.28125 C 1178.8125 555.453125 1177.945312 555.539062 1177.125 555.539062 C 1171.34375 555.539062 1166.175781 551.492188 1164.964844 545.621094 C 1162.195312 532.203125 1165.871094 521.597656 1175.992188 513.808594 L 1176.769531 513.253906 C 1182.488281 509.503906 1188.765625 507.632812 1195.605469 507.632812 C 1200.796875 507.632812 1206.3125 508.707031 1212.160156 510.863281 C 1212.703125 511.066406 1213.207031 511.289062 1213.714844 511.5625 C 1233.652344 522.214844 1240.675781 539.949219 1234.777344 564.769531 C 1234.664062 565.25 1234.535156 565.683594 1234.363281 566.148438 C 1223.246094 596.6875 1198.332031 613.523438 1159.617188 616.652344 L 1159.511719 616.652344 C 1155.777344 616.972656 1152.03125 617.132812 1148.265625 617.132812 C 1128.757812 617.132812 1108.738281 612.863281 1088.207031 604.324219 L 1087.644531 604.074219 C 1065.140625 593.394531 1049.015625 580.652344 1039.265625 565.835938 L 1038.964844 565.660156 L 1038.84375 565.652344 L 1038.632812 565.699219 C 1026.152344 572.425781 1013.851562 578.175781 1001.730469 582.953125 L 1001.859375 583.640625 L 1001.738281 583.640625 C 1028.230469 622.417969 1069.964844 651.546875 1126.9375 671.027344 L 1127.09375 671.046875 L 1127.144531 671.046875 C 1144.320312 675.640625 1160.941406 677.9375 1177.007812 677.9375 C 1204.703125 677.9375 1230.742188 671.113281 1255.117188 657.464844 L 1255.109375 657.464844 L 1255.21875 657.417969 C 1298.859375 630.046875 1317.449219 594.039062 1310.992188 549.402344 L 1310.867188 549.402344 L 1311.015625 549.1875 C 1300.203125 505.273438 1267.789062 475.796875 1213.773438 460.753906 C 1213.011719 460.542969 1212.292969 460.265625 1211.605469 459.929688 L 1211.433594 459.890625 Z M 1211.3125 459.890625 " fill-opacity="1" fill-rule="nonzero"/><path fill="#c18f3f" d="M 716.273438 192.410156 C 665.933594 192.410156 637.117188 212.710938 629.835938 253.3125 C 629.683594 254.167969 629.617188 255.035156 629.636719 255.902344 C 630.507812 290.027344 646.230469 310.597656 676.804688 317.617188 L 677.445312 317.75 C 682.613281 318.660156 687.46875 319.113281 692.019531 319.113281 C 706.011719 319.113281 717.097656 314.808594 725.273438 306.195312 C 725.632812 305.820312 725.964844 305.421875 726.277344 305.003906 C 739 287.839844 737.164062 273.179688 720.765625 261.019531 C 719.957031 260.417969 719.109375 259.835938 718.230469 259.261719 C 716.074219 257.867188 713.660156 257.199219 711.269531 257.199219 C 707.070312 257.199219 702.953125 259.261719 700.496094 263.050781 C 696.648438 268.996094 698.34375 276.933594 704.285156 280.785156 C 704.71875 281.066406 705.117188 281.34375 705.488281 281.617188 L 705.492188 281.617188 C 708.058594 283.523438 708.210938 286.101562 705.949219 289.351562 L 705.832031 289.351562 C 702.695312 292.097656 698.0625 293.472656 691.929688 293.472656 C 689.148438 293.472656 686.058594 293.191406 682.660156 292.625 L 682.542969 292.625 C 665.40625 288.691406 656.339844 276.828125 655.34375 257.039062 L 655.226562 257.039062 C 660.25 231.046875 680.621094 218.050781 716.335938 218.050781 C 716.484375 218.050781 716.632812 218.050781 716.785156 218.054688 L 716.667969 218.054688 C 731.828125 218.925781 746.800781 224.703125 761.578125 235.390625 L 761.550781 235.390625 C 787.015625 255.949219 801.011719 270.765625 803.535156 279.835938 C 805.113281 285.507812 810.265625 289.226562 815.882812 289.226562 C 817.019531 289.226562 818.175781 289.074219 819.324219 288.753906 C 826.148438 286.855469 830.140625 279.789062 828.242188 272.964844 C 824.234375 258.542969 807.195312 239.226562 777.132812 215.011719 L 776.601562 214.609375 C 757.640625 200.898438 738.011719 193.507812 717.71875 192.429688 L 717.09375 192.410156 C 716.820312 192.410156 716.542969 192.410156 716.273438 192.410156 Z M 716.273438 192.410156 " fill-opacity="1" fill-rule="nonzero"/><path fill="#c18f3f" d="M 735.089844 107.496094 C 726.90625 107.496094 718.785156 108.027344 710.722656 109.09375 L 710.710938 109.09375 C 680.652344 112.585938 651.949219 122.058594 624.609375 137.511719 C 624.160156 137.761719 623.730469 138.042969 623.316406 138.347656 L 492.269531 234.792969 L 492.253906 234.792969 C 465.175781 253.25 442.398438 266.101562 423.925781 273.347656 L 423.324219 273.601562 C 390.742188 288.339844 348 295.707031 295.09375 295.707031 C 286.964844 295.707031 278.59375 295.53125 269.980469 295.183594 L 269.921875 295.183594 C 269.273438 295.144531 268.640625 295.125 268.03125 295.125 C 258.894531 295.125 254.0625 299.503906 253.535156 308.257812 C 253.300781 312.140625 254.640625 315.863281 257.550781 319.429688 C 262.300781 325.253906 276.953125 335.929688 301.511719 351.464844 L 301.507812 351.464844 C 338.644531 375.6875 366.855469 391.789062 386.152344 399.773438 L 386.132812 399.773438 C 432.753906 420.964844 472.304688 431.5625 504.792969 431.5625 C 507.03125 431.5625 509.234375 431.511719 511.40625 431.410156 C 518.480469 431.082031 523.949219 425.082031 523.621094 418.007812 C 523.300781 411.136719 517.632812 405.777344 510.824219 405.777344 C 510.621094 405.777344 510.421875 405.785156 510.21875 405.792969 C 508.402344 405.878906 506.558594 405.917969 504.679688 405.917969 C 475.890625 405.917969 439.785156 396.03125 396.367188 376.253906 L 395.953125 376.078125 C 378.101562 368.691406 351.242188 353.296875 315.371094 329.890625 L 315.21875 329.792969 C 310.351562 326.714844 305.949219 323.886719 302.003906 321.304688 L 301.894531 321.304688 C 355.148438 320.664062 398.957031 312.636719 433.328125 297.222656 L 433.292969 297.222656 C 453.652344 289.234375 478.253906 275.398438 507.097656 255.710938 L 507.46875 255.449219 L 637.511719 159.738281 L 637.398438 159.738281 C 661.742188 146.007812 687.230469 137.609375 713.871094 134.542969 L 714.082031 134.515625 C 720.988281 133.605469 727.960938 133.148438 734.996094 133.148438 C 766.199219 133.148438 798.703125 142.117188 832.511719 160.054688 L 832.460938 160.054688 C 866.152344 180.855469 886.328125 206.328125 892.988281 236.476562 C 894.308594 242.460938 899.609375 246.535156 905.496094 246.535156 C 906.410156 246.535156 907.339844 246.4375 908.273438 246.230469 C 915.1875 244.703125 919.554688 237.859375 918.027344 230.945312 C 909.757812 193.511719 885.488281 162.460938 845.21875 137.792969 L 844.53125 137.402344 C 806.953125 117.464844 770.472656 107.496094 735.089844 107.496094 Z M 735.089844 107.496094 " fill-opacity="1" fill-rule="nonzero"/><path fill="#25011e" d="M 302.222656 320.964844 C 302.226562 320.96875 302.226562 320.96875 302.230469 320.96875 L 302.222656 320.96875 Z M 301.910156 321.289062 L 301.910156 321.3125 L 301.902344 321.3125 Z M 301.789062 321.644531 C 301.792969 321.648438 301.800781 321.652344 301.808594 321.65625 L 301.808594 321.644531 Z M 301.882812 321.382812 L 301.808594 321.644531 L 301.894531 321.667969 Z M 301.824219 321.667969 C 301.835938 321.675781 301.84375 321.683594 301.855469 321.6875 L 301.894531 321.6875 L 301.894531 321.667969 Z M 734.996094 132.746094 C 727.941406 132.746094 720.953125 133.203125 714.03125 134.117188 L 713.820312 134.140625 C 687.128906 137.214844 661.589844 145.632812 637.199219 159.394531 L 637.214844 159.457031 L 507.230469 255.121094 L 507.238281 255.117188 L 506.863281 255.382812 C 478.046875 275.046875 453.476562 288.871094 433.144531 296.855469 L 433.152344 296.90625 L 433.039062 296.90625 C 398.765625 312.253906 355.089844 320.253906 302.011719 320.90625 L 302.011719 320.910156 L 302 320.910156 L 301.976562 320.902344 L 301.867188 320.910156 L 301.882812 321.382812 L 301.902344 321.3125 L 301.910156 321.3125 L 301.921875 321.6875 L 301.894531 321.6875 L 301.894531 321.714844 L 301.898438 321.714844 C 305.824219 324.28125 310.191406 327.089844 315.003906 330.132812 L 315.152344 330.230469 C 351.042969 353.648438 377.925781 369.054688 395.800781 376.449219 L 396.207031 376.625 C 439.675781 396.421875 475.832031 406.324219 504.679688 406.324219 C 506.5625 406.324219 508.414062 406.28125 510.238281 406.195312 C 510.394531 406.1875 510.671875 406.183594 510.824219 406.183594 C 512.628906 406.183594 514.367188 406.578125 515.917969 407.285156 L 516.476562 406.929688 L 516.179688 407.285156 L 516.273438 407.285156 C 517.867188 406.980469 519.59375 406.738281 521.457031 406.554688 L 522.171875 406.507812 C 566.46875 404.644531 593.410156 402.445312 602.996094 399.902344 L 602.992188 399.902344 L 603.96875 399.683594 L 603.972656 399.683594 C 624.628906 395.890625 645.445312 389.234375 666.417969 379.710938 L 666.421875 379.710938 C 685.082031 371.160156 703.863281 360.183594 722.765625 346.777344 L 722.734375 346.777344 L 722.945312 346.6875 C 757.957031 317.519531 784.859375 295.472656 803.660156 280.550781 L 803.65625 280.550781 L 804.011719 280.03125 C 803.984375 279.933594 803.949219 279.824219 803.925781 279.730469 L 803.925781 279.726562 C 801.382812 270.585938 787.378906 255.734375 761.914062 235.171875 L 761.792969 235.171875 L 761.816406 235.0625 C 747.039062 224.382812 732.070312 218.585938 716.90625 217.671875 L 716.789062 217.671875 L 716.785156 217.648438 C 716.636719 217.648438 716.484375 217.648438 716.335938 217.648438 C 680.398438 217.648438 659.898438 230.753906 654.832031 256.96875 L 655.066406 257.253906 L 654.949219 257.253906 C 656.007812 277.128906 665.175781 289.054688 682.453125 293.027344 L 682.570312 293.035156 L 682.671875 293.035156 C 686.058594 293.59375 689.144531 293.875 691.929688 293.875 C 698.09375 293.875 702.78125 292.5 705.992188 289.753906 L 705.976562 289.753906 L 706.28125 289.582031 C 708.691406 286.117188 708.507812 283.351562 705.730469 281.292969 L 705.671875 281.257812 L 705.679688 281.257812 C 705.316406 280.988281 704.925781 280.71875 704.503906 280.445312 C 698.746094 276.714844 697.105469 269.027344 700.835938 263.269531 C 703.210938 259.605469 707.195312 257.605469 711.269531 257.605469 C 713.582031 257.605469 715.925781 258.25 718.011719 259.601562 C 718.886719 260.167969 719.722656 260.75 720.523438 261.351562 L 720.753906 261.425781 L 720.636719 261.425781 C 736.714844 273.410156 738.488281 287.855469 725.953125 304.765625 C 725.652344 305.171875 725.328125 305.550781 724.980469 305.917969 C 716.882812 314.449219 705.898438 318.710938 692.019531 318.710938 C 687.496094 318.710938 682.664062 318.257812 677.527344 317.355469 L 676.894531 317.226562 C 646.523438 310.25 630.90625 289.808594 630.039062 255.894531 C 630.019531 255.054688 630.082031 254.214844 630.230469 253.382812 C 637.476562 213.003906 666.15625 192.8125 716.273438 192.8125 C 716.542969 192.8125 716.816406 192.8125 717.089844 192.8125 L 717.082031 192.8125 L 717.703125 192.832031 C 737.917969 193.90625 757.472656 201.273438 776.367188 214.933594 L 776.890625 215.335938 L 776.886719 215.335938 C 801.058594 234.800781 816.785156 251.089844 824.070312 264.199219 L 824.824219 264.003906 L 824.722656 264.199219 L 824.828125 264.199219 C 829.417969 260.820312 832.632812 258.648438 834.480469 257.683594 L 834.484375 257.671875 L 834.480469 257.671875 C 834.820312 257.496094 835.15625 257.332031 835.492188 257.183594 L 835.535156 257.183594 L 835.730469 257.117188 C 853.609375 245.101562 872.199219 236.441406 891.507812 231.136719 L 891.566406 231.136719 L 891.925781 230.625 C 884.054688 202.90625 864.34375 179.300781 832.800781 159.796875 L 832.683594 159.796875 L 832.699219 159.699219 C 798.835938 141.730469 766.269531 132.746094 734.996094 132.746094 Z M 734.996094 132.746094 " fill-opacity="1" fill-rule="nonzero"/><path fill="#c18f3f" d="M 397.660156 380.433594 C 397.183594 380.433594 396.703125 380.460938 396.21875 380.515625 C 386.054688 381.652344 375.613281 388.089844 364.894531 399.832031 L 364.878906 399.851562 C 356.058594 409.550781 349.710938 420.53125 345.835938 432.800781 L 345.679688 433.335938 C 339.195312 457.488281 342.777344 479.75 356.417969 500.128906 L 356.464844 500.199219 C 367.125 515.898438 381.667969 527.804688 400.09375 535.914062 C 412.085938 541.265625 423.410156 543.945312 434.066406 543.945312 C 440.140625 543.945312 445.992188 543.074219 451.628906 541.339844 L 451.691406 541.320312 C 474.152344 534.273438 486.324219 518.539062 488.210938 494.105469 C 488.242188 493.710938 488.253906 493.308594 488.246094 492.910156 C 488.039062 479.964844 483.636719 469.691406 475.035156 462.09375 L 475.03125 462.09375 C 469.355469 456.960938 462.847656 454.390625 455.5 454.390625 C 451.648438 454.390625 447.566406 455.097656 443.257812 456.507812 C 436.527344 458.710938 432.855469 465.949219 435.058594 472.679688 C 436.828125 478.085938 441.847656 481.519531 447.242188 481.519531 C 448.5625 481.519531 449.90625 481.3125 451.230469 480.878906 C 452.675781 480.40625 453.921875 480.171875 454.976562 480.171875 C 456.183594 480.171875 457.132812 480.484375 457.824219 481.109375 L 457.992188 481.257812 C 460.980469 483.871094 462.519531 487.890625 462.605469 493.324219 L 462.535156 493.324219 C 461.253906 505.539062 455.082031 513.378906 444.015625 516.851562 C 440.902344 517.804688 437.589844 518.28125 434.082031 518.28125 C 427.015625 518.28125 419.152344 516.34375 410.492188 512.472656 L 410.425781 512.441406 C 396.523438 506.324219 385.625 497.464844 377.726562 485.863281 C 368.503906 472.082031 366.027344 456.96875 370.304688 440.523438 L 370.289062 440.523438 C 373.03125 431.839844 377.542969 424.039062 383.832031 417.121094 C 390.214844 410.128906 395.296875 406.421875 399.074219 406 C 406.109375 405.210938 411.175781 398.867188 410.386719 391.832031 C 409.652344 385.277344 404.101562 380.433594 397.660156 380.433594 Z M 397.660156 380.433594 " fill-opacity="1" fill-rule="nonzero"/><path fill="#c18f3f" d="M 368.4375 372.183594 C 366.554688 372.183594 364.644531 372.597656 362.839844 373.476562 C 354.070312 377.738281 339.003906 380.605469 317.640625 382.074219 L 317.128906 382.121094 C 303.003906 383.664062 281.984375 384.433594 254.070312 384.433594 C 243.085938 384.433594 231.03125 384.316406 217.910156 384.074219 L 217.34375 384.078125 C 209.105469 384.289062 201.1875 384.886719 193.589844 385.863281 C 172.769531 388.53125 153.160156 393.734375 134.761719 401.472656 L 134.660156 401.472656 C 86.765625 417.8125 42.972656 459.503906 3.285156 526.550781 C 0.246094 531.6875 1.148438 538.238281 5.464844 542.359375 C 7.921875 544.703125 11.109375 545.90625 14.320312 545.90625 C 16.757812 545.90625 19.207031 545.214844 21.359375 543.800781 C 52.816406 523.136719 85.964844 508.152344 120.804688 498.847656 L 121.34375 498.691406 C 146.515625 490.773438 169.351562 486.816406 189.859375 486.816406 C 198.800781 486.816406 207.300781 487.570312 215.355469 489.074219 C 239.324219 493.691406 262.953125 503.757812 286.253906 519.277344 C 286.824219 519.65625 287.425781 519.992188 288.050781 520.277344 C 297.070312 524.378906 326.085938 548.285156 375.101562 592 L 375.738281 592.53125 C 387 601.335938 397.816406 608.519531 408.183594 614.078125 C 428.386719 625.039062 450.78125 630.519531 475.367188 630.519531 C 477.382812 630.519531 479.414062 630.484375 481.460938 630.410156 C 481.863281 630.394531 482.265625 630.359375 482.667969 630.308594 C 559.546875 620.21875 607.375 576.375 626.15625 498.773438 C 627.820312 491.890625 623.59375 484.960938 616.710938 483.296875 C 615.695312 483.050781 614.683594 482.933594 613.683594 482.933594 C 607.902344 482.933594 602.652344 486.871094 601.230469 492.742188 C 585.257812 558.746094 544.8125 596.101562 479.898438 604.804688 L 479.785156 604.804688 C 478.320312 604.851562 476.859375 604.875 475.414062 604.875 C 455.113281 604.875 436.765625 600.417969 420.363281 591.511719 L 420.300781 591.476562 C 411.433594 586.71875 402.070312 580.515625 392.214844 572.859375 L 392.171875 572.859375 C 343.417969 529.382812 312.78125 504.335938 300.257812 497.71875 L 300.144531 497.71875 C 274.0625 480.398438 247.390625 469.121094 220.128906 463.882812 L 220.066406 463.871094 C 210.472656 462.074219 200.417969 461.179688 189.898438 461.179688 C 166.730469 461.179688 141.3125 465.527344 113.648438 474.226562 L 113.605469 474.226562 C 93.476562 479.640625 73.886719 486.804688 54.839844 495.722656 C 82.984375 459.261719 112.632812 435.839844 143.78125 425.457031 L 145.460938 424.761719 L 145.46875 424.757812 L 145.542969 424.757812 C 161.554688 418.117188 178.660156 413.628906 196.855469 411.300781 L 196.863281 411.296875 C 203.496094 410.445312 210.4375 409.917969 217.6875 409.722656 L 217.800781 409.722656 C 230.800781 409.957031 242.796875 410.074219 253.792969 410.074219 C 282.574219 410.074219 304.472656 409.269531 319.488281 407.65625 L 319.402344 407.65625 C 344.078125 405.960938 362.292969 402.253906 374.050781 396.542969 C 380.417969 393.445312 383.074219 385.773438 379.976562 379.40625 C 377.761719 374.839844 373.191406 372.183594 368.4375 372.183594 Z M 368.4375 372.183594 " fill-opacity="1" fill-rule="nonzero"/><path fill="#25011e" d="M 364.300781 400.078125 L 364.214844 400.089844 C 352.964844 403.664062 338.019531 406.09375 319.378906 407.382812 L 319.378906 407.394531 L 319.269531 407.394531 C 304.265625 408.992188 282.441406 409.789062 253.792969 409.789062 C 242.816406 409.789062 230.839844 409.675781 217.859375 409.445312 L 217.820312 409.445312 L 217.707031 409.4375 L 217.679688 409.4375 C 210.421875 409.636719 203.472656 410.164062 196.828125 411.015625 L 196.824219 411.015625 L 196.820312 411.019531 C 178.597656 413.351562 161.472656 417.847656 145.4375 424.503906 L 145.339844 424.503906 L 145.351562 424.5 L 143.671875 425.195312 C 112.492188 435.59375 82.824219 459.027344 54.664062 495.496094 L 54.886719 495.953125 L 54.957031 495.953125 L 55.078125 495.925781 C 74.070312 487.042969 93.597656 479.90625 113.660156 474.515625 L 113.65625 474.515625 L 113.699219 474.507812 L 113.734375 474.5 C 141.371094 465.808594 166.757812 461.460938 189.898438 461.460938 C 200.402344 461.460938 210.441406 462.359375 220.015625 464.148438 L 220.078125 464.160156 C 247.300781 469.390625 273.9375 480.660156 299.988281 497.964844 L 300.164062 498.011719 L 300.199219 498.011719 C 312.753906 504.679688 343.347656 529.703125 391.980469 573.082031 L 392.21875 573.148438 L 392.125 573.148438 C 401.960938 580.78125 411.308594 586.976562 420.167969 591.726562 L 420.226562 591.757812 L 420.226562 591.761719 C 436.671875 600.691406 455.066406 605.160156 475.414062 605.160156 C 476.867188 605.160156 478.328125 605.136719 479.792969 605.097656 L 479.804688 605.097656 L 479.917969 605.089844 L 479.9375 605.085938 C 541.300781 596.859375 580.839844 563.082031 598.558594 503.757812 L 598.480469 503.757812 L 598.558594 503.207031 C 598.554688 503.207031 598.554688 503.207031 598.550781 503.207031 L 598.4375 503.207031 L 598.4375 503.191406 L 598.511719 503.191406 C 574.09375 493.867188 552.257812 482.519531 533.007812 469.148438 L 532.894531 469.148438 L 532.898438 469.050781 C 512.457031 455.90625 501.183594 443.355469 499.070312 431.40625 L 498.925781 431.59375 L 498.917969 431.164062 C 470.976562 430.105469 438.058594 421.589844 400.160156 405.621094 L 400.070312 405.597656 L 399.957031 405.589844 L 399.886719 405.59375 C 399.613281 405.644531 399.324219 405.6875 399.039062 405.71875 C 395.191406 406.148438 390.054688 409.886719 383.621094 416.929688 C 377.308594 423.878906 372.773438 431.714844 370.019531 440.445312 L 370.113281 440.574219 L 370 440.574219 C 365.746094 457.054688 368.242188 472.203125 377.492188 486.023438 C 385.421875 497.667969 396.359375 506.5625 410.308594 512.703125 L 410.378906 512.730469 L 410.425781 512.746094 L 410.417969 512.746094 C 419.097656 516.625 426.984375 518.5625 434.082031 518.5625 C 437.617188 518.5625 440.957031 518.085938 444.097656 517.128906 L 444.105469 517.121094 L 444.101562 517.121094 C 455.226562 513.632812 461.457031 505.777344 462.796875 493.554688 L 462.679688 493.554688 L 462.890625 493.320312 C 462.800781 487.804688 461.230469 483.710938 458.179688 481.042969 L 458.015625 480.898438 L 458.015625 480.894531 L 458.011719 480.894531 C 457.269531 480.222656 456.257812 479.886719 454.976562 479.886719 C 453.894531 479.886719 452.617188 480.128906 451.144531 480.609375 C 449.851562 481.03125 448.535156 481.234375 447.242188 481.234375 C 441.964844 481.234375 437.058594 477.882812 435.328125 472.59375 C 433.175781 466.015625 436.761719 458.929688 443.34375 456.777344 C 447.628906 455.375 451.679688 454.675781 455.5 454.675781 C 462.773438 454.675781 469.21875 457.222656 474.839844 462.3125 L 474.855469 462.3125 C 483.386719 469.855469 487.757812 480.054688 487.964844 492.917969 C 487.96875 493.285156 487.957031 493.710938 487.929688 494.082031 C 486.050781 518.386719 473.941406 534.042969 451.605469 541.050781 L 451.542969 541.066406 C 445.933594 542.796875 440.109375 543.660156 434.066406 543.660156 C 423.5 543.660156 412.265625 541.019531 400.367188 535.730469 L 400.253906 535.730469 L 400.207031 535.652344 C 381.832031 527.566406 367.332031 515.695312 356.699219 500.039062 L 356.652344 499.96875 L 356.648438 499.96875 C 343.058594 479.664062 339.492188 457.480469 345.949219 433.417969 L 346.109375 432.878906 C 349.902344 420.867188 356.074219 410.09375 364.628906 400.550781 L 364.414062 400.078125 Z M 364.300781 400.078125 " fill-opacity="1" fill-rule="nonzero"/></svg>