<svg xmlns="http://www.w3.org/2000/svg" xmlns:xlink="http://www.w3.org/1999/xlink" width="1920" zoomAndPan="magnify" viewBox="0 0 1440 809.999993" height="1080" preserveAspectRatio="xMidYMid meet" version="1.0"><defs><clipPath id="34d658a5d2"><path d="M 1101.527344 0 L 1439.777344 0 L 1439.777344 330.75 L 1101.527344 330.75 Z M 1101.527344 0 " clip-rule="nonzero"/></clipPath><clipPath id="cb1a63f0cd"><path d="M 0.738281 0 L 338.777344 0 L 338.777344 330.421875 L 0.738281 330.421875 Z M 0.738281 0 " clip-rule="nonzero"/></clipPath><clipPath id="dc5a13da2d"><rect x="0" width="339" y="0" height="331"/></clipPath><clipPath id="2e75e71715"><path d="M 0 479.566406 L 338.25 479.566406 L 338.25 810 L 0 810 Z M 0 479.566406 " clip-rule="nonzero"/></clipPath></defs><g clip-path="url(#34d658a5d2)"><g transform="matrix(1, 0, 0, 1, 1101, 0.000000000000039746)"><g clip-path="url(#dc5a13da2d)"><g clip-path="url(#cb1a63f0cd)"><path fill="#fad099" d="M 336.691406 161.0625 C 337.085938 159.964844 338.023438 159.496094 338.886719 159.496094 L 338.886719 144.695312 C 324.949219 170.847656 296.917969 176.644531 270.765625 181.96875 C 254.164062 185.410156 238.347656 188.621094 228.015625 196.84375 C 227.464844 197.3125 226.761719 197.546875 226.054688 197.46875 C 224.726562 197.234375 223.863281 196.0625 224.097656 194.808594 C 226.132812 181.652344 220.964844 166.308594 215.640625 150.175781 C 207.1875 124.808594 198.183594 97.71875 213.839844 72.503906 C 184.167969 73.523438 165.21875 52.070312 147.445312 32.101562 C 136.167969 19.417969 125.441406 7.28125 113.070312 2.503906 C 112.445312 2.269531 111.972656 1.800781 111.738281 1.175781 C 111.582031 0.859375 111.582031 0.625 111.582031 0.3125 L 93.652344 0.3125 C 105.945312 6.5 117.457031 19.808594 129.59375 33.980469 L 130.6875 35.234375 C 150.183594 57.785156 171.402344 81.824219 198.652344 78.769531 C 199.355469 78.691406 200.140625 78.925781 200.6875 79.472656 L 200.84375 79.628906 C 201.078125 79.941406 201.234375 80.414062 201.3125 80.804688 C 201.390625 81.507812 201.15625 82.136719 200.765625 82.605469 C 186.4375 102.023438 192.699219 128.019531 201.15625 153.152344 L 201.234375 153.464844 C 202.332031 156.753906 203.429688 159.964844 204.523438 163.175781 L 205.070312 164.742188 C 211.257812 182.359375 217.050781 198.957031 216.269531 212.660156 C 227.777344 205.144531 245.082031 201.855469 263.40625 198.410156 C 267.242188 197.625 271.15625 196.921875 275.070312 196.140625 L 275.382812 196.0625 C 301.378906 190.738281 326.984375 183.140625 336.691406 161.0625 Z M 0.320312 0.3125 L 16.371094 0.3125 C 16.371094 0.546875 16.371094 0.78125 16.449219 1.019531 C 16.683594 1.800781 17.3125 2.347656 18.015625 2.582031 C 28.664062 5.871094 38.136719 14.328125 47.925781 23.019531 C 68.675781 41.5 90.597656 60.996094 128.261719 39.621094 L 132.253906 44.160156 C 90.675781 71.410156 54.191406 41.65625 26.707031 19.105469 C 16.839844 11.039062 8.070312 3.835938 0.320312 0.3125 Z M 25.140625 0.3125 L 35.320312 0.3125 C 35.320312 0.859375 35.476562 1.410156 35.867188 1.800781 C 35.945312 1.957031 36.023438 2.035156 36.179688 2.113281 C 39.234375 4.699219 42.757812 6.8125 46.59375 8.222656 C 50.351562 9.550781 54.347656 10.257812 58.496094 10.257812 C 62.644531 10.257812 66.640625 9.550781 70.398438 8.222656 C 74.234375 6.8125 77.757812 4.699219 80.890625 2.113281 C 81.4375 1.644531 81.671875 1.019531 81.671875 0.3125 L 85.117188 0.3125 C 85.117188 0.546875 85.117188 0.78125 85.195312 1.019531 C 85.429688 1.800781 86.058594 2.347656 86.761719 2.582031 C 99.523438 6.578125 111.972656 20.75 125.128906 36.019531 C 90.832031 54.886719 70.398438 36.722656 51.058594 19.496094 C 42.601562 11.980469 34.378906 4.621094 25.140625 0.3125 Z M 41.503906 0.3125 L 75.488281 0.3125 C 73.375 1.722656 71.179688 2.898438 68.832031 3.757812 C 65.621094 4.933594 62.097656 5.558594 58.496094 5.558594 C 54.894531 5.558594 51.371094 4.933594 48.238281 3.757812 C 45.8125 2.898438 43.621094 1.722656 41.503906 0.3125 Z M 119.570312 0.3125 L 134.601562 0.3125 C 134.601562 1.175781 134.996094 1.957031 135.855469 2.425781 C 147.210938 8.378906 156.683594 18.164062 166.234375 28.03125 C 183.304688 45.804688 200.6875 63.734375 230.753906 62.71875 C 214.859375 88.242188 221.75 112.28125 228.484375 135.925781 C 232.320312 149.160156 236.078125 162.234375 235.53125 175.15625 C 235.53125 175.546875 235.6875 176.015625 235.921875 176.484375 C 236.625 177.582031 238.035156 177.894531 239.132812 177.191406 C 250.09375 170.300781 263.25 167.011719 276.558594 163.722656 C 300.441406 157.773438 324.792969 151.742188 338.886719 125.199219 L 338.886719 136.945312 C 337.945312 136.945312 337.085938 137.492188 336.691406 138.355469 C 324.632812 166.152344 296.210938 171.945312 269.824219 177.347656 C 254.636719 180.480469 240.148438 183.453125 229.1875 190.265625 C 229.65625 177.425781 224.960938 163.332031 220.105469 148.691406 C 211.570312 123.085938 202.410156 95.601562 220.339844 71.253906 C 220.730469 70.78125 220.886719 70.234375 220.808594 69.53125 C 220.652344 68.277344 219.558594 67.335938 218.226562 67.492188 C 188.160156 70.859375 168.898438 49.171875 150.96875 28.96875 C 140.710938 17.460938 130.921875 6.34375 119.570312 0.3125 Z M 141.648438 0.3125 L 155.195312 0.3125 C 155.195312 0.859375 155.351562 1.410156 155.742188 1.800781 C 155.820312 1.957031 155.898438 2.035156 156.058594 2.113281 C 159.109375 4.699219 162.632812 6.8125 166.46875 8.144531 C 170.152344 9.550781 174.222656 10.257812 178.371094 10.257812 C 182.523438 10.257812 186.515625 9.550781 190.273438 8.144531 C 194.109375 6.8125 197.632812 4.699219 200.765625 2.113281 C 201.3125 1.644531 201.546875 1.019531 201.546875 0.3125 L 210.632812 0.3125 C 210.632812 0.703125 210.789062 1.175781 211.023438 1.488281 C 211.179688 1.878906 211.492188 2.113281 211.804688 2.347656 C 214.46875 3.914062 217.207031 5.480469 220.027344 6.890625 C 212.980469 10.023438 208.59375 15.425781 206.402344 21.6875 C 204.914062 25.996094 204.601562 30.691406 205.230469 35.390625 C 205.855469 39.933594 207.5 44.472656 210.003906 48.46875 C 212.199219 51.835938 214.9375 54.886719 218.304688 57.238281 C 197.398438 53.554688 183.382812 39.070312 169.601562 24.820312 C 160.832031 15.660156 152.140625 6.65625 141.648438 0.3125 Z M 161.382812 0.3125 L 195.363281 0.3125 C 193.25 1.722656 191.054688 2.898438 188.628906 3.757812 C 185.496094 4.933594 181.972656 5.558594 178.371094 5.558594 C 174.769531 5.558594 171.246094 4.933594 168.035156 3.757812 C 165.6875 2.898438 163.417969 1.722656 161.382812 0.3125 Z M 217.679688 0.3125 L 250.5625 0.3125 C 250.5625 1.175781 251.035156 2.035156 251.894531 2.425781 C 258.238281 5.480469 265.285156 7.910156 272.800781 9.550781 C 280.082031 11.117188 287.835938 11.980469 295.898438 11.980469 C 299.1875 11.980469 302.476562 11.824219 305.609375 11.511719 C 296.210938 13.859375 286.269531 15.113281 275.933594 15.113281 C 267.164062 15.113281 258.628906 14.25 250.484375 12.527344 L 250.25 12.449219 C 247.980469 11.980469 245.710938 11.433594 243.515625 10.804688 C 237.957031 9.316406 232.554688 7.4375 227.464844 5.167969 L 227.152344 5.011719 C 223.863281 3.601562 220.730469 2.035156 217.679688 0.3125 Z M 258.707031 0.3125 L 333.089844 0.3125 C 328.316406 2.191406 323.304688 3.757812 317.980469 4.933594 C 311.011719 6.421875 303.570312 7.28125 295.898438 7.28125 C 288.226562 7.28125 280.789062 6.421875 273.820312 4.933594 C 268.496094 3.757812 263.40625 2.191406 258.707031 0.3125 Z M 338.886719 26.308594 L 338.886719 92.941406 L 338.808594 92.078125 C 338.335938 86.753906 335.910156 82.058594 331.210938 79.316406 L 330.820312 79.082031 C 326.828125 76.8125 322.519531 76.027344 318.214844 76.65625 C 317.507812 76.8125 316.804688 76.96875 316.101562 77.125 C 318.996094 73.132812 321.816406 68.980469 324.320312 64.597656 C 330.195312 54.417969 334.5 43.847656 337.320312 33.199219 C 337.867188 30.929688 338.414062 28.65625 338.886719 26.308594 Z M 338.886719 95.601562 L 338.886719 117.527344 C 338.492188 117.527344 338.101562 117.605469 337.710938 117.839844 C 337.320312 117.996094 337.007812 118.386719 336.769531 118.703125 C 331.996094 127.078125 324.007812 130.996094 316.023438 131.308594 C 311.949219 131.464844 307.878906 130.679688 304.199219 129.195312 C 300.519531 127.707031 297.230469 125.511719 294.722656 122.617188 C 290.496094 117.683594 288.460938 110.871094 290.652344 102.648438 C 295.195312 99.28125 299.5 95.523438 303.652344 91.453125 C 305.292969 89.808594 306.9375 88.085938 308.503906 86.363281 C 311.871094 83.546875 315.394531 81.902344 318.917969 81.351562 C 322.207031 80.882812 325.496094 81.429688 328.550781 83.230469 L 328.707031 83.230469 C 331.996094 85.1875 333.796875 88.632812 334.109375 92.550781 C 334.578125 96.699219 333.402344 101.320312 331.132812 105.390625 C 329.019531 108.992188 326.121094 111.339844 323.148438 112.4375 C 320.40625 113.457031 317.667969 113.378906 315.707031 112.28125 L 315.394531 112.125 C 313.203125 110.792969 311.949219 108.835938 311.558594 106.566406 C 311.167969 104.136719 311.714844 101.398438 313.203125 98.890625 L 313.28125 98.734375 C 314.144531 97.167969 315.628906 96.308594 317.039062 95.917969 C 319.308594 95.367188 321.582031 95.757812 322.675781 96.386719 C 323.773438 97.089844 325.183594 96.699219 325.886719 95.523438 C 326.515625 94.429688 326.121094 93.019531 325.027344 92.316406 C 323.148438 91.21875 319.386719 90.515625 315.945312 91.375 C 313.359375 92 310.933594 93.488281 309.289062 96.230469 L 309.054688 96.621094 C 307.09375 100.066406 306.390625 103.902344 306.9375 107.269531 C 307.488281 110.949219 309.523438 114.160156 313.046875 116.195312 L 313.359375 116.429688 C 316.570312 118.152344 320.71875 118.308594 324.792969 116.820312 C 328.628906 115.414062 332.464844 112.4375 335.125 107.894531 L 335.285156 107.582031 C 337.398438 103.824219 338.648438 99.675781 338.886719 95.601562 Z M 338.886719 171.398438 L 338.886719 185.960938 C 338.726562 185.960938 338.570312 185.960938 338.335938 186.039062 C 337.476562 186.195312 336.769531 186.898438 336.613281 187.761719 C 333.011719 203.65625 324.792969 215.949219 313.28125 223.542969 C 303.414062 230.042969 291.199219 233.175781 277.34375 232.3125 L 277.105469 232.3125 C 275.933594 232.234375 274.679688 232.078125 273.425781 231.921875 C 274.992188 228.320312 276.167969 224.40625 277.027344 220.175781 C 297.464844 219.394531 311.480469 213.441406 321.425781 203.578125 C 329.800781 195.277344 335.125 184.316406 338.886719 171.398438 Z M 338.886719 196.921875 L 338.886719 211.171875 C 338.257812 211.171875 337.632812 211.40625 337.164062 211.878906 C 306 245.390625 324.632812 279.996094 334.34375 297.847656 L 334.421875 298.007812 C 335.363281 299.886719 336.300781 301.53125 336.769531 302.46875 C 337.007812 302.9375 337.398438 303.253906 337.789062 303.488281 C 338.179688 303.722656 338.492188 303.800781 338.886719 303.800781 L 338.886719 314.214844 C 333.953125 305.679688 326.59375 298.945312 319.152344 292.210938 C 304.277344 278.667969 289.320312 264.964844 295.898438 235.679688 C 303.257812 234.191406 309.914062 231.375 315.863281 227.457031 C 326.355469 220.566406 334.265625 210.15625 338.886719 196.921875 Z M 338.886719 217.042969 L 338.886719 228.085938 C 338.179688 228.085938 337.476562 228.398438 337.007812 229.023438 C 331.523438 236.621094 329.488281 245.234375 329.488281 253.453125 C 329.488281 264.730469 333.246094 275.300781 336.847656 281.484375 C 337.007812 281.796875 337.320312 282.113281 337.710938 282.347656 C 338.101562 282.582031 338.492188 282.660156 338.886719 282.660156 L 338.886719 296.363281 L 338.492188 295.578125 C 329.488281 279.136719 312.5 247.503906 338.886719 217.042969 Z M 338.886719 234.742188 L 338.886719 275.144531 C 336.378906 269.425781 334.265625 261.675781 334.265625 253.453125 C 334.265625 247.191406 335.519531 240.691406 338.886719 234.742188 Z M 338.886719 321.730469 L 338.886719 330.421875 C 334.265625 321.964844 324.476562 313.507812 313.90625 304.425781 C 292.6875 286.105469 267.945312 264.808594 278.671875 237.089844 C 282.902344 237.246094 286.972656 237.089844 290.964844 236.542969 C 284.703125 267.15625 300.441406 281.484375 315.945312 295.65625 C 324.164062 303.171875 332.308594 310.613281 336.769531 320.398438 C 337.007812 320.871094 337.398438 321.261719 337.945312 321.574219 C 338.257812 321.652344 338.570312 321.730469 338.886719 321.730469 Z M 197.789062 228.867188 C 200.921875 226.285156 204.445312 224.25 208.28125 222.917969 C 208.359375 222.839844 208.515625 222.761719 208.675781 222.761719 C 210.003906 222.527344 211.179688 223.386719 211.414062 224.640625 C 212.117188 228.632812 212.199219 232.703125 211.492188 236.777344 C 210.789062 240.613281 209.457031 244.371094 207.421875 247.972656 L 207.34375 248.128906 C 205.230469 251.730469 202.566406 254.863281 199.589844 257.367188 C 196.460938 259.953125 192.9375 261.988281 189.175781 263.398438 C 189.019531 263.398438 188.863281 263.476562 188.707031 263.476562 C 187.375 263.710938 186.203125 262.851562 185.96875 261.597656 C 185.261719 257.605469 185.183594 253.53125 185.890625 249.539062 C 186.59375 245.625 188.003906 241.789062 190.039062 238.1875 C 192.152344 234.503906 194.816406 231.375 197.789062 228.867188 Z M 207.1875 228.398438 C 204.914062 229.496094 202.800781 230.824219 200.84375 232.46875 C 198.261719 234.664062 195.910156 237.402344 194.109375 240.457031 C 192.308594 243.589844 191.136719 246.957031 190.585938 250.320312 C 190.117188 252.828125 190.039062 255.332031 190.195312 257.839844 C 192.464844 256.742188 194.578125 255.410156 196.539062 253.765625 C 199.121094 251.574219 201.46875 248.914062 203.269531 245.78125 L 203.347656 245.625 C 205.070312 242.570312 206.246094 239.28125 206.792969 235.914062 C 207.265625 233.410156 207.34375 230.902344 207.1875 228.398438 Z M 257.765625 125.042969 C 260.898438 122.460938 264.421875 120.425781 268.179688 119.09375 C 268.335938 119.015625 268.496094 119.015625 268.652344 118.9375 C 269.902344 118.703125 271.15625 119.5625 271.390625 120.816406 C 272.097656 124.808594 272.097656 128.957031 271.390625 132.953125 C 270.6875 136.789062 269.355469 140.703125 267.242188 144.304688 C 265.128906 147.90625 262.542969 151.039062 259.488281 153.542969 C 256.359375 156.207031 252.835938 158.164062 249.074219 159.574219 C 248.917969 159.652344 248.761719 159.652344 248.605469 159.730469 C 247.355469 159.886719 246.101562 159.105469 245.867188 157.773438 C 245.160156 153.859375 245.160156 149.707031 245.867188 145.714844 C 246.492188 141.800781 247.902344 137.964844 250.015625 134.359375 C 252.050781 130.679688 254.714844 127.628906 257.765625 125.042969 Z M 267.085938 124.652344 C 264.890625 125.671875 262.699219 127.078125 260.820312 128.722656 C 258.160156 130.914062 255.886719 133.578125 254.085938 136.710938 C 252.285156 139.84375 251.113281 143.128906 250.484375 146.496094 C 250.09375 149.003906 249.9375 151.507812 250.171875 154.015625 C 252.363281 152.917969 254.480469 151.585938 256.4375 149.941406 C 259.097656 147.75 261.367188 145.089844 263.171875 141.957031 C 264.972656 138.824219 266.144531 135.535156 266.773438 132.167969 C 267.164062 129.664062 267.320312 127.078125 267.085938 124.652344 Z M 183.539062 82.605469 C 165.0625 78.457031 149.636719 63.65625 135.386719 47.761719 C 130.84375 50.738281 126.382812 53.164062 122.074219 54.964844 C 132.097656 70.625 143.214844 79.003906 155.351562 82.292969 C 164.121094 84.640625 173.515625 84.484375 183.539062 82.605469 Z M 258.707031 46.589844 C 259.175781 46.351562 259.648438 46.195312 260.039062 45.960938 C 264.8125 44.003906 269.902344 43.925781 274.445312 46.507812 C 278.59375 48.9375 281.492188 52.304688 283.058594 56.375 C 283.371094 57.078125 283.605469 57.707031 283.761719 58.410156 C 285.71875 53.949219 287.992188 49.40625 290.496094 45.023438 C 296.367188 34.921875 303.414062 25.917969 311.167969 18.164062 C 312.890625 16.441406 314.613281 14.875 316.335938 13.3125 C 314.144531 14.09375 311.871094 14.71875 309.601562 15.347656 C 298.953125 18.242188 287.675781 19.808594 275.933594 19.808594 C 270.84375 19.808594 265.910156 19.574219 260.976562 18.949219 C 261.449219 19.496094 261.996094 20.042969 262.386719 20.59375 C 265.128906 24.039062 266.695312 28.265625 266.695312 32.964844 C 266.695312 38.210938 264.03125 42.59375 259.882812 45.726562 C 259.566406 46.039062 259.175781 46.351562 258.707031 46.589844 Z M 235.140625 57.707031 C 235.6875 57.707031 236.234375 57.785156 236.703125 58.175781 C 237.722656 58.882812 238.035156 60.289062 237.332031 61.386719 C 232.554688 69.6875 233.179688 78.535156 236.941406 85.660156 C 238.742188 89.183594 241.480469 92.394531 244.613281 94.820312 L 244.769531 94.898438 C 247.824219 97.246094 251.347656 98.96875 255.027344 99.675781 C 261.449219 100.925781 268.414062 99.285156 274.367188 93.253906 C 274.992188 87.617188 276.089844 81.980469 277.578125 76.421875 C 278.125 74.148438 278.828125 71.878906 279.535156 69.609375 C 280.238281 65.300781 280.003906 61.386719 278.671875 58.097656 C 277.421875 55.042969 275.304688 52.460938 272.097656 50.582031 C 268.964844 48.78125 265.285156 48.859375 261.839844 50.347656 C 257.84375 51.992188 254.164062 55.359375 251.738281 59.585938 C 249.703125 63.1875 249.15625 66.867188 249.703125 70 C 250.171875 72.898438 251.582031 75.246094 253.539062 76.421875 L 253.773438 76.578125 C 256.042969 77.828125 258.394531 77.90625 260.507812 77.125 C 262.855469 76.183594 264.972656 74.304688 266.457031 71.722656 C 267.554688 69.765625 267.320312 67.808594 266.695312 66.085938 C 265.910156 64.285156 264.65625 62.953125 263.796875 62.40625 C 262.621094 61.777344 262.230469 60.289062 262.933594 59.195312 C 263.5625 58.097656 264.972656 57.707031 266.144531 58.332031 C 267.789062 59.273438 269.824219 61.542969 271 64.285156 C 272.175781 67.179688 272.488281 70.625 270.53125 74.070312 C 268.496094 77.59375 265.519531 80.257812 262.230469 81.507812 C 258.707031 82.839844 254.949219 82.683594 251.269531 80.570312 C 248.058594 78.691406 245.789062 75.089844 245.003906 70.78125 C 244.300781 66.710938 245.003906 61.855469 247.667969 57.316406 L 247.746094 57.238281 C 249.859375 53.398438 252.914062 50.191406 256.359375 47.917969 C 252.679688 49.796875 248.371094 50.816406 243.988281 50.816406 C 238.664062 50.816406 234.121094 49.015625 230.910156 46.351562 C 227.542969 43.535156 225.585938 39.777344 225.585938 36.019531 C 225.585938 31.867188 227.386719 28.5 230.207031 26.152344 C 233.023438 23.882812 236.78125 22.628906 240.855469 22.628906 C 244.144531 22.628906 246.648438 24.039062 248.527344 25.996094 C 251.035156 28.5 252.285156 32.101562 252.285156 34.296875 C 252.285156 35.625 251.191406 36.644531 249.9375 36.644531 C 248.605469 36.644531 247.511719 35.625 247.511719 34.296875 C 247.511719 33.042969 246.726562 30.851562 245.160156 29.207031 C 244.144531 28.1875 242.65625 27.328125 240.855469 27.328125 C 237.800781 27.328125 235.140625 28.1875 233.179688 29.753906 C 231.378906 31.242188 230.285156 33.355469 230.285156 36.019531 C 230.285156 38.367188 231.617188 40.792969 233.886719 42.75 C 236.3125 44.707031 239.835938 46.117188 243.988281 46.117188 C 248.839844 46.117188 253.617188 44.628906 257.0625 41.96875 C 260.039062 39.777344 261.917969 36.644531 261.917969 32.964844 C 261.917969 29.363281 260.820312 26.152344 258.707031 23.488281 C 256.515625 20.75 253.304688 18.558594 249.15625 17.070312 C 246.882812 16.519531 244.613281 15.972656 242.34375 15.347656 C 236.703125 13.859375 231.300781 11.980469 226.132812 9.710938 C 217.914062 11.902344 212.980469 17.070312 210.867188 23.253906 C 209.691406 26.855469 209.378906 30.851562 209.925781 34.6875 C 210.476562 38.679688 211.882812 42.515625 214 45.960938 C 218.304688 52.773438 225.585938 57.707031 235.140625 57.707031 Z M 275.464844 159.105469 C 294.722656 154.328125 314.300781 149.472656 327.84375 133.1875 C 324.164062 134.910156 320.171875 135.847656 316.179688 136.003906 C 311.480469 136.160156 306.703125 135.300781 302.398438 133.578125 C 298.089844 131.855469 294.175781 129.113281 291.199219 125.75 C 286.816406 120.738281 284.390625 114.160156 285.171875 106.488281 C 282.511719 108.289062 279.847656 109.855469 277.105469 111.339844 C 276.792969 111.578125 276.402344 111.65625 276.011719 111.65625 C 274.679688 111.65625 273.660156 110.636719 273.582031 109.382812 C 273.503906 106.25 273.582031 103.121094 273.742188 99.910156 C 267.476562 104.449219 260.585938 105.546875 254.164062 104.292969 C 249.703125 103.433594 245.550781 101.476562 241.871094 98.65625 L 241.714844 98.5 C 238.035156 95.679688 234.902344 92 232.710938 87.773438 C 230.910156 84.25 229.65625 80.414062 229.34375 76.339844 C 222.0625 96.230469 227.542969 115.570312 233.023438 134.675781 C 236.546875 146.8125 239.992188 158.867188 240.308594 171.082031 C 251.035156 165.210938 263.171875 162.234375 275.464844 159.105469 Z M 332.464844 175.9375 C 319.703125 189.953125 299.109375 195.902344 278.203125 200.289062 C 278.59375 205.691406 278.4375 210.703125 277.8125 215.402344 C 296.445312 214.539062 309.210938 209.136719 318.136719 200.210938 C 324.554688 193.867188 329.097656 185.648438 332.464844 175.9375 Z M 210.867188 217.515625 C 213.839844 204.4375 207.734375 186.585938 201.078125 167.558594 C 167.566406 187.839844 173.125 214.617188 178.371094 239.988281 C 180.644531 251.027344 182.835938 261.832031 182.050781 272.011719 C 190.351562 266.214844 200.921875 262.691406 211.648438 259.167969 C 236.234375 251.027344 262.152344 242.414062 262.933594 203.265625 C 243.125 207.023438 224.648438 210.703125 214.78125 219.785156 C 214.234375 220.253906 213.449219 220.488281 212.667969 220.332031 C 211.414062 220.019531 210.632812 218.765625 210.867188 217.515625 Z M 199.511719 163.019531 L 197.554688 157.382812 C 153.160156 179.773438 160.753906 226.207031 166.46875 261.285156 C 168.585938 273.890625 170.386719 285.085938 169.601562 293.542969 C 176.570312 288.609375 187.140625 284.617188 199.121094 280.074219 C 232.320312 267.46875 276.324219 250.871094 273.503906 201.230469 L 267.632812 202.324219 C 267.320312 245.703125 239.445312 254.941406 213.136719 263.632812 C 200.6875 267.78125 188.550781 271.777344 180.40625 279.292969 C 179.859375 279.839844 179.078125 280.074219 178.292969 279.839844 C 177.042969 279.605469 176.257812 278.351562 176.492188 277.023438 C 179 266.214844 176.414062 253.6875 173.753906 240.925781 C 168.113281 213.679688 162.164062 185.019531 199.511719 163.019531 Z M 200.765625 79.550781 Z M 176.101562 118.230469 C 172.890625 130.445312 174.613281 144.226562 183.148438 160.746094 C 186.90625 157.851562 191.214844 155.265625 196.066406 152.839844 C 189.332031 132.558594 184.324219 111.734375 189.960938 93.644531 C 183.304688 101.476562 178.449219 109.460938 176.101562 118.230469 Z M 96 163.332031 C 115.105469 169.4375 134.523438 175.546875 156.527344 155.1875 C 154.175781 148.140625 153.238281 140.9375 153.628906 133.8125 C 154.414062 121.285156 159.421875 109.226562 168.585938 98.578125 C 154.882812 101.242188 141.882812 99.519531 130.609375 93.957031 C 124.265625 90.75 118.550781 86.363281 113.539062 80.804688 C 84.960938 89.652344 80.578125 109.539062 76.269531 129.113281 C 74.078125 138.902344 71.964844 148.691406 67.03125 157.304688 C 76.898438 157.304688 86.449219 160.277344 96 163.332031 Z M 107.121094 62.796875 L 107.199219 63.03125 C 113.382812 75.402344 122.230469 84.484375 132.722656 89.730469 C 145.09375 95.917969 159.816406 96.933594 175.398438 92.078125 C 176.179688 91.765625 177.199219 92 177.824219 92.707031 C 178.683594 93.644531 178.605469 95.132812 177.667969 96.074219 C 165.6875 107.113281 159.1875 120.34375 158.40625 134.125 C 157.621094 146.96875 161.773438 160.355469 171.011719 172.804688 C 173.359375 169.597656 176.179688 166.621094 179.390625 163.800781 C 169.914062 145.714844 168.035156 130.601562 171.558594 117.058594 C 174.613281 105.703125 181.425781 95.601562 190.742188 85.816406 C 177.667969 89.105469 165.453125 89.886719 154.175781 86.832031 C 140.632812 83.152344 128.496094 73.992188 117.535156 56.6875 C 113.460938 58.019531 109.46875 58.960938 105.554688 59.429688 C 106.023438 60.605469 106.570312 61.699219 107.121094 62.796875 Z M 88.015625 173.980469 C 114.480469 183.21875 145.25 193.945312 163.964844 170.847656 C 161.695312 167.324219 159.816406 163.644531 158.25 159.964844 C 134.917969 180.636719 114.636719 174.214844 94.59375 167.792969 C 83.945312 164.507812 73.453125 161.140625 62.804688 162.15625 C 61.472656 162.3125 60.296875 161.375 60.21875 160.042969 C 60.140625 159.496094 60.296875 158.867188 60.6875 158.398438 C 66.875 149.785156 69.300781 138.980469 71.652344 128.175781 C 76.191406 107.582031 80.734375 86.832031 110.332031 76.890625 C 107.902344 73.757812 105.710938 70.3125 103.753906 66.554688 C 74.390625 71.175781 68.285156 103.199219 63.039062 130.679688 C 60.453125 144.460938 58.027344 157.144531 53.015625 165.367188 C 62.644531 165.132812 74.78125 169.359375 88.015625 173.980469 Z M 83.160156 148.375 C 101.875 147.828125 137.96875 146.890625 151.203125 108.679688 C 111.503906 101.003906 92.632812 131.777344 82.847656 147.75 L 82.457031 148.375 Z M 156.449219 107.738281 C 142.902344 151.507812 103.519531 152.527344 83.316406 153.074219 C 81.4375 153.074219 79.792969 153.152344 78.226562 153.230469 C 76.898438 153.308594 75.800781 152.292969 75.800781 150.960938 C 75.722656 150.492188 75.878906 149.941406 76.113281 149.550781 C 76.898438 148.375 77.835938 146.890625 78.855469 145.324219 C 89.425781 128.019531 110.015625 94.351562 154.804688 104.609375 C 156.058594 104.921875 156.839844 106.171875 156.527344 107.425781 Z M 121.996094 130.917969 C 127.398438 127.785156 132.410156 123.476562 135.855469 117.527344 C 128.964844 117.605469 122.703125 119.71875 117.300781 122.851562 C 110.253906 126.921875 104.535156 132.71875 100.933594 137.726562 C 107.121094 137.023438 114.871094 134.988281 121.996094 130.917969 Z M 141.804688 116.351562 C 137.890625 124.886719 131.472656 130.917969 124.347656 134.988281 C 114.558594 140.625 103.519531 142.660156 96.394531 142.660156 C 95.0625 142.660156 94.042969 141.644531 94.042969 140.3125 C 94.042969 139.921875 94.121094 139.449219 94.355469 139.136719 C 97.878906 132.953125 105.164062 124.417969 114.949219 118.78125 C 122.074219 114.707031 130.53125 112.046875 139.847656 112.984375 C 141.179688 113.140625 142.121094 114.316406 141.964844 115.570312 C 141.964844 115.882812 141.886719 116.117188 141.804688 116.351562 Z M 331.996094 34.6875 C 330.664062 37.582031 329.097656 40.480469 327.453125 43.378906 L 327.375 43.535156 C 323.382812 50.425781 318.839844 56.609375 313.828125 62.089844 C 308.660156 67.886719 303.023438 72.738281 297.230469 76.734375 C 296.132812 77.4375 294.644531 77.203125 293.941406 76.105469 C 293.628906 75.636719 293.472656 75.089844 293.550781 74.617188 C 294.097656 67.570312 295.507812 60.289062 297.855469 52.929688 C 300.128906 45.804688 303.257812 38.679688 307.332031 31.710938 C 308.976562 28.890625 310.699219 26.074219 312.578125 23.488281 C 305.765625 30.457031 299.734375 38.445312 294.566406 47.371094 C 290.183594 55.042969 286.738281 62.875 284.152344 70.78125 L 284.074219 71.015625 C 283.371094 73.210938 282.667969 75.402344 282.117188 77.59375 C 280.628906 83.230469 279.613281 88.871094 278.988281 94.507812 L 278.90625 94.664062 C 278.515625 98.1875 278.359375 101.710938 278.28125 105.234375 C 281.335938 103.433594 284.3125 101.476562 287.207031 99.363281 C 291.828125 95.996094 296.210938 92.238281 300.363281 88.164062 C 301.929688 86.519531 303.492188 84.875 305.058594 83.152344 L 305.292969 82.917969 C 310.855469 76.734375 315.863281 69.84375 320.25 62.246094 C 325.417969 53.320312 329.332031 44.082031 331.996094 34.6875 Z M 332.464844 20.75 C 334.109375 15.582031 335.285156 10.414062 335.988281 5.324219 C 331.917969 8.457031 328.078125 12.058594 324.398438 16.128906 C 319.625 21.375 315.238281 27.40625 311.402344 34.058594 C 307.566406 40.714844 304.511719 47.527344 302.320312 54.339844 C 300.675781 59.507812 299.5 64.675781 298.796875 69.765625 C 302.789062 66.632812 306.703125 63.03125 310.382812 58.960938 C 315.160156 53.714844 319.546875 47.761719 323.304688 41.105469 L 323.382812 41.027344 C 327.21875 34.375 330.273438 27.5625 332.464844 20.75 Z M 332.464844 20.75 " fill-opacity="1" fill-rule="nonzero"/></g></g></g></g><g clip-path="url(#2e75e71715)"><path fill="#fad099" d="M 2.296875 648.929688 C 1.90625 650.023438 0.964844 650.496094 0.105469 650.496094 L 0.105469 665.292969 C 14.042969 639.140625 42.074219 633.347656 68.226562 628.023438 C 84.824219 624.578125 100.640625 621.367188 110.976562 613.144531 C 111.523438 612.675781 112.230469 612.441406 112.933594 612.519531 C 114.265625 612.753906 115.125 613.929688 114.890625 615.179688 C 112.855469 628.335938 118.023438 643.683594 123.347656 659.8125 C 131.804688 685.179688 140.808594 712.273438 125.148438 737.484375 C 154.824219 736.464844 173.773438 757.921875 191.546875 777.886719 C 202.820312 790.570312 213.546875 802.707031 225.917969 807.484375 C 226.546875 807.71875 227.015625 808.1875 227.25 808.816406 C 227.40625 809.128906 227.40625 809.363281 227.40625 809.675781 L 245.335938 809.675781 C 233.042969 803.492188 221.535156 790.179688 209.398438 776.007812 L 208.300781 774.753906 C 188.804688 752.203125 167.585938 728.167969 140.339844 731.21875 C 139.632812 731.300781 138.851562 731.0625 138.300781 730.515625 L 138.144531 730.359375 C 137.910156 730.046875 137.753906 729.578125 137.675781 729.183594 C 137.597656 728.480469 137.832031 727.855469 138.222656 727.382812 C 152.554688 707.964844 146.289062 681.96875 137.832031 656.835938 L 137.753906 656.523438 C 136.65625 653.234375 135.5625 650.023438 134.464844 646.8125 L 133.917969 645.25 C 127.730469 627.632812 121.9375 611.03125 122.722656 597.328125 C 111.210938 604.847656 93.90625 608.132812 75.585938 611.578125 C 71.75 612.363281 67.832031 613.066406 63.917969 613.851562 L 63.605469 613.929688 C 37.609375 619.253906 12.007812 626.847656 2.296875 648.929688 Z M 338.667969 809.675781 L 322.617188 809.675781 C 322.617188 809.441406 322.617188 809.207031 322.539062 808.972656 C 322.304688 808.1875 321.679688 807.640625 320.972656 807.40625 C 310.324219 804.117188 300.851562 795.660156 291.0625 786.96875 C 270.316406 768.492188 248.390625 748.996094 210.730469 770.371094 L 206.734375 765.828125 C 248.3125 738.582031 284.800781 768.335938 312.28125 790.882812 C 322.148438 798.949219 330.917969 806.152344 338.667969 809.675781 Z M 313.847656 809.675781 L 303.667969 809.675781 C 303.667969 809.128906 303.511719 808.578125 303.121094 808.1875 C 303.042969 808.03125 302.964844 807.953125 302.808594 807.875 C 299.753906 805.292969 296.230469 803.175781 292.394531 801.769531 C 288.636719 800.4375 284.644531 799.730469 280.492188 799.730469 C 276.34375 799.730469 272.351562 800.4375 268.59375 801.769531 C 264.753906 803.175781 261.230469 805.292969 258.101562 807.875 C 257.550781 808.34375 257.316406 808.972656 257.316406 809.675781 L 253.871094 809.675781 C 253.871094 809.441406 253.871094 809.207031 253.792969 808.972656 C 253.558594 808.1875 252.933594 807.640625 252.226562 807.40625 C 239.464844 803.414062 227.015625 789.238281 213.859375 773.972656 C 248.15625 755.101562 268.59375 773.265625 287.933594 790.492188 C 296.386719 798.007812 304.609375 805.371094 313.847656 809.675781 Z M 297.484375 809.675781 L 263.503906 809.675781 C 265.617188 808.265625 267.808594 807.09375 270.15625 806.230469 C 273.367188 805.054688 276.890625 804.429688 280.492188 804.429688 C 284.09375 804.429688 287.617188 805.054688 290.75 806.230469 C 293.179688 807.09375 295.371094 808.265625 297.484375 809.675781 Z M 219.421875 809.675781 L 204.386719 809.675781 C 204.386719 808.816406 203.996094 808.03125 203.132812 807.5625 C 191.78125 801.613281 182.304688 791.824219 172.753906 781.957031 C 155.683594 764.183594 138.300781 746.253906 108.234375 747.273438 C 124.128906 721.746094 117.238281 697.707031 110.507812 674.0625 C 106.667969 660.828125 102.910156 647.753906 103.460938 634.835938 C 103.460938 634.441406 103.300781 633.972656 103.066406 633.503906 C 102.363281 632.40625 100.953125 632.09375 99.859375 632.796875 C 88.894531 639.6875 75.742188 642.976562 62.429688 646.265625 C 38.550781 652.21875 14.199219 658.246094 0.105469 684.789062 L 0.105469 673.042969 C 1.042969 673.042969 1.90625 672.496094 2.296875 671.636719 C 14.355469 643.839844 42.777344 638.042969 69.164062 632.640625 C 84.355469 629.511719 98.839844 626.535156 109.800781 619.722656 C 109.332031 632.5625 114.03125 646.65625 118.882812 661.300781 C 127.417969 686.902344 136.578125 714.386719 118.648438 738.738281 C 118.257812 739.207031 118.101562 739.753906 118.179688 740.460938 C 118.335938 741.710938 119.433594 742.652344 120.761719 742.496094 C 150.832031 739.128906 170.089844 760.816406 188.023438 781.019531 C 198.28125 792.527344 208.066406 803.648438 219.421875 809.675781 Z M 197.339844 809.675781 L 183.792969 809.675781 C 183.792969 809.128906 183.636719 808.578125 183.246094 808.1875 C 183.167969 808.03125 183.089844 807.953125 182.933594 807.875 C 179.878906 805.292969 176.355469 803.175781 172.519531 801.847656 C 168.839844 800.4375 164.765625 799.730469 160.617188 799.730469 C 156.46875 799.730469 152.472656 800.4375 148.714844 801.847656 C 144.878906 803.175781 141.355469 805.292969 138.222656 807.875 C 137.675781 808.34375 137.441406 808.972656 137.441406 809.675781 L 128.359375 809.675781 C 128.359375 809.285156 128.203125 808.816406 127.96875 808.5 C 127.808594 808.109375 127.496094 807.875 127.183594 807.640625 C 124.523438 806.074219 121.78125 804.507812 118.960938 803.097656 C 126.007812 799.96875 130.394531 794.5625 132.585938 788.300781 C 134.074219 783.992188 134.386719 779.296875 133.761719 774.597656 C 133.132812 770.058594 131.492188 765.515625 128.984375 761.523438 C 126.792969 758.15625 124.050781 755.101562 120.683594 752.753906 C 141.589844 756.433594 155.605469 770.917969 169.386719 785.167969 C 178.15625 794.328125 186.847656 803.332031 197.339844 809.675781 Z M 177.609375 809.675781 L 143.625 809.675781 C 145.742188 808.265625 147.933594 807.09375 150.359375 806.230469 C 153.492188 805.054688 157.015625 804.429688 160.617188 804.429688 C 164.21875 804.429688 167.742188 805.054688 170.953125 806.230469 C 173.300781 807.09375 175.574219 808.265625 177.609375 809.675781 Z M 121.3125 809.675781 L 88.425781 809.675781 C 88.425781 808.816406 87.957031 807.953125 87.09375 807.5625 C 80.753906 804.507812 73.707031 802.082031 66.1875 800.4375 C 58.90625 798.871094 51.15625 798.007812 43.089844 798.007812 C 39.800781 798.007812 36.511719 798.167969 33.382812 798.480469 C 42.777344 796.128906 52.722656 794.878906 63.058594 794.878906 C 71.828125 794.878906 80.359375 795.738281 88.503906 797.460938 L 88.738281 797.539062 C 91.007812 798.007812 93.28125 798.558594 95.472656 799.183594 C 101.03125 800.671875 106.433594 802.550781 111.523438 804.820312 L 111.835938 804.976562 C 115.125 806.386719 118.257812 807.953125 121.3125 809.675781 Z M 80.28125 809.675781 L 5.898438 809.675781 C 10.675781 807.796875 15.6875 806.230469 21.011719 805.054688 C 27.980469 803.570312 35.417969 802.707031 43.089844 802.707031 C 50.765625 802.707031 58.203125 803.570312 65.171875 805.054688 C 70.496094 806.230469 75.585938 807.796875 80.28125 809.675781 Z M 0.105469 783.679688 L 0.105469 717.046875 L 0.183594 717.910156 C 0.652344 723.234375 3.078125 727.933594 7.777344 730.671875 L 8.167969 730.90625 C 12.164062 733.179688 16.46875 733.960938 20.777344 733.335938 C 21.480469 733.179688 22.183594 733.019531 22.890625 732.863281 C 19.992188 736.859375 17.171875 741.007812 14.667969 745.394531 C 8.796875 755.570312 4.488281 766.140625 1.671875 776.789062 C 1.121094 779.0625 0.574219 781.332031 0.105469 783.679688 Z M 0.105469 714.386719 L 0.105469 692.460938 C 0.496094 692.460938 0.886719 692.382812 1.277344 692.148438 C 1.671875 691.992188 1.984375 691.601562 2.21875 691.289062 C 6.996094 682.910156 14.980469 678.996094 22.96875 678.683594 C 27.039062 678.523438 31.109375 679.308594 34.792969 680.796875 C 38.472656 682.285156 41.757812 684.476562 44.265625 687.375 C 48.492188 692.304688 50.527344 699.117188 48.335938 707.339844 C 43.796875 710.707031 39.488281 714.464844 35.339844 718.535156 C 33.695312 720.179688 32.050781 721.902344 30.484375 723.625 C 27.117188 726.445312 23.59375 728.089844 20.070312 728.636719 C 16.78125 729.105469 13.492188 728.558594 10.441406 726.757812 L 10.285156 726.757812 C 6.996094 724.800781 5.195312 721.355469 4.878906 717.441406 C 4.410156 713.289062 5.585938 708.671875 7.855469 704.597656 C 9.96875 700.996094 12.867188 698.648438 15.84375 697.550781 C 18.582031 696.535156 21.324219 696.613281 23.28125 697.707031 L 23.59375 697.863281 C 25.785156 699.195312 27.039062 701.152344 27.429688 703.425781 C 27.824219 705.851562 27.273438 708.59375 25.785156 711.097656 L 25.707031 711.253906 C 24.847656 712.820312 23.359375 713.679688 21.949219 714.074219 C 19.679688 714.621094 17.410156 714.230469 16.3125 713.601562 C 15.214844 712.898438 13.808594 713.289062 13.101562 714.464844 C 12.476562 715.5625 12.867188 716.96875 13.964844 717.675781 C 15.84375 718.769531 19.601562 719.476562 23.046875 718.613281 C 25.628906 717.988281 28.058594 716.5 29.703125 713.761719 L 29.9375 713.367188 C 31.894531 709.921875 32.597656 706.085938 32.050781 702.71875 C 31.503906 699.039062 29.464844 695.828125 25.941406 693.792969 L 25.628906 693.558594 C 22.417969 691.835938 18.269531 691.679688 14.199219 693.167969 C 10.363281 694.578125 6.523438 697.550781 3.863281 702.09375 L 3.707031 702.40625 C 1.59375 706.164062 0.339844 710.316406 0.105469 714.386719 Z M 0.105469 638.59375 L 0.105469 624.027344 C 0.261719 624.027344 0.417969 624.027344 0.652344 623.949219 C 1.515625 623.792969 2.21875 623.089844 2.375 622.226562 C 5.976562 606.332031 14.199219 594.039062 25.707031 586.445312 C 35.574219 579.945312 47.789062 576.816406 61.648438 577.675781 L 61.882812 577.675781 C 63.058594 577.753906 64.308594 577.910156 65.5625 578.066406 C 63.996094 581.667969 62.820312 585.585938 61.960938 589.8125 C 41.523438 590.59375 27.507812 596.546875 17.566406 606.410156 C 9.1875 614.710938 3.863281 625.671875 0.105469 638.59375 Z M 0.105469 613.066406 L 0.105469 598.816406 C 0.730469 598.816406 1.355469 598.582031 1.828125 598.113281 C 32.988281 564.601562 14.355469 529.992188 4.644531 512.140625 L 4.566406 511.984375 C 3.628906 510.105469 2.6875 508.460938 2.21875 507.519531 C 1.984375 507.050781 1.59375 506.738281 1.199219 506.503906 C 0.808594 506.265625 0.496094 506.1875 0.105469 506.1875 L 0.105469 495.777344 C 5.039062 504.308594 12.398438 511.042969 19.835938 517.777344 C 34.710938 531.324219 49.667969 545.027344 43.089844 574.308594 C 35.730469 575.796875 29.074219 578.617188 23.125 582.53125 C 12.632812 589.421875 4.722656 599.835938 0.105469 613.066406 Z M 0.105469 592.945312 L 0.105469 581.90625 C 0.808594 581.90625 1.515625 581.589844 1.984375 580.964844 C 7.464844 573.371094 9.5 564.757812 9.5 556.535156 C 9.5 545.261719 5.742188 534.691406 2.140625 528.503906 C 1.984375 528.191406 1.671875 527.878906 1.277344 527.644531 C 0.886719 527.410156 0.496094 527.328125 0.105469 527.328125 L 0.105469 513.628906 L 0.496094 514.410156 C 9.5 530.851562 26.492188 562.484375 0.105469 592.945312 Z M 0.105469 575.25 L 0.105469 534.847656 C 2.609375 540.5625 4.722656 548.3125 4.722656 556.535156 C 4.722656 562.800781 3.472656 569.296875 0.105469 575.25 Z M 0.105469 488.257812 L 0.105469 479.566406 C 4.722656 488.023438 14.511719 496.480469 25.082031 505.5625 C 46.300781 523.882812 71.042969 545.183594 60.316406 572.898438 C 56.089844 572.742188 52.015625 572.898438 48.023438 573.449219 C 54.289062 542.832031 38.550781 528.503906 23.046875 514.332031 C 14.824219 506.816406 6.683594 499.378906 2.21875 489.589844 C 1.984375 489.121094 1.59375 488.726562 1.042969 488.414062 C 0.730469 488.335938 0.417969 488.257812 0.105469 488.257812 Z M 141.199219 581.121094 C 138.066406 583.707031 134.542969 585.742188 130.707031 587.070312 C 130.628906 587.148438 130.472656 587.230469 130.316406 587.230469 C 128.984375 587.464844 127.808594 586.601562 127.574219 585.347656 C 126.871094 581.355469 126.792969 577.285156 127.496094 573.214844 C 128.203125 569.375 129.53125 565.617188 131.570312 562.015625 L 131.648438 561.859375 C 133.761719 558.257812 136.421875 555.125 139.398438 552.621094 C 142.53125 550.035156 146.054688 548 149.8125 546.589844 C 149.96875 546.589844 150.125 546.511719 150.28125 546.511719 C 151.613281 546.277344 152.789062 547.140625 153.023438 548.390625 C 153.726562 552.386719 153.804688 556.457031 153.101562 560.449219 C 152.394531 564.367188 150.988281 568.203125 148.949219 571.804688 C 146.835938 575.484375 144.175781 578.617188 141.199219 581.121094 Z M 131.804688 581.589844 C 134.074219 580.496094 136.1875 579.164062 138.144531 577.519531 C 140.730469 575.328125 143.078125 572.585938 144.878906 569.53125 C 146.679688 566.402344 147.855469 563.035156 148.402344 559.667969 C 148.871094 557.160156 148.949219 554.65625 148.792969 552.152344 C 146.523438 553.246094 144.410156 554.578125 142.453125 556.222656 C 139.867188 558.414062 137.519531 561.078125 135.71875 564.207031 L 135.640625 564.367188 C 133.917969 567.417969 132.742188 570.707031 132.195312 574.074219 C 131.726562 576.578125 131.648438 579.085938 131.804688 581.589844 Z M 81.222656 684.945312 C 78.089844 687.53125 74.566406 689.566406 70.808594 690.898438 C 70.652344 690.976562 70.496094 690.976562 70.339844 691.054688 C 69.085938 691.289062 67.832031 690.425781 67.597656 689.175781 C 66.894531 685.179688 66.894531 681.03125 67.597656 677.039062 C 68.304688 673.199219 69.632812 669.285156 71.75 665.683594 C 73.863281 662.082031 76.445312 658.949219 79.5 656.445312 C 82.632812 653.78125 86.15625 651.824219 89.914062 650.414062 C 90.070312 650.335938 90.226562 650.335938 90.382812 650.257812 C 91.636719 650.101562 92.890625 650.886719 93.125 652.21875 C 93.828125 656.132812 93.828125 660.28125 93.125 664.273438 C 92.496094 668.191406 91.089844 672.027344 88.972656 675.628906 C 86.9375 679.308594 84.277344 682.363281 81.222656 684.945312 Z M 71.90625 685.335938 C 74.097656 684.320312 76.289062 682.910156 78.167969 681.265625 C 80.832031 679.074219 83.101562 676.410156 84.902344 673.277344 C 86.703125 670.148438 87.878906 666.859375 88.503906 663.492188 C 88.894531 660.984375 89.050781 658.480469 88.816406 655.976562 C 86.625 657.070312 84.511719 658.402344 82.554688 660.046875 C 79.890625 662.238281 77.621094 664.902344 75.820312 668.035156 C 74.019531 671.164062 72.84375 674.453125 72.21875 677.820312 C 71.828125 680.328125 71.667969 682.910156 71.90625 685.335938 Z M 155.449219 727.382812 C 173.929688 731.535156 189.351562 746.332031 203.605469 762.226562 C 208.144531 759.25 212.609375 756.824219 216.914062 755.023438 C 206.890625 739.363281 195.773438 730.984375 183.636719 727.695312 C 174.867188 725.347656 165.472656 725.503906 155.449219 727.382812 Z M 80.28125 763.402344 C 79.8125 763.636719 79.34375 763.792969 78.953125 764.027344 C 74.175781 765.984375 69.085938 766.0625 64.542969 763.480469 C 60.394531 761.050781 57.496094 757.6875 55.933594 753.613281 C 55.617188 752.910156 55.382812 752.28125 55.226562 751.578125 C 53.269531 756.042969 51 760.582031 48.492188 764.96875 C 42.621094 775.066406 35.574219 784.074219 27.824219 791.824219 C 26.101562 793.546875 24.378906 795.113281 22.65625 796.679688 C 24.847656 795.894531 27.117188 795.269531 29.386719 794.644531 C 40.035156 791.746094 51.3125 790.179688 63.058594 790.179688 C 68.144531 790.179688 73.078125 790.414062 78.011719 791.042969 C 77.542969 790.492188 76.996094 789.945312 76.601562 789.398438 C 73.863281 785.953125 72.296875 781.722656 72.296875 777.027344 C 72.296875 771.78125 74.957031 767.394531 79.109375 764.261719 C 79.421875 763.949219 79.8125 763.636719 80.28125 763.402344 Z M 103.851562 752.28125 C 103.300781 752.28125 102.753906 752.203125 102.285156 751.8125 C 101.265625 751.109375 100.953125 749.699219 101.660156 748.601562 C 106.433594 740.304688 105.808594 731.457031 102.050781 724.332031 C 100.25 720.808594 97.507812 717.597656 94.375 715.167969 L 94.21875 715.089844 C 91.167969 712.742188 87.644531 711.019531 83.960938 710.316406 C 77.542969 709.0625 70.574219 710.707031 64.621094 716.734375 C 63.996094 722.371094 62.898438 728.011719 61.414062 733.570312 C 60.863281 735.839844 60.160156 738.109375 59.457031 740.382812 C 58.75 744.6875 58.984375 748.601562 60.316406 751.890625 C 61.570312 754.945312 63.683594 757.527344 66.894531 759.40625 C 70.027344 761.210938 73.707031 761.128906 77.152344 759.644531 C 81.144531 758 84.824219 754.632812 87.25 750.402344 C 89.289062 746.800781 89.835938 743.121094 89.289062 739.988281 C 88.816406 737.09375 87.40625 734.742188 85.449219 733.570312 L 85.214844 733.414062 C 82.945312 732.160156 80.597656 732.082031 78.480469 732.863281 C 76.132812 733.804688 74.019531 735.683594 72.53125 738.265625 C 71.433594 740.226562 71.667969 742.183594 72.296875 743.90625 C 73.078125 745.707031 74.332031 747.035156 75.191406 747.585938 C 76.367188 748.210938 76.757812 749.699219 76.054688 750.796875 C 75.429688 751.890625 74.019531 752.28125 72.84375 751.65625 C 71.199219 750.71875 69.164062 748.445312 67.988281 745.707031 C 66.816406 742.808594 66.503906 739.363281 68.460938 735.917969 C 70.496094 732.394531 73.472656 729.734375 76.757812 728.480469 C 80.28125 727.148438 84.042969 727.304688 87.722656 729.417969 C 90.929688 731.296875 93.203125 734.902344 93.984375 739.207031 C 94.691406 743.277344 93.984375 748.132812 91.324219 752.675781 L 91.246094 752.753906 C 89.128906 756.589844 86.078125 759.800781 82.632812 762.070312 C 86.3125 760.191406 90.617188 759.171875 95.003906 759.171875 C 100.328125 759.171875 104.867188 760.972656 108.078125 763.636719 C 111.445312 766.453125 113.402344 770.214844 113.402344 773.972656 C 113.402344 778.121094 111.601562 781.488281 108.785156 783.835938 C 105.964844 786.109375 102.207031 787.359375 98.136719 787.359375 C 94.847656 787.359375 92.339844 785.953125 90.460938 783.992188 C 87.957031 781.488281 86.703125 777.886719 86.703125 775.695312 C 86.703125 774.363281 87.800781 773.34375 89.050781 773.34375 C 90.382812 773.34375 91.480469 774.363281 91.480469 775.695312 C 91.480469 776.945312 92.261719 779.140625 93.828125 780.785156 C 94.847656 781.800781 96.335938 782.664062 98.136719 782.664062 C 101.1875 782.664062 103.851562 781.800781 105.808594 780.234375 C 107.609375 778.746094 108.707031 776.632812 108.707031 773.972656 C 108.707031 771.621094 107.375 769.195312 105.105469 767.238281 C 102.675781 765.28125 99.152344 763.871094 95.003906 763.871094 C 90.148438 763.871094 85.371094 765.359375 81.925781 768.019531 C 78.953125 770.214844 77.074219 773.34375 77.074219 777.023438 C 77.074219 780.628906 78.167969 783.835938 80.28125 786.5 C 82.476562 789.238281 85.683594 791.433594 89.835938 792.921875 C 92.105469 793.46875 94.375 794.015625 96.648438 794.644531 C 102.285156 796.128906 107.6875 798.007812 112.855469 800.28125 C 121.078125 798.085938 126.007812 792.921875 128.125 786.734375 C 129.296875 783.132812 129.609375 779.140625 129.0625 775.304688 C 128.515625 771.308594 127.105469 767.472656 124.992188 764.027344 C 120.683594 757.214844 113.402344 752.28125 103.851562 752.28125 Z M 63.527344 650.886719 C 44.265625 655.660156 24.691406 660.515625 11.144531 676.800781 C 14.824219 675.082031 18.816406 674.140625 22.8125 673.984375 C 27.507812 673.828125 32.285156 674.6875 36.59375 676.410156 C 40.898438 678.132812 44.8125 680.875 47.789062 684.242188 C 52.171875 689.253906 54.601562 695.828125 53.816406 703.503906 C 56.480469 701.703125 59.140625 700.136719 61.882812 698.648438 C 62.195312 698.414062 62.585938 698.335938 62.980469 698.335938 C 64.308594 698.335938 65.328125 699.351562 65.40625 700.605469 C 65.484375 703.738281 65.40625 706.871094 65.25 710.078125 C 71.511719 705.539062 78.402344 704.441406 84.824219 705.695312 C 89.289062 706.554688 93.4375 708.515625 97.117188 711.332031 L 97.273438 711.488281 C 100.953125 714.308594 104.085938 717.988281 106.277344 722.214844 C 108.078125 725.738281 109.332031 729.578125 109.644531 733.648438 C 116.925781 713.761719 111.445312 694.421875 105.964844 675.316406 C 102.441406 663.179688 98.996094 651.121094 98.683594 638.90625 C 87.957031 644.777344 75.820312 647.753906 63.527344 650.886719 Z M 6.523438 634.050781 C 19.289062 620.035156 39.878906 614.085938 60.785156 609.699219 C 60.394531 604.296875 60.550781 599.285156 61.179688 594.589844 C 42.542969 595.449219 29.78125 600.851562 20.855469 609.777344 C 14.433594 616.121094 9.890625 624.34375 6.523438 634.050781 Z M 128.125 592.476562 C 125.148438 605.550781 131.253906 623.402344 137.910156 642.429688 C 171.421875 622.148438 165.863281 595.371094 160.617188 570.003906 C 158.347656 558.960938 156.15625 548.15625 156.9375 537.980469 C 148.636719 543.773438 138.066406 547.296875 127.339844 550.820312 C 102.753906 558.960938 76.835938 567.574219 76.054688 606.726562 C 95.863281 602.964844 114.34375 599.285156 124.207031 590.203125 C 124.757812 589.734375 125.539062 589.5 126.324219 589.65625 C 127.574219 589.96875 128.359375 591.222656 128.125 592.476562 Z M 139.476562 646.972656 L 141.433594 652.609375 C 185.828125 630.214844 178.234375 583.785156 172.519531 548.707031 C 170.40625 536.097656 168.605469 524.902344 169.386719 516.445312 C 162.417969 521.378906 151.847656 525.371094 139.867188 529.914062 C 106.667969 542.519531 62.664062 559.121094 65.484375 608.761719 L 71.355469 607.664062 C 71.667969 564.285156 99.542969 555.046875 125.851562 546.355469 C 138.300781 542.207031 150.4375 538.214844 158.582031 530.695312 C 159.128906 530.148438 159.914062 529.914062 160.695312 530.148438 C 161.949219 530.382812 162.730469 531.636719 162.496094 532.96875 C 159.992188 543.773438 162.574219 556.300781 165.238281 569.0625 C 170.875 596.3125 176.824219 624.96875 139.476562 646.972656 Z M 138.222656 730.4375 Z M 162.886719 691.757812 C 166.097656 679.542969 164.375 665.761719 155.839844 649.242188 C 152.082031 652.136719 147.777344 654.722656 142.921875 657.148438 C 149.65625 677.429688 154.667969 698.257812 149.03125 716.34375 C 155.683594 708.515625 160.539062 700.527344 162.886719 691.757812 Z M 242.988281 646.65625 C 223.882812 640.550781 204.464844 634.441406 182.464844 654.800781 C 184.8125 661.847656 185.75 669.050781 185.359375 676.175781 C 184.578125 688.703125 179.566406 700.761719 170.40625 711.410156 C 184.105469 708.75 197.105469 710.472656 208.378906 716.03125 C 214.722656 719.242188 220.4375 723.625 225.449219 729.183594 C 254.027344 720.335938 258.414062 700.449219 262.71875 680.875 C 264.910156 671.085938 267.027344 661.300781 271.957031 652.6875 C 262.09375 652.6875 252.539062 649.710938 242.988281 646.65625 Z M 231.871094 747.195312 L 231.792969 746.957031 C 225.605469 734.585938 216.757812 725.503906 206.265625 720.257812 C 193.894531 714.074219 179.175781 713.054688 163.59375 717.910156 C 162.808594 718.222656 161.792969 717.988281 161.164062 717.285156 C 160.304688 716.34375 160.382812 714.855469 161.320312 713.917969 C 173.300781 702.875 179.800781 689.644531 180.582031 675.863281 C 181.367188 663.023438 177.21875 649.632812 167.976562 637.183594 C 165.628906 640.394531 162.808594 643.367188 159.601562 646.1875 C 169.074219 664.273438 170.953125 679.386719 167.429688 692.933594 C 164.375 704.285156 157.5625 714.386719 148.246094 724.171875 C 161.320312 720.886719 173.535156 720.101562 184.8125 723.15625 C 198.359375 726.835938 210.492188 735.996094 221.457031 753.300781 C 225.527344 751.96875 229.519531 751.03125 233.4375 750.558594 C 232.964844 749.386719 232.417969 748.289062 231.871094 747.195312 Z M 250.976562 636.007812 C 224.507812 626.769531 193.738281 616.042969 175.023438 639.140625 C 177.296875 642.664062 179.175781 646.34375 180.742188 650.023438 C 204.074219 629.351562 224.351562 635.773438 244.398438 642.195312 C 255.046875 645.484375 265.539062 648.851562 276.1875 647.832031 C 277.519531 647.675781 278.691406 648.613281 278.769531 649.945312 C 278.847656 650.496094 278.691406 651.121094 278.300781 651.589844 C 272.117188 660.203125 269.6875 671.007812 267.339844 681.8125 C 262.796875 702.40625 258.257812 723.15625 228.660156 733.101562 C 231.085938 736.230469 233.277344 739.675781 235.238281 743.433594 C 264.597656 738.816406 270.707031 706.792969 275.953125 679.308594 C 278.535156 665.527344 280.964844 652.84375 285.972656 644.621094 C 276.34375 644.855469 264.207031 640.628906 250.972656 636.007812 Z M 255.828125 661.613281 C 237.117188 662.160156 201.019531 663.101562 187.789062 701.308594 C 227.484375 708.984375 246.355469 678.210938 256.140625 662.238281 L 256.535156 661.613281 Z M 182.542969 702.25 C 196.085938 658.480469 235.472656 657.460938 255.671875 656.914062 C 257.550781 656.914062 259.195312 656.835938 260.761719 656.757812 C 262.09375 656.679688 263.1875 657.699219 263.1875 659.027344 C 263.265625 659.5 263.109375 660.046875 262.875 660.4375 C 262.09375 661.613281 261.152344 663.101562 260.136719 664.667969 C 249.566406 681.96875 228.972656 715.640625 184.1875 705.382812 C 182.933594 705.070312 182.148438 703.816406 182.464844 702.5625 Z M 216.992188 679.074219 C 211.589844 682.207031 206.578125 686.511719 203.132812 692.460938 C 210.023438 692.382812 216.289062 690.269531 221.691406 687.136719 C 228.738281 683.066406 234.453125 677.273438 238.054688 672.261719 C 231.871094 672.964844 224.117188 675 216.992188 679.074219 Z M 197.183594 693.636719 C 201.097656 685.101562 207.519531 679.074219 214.644531 675 C 224.429688 669.363281 235.472656 667.328125 242.597656 667.328125 C 243.925781 667.328125 244.945312 668.347656 244.945312 669.675781 C 244.945312 670.070312 244.867188 670.539062 244.632812 670.851562 C 241.109375 677.039062 233.828125 685.570312 224.039062 691.210938 C 216.914062 695.28125 208.457031 697.945312 199.140625 697.003906 C 197.808594 696.847656 196.871094 695.671875 197.027344 694.421875 C 197.027344 694.105469 197.105469 693.871094 197.183594 693.636719 Z M 6.996094 775.304688 C 8.324219 772.40625 9.890625 769.507812 11.535156 766.613281 L 11.613281 766.453125 C 15.609375 759.566406 20.148438 753.378906 25.160156 747.898438 C 30.328125 742.105469 35.964844 737.25 41.757812 733.257812 C 42.855469 732.550781 44.34375 732.785156 45.046875 733.882812 C 45.363281 734.351562 45.519531 734.902344 45.441406 735.371094 C 44.890625 742.417969 43.480469 749.699219 41.132812 757.058594 C 38.863281 764.183594 35.730469 771.308594 31.660156 778.277344 C 30.015625 781.097656 28.292969 783.914062 26.414062 786.5 C 33.226562 779.53125 39.253906 771.542969 44.421875 762.617188 C 48.804688 754.945312 52.25 747.113281 54.835938 739.207031 L 54.914062 738.972656 C 55.617188 736.78125 56.324219 734.585938 56.871094 732.394531 C 58.359375 726.757812 59.375 721.121094 60.003906 715.480469 L 60.082031 715.324219 C 60.472656 711.800781 60.628906 708.277344 60.707031 704.753906 C 57.65625 706.554688 54.679688 708.515625 51.78125 710.628906 C 47.164062 713.996094 42.777344 717.753906 38.628906 721.824219 C 37.0625 723.46875 35.496094 725.113281 33.929688 726.835938 L 33.695312 727.070312 C 28.136719 733.257812 23.125 740.148438 18.738281 747.742188 C 13.570312 756.667969 9.65625 765.90625 6.996094 775.304688 Z M 6.523438 789.238281 C 4.878906 794.40625 3.707031 799.574219 3 804.664062 C 7.074219 801.53125 10.910156 797.929688 14.589844 793.859375 C 19.367188 788.613281 23.75 782.585938 27.585938 775.929688 C 31.425781 769.273438 34.476562 762.460938 36.671875 755.648438 C 38.316406 750.480469 39.488281 745.3125 40.195312 740.226562 C 36.199219 743.355469 32.285156 746.957031 28.605469 751.03125 C 23.828125 756.277344 19.445312 762.226562 15.6875 768.882812 L 15.609375 768.960938 C 11.769531 775.617188 8.71875 782.429688 6.523438 789.238281 Z M 6.523438 789.238281 " fill-opacity="1" fill-rule="nonzero"/></g></svg>