<svg xmlns="http://www.w3.org/2000/svg" xmlns:xlink="http://www.w3.org/1999/xlink" width="1920" zoomAndPan="magnify" viewBox="0 0 1440 809.999993" height="1080" preserveAspectRatio="xMidYMid meet" version="1.0"><defs><clipPath id="56eef9edc1"><path d="M 0.078125 1 L 331.761719 1 L 331.761719 332.800781 L 0.078125 332.800781 Z M 0.078125 1 " clip-rule="nonzero"/></clipPath><clipPath id="7b7f3de552"><rect x="0" width="332" y="0" height="333"/></clipPath></defs><path fill="#fff2d4" d="M 32.34375 34.128906 C 40.945312 34.128906 48.6875 37.636719 54.3125 43.261719 C 54.3125 35.320312 57.359375 27.378906 63.445312 21.289062 C 75.554688 33.398438 75.554688 53.121094 63.445312 65.230469 C 46.242188 65.230469 32.34375 51.269531 32.34375 34.128906 Z M 63.445312 109.171875 C 69.535156 103.085938 72.578125 95.144531 72.578125 87.203125 C 78.203125 92.828125 85.945312 96.335938 94.550781 96.335938 C 94.550781 87.730469 91.042969 79.988281 85.417969 74.363281 C 83.429688 72.378906 84.753906 67.613281 82.242188 66.222656 C 77.742188 63.710938 68.9375 65.296875 63.445312 65.296875 C 51.269531 77.339844 51.269531 97.0625 63.445312 109.171875 Z M 346.8125 53.320312 C 346.085938 51.730469 339.929688 38.03125 326.035156 34.394531 C 314.121094 31.28125 303.402344 37.371094 293.476562 43.0625 C 285.667969 47.5625 284.34375 50.144531 270.578125 59.339844 C 264.292969 63.511719 258.996094 66.6875 255.359375 68.804688 C 264.027344 60.003906 267.734375 48.15625 264.359375 38.097656 C 262.042969 31.148438 257.078125 27.246094 255.359375 25.988281 C 248.542969 21.023438 236.367188 17.519531 228.886719 23.871094 C 225.246094 26.914062 221.742188 33.203125 223.925781 39.621094 C 225.578125 44.519531 230.078125 48.15625 235.636719 49.085938 C 231.070312 46.105469 229.21875 40.546875 230.871094 35.847656 C 232.460938 31.414062 236.828125 28.835938 240.800781 28.703125 C 248.34375 28.570312 252.246094 37.703125 252.84375 39.089844 C 253.304688 40.148438 254.695312 43.722656 254.367188 48.554688 C 253.703125 57.023438 247.945312 65.429688 240.929688 69.269531 C 240.136719 69.730469 239.277344 70.0625 238.351562 70.394531 C 230.277344 72.90625 220.085938 71.980469 200.167969 64.039062 C 186.867188 58.746094 182.300781 55.703125 171.378906 54.113281 C 170.121094 53.914062 166.8125 53.519531 162.644531 53.386719 C 155.496094 53.1875 143.453125 53.78125 128.695312 59.605469 C 133.992188 58.746094 142.0625 57.953125 151.660156 58.878906 C 168.402344 60.597656 179.320312 66.621094 191.429688 72.046875 C 214.660156 82.304688 227.367188 87.863281 240.867188 87.796875 C 279.511719 87.597656 297.910156 39.289062 323.253906 47.628906 C 329.011719 49.546875 334.769531 54.179688 337.21875 60.335938 C 340.660156 68.9375 338.144531 81.3125 329.9375 85.8125 C 325.304688 88.328125 316.769531 89.519531 313.460938 84.488281 C 311.210938 80.980469 312.003906 75.421875 315.511719 70.722656 C 313.859375 70.921875 310.746094 71.585938 308.234375 74.164062 C 303.601562 78.863281 303.867188 87.335938 307.503906 92.496094 C 311.804688 98.648438 319.679688 98.714844 321.734375 98.78125 C 332.851562 99.046875 341.71875 90.179688 345.886719 82.4375 C 353.234375 68.871094 347.609375 55.171875 346.8125 53.320312 Z M 90.777344 309.289062 C 85.617188 305.648438 77.144531 305.386719 72.445312 310.019531 C 69.867188 312.53125 69.203125 315.710938 69.003906 317.296875 C 73.703125 313.789062 79.261719 312.996094 82.769531 315.246094 C 87.867188 318.554688 86.609375 327.089844 84.09375 331.722656 C 79.59375 339.996094 67.21875 342.445312 58.617188 339.003906 C 52.460938 336.554688 47.761719 330.796875 45.910156 325.039062 C 37.636719 299.695312 85.878906 281.296875 86.078125 242.648438 C 86.144531 229.148438 80.652344 216.445312 70.328125 193.214844 C 64.96875 181.105469 58.878906 170.1875 57.160156 153.445312 C 56.167969 143.847656 57.027344 135.773438 57.886719 130.480469 C 52.128906 145.238281 51.46875 157.28125 51.667969 164.429688 C 51.800781 168.597656 52.261719 171.90625 52.394531 173.164062 C 53.984375 184.085938 57.027344 188.648438 62.320312 201.953125 C 70.261719 221.9375 71.1875 232.0625 68.675781 240.136719 C 68.410156 241.0625 68.011719 241.855469 67.550781 242.714844 C 63.710938 249.730469 55.371094 255.488281 46.835938 256.148438 C 41.9375 256.546875 38.429688 255.089844 37.371094 254.628906 C 35.984375 254.03125 26.851562 250.128906 26.984375 242.585938 C 27.050781 238.613281 29.695312 234.246094 34.128906 232.65625 C 38.828125 230.9375 44.386719 232.855469 47.367188 237.421875 C 46.4375 231.863281 42.800781 227.363281 37.902344 225.710938 C 31.484375 223.523438 25.261719 227.097656 22.152344 230.671875 C 15.800781 238.148438 19.304688 250.328125 24.269531 257.144531 C 25.460938 258.796875 29.429688 263.761719 36.378906 266.144531 C 46.4375 269.519531 58.285156 265.878906 67.085938 257.144531 C 64.96875 260.78125 61.792969 266.144531 57.621094 272.363281 C 48.425781 286.128906 45.84375 287.453125 41.34375 295.261719 C 35.652344 305.1875 29.5625 315.839844 32.675781 327.820312 C 36.3125 341.714844 50.011719 347.9375 51.601562 348.597656 C 53.386719 349.394531 67.085938 355.019531 80.71875 347.671875 C 88.460938 343.503906 97.328125 334.636719 97.0625 323.519531 C 96.996094 321.464844 96.929688 313.523438 90.777344 309.289062 Z M 90.777344 309.289062 " fill-opacity="1" fill-rule="nonzero"/><path fill="#b1896e" d="M 107.386719 65.230469 C 101.300781 71.320312 93.359375 74.363281 85.417969 74.363281 C 79.792969 68.738281 72.050781 65.230469 63.445312 65.230469 C 63.445312 82.371094 49.550781 96.335938 32.34375 96.335938 C 32.34375 87.730469 35.851562 79.988281 41.476562 74.363281 C 33.535156 74.363281 25.59375 71.320312 19.503906 65.230469 C 31.617188 53.121094 51.335938 53.121094 63.445312 65.230469 C 63.445312 48.089844 77.34375 34.128906 94.550781 34.128906 C 94.550781 42.730469 91.042969 50.472656 85.417969 56.097656 C 93.359375 56.097656 101.367188 59.144531 107.386719 65.230469 Z M 281.429688 38.5625 C 290.960938 30.488281 301.019531 27.972656 305.984375 27.046875 C 300.554688 26.121094 296.054688 26.519531 293.144531 26.914062 C 290.496094 27.3125 286.660156 27.90625 282.226562 30.289062 C 280.570312 31.214844 277.195312 33.003906 274.417969 36.3125 C 268.925781 42.796875 269.121094 50.9375 269.253906 53.585938 C 271.4375 49.613281 275.210938 43.855469 281.429688 38.5625 Z M 34.527344 276.269531 C 31.21875 279.046875 29.429688 282.355469 28.503906 284.078125 C 26.1875 288.445312 25.527344 292.347656 25.128906 294.996094 C 24.667969 297.90625 24.335938 302.40625 25.261719 307.835938 C 26.1875 302.871094 28.703125 292.8125 36.777344 283.28125 C 42.070312 277.0625 47.828125 273.289062 51.734375 271.171875 C 49.152344 270.90625 41.011719 270.773438 34.527344 276.269531 Z M 34.527344 276.269531 " fill-opacity="1" fill-rule="nonzero"/><path fill="#572512" d="M 209.761719 48.753906 C 214.59375 51.136719 218.5625 53.054688 221.011719 54.246094 C 217.175781 53.585938 211.417969 52.460938 204.46875 50.671875 C 190.835938 47.097656 187.128906 44.648438 178.59375 42.53125 C 173.628906 41.273438 160.59375 38.03125 146.035156 41.078125 C 130.8125 44.253906 120.160156 52.988281 114.203125 59.078125 C 117.976562 53.519531 131.277344 35.453125 153.511719 32.011719 C 164.628906 30.289062 174.621094 32.738281 177.929688 33.664062 C 185.542969 35.78125 189.246094 38.5625 209.761719 48.753906 Z M 289.304688 74.5625 C 278.917969 83.097656 273.6875 87.398438 267.269531 90.511719 C 262.109375 93.023438 253.304688 96.203125 240.46875 95.804688 C 258.003906 103.414062 267.734375 99.445312 270.976562 97.722656 C 272.695312 96.796875 275.410156 95.078125 287.585938 80.648438 C 292.8125 74.429688 296.984375 69.136719 299.894531 65.496094 C 297.378906 67.746094 293.804688 70.921875 289.304688 74.5625 Z M 57.292969 115.988281 C 51.734375 119.761719 33.667969 133.0625 30.226562 155.296875 C 28.503906 166.414062 30.953125 176.40625 31.878906 179.714844 C 33.996094 187.328125 36.710938 191.03125 46.96875 211.546875 C 49.351562 216.378906 51.269531 220.347656 52.460938 222.796875 C 51.800781 218.960938 50.675781 213.203125 48.886719 206.253906 C 45.3125 192.621094 42.867188 188.914062 40.746094 180.378906 C 39.492188 175.414062 36.246094 162.378906 39.292969 147.820312 C 42.535156 132.597656 51.269531 121.945312 57.292969 115.988281 Z M 88.792969 269.054688 C 85.679688 275.472656 81.378906 280.703125 72.84375 291.089844 C 69.136719 295.589844 65.960938 299.164062 63.710938 301.613281 C 67.417969 298.703125 72.644531 294.53125 78.867188 289.304688 C 93.359375 277.128906 95.078125 274.414062 95.9375 272.695312 C 97.660156 269.453125 101.628906 259.722656 94.019531 242.1875 C 94.484375 255.089844 91.304688 263.894531 88.792969 269.054688 Z M 88.792969 269.054688 " fill-opacity="1" fill-rule="nonzero"/><g transform="matrix(1, 0, 0, 1, 1090, 464)"><g clip-path="url(#7b7f3de552)"><g clip-path="url(#56eef9edc1)"><path fill="#fff2d4" d="M 318.078125 318.394531 C 309.476562 318.394531 301.734375 314.886719 296.109375 309.261719 C 296.109375 317.203125 293.066406 325.144531 286.976562 331.230469 C 274.867188 319.121094 274.867188 299.402344 286.976562 287.289062 C 304.183594 287.289062 318.078125 301.253906 318.078125 318.394531 Z M 286.976562 243.347656 C 280.886719 249.4375 277.84375 257.378906 277.84375 265.320312 C 272.21875 259.695312 264.476562 256.1875 255.875 256.1875 C 255.875 264.789062 259.382812 272.535156 265.007812 278.160156 C 266.992188 280.144531 265.667969 284.910156 268.183594 286.296875 C 272.683594 288.8125 281.484375 287.222656 286.976562 287.222656 C 299.152344 275.179688 299.152344 255.460938 286.976562 243.347656 Z M 3.609375 299.203125 C 4.335938 300.789062 10.492188 314.488281 24.386719 318.128906 C 36.300781 321.238281 47.019531 315.152344 56.945312 309.460938 C 64.757812 304.960938 66.078125 302.378906 79.84375 293.179688 C 86.132812 289.011719 91.425781 285.835938 95.066406 283.71875 C 86.394531 292.519531 82.691406 304.363281 86.066406 314.421875 C 88.382812 321.371094 93.34375 325.277344 95.066406 326.535156 C 101.882812 331.496094 114.058594 335.003906 121.535156 328.652344 C 125.175781 325.605469 128.683594 319.320312 126.5 312.902344 C 124.84375 308.003906 120.34375 304.363281 114.785156 303.4375 C 119.351562 306.414062 121.203125 311.972656 119.550781 316.671875 C 117.960938 321.105469 113.59375 323.6875 109.625 323.820312 C 102.078125 323.953125 98.175781 314.820312 97.578125 313.429688 C 97.117188 312.371094 95.726562 308.796875 96.058594 303.96875 C 96.71875 295.496094 102.476562 287.09375 109.492188 283.253906 C 110.285156 282.789062 111.144531 282.460938 112.070312 282.128906 C 120.144531 279.613281 130.335938 280.539062 150.257812 288.480469 C 163.558594 293.777344 168.125 296.820312 179.042969 298.410156 C 180.300781 298.605469 183.609375 299.003906 187.777344 299.136719 C 194.925781 299.335938 206.96875 298.738281 221.726562 292.914062 C 216.433594 293.777344 208.359375 294.570312 198.761719 293.644531 C 182.019531 291.921875 171.101562 285.902344 158.992188 280.472656 C 135.761719 270.21875 123.058594 264.660156 109.558594 264.722656 C 70.910156 264.921875 52.511719 313.230469 27.167969 304.894531 C 21.410156 302.972656 15.652344 298.34375 13.203125 292.1875 C 9.761719 283.585938 12.277344 271.210938 20.484375 266.710938 C 25.117188 264.195312 33.652344 263.003906 36.960938 268.035156 C 39.210938 271.539062 38.417969 277.097656 34.910156 281.796875 C 36.566406 281.597656 39.675781 280.9375 42.191406 278.355469 C 46.820312 273.660156 46.558594 265.1875 42.917969 260.027344 C 38.617188 253.871094 30.742188 253.804688 28.691406 253.738281 C 17.570312 253.472656 8.703125 262.34375 4.535156 270.085938 C -2.808594 283.652344 2.816406 297.347656 3.609375 299.203125 Z M 259.644531 43.230469 C 264.808594 46.871094 273.277344 47.136719 277.976562 42.503906 C 280.558594 39.988281 281.21875 36.8125 281.417969 35.222656 C 276.71875 38.730469 271.160156 39.527344 267.652344 37.277344 C 262.558594 33.96875 263.816406 25.429688 266.328125 20.796875 C 270.828125 12.527344 283.203125 10.078125 291.808594 13.519531 C 297.960938 15.96875 302.660156 21.722656 304.511719 27.480469 C 312.785156 52.828125 264.542969 71.222656 264.34375 109.871094 C 264.277344 123.371094 269.769531 136.078125 280.09375 159.304688 C 285.453125 171.414062 291.542969 182.335938 293.261719 199.078125 C 294.257812 208.671875 293.394531 216.746094 292.535156 222.039062 C 298.292969 207.285156 298.953125 195.238281 298.757812 188.09375 C 298.625 183.921875 298.160156 180.613281 298.027344 179.355469 C 296.441406 168.4375 293.394531 163.871094 288.101562 150.570312 C 280.160156 130.585938 279.234375 120.460938 281.75 112.386719 C 282.011719 111.460938 282.410156 110.664062 282.875 109.804688 C 286.710938 102.789062 295.050781 97.035156 303.585938 96.371094 C 308.484375 95.972656 311.992188 97.429688 313.050781 97.894531 C 314.441406 98.488281 323.570312 102.394531 323.441406 109.9375 C 323.375 113.910156 320.726562 118.277344 316.292969 119.863281 C 311.59375 121.585938 306.035156 119.664062 303.058594 115.097656 C 303.984375 120.660156 307.625 125.160156 312.519531 126.8125 C 318.941406 128.996094 325.160156 125.421875 328.269531 121.847656 C 334.625 114.371094 331.117188 102.195312 326.152344 95.378906 C 324.960938 93.722656 320.992188 88.761719 314.042969 86.378906 C 303.984375 83.003906 292.136719 86.644531 283.335938 95.378906 C 285.453125 91.738281 288.632812 86.378906 292.800781 80.160156 C 302 66.394531 304.578125 65.070312 309.078125 57.261719 C 314.769531 47.335938 320.859375 36.679688 317.75 24.703125 C 314.109375 10.804688 300.410156 4.585938 298.820312 3.921875 C 297.035156 3.128906 283.335938 -2.496094 269.703125 4.847656 C 261.960938 9.019531 253.09375 17.886719 253.359375 29.003906 C 253.425781 31.054688 253.492188 38.996094 259.644531 43.230469 Z M 259.644531 43.230469 " fill-opacity="1" fill-rule="nonzero"/></g><path fill="#b1896e" d="M 243.035156 287.289062 C 249.125 281.203125 257.066406 278.160156 265.007812 278.160156 C 270.632812 283.785156 278.375 287.289062 286.976562 287.289062 C 286.976562 270.152344 300.875 256.1875 318.078125 256.1875 C 318.078125 264.789062 314.570312 272.535156 308.945312 278.160156 C 316.886719 278.160156 324.828125 281.203125 330.917969 287.289062 C 318.808594 299.402344 299.085938 299.402344 286.976562 287.289062 C 286.976562 304.429688 273.078125 318.394531 255.875 318.394531 C 255.875 309.789062 259.382812 302.046875 265.007812 296.421875 C 257.066406 296.421875 249.058594 293.378906 243.035156 287.289062 Z M 68.992188 313.960938 C 59.460938 322.035156 49.402344 324.546875 44.441406 325.472656 C 49.867188 326.402344 54.367188 326.003906 57.277344 325.605469 C 59.925781 325.210938 63.761719 324.613281 68.195312 322.230469 C 69.851562 321.304688 73.226562 319.519531 76.007812 316.210938 C 81.5 309.722656 81.300781 301.585938 81.167969 298.9375 C 78.984375 302.910156 75.210938 308.664062 68.992188 313.960938 Z M 315.894531 76.253906 C 319.203125 73.472656 320.992188 70.164062 321.917969 68.445312 C 324.234375 64.078125 324.894531 60.171875 325.292969 57.527344 C 325.757812 54.613281 326.085938 50.113281 325.160156 44.6875 C 324.234375 49.652344 321.71875 59.710938 313.644531 69.238281 C 308.351562 75.460938 302.59375 79.230469 298.691406 81.347656 C 301.269531 81.613281 309.410156 81.746094 315.894531 76.253906 Z M 315.894531 76.253906 " fill-opacity="1" fill-rule="nonzero"/><path fill="#572512" d="M 140.660156 303.769531 C 135.828125 301.386719 131.859375 299.46875 129.410156 298.277344 C 133.25 298.9375 139.007812 300.0625 145.953125 301.847656 C 159.585938 305.421875 163.292969 307.871094 171.828125 309.988281 C 176.792969 311.246094 189.828125 314.488281 204.386719 311.445312 C 219.609375 308.269531 230.261719 299.535156 236.21875 293.445312 C 232.445312 299.003906 219.144531 317.070312 196.910156 320.511719 C 185.792969 322.230469 175.800781 319.785156 172.492188 318.855469 C 164.882812 316.738281 161.175781 313.960938 140.660156 303.769531 Z M 61.117188 277.960938 C 71.507812 269.421875 76.734375 265.121094 83.152344 262.011719 C 88.316406 259.496094 97.117188 256.320312 109.953125 256.71875 C 92.417969 249.105469 82.691406 253.078125 79.445312 254.796875 C 77.726562 255.722656 75.011719 257.445312 62.835938 271.871094 C 57.609375 278.09375 53.441406 283.386719 50.527344 287.027344 C 53.042969 284.777344 56.617188 281.597656 61.117188 277.960938 Z M 293.132812 236.535156 C 298.691406 232.761719 316.757812 219.460938 320.195312 197.222656 C 321.917969 186.105469 319.46875 176.113281 318.542969 172.804688 C 316.425781 165.195312 313.710938 161.488281 303.453125 140.972656 C 301.070312 136.144531 299.152344 132.171875 297.960938 129.722656 C 298.625 133.5625 299.75 139.320312 301.535156 146.269531 C 305.109375 159.902344 307.558594 163.605469 309.675781 172.144531 C 310.933594 177.105469 314.175781 190.144531 311.132812 204.703125 C 307.886719 219.921875 299.152344 230.578125 293.132812 236.535156 Z M 261.632812 83.46875 C 264.742188 77.046875 269.042969 71.820312 277.578125 61.429688 C 281.285156 56.929688 284.460938 53.355469 286.710938 50.910156 C 283.007812 53.820312 277.777344 57.988281 271.558594 63.21875 C 257.066406 75.394531 255.34375 78.105469 254.484375 79.828125 C 252.761719 83.070312 248.792969 92.796875 256.402344 110.335938 C 255.941406 97.429688 259.117188 88.628906 261.632812 83.46875 Z M 261.632812 83.46875 " fill-opacity="1" fill-rule="nonzero"/></g></g></svg>