<svg xmlns="http://www.w3.org/2000/svg" xmlns:xlink="http://www.w3.org/1999/xlink" width="1920" zoomAndPan="magnify" viewBox="0 0 1440 809.999993" height="1080" preserveAspectRatio="xMidYMid meet" version="1.0"><path fill="#fe6b9e" d="M 324.785156 599.035156 C 416.835938 329.371094 529.933594 183.621094 663.882812 161.789062 C 797.238281 140.152344 949.675781 242.238281 1120.796875 467.84375 L 1102.113281 491.25 C 936.890625 273.511719 791.929688 174.773438 667.027344 195.03125 C 542.917969 215.289062 436.703125 354.351562 348.585938 612.410156 Z M 324.785156 599.035156 " fill-opacity="1" fill-rule="nonzero"/><path fill="#fe6b9e" d="M 796.847656 428.109375 C 852.3125 331.929688 928.628906 314.226562 1025.597656 375.003906 C 958.527344 463.910156 882.40625 481.609375 796.847656 428.109375 Z M 796.847656 428.109375 " fill-opacity="1" fill-rule="evenodd"/><path fill="#fe6b9e" d="M 795.074219 426.539062 C 823.203125 377.757812 856.640625 349.039062 895.191406 339.992188 C 933.941406 330.945312 977.605469 341.761719 1026.582031 372.445312 L 1029.140625 374.21875 L 1027.171875 376.972656 C 993.339844 421.816406 957.148438 448.761719 918.597656 457.613281 C 879.851562 466.664062 839.132812 457.613281 795.863281 430.667969 L 793.503906 429.292969 Z M 895.980469 345.5 C 859.195312 353.957031 827.136719 381.296875 800.191406 427.128906 C 841.496094 452.5 880.832031 460.761719 917.8125 452.304688 C 954.59375 443.648438 989.40625 418.277344 1021.863281 375.789062 C 974.851562 347.074219 932.957031 336.847656 895.980469 345.5 Z M 895.980469 345.5 " fill-opacity="1" fill-rule="nonzero"/><path fill="#fe6b9e" d="M 986.851562 333.894531 C 1035.039062 232.402344 1036.023438 157.070312 989.605469 108.09375 C 938.070312 169.65625 937.085938 244.992188 986.851562 333.894531 Z M 986.851562 333.894531 " fill-opacity="1" fill-rule="evenodd"/><path fill="#fe6b9e" d="M 986.652344 328.78125 C 1009.46875 280 1021.074219 237.515625 1021.46875 201.324219 C 1021.863281 165.332031 1011.242188 135.433594 989.605469 111.828125 C 965.214844 141.53125 952.824219 174.574219 952.429688 210.765625 C 952.035156 246.761719 963.445312 286.097656 986.652344 328.78125 Z M 1025.796875 201.324219 C 1025.402344 239.484375 1013.011719 284.132812 988.621094 335.273438 L 987.046875 338.8125 L 985.082031 335.46875 C 959.902344 290.425781 947.707031 248.925781 948.101562 210.570312 C 948.496094 172.214844 961.871094 137.398438 988.03125 105.929688 L 989.40625 104.355469 L 990.980469 105.929688 C 1014.78125 130.910156 1026.386719 162.773438 1025.796875 201.324219 Z M 1025.796875 201.324219 " fill-opacity="1" fill-rule="nonzero"/><path fill="#fe6b9e" d="M 743.148438 341.761719 C 807.46875 336.253906 848.574219 299.867188 866.476562 232.992188 C 789.371094 208.011719 748.261719 244.402344 743.148438 341.761719 Z M 743.148438 341.761719 " fill-opacity="1" fill-rule="evenodd"/><path fill="#fe6b9e" d="M 745.507812 338.617188 C 776.191406 335.664062 801.171875 325.4375 820.84375 308.128906 C 840.511719 290.820312 854.671875 266.429688 863.523438 234.960938 C 852.3125 231.617188 842.085938 229.453125 832.445312 228.664062 C 810.023438 226.699219 792.125 232.007812 778.355469 244.402344 C 764.589844 256.988281 755.148438 276.65625 749.835938 303.800781 C 747.671875 314.226562 746.296875 325.832031 745.507812 338.617188 Z M 823.398438 312.652344 C 802.550781 331.140625 775.800781 341.761719 743.34375 344.515625 L 740.789062 344.714844 L 740.984375 341.566406 C 741.773438 327.207031 743.148438 314.03125 745.507812 302.425781 C 751.015625 273.90625 761.246094 253.054688 775.800781 239.875 C 790.355469 226.699219 809.433594 220.996094 832.839844 222.960938 C 843.265625 223.945312 854.671875 226.304688 866.867188 230.238281 L 869.230469 231.027344 L 868.441406 233.976562 C 859.394531 268.003906 844.25 294.164062 823.398438 312.652344 Z M 823.398438 312.652344 " fill-opacity="1" fill-rule="nonzero"/><path fill="#fe6b9e" d="M 866.476562 232.992188 C 787.601562 194.441406 750.230469 120.089844 753.96875 9.945312 C 838.347656 38.660156 875.917969 113.011719 866.476562 232.992188 Z M 866.476562 232.992188 " fill-opacity="1" fill-rule="evenodd"/><path fill="#fe6b9e" d="M 865.6875 235.550781 C 825.757812 216.078125 796.453125 187.554688 777.375 149.792969 C 758.492188 112.027344 749.835938 65.410156 751.804688 9.746094 L 752 6.207031 L 754.558594 7.191406 C 797.238281 21.746094 828.121094 47.90625 847.199219 85.671875 C 866.277344 123.433594 873.359375 172.609375 868.441406 233.386719 L 868.246094 236.925781 Z M 781.109375 146.839844 C 799.007812 182.640625 826.941406 209.980469 864.507812 229.058594 C 868.636719 171.429688 861.558594 124.613281 843.660156 88.621094 C 825.5625 52.824219 796.453125 27.84375 756.128906 13.484375 C 754.558594 66.394531 763.015625 110.847656 781.109375 146.839844 Z M 781.109375 146.839844 " fill-opacity="1" fill-rule="nonzero"/><path fill="#fe6b9e" d="M 611.363281 40.234375 C 623.363281 123.042969 662.898438 168.871094 730.363281 177.917969 C 726.035156 91.375 686.5 45.542969 611.363281 40.234375 Z M 611.363281 40.234375 " fill-opacity="1" fill-rule="evenodd"/><path fill="#fe6b9e" d="M 613.921875 43.183594 C 620.019531 82.328125 632.609375 112.8125 651.492188 134.644531 C 670.570312 156.675781 695.941406 170.050781 728.003906 174.773438 C 725.445312 133.859375 714.824219 102.585938 695.941406 80.753906 C 677.058594 58.722656 649.71875 46.332031 613.921875 43.183594 Z M 648.539062 138.777344 C 628.476562 115.371094 615.300781 82.71875 609.203125 40.824219 L 608.613281 37.285156 L 611.363281 37.480469 C 649.523438 40.234375 678.632812 53.214844 698.894531 76.621094 C 719.152344 100.027344 730.363281 133.664062 732.527344 177.722656 L 732.722656 181.066406 L 730.167969 180.671875 C 695.941406 176.148438 668.800781 162.183594 648.539062 138.777344 Z M 648.539062 138.777344 " fill-opacity="1" fill-rule="nonzero"/><path fill="#fe6b9e" d="M 559.4375 462.140625 C 639.097656 375.199219 664.867188 282.953125 637.132812 185.195312 C 548.816406 243.808594 523.050781 336.058594 559.4375 462.140625 Z M 559.4375 462.140625 " fill-opacity="1" fill-rule="evenodd"/><path fill="#fe6b9e" d="M 560.421875 457.417969 C 598.582031 415.128906 623.953125 371.464844 636.542969 326.816406 C 649.128906 282.164062 648.933594 236.335938 635.953125 189.128906 C 593.664062 217.847656 566.125 254.628906 553.539062 299.277344 C 540.949219 343.925781 543.308594 396.640625 560.421875 457.417969 Z M 640.671875 328.585938 C 627.492188 375.199219 600.941406 420.441406 560.816406 464.300781 L 558.453125 466.859375 L 557.472656 463.121094 C 538.984375 399.394531 536.425781 344.320312 549.40625 297.507812 C 562.585938 250.496094 591.5 212.339844 636.148438 182.640625 L 638.3125 181.261719 L 639.296875 184.210938 C 653.261719 233.582031 653.652344 281.773438 640.671875 328.585938 Z M 640.671875 328.585938 " fill-opacity="1" fill-rule="nonzero"/><path fill="#fe6b9e" d="M 557.667969 625.589844 C 567.109375 494.789062 532.492188 402.34375 453.816406 348.058594 C 421.558594 517.800781 456.175781 610.246094 557.667969 625.589844 Z M 557.667969 625.589844 " fill-opacity="1" fill-rule="evenodd"/><path fill="#fe6b9e" d="M 555.703125 622.441406 C 560.027344 558.910156 553.734375 504.425781 536.820312 459.386719 C 520.101562 414.539062 492.957031 378.9375 455.191406 352.1875 C 451.0625 374.21875 448.109375 395.066406 446.339844 414.539062 C 441.03125 471.578125 445.75 517.015625 460.503906 550.847656 C 475.058594 584.480469 499.644531 606.707031 534.066406 617.527344 C 540.949219 619.6875 548.03125 621.261719 555.703125 622.441406 Z M 540.753906 457.023438 C 558.257812 503.640625 564.550781 560.089844 559.832031 625.984375 L 559.636719 628.738281 L 557.273438 628.34375 C 548.816406 627.164062 540.753906 625.394531 533.082031 622.835938 C 497.480469 611.820312 471.910156 588.613281 456.765625 553.601562 C 441.621094 518.785156 436.703125 472.171875 442.011719 413.949219 C 443.980469 393.296875 447.128906 371.070312 451.652344 347.46875 L 452.242188 343.925781 L 454.796875 345.695312 C 494.53125 373.039062 523.246094 410.210938 540.753906 457.023438 Z M 540.753906 457.023438 " fill-opacity="1" fill-rule="nonzero"/><path fill="#fe6b9e" d="M 555.503906 229.253906 C 478.402344 303.210938 395.789062 288.851562 307.476562 186.375 C 418.015625 111.4375 500.628906 125.796875 555.503906 229.253906 Z M 555.503906 229.253906 " fill-opacity="1" fill-rule="evenodd"/><path fill="#fe6b9e" d="M 556.882812 231.617188 C 478.792969 306.359375 395.199219 292 306.097656 188.34375 L 303.738281 185.589844 L 306.492188 183.820312 C 418.214844 108.289062 501.808594 122.84375 557.273438 227.683594 L 558.453125 230.042969 Z M 311.410156 186.964844 C 397.167969 285.3125 477.613281 299.082031 552.554688 228.664062 C 498.855469 129.335938 418.410156 115.566406 311.410156 186.964844 Z M 311.410156 186.964844 " fill-opacity="1" fill-rule="nonzero"/><path fill="#fe6b9e" d="M 299.410156 799.859375 C 386.742188 721.96875 412.707031 621.65625 376.90625 498.921875 C 271.679688 566.777344 245.910156 667.09375 299.410156 799.859375 Z M 299.410156 799.859375 " fill-opacity="1" fill-rule="evenodd"/><path fill="#fe6b9e" d="M 300.199219 795.730469 C 342.289062 757.570312 369.628906 714.101562 382.21875 665.320312 C 394.808594 616.542969 392.644531 562.453125 375.726562 502.855469 L 373.761719 504.230469 C 323.996094 537.273438 293.117188 577.992188 280.726562 625.984375 C 268.335938 673.976562 274.429688 729.835938 299.214844 793.171875 Z M 386.347656 667.09375 C 373.367188 717.839844 344.652344 762.882812 300.589844 802.023438 L 298.625 803.792969 L 297.445312 801.039062 C 296.855469 799.464844 296.066406 797.695312 295.28125 795.730469 C 270.105469 730.820312 263.808594 673.78125 276.59375 624.214844 C 289.183594 574.648438 321.046875 533.144531 371.597656 499.3125 C 372.972656 498.527344 374.351562 497.542969 375.925781 496.558594 L 378.089844 495.183594 L 378.875 498.132812 C 396.972656 559.894531 399.527344 616.34375 386.347656 667.09375 Z M 386.347656 667.09375 " fill-opacity="1" fill-rule="nonzero"/><path fill="#fe6b9e" d="M 399.722656 447.386719 C 355.074219 503.050781 308.261719 505.804688 259.285156 456.238281 C 307.277344 401.558594 354.09375 398.605469 399.722656 447.386719 Z M 399.722656 447.386719 " fill-opacity="1" fill-rule="evenodd"/><path fill="#fe6b9e" d="M 401.296875 449.355469 C 378.480469 477.675781 355.273438 492.625 331.277344 494.003906 C 307.277344 495.578125 282.890625 483.578125 257.910156 458.402344 L 255.941406 456.433594 L 257.910156 454.074219 C 282.300781 426.339844 306.296875 411.785156 330.292969 410.210938 C 354.289062 408.835938 377.890625 420.441406 401.101562 445.222656 L 403.066406 447.191406 Z M 331.078125 488.496094 C 353.304688 487.117188 375.136719 473.546875 396.578125 447.582031 C 374.746094 424.964844 352.714844 414.539062 330.488281 415.917969 C 308.261719 417.292969 285.644531 430.667969 262.828125 456.042969 C 286.035156 479.054688 308.851562 489.871094 331.078125 488.496094 Z M 331.078125 488.496094 " fill-opacity="1" fill-rule="nonzero"/></svg>