<svg xmlns="http://www.w3.org/2000/svg" xmlns:xlink="http://www.w3.org/1999/xlink" width="1920" zoomAndPan="magnify" viewBox="0 0 1440 809.999993" height="1080" preserveAspectRatio="xMidYMid meet" version="1.0"><defs><clipPath id="bffbb20e39"><path d="M 237 15.867188 L 1003.027344 15.867188 L 1003.027344 782 L 237 782 Z M 237 15.867188 " clip-rule="nonzero"/></clipPath></defs><g clip-path="url(#bffbb20e39)"><path fill="#ffffff" d="M 260.050781 15.710938 L 260.050781 191.183594 L 237.777344 213.460938 L 260.050781 235.742188 L 260.050781 283.3125 C 249.945312 284.429688 239.148438 292.785156 241.039062 303.964844 C 243.082031 316.007812 251.492188 320.960938 263.121094 321.140625 C 263.835938 321.175781 264.542969 321.09375 265.234375 320.902344 C 268.808594 320.285156 271.660156 317.640625 271.917969 314.128906 C 272.222656 309.921875 268.777344 306.25 264.21875 305.917969 C 259.65625 305.585938 255.707031 308.726562 255.40625 312.933594 C 255.332031 313.988281 255.492188 315.011719 255.878906 315.996094 C 248.292969 311.628906 248.625 298.007812 254.1875 292.296875 C 265.078125 281.105469 278.355469 292.523438 282.863281 303.148438 C 287.714844 314.601562 291.429688 327.441406 291.660156 340.027344 C 280.691406 339.320312 269.699219 340.980469 259.226562 345.941406 C 229.808594 359.875 235.097656 406.808594 270.664062 405.347656 C 282.722656 404.851562 298.941406 401.007812 304.160156 388.320312 C 309.945312 374.277344 304.644531 362.199219 289.761719 358.441406 C 283.378906 356.707031 277.015625 359.628906 275.5625 364.964844 C 274.109375 370.300781 278.113281 376.050781 284.5 377.789062 C 287.027344 378.488281 289.546875 378.449219 292.050781 377.675781 C 294.148438 389.984375 285.964844 400.121094 269.273438 397.066406 C 256.675781 394.765625 248.8125 379.835938 252.792969 367.484375 C 263.917969 332.910156 309.265625 348.460938 330.902344 363.636719 C 364.964844 387.5 383.03125 435.765625 369.460938 476.011719 C 362.746094 495.910156 348.550781 517.09375 327.632812 524.195312 C 305.761719 531.621094 273.75 524.6875 260.574219 504.183594 C 245.449219 480.644531 248.785156 437.128906 281.933594 430.859375 C 296.140625 428.175781 314.035156 431.625 322.644531 444.566406 C 328.644531 453.59375 333.179688 478.582031 317.140625 481.71875 C 317.609375 480.878906 317.9375 479.988281 318.117188 479.042969 C 319.273438 472.65625 313.296875 466.203125 304.773438 464.65625 C 296.25 463.113281 288.390625 467.042969 287.234375 473.4375 C 286.128906 479.507812 291.5 485.574219 299.34375 487.496094 C 299.742188 487.644531 300.148438 487.75 300.570312 487.8125 C 317.554688 490.601562 342.347656 481.132812 342.042969 460.589844 C 341.507812 426.667969 301.296875 417.839844 274.660156 427.074219 C 242.140625 438.363281 224.519531 479.25 247.808594 508.75 C 257.359375 520.84375 269.0625 528.269531 281.578125 531.839844 C 264.097656 533.84375 247.1875 542.355469 241.839844 559.132812 C 234.21875 583.039062 253.195312 607.933594 278.550781 607.328125 C 283.253906 607.175781 287.75 606.121094 292.03125 604.171875 C 281.691406 609.730469 273.230469 618.09375 270.296875 630.21875 C 267.277344 642.691406 268.148438 656.8125 275.261719 667.542969 C 250.570312 662.246094 234.46875 683.609375 240.316406 706.726562 C 243.21875 718.167969 252.976562 723.867188 264.210938 722.285156 C 264.242188 722.285156 264.25 722.273438 264.273438 722.273438 C 250.050781 733.753906 242.464844 750.855469 240.640625 770.796875 C 240.15625 775.777344 242.648438 778.421875 248.03125 778.171875 C 267.960938 776.367188 285.058594 768.777344 296.550781 754.550781 C 296.550781 754.582031 296.535156 754.589844 296.535156 754.609375 C 294.964844 765.84375 300.65625 775.597656 312.09375 778.496094 C 335.207031 784.355469 356.570312 768.25 351.277344 743.558594 C 362 750.675781 376.132812 751.546875 388.59375 748.53125 C 400.71875 745.589844 409.089844 737.117188 414.644531 726.773438 C 412.691406 731.0625 411.640625 735.558594 411.488281 740.265625 C 410.890625 765.632812 435.78125 784.597656 459.691406 776.980469 C 476.832031 771.511719 485.351562 753.964844 487.105469 736.082031 C 490.539062 749.03125 498.042969 761.160156 510.511719 771.003906 C 540.007812 794.292969 580.898438 776.675781 592.175781 744.152344 C 601.410156 717.515625 592.582031 677.304688 558.65625 676.769531 C 538.117188 676.464844 528.644531 701.261719 531.433594 718.246094 C 531.496094 718.664062 531.601562 719.070312 531.753906 719.46875 C 533.671875 727.316406 539.738281 732.683594 545.8125 731.578125 C 552.195312 730.421875 556.136719 722.574219 554.589844 714.039062 C 553.046875 705.5 546.601562 699.539062 540.207031 700.695312 C 539.257812 700.882812 538.367188 701.214844 537.527344 701.691406 C 540.667969 685.648438 565.65625 690.1875 574.683594 696.1875 C 587.636719 704.792969 591.074219 722.691406 588.390625 736.894531 C 582.125 770.046875 538.59375 773.378906 515.066406 758.257812 C 494.5625 745.089844 487.628906 713.058594 495.054688 691.199219 C 502.15625 670.277344 523.339844 656.082031 543.238281 649.371094 C 583.484375 635.800781 631.75 653.871094 655.613281 687.929688 C 670.789062 709.566406 686.339844 754.914062 651.765625 766.039062 C 639.414062 770.015625 624.492188 762.152344 622.1875 749.558594 C 619.125 732.867188 629.265625 724.683594 641.574219 726.777344 C 640.800781 729.285156 640.761719 731.804688 641.460938 734.332031 C 643.199219 740.714844 648.945312 744.710938 654.285156 743.269531 C 659.625 741.828125 662.542969 735.457031 660.804688 729.070312 C 657.054688 714.1875 644.972656 708.894531 630.929688 714.667969 C 618.246094 719.890625 614.398438 736.121094 613.902344 748.164062 C 612.441406 783.734375 659.375 789.023438 673.308594 759.601562 C 678.269531 749.132812 679.929688 738.128906 679.222656 727.171875 C 691.808594 727.402344 704.648438 731.117188 716.101562 735.96875 C 726.726562 740.472656 738.148438 753.753906 726.957031 764.640625 C 721.242188 770.207031 707.621094 770.539062 703.253906 762.953125 C 704.238281 763.339844 705.261719 763.496094 706.316406 763.425781 C 710.519531 763.121094 713.660156 759.1875 713.332031 754.613281 C 713.003906 750.039062 709.328125 746.609375 705.121094 746.910156 C 701.609375 747.167969 698.964844 750.011719 698.347656 753.597656 C 698.15625 754.289062 698.074219 754.992188 698.109375 755.710938 C 698.289062 767.339844 703.242188 775.761719 715.285156 777.792969 C 726.238281 779.644531 734.480469 769.316406 735.859375 759.386719 L 783.679688 759.386719 L 805.96875 781.648438 L 828.242188 759.371094 L 1003.261719 759.371094 L 1003.261719 750.894531 L 828.242188 750.894531 L 805.96875 728.613281 L 783.691406 750.894531 L 735.46875 750.894531 C 730.753906 727.210938 700.386719 718.230469 678.113281 718.089844 C 675.128906 701.421875 667.1875 685.191406 657.535156 671.414062 C 636.140625 640.890625 596.140625 629.585938 560.753906 632.722656 C 520.597656 636.296875 488.765625 673.582031 485.203125 711.519531 C 484.835938 710.183594 484.4375 708.878906 483.96875 707.625 C 474.171875 680.660156 457.292969 655.390625 437.65625 633.761719 C 423.582031 618.148438 420.832031 614.894531 415.648438 606.066406 C 415.648438 606.089844 415.648438 606.128906 415.632812 606.152344 C 414.539062 605.238281 413.144531 612.496094 413.53125 614.105469 C 422.519531 651.914062 438.046875 726.847656 386.101562 739.433594 C 351.117188 747.90625 331.5 716.058594 336.863281 684.476562 C 336.925781 684.070312 336.964844 683.707031 336.980469 683.410156 L 361.71875 683.410156 L 361.71875 662.316406 L 382.8125 662.316406 L 382.8125 636.015625 L 356.511719 636.015625 L 356.511719 657.101562 L 335.40625 657.101562 L 335.40625 681.738281 C 335.050781 681.792969 334.695312 681.867188 334.34375 681.960938 C 302.765625 687.324219 270.910156 667.691406 279.386719 632.714844 C 291.972656 580.761719 366.90625 596.296875 404.71875 605.285156 C 406.398438 605.683594 414.257812 604.148438 412.476562 603.046875 C 412.496094 603.019531 412.535156 602.992188 412.546875 602.960938 C 398.191406 591.722656 395.21875 590.246094 385.0625 581.167969 C 363.429688 561.542969 338.164062 544.648438 311.195312 534.851562 C 310.304688 534.527344 309.382812 534.226562 308.441406 533.945312 C 345.980469 529.859375 382.5625 498.265625 386.09375 458.511719 C 389.230469 423.121094 377.921875 383.117188 347.398438 361.730469 C 333.625 352.078125 317.394531 344.136719 300.722656 341.152344 C 300.585938 319.070312 291.757812 289.035156 268.535156 283.921875 L 268.535156 235.742188 L 290.808594 213.460938 L 268.535156 191.1875 L 268.535156 15.714844 Z M 456.492188 734.816406 C 461.0625 730.363281 460.042969 721.886719 454.195312 715.871094 C 453.273438 714.945312 452.269531 714.117188 451.179688 713.394531 C 437.632812 703.335938 423.34375 711.035156 416.171875 723.734375 C 418.992188 717.730469 420.964844 711.253906 422.210938 704.921875 C 427.300781 679.0625 425.328125 653.382812 420.535156 627.910156 C 433.8125 640.582031 445.425781 654.214844 455.652344 669.535156 C 469.253906 689.898438 486.246094 714.4375 481.59375 740.015625 C 477.125 764.644531 451.367188 775.855469 430.875 763.609375 C 416.660156 755.109375 410.101562 732.691406 426.234375 721.859375 C 428.160156 720.582031 430.253906 719.71875 432.519531 719.269531 C 432.164062 723.410156 433.917969 728.207031 437.609375 731.996094 C 443.457031 738.007812 451.90625 739.257812 456.492188 734.808594 Z M 250.894531 767.921875 C 254.867188 739.394531 274.84375 710.765625 304.351562 714.476562 C 308.046875 743.976562 279.417969 763.953125 250.894531 767.921875 Z M 341.292969 753.929688 C 341 757.777344 340.082031 761.46875 338.53125 765.003906 C 337.488281 767.273438 335.171875 769.972656 333.144531 771.101562 C 321.742188 775.554688 310.171875 774.007812 306.191406 761.441406 C 305.925781 760.246094 305.816406 759.035156 305.859375 757.808594 C 305.902344 756.585938 306.097656 755.382812 306.445312 754.207031 C 306.792969 753.035156 307.285156 751.921875 307.914062 750.871094 C 308.546875 749.820312 309.300781 748.863281 310.171875 748.003906 C 310.132812 748.515625 310.144531 749.027344 310.199219 749.535156 C 310.890625 754.847656 316.203125 758.527344 322.050781 757.761719 C 327.902344 756.996094 332.09375 752.082031 331.394531 746.765625 C 330.699219 741.453125 325.394531 737.773438 319.535156 738.535156 C 314.15625 739.046875 308.042969 740.605469 303.445312 743.828125 C 305.578125 739.636719 307.277344 735.277344 308.535156 730.746094 C 309.863281 725.957031 310.367188 720.839844 310.1875 715.664062 C 313.636719 716.53125 316.96875 717.730469 320.1875 719.257812 C 334.15625 725.980469 343.445312 737.75 341.285156 753.929688 Z M 333.890625 684.933594 C 332.128906 696.488281 331.71875 708.328125 334.773438 719.273438 C 327.488281 714.039062 318.617188 710.589844 309.582031 709.242188 C 308.238281 700.207031 304.78125 691.328125 299.539062 684.039062 C 310.492188 687.097656 322.335938 686.6875 333.894531 684.933594 Z M 299.566406 698.628906 C 301.089844 701.847656 302.285156 705.179688 303.15625 708.632812 C 297.988281 708.449219 292.855469 708.953125 288.070312 710.292969 C 283.542969 711.550781 279.183594 713.246094 274.992188 715.375 C 278.214844 710.765625 279.773438 704.671875 280.292969 699.289062 C 281.058594 693.433594 277.363281 688.125 272.054688 687.421875 C 266.746094 686.71875 261.816406 690.917969 261.0625 696.777344 C 260.304688 702.632812 263.980469 707.925781 269.292969 708.613281 C 269.800781 708.675781 270.3125 708.683594 270.824219 708.644531 C 269.964844 709.519531 269.011719 710.273438 267.960938 710.90625 C 266.910156 711.535156 265.796875 712.027344 264.621094 712.375 C 263.445312 712.722656 262.246094 712.917969 261.019531 712.960938 C 259.792969 713.003906 258.582031 712.894531 257.386719 712.628906 C 244.820312 708.644531 243.265625 697.078125 247.726562 685.683594 C 248.859375 683.664062 251.554688 681.34375 253.828125 680.292969 C 257.359375 678.738281 261.050781 677.820312 264.902344 677.53125 C 281.070312 675.378906 292.835938 684.664062 299.566406 698.628906 Z M 349.292969 563.15625 C 364.472656 573.316406 378.347656 585.023438 390.917969 598.28125 C 365.445312 593.488281 339.765625 591.515625 313.914062 596.597656 C 307.574219 597.84375 301.09375 599.816406 295.089844 602.636719 C 307.789062 595.460938 315.484375 581.183594 305.433594 567.628906 C 304.707031 566.542969 303.878906 565.539062 302.953125 564.621094 C 296.941406 558.773438 288.460938 557.757812 284.003906 562.320312 C 279.546875 566.882812 280.804688 575.34375 286.8125 581.203125 C 290.605469 584.898438 295.394531 586.652344 299.53125 586.292969 C 299.089844 588.5625 298.226562 590.652344 296.945312 592.574219 C 286.117188 608.707031 263.6875 602.148438 255.199219 587.9375 C 242.941406 567.445312 254.164062 541.679688 278.796875 537.207031 C 304.386719 532.570312 328.925781 549.554688 349.292969 563.15625 Z M 349.292969 563.15625 " fill-opacity="1" fill-rule="nonzero"/></g></svg>