<svg xmlns="http://www.w3.org/2000/svg" xmlns:xlink="http://www.w3.org/1999/xlink" width="1920" zoomAndPan="magnify" viewBox="0 0 1440 809.999993" height="1080" preserveAspectRatio="xMidYMid meet" version="1.0"><defs><clipPath id="9f4649af76"><path d="M 208.269531 13.308594 L 1010.769531 13.308594 L 1010.769531 796 L 208.269531 796 Z M 208.269531 13.308594 " clip-rule="nonzero"/></clipPath></defs><g clip-path="url(#9f4649af76)"><path fill="#fad099" d="M 213.71875 414.835938 C 212.789062 417.433594 210.5625 418.546875 208.519531 418.546875 L 208.519531 453.632812 C 241.5625 391.628906 308.019531 377.894531 370.023438 365.269531 C 409.378906 357.101562 446.875 349.492188 471.378906 330 C 472.679688 328.886719 474.347656 328.328125 476.019531 328.515625 C 479.175781 329.070312 481.21875 331.855469 480.660156 334.824219 C 475.835938 366.011719 488.085938 402.398438 500.710938 440.636719 C 520.757812 500.78125 542.105469 565.011719 504.980469 624.785156 C 575.332031 622.375 620.257812 673.238281 662.394531 720.574219 C 689.128906 750.644531 714.558594 779.417969 743.890625 790.742188 C 745.375 791.300781 746.488281 792.414062 747.046875 793.898438 C 747.417969 794.640625 747.417969 795.199219 747.417969 795.941406 L 789.925781 795.941406 C 760.78125 781.277344 733.492188 749.71875 704.71875 716.117188 L 702.121094 713.148438 C 655.898438 659.683594 605.59375 602.695312 540.992188 609.933594 C 539.320312 610.121094 537.464844 609.5625 536.164062 608.265625 L 535.792969 607.894531 C 535.238281 607.152344 534.867188 606.039062 534.679688 605.109375 C 534.496094 603.4375 535.050781 601.953125 535.980469 600.839844 C 569.949219 554.800781 555.101562 493.171875 535.050781 433.582031 L 534.867188 432.839844 C 532.265625 425.042969 529.667969 417.433594 527.070312 409.820312 L 525.769531 406.109375 C 511.105469 364.34375 497.367188 324.988281 499.222656 292.5 C 471.9375 310.324219 430.910156 318.117188 387.472656 326.285156 C 378.375 328.144531 369.09375 329.8125 359.8125 331.671875 L 359.070312 331.855469 C 297.441406 344.480469 236.738281 362.484375 213.71875 414.835938 Z M 1011.203125 795.941406 L 973.148438 795.941406 C 973.148438 795.382812 973.148438 794.828125 972.960938 794.269531 C 972.40625 792.414062 970.917969 791.113281 969.25 790.558594 C 944.003906 782.761719 921.542969 762.710938 898.335938 742.105469 C 849.144531 698.296875 797.167969 652.074219 707.875 702.753906 L 698.410156 691.984375 C 796.980469 627.386719 883.484375 697.925781 948.644531 751.386719 C 972.035156 770.507812 992.824219 787.585938 1011.203125 795.941406 Z M 952.355469 795.941406 L 928.222656 795.941406 C 928.222656 794.640625 927.851562 793.34375 926.925781 792.414062 C 926.738281 792.042969 926.554688 791.855469 926.183594 791.671875 C 918.941406 785.546875 910.589844 780.53125 901.492188 777.191406 C 892.582031 774.035156 883.113281 772.367188 873.277344 772.367188 C 863.4375 772.367188 853.96875 774.035156 845.058594 777.191406 C 835.964844 780.53125 827.609375 785.546875 820.183594 791.671875 C 818.886719 792.785156 818.328125 794.269531 818.328125 795.941406 L 810.160156 795.941406 C 810.160156 795.382812 810.160156 794.828125 809.976562 794.269531 C 809.417969 792.414062 807.933594 791.113281 806.261719 790.558594 C 776.003906 781.089844 746.488281 747.492188 715.300781 711.292969 C 796.609375 666.554688 845.058594 709.621094 890.910156 750.460938 C 910.960938 768.28125 930.453125 785.730469 952.355469 795.941406 Z M 913.558594 795.941406 L 832.992188 795.941406 C 838.003906 792.597656 843.203125 789.816406 848.773438 787.773438 C 856.382812 784.988281 864.738281 783.503906 873.277344 783.503906 C 881.816406 783.503906 890.167969 784.988281 897.59375 787.773438 C 903.347656 789.816406 908.546875 792.597656 913.558594 795.941406 Z M 728.480469 795.941406 L 692.839844 795.941406 C 692.839844 793.898438 691.910156 792.042969 689.871094 790.929688 C 662.953125 776.820312 640.492188 753.617188 617.84375 730.226562 C 577.375 688.085938 536.164062 645.578125 464.882812 647.992188 C 502.566406 587.472656 486.230469 530.484375 470.265625 474.421875 C 461.167969 443.050781 452.257812 412.050781 453.558594 381.421875 C 453.558594 380.492188 453.1875 379.378906 452.628906 378.265625 C 450.960938 375.664062 447.617188 374.921875 445.019531 376.59375 C 419.03125 392.929688 387.84375 400.726562 356.285156 408.523438 C 299.667969 422.632812 241.933594 436.925781 208.519531 499.855469 L 208.519531 472.007812 C 210.75 472.007812 212.789062 470.710938 213.71875 468.667969 C 242.308594 402.769531 309.691406 389.03125 372.25 376.222656 C 408.261719 368.796875 442.605469 361.742188 468.59375 345.59375 C 467.480469 376.035156 478.617188 409.449219 490.128906 444.164062 C 510.363281 504.867188 532.082031 570.023438 489.570312 627.757812 C 488.644531 628.871094 488.273438 630.167969 488.457031 631.839844 C 488.828125 634.808594 491.425781 637.039062 494.582031 636.667969 C 565.867188 628.683594 611.53125 680.105469 654.042969 728 C 678.359375 755.285156 701.566406 781.648438 728.480469 795.941406 Z M 676.132812 795.941406 L 644.019531 795.941406 C 644.019531 794.640625 643.648438 793.34375 642.71875 792.414062 C 642.535156 792.042969 642.347656 791.855469 641.976562 791.671875 C 634.738281 785.546875 626.382812 780.53125 617.285156 777.378906 C 608.5625 774.035156 598.910156 772.363281 589.070312 772.363281 C 579.230469 772.363281 569.765625 774.035156 560.855469 777.378906 C 551.757812 780.53125 543.40625 785.546875 535.980469 791.671875 C 534.679688 792.785156 534.125 794.269531 534.125 795.941406 L 512.589844 795.941406 C 512.589844 795.011719 512.21875 793.898438 511.660156 793.15625 C 511.289062 792.226562 510.546875 791.671875 509.804688 791.113281 C 503.492188 787.402344 496.996094 783.6875 490.3125 780.347656 C 507.019531 772.921875 517.417969 760.113281 522.613281 745.261719 C 526.140625 735.050781 526.882812 723.914062 525.398438 712.777344 C 523.914062 702.011719 520.015625 691.242188 514.074219 681.777344 C 508.875 673.792969 502.378906 666.554688 494.398438 660.984375 C 543.960938 669.710938 577.191406 704.050781 609.863281 737.835938 C 630.652344 759.554688 651.257812 780.902344 676.132812 795.941406 Z M 629.351562 795.941406 L 548.789062 795.941406 C 553.800781 792.597656 558.996094 789.816406 564.753906 787.773438 C 572.179688 784.988281 580.53125 783.503906 589.070312 783.503906 C 597.609375 783.503906 605.964844 784.988281 613.574219 787.773438 C 619.144531 789.816406 624.527344 792.597656 629.351562 795.941406 Z M 495.882812 795.941406 L 417.917969 795.941406 C 417.917969 793.898438 416.800781 791.855469 414.761719 790.929688 C 399.722656 783.6875 383.015625 777.933594 365.195312 774.035156 C 347.933594 770.324219 329.554688 768.28125 310.433594 768.28125 C 302.636719 768.28125 294.839844 768.652344 287.414062 769.394531 C 309.691406 763.824219 333.265625 760.855469 357.769531 760.855469 C 378.5625 760.855469 398.796875 762.898438 418.101562 766.980469 L 418.660156 767.167969 C 424.042969 768.28125 429.425781 769.582031 434.625 771.066406 C 447.804688 774.59375 460.613281 779.046875 472.679688 784.429688 L 473.421875 784.800781 C 481.21875 788.144531 488.644531 791.855469 495.882812 795.941406 Z M 398.609375 795.941406 L 222.257812 795.941406 C 233.582031 791.484375 245.460938 787.773438 258.085938 784.988281 C 274.605469 781.460938 292.242188 779.417969 310.433594 779.417969 C 328.625 779.417969 346.261719 781.460938 362.78125 784.988281 C 375.40625 787.773438 387.472656 791.484375 398.609375 795.941406 Z M 208.519531 734.308594 L 208.519531 576.335938 L 208.707031 578.378906 C 209.820312 591 215.574219 602.140625 226.714844 608.636719 L 227.640625 609.191406 C 237.109375 614.578125 247.320312 616.433594 257.527344 614.949219 C 259.199219 614.578125 260.871094 614.207031 262.539062 613.832031 C 255.671875 623.300781 248.988281 633.140625 243.050781 643.535156 C 229.125 667.667969 218.917969 692.726562 212.234375 717.972656 C 210.933594 723.359375 209.636719 728.742188 208.519531 734.308594 Z M 208.519531 570.023438 L 208.519531 518.046875 C 209.449219 518.046875 210.378906 517.859375 211.304688 517.304688 C 212.234375 516.933594 212.976562 516.003906 213.535156 515.261719 C 224.855469 495.398438 243.792969 486.117188 262.726562 485.375 C 272.378906 485.003906 282.03125 486.859375 290.757812 490.386719 C 299.480469 493.914062 307.277344 499.113281 313.21875 505.980469 C 323.242188 517.675781 328.070312 533.824219 322.871094 553.316406 C 312.105469 561.300781 301.894531 570.210938 292.054688 579.863281 C 288.160156 583.761719 284.261719 587.84375 280.546875 591.929688 C 272.566406 598.613281 264.210938 602.511719 255.859375 603.808594 C 248.0625 604.921875 240.265625 603.625 233.023438 599.355469 L 232.652344 599.355469 C 224.855469 594.714844 220.585938 586.546875 219.84375 577.265625 C 218.730469 567.425781 221.515625 556.472656 226.898438 546.820312 C 231.910156 538.28125 238.78125 532.710938 245.832031 530.113281 C 252.332031 527.699219 258.828125 527.886719 263.46875 530.484375 L 264.210938 530.855469 C 269.410156 534.011719 272.378906 538.652344 273.308594 544.035156 C 274.234375 549.789062 272.9375 556.289062 269.410156 562.226562 L 269.222656 562.597656 C 267.179688 566.3125 263.65625 568.355469 260.3125 569.28125 C 254.929688 570.582031 249.546875 569.652344 246.949219 568.167969 C 244.347656 566.496094 241.007812 567.425781 239.335938 570.210938 C 237.851562 572.808594 238.78125 576.148438 241.378906 577.820312 C 245.832031 580.417969 254.742188 582.089844 262.910156 580.046875 C 269.039062 578.5625 274.792969 575.035156 278.691406 568.539062 L 279.246094 567.609375 C 283.886719 559.441406 285.558594 550.347656 284.261719 542.363281 C 282.960938 533.640625 278.132812 526.027344 269.78125 521.203125 L 269.039062 520.644531 C 261.425781 516.5625 251.589844 516.191406 241.933594 519.71875 C 232.839844 523.058594 223.742188 530.113281 217.433594 540.878906 L 217.058594 541.621094 C 212.046875 550.53125 209.078125 560.371094 208.519531 570.023438 Z M 208.519531 390.332031 L 208.519531 355.804688 C 208.890625 355.804688 209.265625 355.804688 209.820312 355.617188 C 211.863281 355.246094 213.535156 353.574219 213.90625 351.53125 C 222.445312 313.847656 241.933594 284.703125 269.222656 266.699219 C 292.613281 251.289062 321.574219 243.867188 354.429688 245.90625 L 354.988281 245.90625 C 357.769531 246.09375 360.742188 246.464844 363.710938 246.835938 C 360 255.375 357.214844 264.65625 355.171875 274.679688 C 306.722656 276.539062 273.492188 290.644531 249.917969 314.035156 C 230.054688 333.710938 217.433594 359.699219 208.519531 390.332031 Z M 208.519531 329.8125 L 208.519531 296.027344 C 210.007812 296.027344 211.492188 295.472656 212.605469 294.359375 C 286.488281 214.90625 242.308594 132.855469 219.289062 90.53125 L 219.101562 90.160156 C 216.875 85.707031 214.648438 81.808594 213.535156 79.578125 C 212.976562 78.464844 212.046875 77.722656 211.121094 77.167969 C 210.191406 76.609375 209.449219 76.421875 208.519531 76.421875 L 208.519531 51.734375 C 220.214844 71.96875 237.664062 87.933594 255.300781 103.898438 C 290.570312 136.011719 326.027344 168.5 310.433594 237.925781 C 292.984375 241.453125 277.207031 248.136719 263.097656 257.417969 C 238.222656 273.753906 219.472656 298.441406 208.519531 329.8125 Z M 208.519531 282.105469 L 208.519531 255.933594 C 210.191406 255.933594 211.863281 255.1875 212.976562 253.703125 C 225.972656 235.699219 230.796875 215.277344 230.796875 195.785156 C 230.796875 169.054688 221.886719 143.996094 213.347656 129.328125 C 212.976562 128.585938 212.234375 127.84375 211.304688 127.289062 C 210.378906 126.730469 209.449219 126.546875 208.519531 126.546875 L 208.519531 94.058594 L 209.449219 95.914062 C 230.796875 134.898438 271.078125 209.894531 208.519531 282.105469 Z M 208.519531 240.152344 L 208.519531 144.367188 C 214.460938 157.917969 219.472656 176.292969 219.472656 195.785156 C 219.472656 210.636719 216.503906 226.042969 208.519531 240.152344 Z M 208.519531 33.914062 L 208.519531 13.308594 C 219.472656 33.355469 242.679688 53.40625 267.738281 74.9375 C 318.046875 118.378906 376.707031 168.871094 351.273438 234.582031 C 341.25 234.210938 331.597656 234.582031 322.128906 235.882812 C 336.980469 163.300781 299.667969 129.328125 262.910156 95.730469 C 243.421875 77.910156 224.113281 60.273438 213.535156 37.070312 C 212.976562 35.957031 212.046875 35.027344 210.75 34.285156 C 210.007812 34.097656 209.265625 33.914062 208.519531 33.914062 Z M 543.035156 254.074219 C 535.609375 260.203125 527.253906 265.027344 518.160156 268.183594 C 517.972656 268.371094 517.601562 268.554688 517.230469 268.554688 C 514.074219 269.113281 511.289062 267.070312 510.734375 264.101562 C 509.0625 254.632812 508.875 244.980469 510.546875 235.328125 C 512.21875 226.230469 515.375 217.320312 520.199219 208.78125 L 520.386719 208.410156 C 525.398438 199.871094 531.710938 192.445312 538.765625 186.503906 C 546.1875 180.378906 554.542969 175.550781 563.453125 172.210938 C 563.824219 172.210938 564.195312 172.023438 564.566406 172.023438 C 567.722656 171.46875 570.507812 173.511719 571.0625 176.480469 C 572.734375 185.949219 572.921875 195.601562 571.25 205.066406 C 569.578125 214.351562 566.238281 223.445312 561.410156 231.984375 C 556.398438 240.710938 550.085938 248.136719 543.035156 254.074219 Z M 520.757812 255.1875 C 526.140625 252.589844 531.152344 249.433594 535.792969 245.535156 C 541.917969 240.339844 547.488281 233.839844 551.757812 226.601562 C 556.027344 219.175781 558.8125 211.195312 560.113281 203.210938 C 561.226562 197.269531 561.410156 191.332031 561.039062 185.390625 C 555.65625 187.988281 550.644531 191.144531 546.003906 195.042969 C 539.878906 200.242188 534.308594 206.554688 530.039062 213.976562 L 529.855469 214.351562 C 525.769531 221.589844 522.984375 229.386719 521.6875 237.367188 C 520.570312 243.308594 520.386719 249.25 520.757812 255.1875 Z M 400.839844 500.226562 C 393.414062 506.351562 385.058594 511.179688 376.148438 514.335938 C 375.777344 514.519531 375.40625 514.519531 375.035156 514.707031 C 372.066406 515.261719 369.09375 513.21875 368.539062 510.25 C 366.867188 500.78125 366.867188 490.945312 368.539062 481.476562 C 370.207031 472.382812 373.363281 463.097656 378.375 454.558594 C 383.386719 446.019531 389.515625 438.59375 396.753906 432.65625 C 404.179688 426.34375 412.53125 421.703125 421.441406 418.363281 C 421.816406 418.175781 422.1875 418.175781 422.558594 417.988281 C 425.527344 417.617188 428.496094 419.476562 429.054688 422.632812 C 430.726562 431.914062 430.726562 441.75 429.054688 451.21875 C 427.570312 460.5 424.226562 469.597656 419.214844 478.136719 C 414.390625 486.859375 408.078125 494.101562 400.839844 500.226562 Z M 378.746094 501.152344 C 383.945312 498.742188 389.144531 495.398438 393.597656 491.5 C 399.910156 486.304688 405.292969 479.992188 409.5625 472.566406 C 413.832031 465.140625 416.617188 457.34375 418.101562 449.363281 C 419.03125 443.421875 419.402344 437.480469 418.84375 431.542969 C 413.648438 434.140625 408.632812 437.296875 403.992188 441.195312 C 397.683594 446.390625 392.296875 452.703125 388.027344 460.128906 C 383.757812 467.554688 380.976562 475.351562 379.488281 483.332031 C 378.5625 489.273438 378.191406 495.398438 378.746094 501.152344 Z M 576.820312 600.839844 C 620.628906 610.679688 657.199219 645.761719 690.984375 683.445312 C 701.75 676.390625 712.332031 670.636719 722.542969 666.367188 C 698.78125 629.242188 672.421875 609.378906 643.648438 601.582031 C 622.855469 596.011719 600.578125 596.382812 576.820312 600.839844 Z M 398.609375 686.230469 C 397.496094 686.789062 396.382812 687.160156 395.453125 687.714844 C 384.132812 692.355469 372.066406 692.542969 361.296875 686.417969 C 351.460938 680.660156 344.589844 672.679688 340.878906 663.027344 C 340.136719 661.355469 339.578125 659.871094 339.207031 658.199219 C 334.566406 668.78125 329.183594 679.546875 323.242188 689.945312 C 309.320312 713.890625 292.613281 735.238281 274.234375 753.617188 C 270.152344 757.699219 266.066406 761.414062 261.984375 765.125 C 267.179688 763.269531 272.566406 761.785156 277.949219 760.300781 C 303.195312 753.429688 329.925781 749.71875 357.769531 749.71875 C 369.835938 749.71875 381.53125 750.273438 393.226562 751.761719 C 392.113281 750.460938 390.8125 749.160156 389.886719 747.863281 C 383.386719 739.695312 379.675781 729.667969 379.675781 718.53125 C 379.675781 706.09375 385.988281 695.699219 395.824219 688.273438 C 396.570312 687.53125 397.496094 686.789062 398.609375 686.230469 Z M 454.484375 659.871094 C 453.1875 659.871094 451.886719 659.683594 450.773438 658.757812 C 448.359375 657.085938 447.617188 653.746094 449.289062 651.144531 C 460.613281 631.46875 459.128906 610.492188 450.214844 593.601562 C 445.945312 585.246094 439.449219 577.636719 432.023438 571.878906 L 431.652344 571.695312 C 424.414062 566.125 416.058594 562.042969 407.335938 560.371094 C 392.113281 557.402344 375.589844 561.300781 361.484375 575.59375 C 360 588.957031 357.398438 602.324219 353.871094 615.503906 C 352.574219 620.886719 350.902344 626.269531 349.230469 631.65625 C 347.5625 641.863281 348.117188 651.144531 351.273438 658.941406 C 354.242188 666.183594 359.257812 672.308594 366.867188 676.761719 C 374.292969 681.03125 383.015625 680.847656 391.183594 677.320312 C 400.652344 673.421875 409.378906 665.441406 415.132812 655.414062 C 419.957031 646.875 421.257812 638.152344 419.957031 630.726562 C 418.84375 623.859375 415.503906 618.289062 410.863281 615.503906 L 410.304688 615.132812 C 404.921875 612.164062 399.351562 611.976562 394.339844 613.832031 C 388.773438 616.0625 383.757812 620.515625 380.234375 626.640625 C 377.632812 631.28125 378.191406 635.925781 379.675781 640.007812 C 381.53125 644.277344 384.503906 647.433594 386.542969 648.734375 C 389.328125 650.21875 390.257812 653.746094 388.585938 656.34375 C 387.101562 658.941406 383.757812 659.871094 380.976562 658.386719 C 377.078125 656.160156 372.25 650.773438 369.464844 644.277344 C 366.679688 637.410156 365.9375 629.242188 370.578125 621.074219 C 375.40625 612.71875 382.460938 606.410156 390.257812 603.4375 C 398.609375 600.28125 407.519531 600.652344 416.246094 605.664062 C 423.855469 610.121094 429.238281 618.660156 431.097656 628.871094 C 432.765625 638.523438 431.097656 650.03125 424.785156 660.800781 L 424.597656 660.984375 C 419.585938 670.082031 412.347656 677.691406 404.179688 683.074219 C 412.902344 678.621094 423.113281 676.207031 433.507812 676.207031 C 446.132812 676.207031 456.898438 680.476562 464.511719 686.789062 C 472.492188 693.46875 477.132812 702.382812 477.132812 711.292969 C 477.132812 721.128906 472.863281 729.113281 466.179688 734.679688 C 459.5 740.066406 450.585938 743.035156 440.933594 743.035156 C 433.136719 743.035156 427.199219 739.695312 422.742188 735.050781 C 416.800781 729.113281 413.832031 720.574219 413.832031 715.375 C 413.832031 712.21875 416.429688 709.804688 419.402344 709.804688 C 422.558594 709.804688 425.15625 712.21875 425.15625 715.375 C 425.15625 718.34375 427.011719 723.542969 430.726562 727.441406 C 433.136719 729.855469 436.664062 731.898438 440.933594 731.898438 C 448.175781 731.898438 454.484375 729.855469 459.128906 726.140625 C 463.398438 722.613281 465.996094 717.601562 465.996094 711.292969 C 465.996094 705.722656 462.839844 699.96875 457.457031 695.328125 C 451.703125 690.6875 443.347656 687.34375 433.507812 687.34375 C 422 687.34375 410.675781 690.871094 402.507812 697.183594 C 395.453125 702.382812 391 709.804688 391 718.53125 C 391 727.070312 393.597656 734.679688 398.609375 740.992188 C 403.808594 747.488281 411.417969 752.6875 421.257812 756.214844 C 426.640625 757.515625 432.023438 758.8125 437.40625 760.296875 C 450.773438 763.824219 463.582031 768.28125 475.835938 773.664062 C 495.324219 768.464844 507.019531 756.214844 512.03125 741.550781 C 514.816406 733.011719 515.558594 723.542969 514.261719 714.445312 C 512.960938 704.980469 509.621094 695.882812 504.605469 687.714844 C 494.398438 671.566406 477.132812 659.871094 454.484375 659.871094 Z M 358.882812 419.476562 C 313.21875 430.796875 266.808594 442.308594 234.695312 480.917969 C 243.421875 476.835938 252.886719 474.609375 262.355469 474.238281 C 273.492188 473.867188 284.816406 475.90625 295.027344 479.992188 C 305.238281 484.074219 314.519531 490.574219 321.574219 498.554688 C 331.96875 510.4375 337.722656 526.027344 335.867188 544.222656 C 342.175781 539.953125 348.488281 536.238281 354.988281 532.710938 C 355.730469 532.15625 356.65625 531.96875 357.585938 531.96875 C 360.742188 531.96875 363.15625 534.382812 363.339844 537.351562 C 363.527344 544.777344 363.339844 552.203125 362.96875 559.8125 C 377.820312 549.046875 394.15625 546.449219 409.378906 549.417969 C 419.957031 551.460938 429.796875 556.101562 438.523438 562.785156 L 438.894531 563.15625 C 447.617188 569.839844 455.042969 578.5625 460.242188 588.585938 C 464.511719 596.941406 467.480469 606.039062 468.222656 615.691406 C 485.488281 568.539062 472.492188 522.6875 459.5 477.394531 C 451.144531 448.621094 442.976562 420.03125 442.234375 391.074219 C 416.800781 404.996094 388.027344 412.050781 358.882812 419.476562 Z M 223.742188 379.5625 C 254 346.335938 302.824219 332.226562 352.386719 321.832031 C 351.460938 309.023438 351.832031 297.140625 353.316406 286.003906 C 309.136719 288.046875 278.875 300.855469 257.714844 322.015625 C 242.492188 337.054688 231.726562 356.546875 223.742188 379.5625 Z M 512.03125 280.992188 C 504.980469 311.992188 519.457031 354.316406 535.238281 399.425781 C 614.6875 351.347656 601.507812 287.859375 589.070312 227.714844 C 583.6875 201.539062 578.488281 175.921875 580.347656 151.792969 C 560.667969 165.527344 535.609375 173.882812 510.175781 182.234375 C 451.886719 201.539062 390.441406 221.960938 388.585938 314.777344 C 435.550781 305.867188 479.359375 297.140625 502.75 275.609375 C 504.050781 274.496094 505.90625 273.9375 507.761719 274.308594 C 510.734375 275.050781 512.589844 278.023438 512.03125 280.992188 Z M 538.949219 410.195312 L 543.589844 423.558594 C 648.84375 370.46875 630.839844 260.386719 617.285156 177.222656 C 612.273438 147.335938 608.003906 120.789062 609.863281 100.742188 C 593.339844 112.4375 568.28125 121.902344 539.878906 132.671875 C 461.167969 162.558594 356.84375 201.914062 363.527344 319.605469 L 377.449219 317.003906 C 378.191406 214.164062 444.277344 192.257812 506.648438 171.652344 C 536.164062 161.816406 564.9375 152.347656 584.246094 134.527344 C 585.542969 133.226562 587.398438 132.671875 589.257812 133.226562 C 592.226562 133.785156 594.082031 136.753906 593.527344 139.910156 C 587.585938 165.527344 593.710938 195.230469 600.023438 225.488281 C 613.390625 290.089844 627.496094 358.03125 538.949219 410.195312 Z M 535.980469 608.078125 Z M 594.453125 516.375 C 602.066406 487.417969 597.980469 454.746094 577.746094 415.578125 C 568.835938 422.445312 558.625 428.570312 547.117188 434.324219 C 563.082031 482.40625 574.960938 531.785156 561.597656 574.664062 C 577.375 556.101562 588.886719 537.167969 594.453125 516.375 Z M 784.359375 409.449219 C 739.0625 394.972656 693.027344 380.492188 640.863281 428.757812 C 646.429688 445.464844 648.660156 462.542969 647.730469 479.433594 C 645.875 509.136719 633.996094 537.722656 612.273438 562.96875 C 644.761719 556.660156 675.574219 560.742188 702.308594 573.921875 C 717.34375 581.535156 730.894531 591.929688 742.777344 605.109375 C 810.53125 584.132812 820.925781 536.980469 831.136719 490.574219 C 836.335938 467.367188 841.347656 444.164062 853.042969 423.746094 C 829.652344 423.746094 807.003906 416.691406 784.359375 409.449219 Z M 757.996094 647.804688 L 757.8125 647.246094 C 743.148438 617.917969 722.171875 596.382812 697.296875 583.945312 C 667.964844 569.28125 633.066406 566.867188 596.125 578.378906 C 594.269531 579.121094 591.855469 578.5625 590.371094 576.894531 C 588.328125 574.664062 588.515625 571.136719 590.742188 568.910156 C 619.144531 542.734375 634.550781 511.363281 636.40625 478.691406 C 638.265625 448.25 628.425781 416.503906 606.519531 386.988281 C 600.953125 394.601562 594.269531 401.652344 586.65625 408.335938 C 609.121094 451.21875 613.574219 487.046875 605.222656 519.160156 C 597.980469 546.078125 581.832031 570.023438 559.742188 593.226562 C 590.742188 585.433594 619.699219 583.574219 646.429688 590.816406 C 678.546875 599.539062 707.320312 621.257812 733.308594 662.285156 C 742.960938 659.128906 752.429688 656.902344 761.710938 655.785156 C 760.597656 653.003906 759.296875 650.402344 757.996094 647.804688 Z M 803.292969 384.203125 C 740.546875 362.300781 667.59375 336.867188 623.226562 391.628906 C 628.609375 399.984375 633.066406 408.707031 636.777344 417.433594 C 692.097656 368.425781 740.175781 383.648438 787.699219 398.871094 C 812.945312 406.667969 837.820312 414.648438 863.066406 412.234375 C 866.222656 411.863281 869.007812 414.089844 869.191406 417.246094 C 869.378906 418.546875 869.007812 420.03125 868.078125 421.144531 C 853.414062 441.566406 847.660156 467.183594 842.089844 492.800781 C 831.324219 541.621094 820.554688 590.816406 750.386719 614.390625 C 756.140625 621.816406 761.339844 629.984375 765.980469 638.894531 C 835.59375 627.941406 850.070312 552.019531 862.507812 486.859375 C 868.636719 454.1875 874.390625 424.117188 886.269531 404.625 C 863.4375 405.179688 834.664062 395.15625 803.292969 384.203125 Z M 814.800781 444.90625 C 770.433594 446.207031 684.859375 448.433594 653.484375 539.023438 C 747.601562 557.214844 792.339844 484.261719 815.542969 446.390625 L 816.472656 444.90625 Z M 641.046875 541.25 C 673.164062 437.480469 766.535156 435.066406 814.429688 433.769531 C 818.886719 433.769531 822.785156 433.582031 826.496094 433.398438 C 829.652344 433.210938 832.25 435.625 832.25 438.78125 C 832.4375 439.894531 832.066406 441.195312 831.507812 442.121094 C 829.652344 444.90625 827.425781 448.433594 825.011719 452.148438 C 799.949219 493.171875 751.128906 572.996094 644.945312 548.675781 C 641.976562 547.933594 640.121094 544.964844 640.863281 541.992188 Z M 722.726562 486.304688 C 709.917969 493.730469 698.039062 503.9375 689.871094 518.046875 C 706.207031 517.859375 721.054688 512.847656 733.863281 505.421875 C 750.570312 495.769531 764.125 482.035156 772.664062 470.152344 C 757.996094 471.824219 739.621094 476.648438 722.726562 486.304688 Z M 675.761719 520.832031 C 685.042969 500.597656 700.265625 486.304688 717.15625 476.648438 C 740.363281 463.285156 766.535156 458.457031 783.429688 458.457031 C 786.585938 458.457031 789 460.871094 789 464.027344 C 789 464.957031 788.8125 466.070312 788.253906 466.8125 C 779.902344 481.476562 762.636719 501.710938 739.433594 515.078125 C 722.542969 524.730469 702.492188 531.042969 680.402344 528.8125 C 677.246094 528.441406 675.019531 525.65625 675.390625 522.6875 C 675.390625 521.945312 675.574219 521.386719 675.761719 520.832031 Z M 224.855469 714.449219 C 228.011719 707.578125 231.726562 700.710938 235.625 693.84375 L 235.808594 693.46875 C 245.277344 677.136719 256.042969 662.46875 267.925781 649.476562 C 280.175781 635.738281 293.542969 624.230469 307.277344 614.761719 C 309.878906 613.089844 313.40625 613.648438 315.074219 616.246094 C 315.816406 617.359375 316.1875 618.660156 316.003906 619.773438 C 314.703125 636.480469 311.363281 653.746094 305.792969 671.195312 C 300.410156 688.085938 292.984375 704.980469 283.332031 721.5 C 279.433594 728.183594 275.347656 734.867188 270.894531 740.992188 C 287.042969 724.472656 301.339844 705.535156 313.589844 684.375 C 323.984375 666.183594 332.152344 647.617188 338.277344 628.871094 L 338.464844 628.3125 C 340.136719 623.117188 341.804688 617.917969 343.105469 612.71875 C 346.632812 599.355469 349.046875 585.988281 350.53125 572.621094 L 350.714844 572.25 C 351.644531 563.898438 352.015625 555.542969 352.203125 547.191406 C 344.960938 551.460938 337.90625 556.101562 331.039062 561.113281 C 320.085938 569.097656 309.691406 578.007812 299.851562 587.660156 C 296.140625 591.558594 292.425781 595.457031 288.714844 599.539062 L 288.15625 600.097656 C 274.976562 614.761719 263.097656 631.097656 252.703125 649.105469 C 240.449219 670.265625 231.167969 692.171875 224.855469 714.449219 Z M 223.742188 747.488281 C 219.84375 759.742188 217.058594 771.992188 215.390625 784.058594 C 225.042969 776.632812 234.140625 768.09375 242.863281 758.441406 C 254.1875 746.003906 264.582031 731.710938 273.679688 715.933594 C 282.773438 700.152344 290.015625 684.003906 295.210938 667.851562 C 299.109375 655.601562 301.894531 643.347656 303.566406 631.285156 C 294.097656 638.707031 284.816406 647.246094 276.09375 656.902344 C 264.769531 669.339844 254.371094 683.445312 245.460938 699.226562 L 245.277344 699.410156 C 236.179688 715.191406 228.941406 731.339844 223.742188 747.488281 Z M 223.742188 747.488281 " fill-opacity="1" fill-rule="nonzero"/></g></svg>