<svg xmlns="http://www.w3.org/2000/svg" xmlns:xlink="http://www.w3.org/1999/xlink" width="1920" zoomAndPan="magnify" viewBox="0 0 1440 809.999993" height="1080" preserveAspectRatio="xMidYMid meet" version="1.0"><defs><clipPath id="3e0d7f6ba6"><path d="M 327.550781 12.550781 L 1112.800781 12.550781 L 1112.800781 797.800781 L 327.550781 797.800781 Z M 327.550781 12.550781 " clip-rule="nonzero"/></clipPath></defs><g clip-path="url(#3e0d7f6ba6)"><path fill="#f2e8cf" d="M 682.160156 395.578125 C 639.191406 367.605469 604.015625 316.054688 568.851562 264.488281 C 528.277344 204.988281 487.691406 145.488281 436.992188 125.691406 C 434.128906 160.574219 438.464844 195.914062 450.007812 229.273438 C 462.113281 264.257812 482.175781 297.167969 510.183594 325.175781 C 530.671875 345.664062 553.753906 361.886719 578.335938 373.839844 C 603.59375 386.121094 630.503906 393.941406 657.847656 397.304688 C 665.945312 396.371094 674.070312 395.796875 682.171875 395.589844 Z M 765.371094 74.34375 C 747.558594 55.726562 732.332031 34.96875 719.996094 12.550781 C 707.621094 35.035156 692.371094 55.789062 674.609375 74.34375 C 692.371094 92.898438 707.621094 113.664062 719.996094 136.132812 C 732.332031 113.703125 747.558594 92.949219 765.371094 74.34375 Z M 765.371094 735.636719 C 747.558594 717.019531 732.332031 696.261719 719.996094 673.84375 C 707.621094 696.328125 692.371094 717.082031 674.609375 735.636719 C 692.371094 754.191406 707.621094 774.957031 719.996094 797.425781 C 732.332031 774.996094 747.558594 754.242188 765.371094 735.636719 Z M 389.34375 359.609375 C 370.726562 377.421875 349.96875 392.648438 327.550781 404.984375 C 350.035156 417.34375 370.789062 432.609375 389.34375 450.371094 C 407.898438 432.609375 428.664062 417.355469 451.132812 404.984375 C 428.703125 392.648438 407.949219 377.421875 389.34375 359.609375 Z M 1050.636719 359.609375 C 1032.019531 377.421875 1011.261719 392.648438 988.84375 404.984375 C 1011.328125 417.34375 1032.082031 432.609375 1050.636719 450.371094 C 1069.191406 432.609375 1089.957031 417.355469 1112.425781 404.984375 C 1089.996094 392.648438 1069.242188 377.421875 1050.636719 359.609375 Z M 462.355469 121.148438 C 507.996094 148.109375 544.746094 201.980469 581.484375 255.863281 C 622.058594 315.363281 662.644531 374.863281 713.34375 394.65625 C 713.917969 387.773438 714.1875 380.824219 714.1875 373.914062 C 714.1875 345.699219 709.578125 317.792969 700.339844 291.074219 C 688.25 256.09375 668.1875 223.183594 640.164062 195.171875 C 612.152344 167.164062 579.242188 147.097656 544.246094 134.996094 C 517.785156 125.84375 490.082031 121.226562 462.355469 121.136719 Z M 729.425781 367.171875 C 757.382812 324.191406 808.953125 289.027344 860.519531 253.851562 C 920.019531 213.277344 979.515625 172.691406 999.324219 121.992188 C 964.445312 119.128906 929.101562 123.464844 895.746094 135.007812 C 860.761719 147.113281 827.851562 167.175781 799.839844 195.183594 C 779.355469 215.671875 763.128906 238.753906 751.179688 263.335938 C 738.894531 288.59375 731.078125 315.503906 727.710938 342.847656 C 728.644531 350.945312 729.222656 359.058594 729.425781 367.160156 Z M 1003.855469 147.355469 C 976.894531 192.996094 923.011719 229.746094 869.140625 266.484375 C 809.640625 307.058594 750.140625 347.644531 730.347656 398.34375 C 737.230469 398.917969 744.179688 399.1875 751.078125 399.1875 C 779.289062 399.1875 807.199219 394.566406 833.914062 385.328125 C 868.898438 373.238281 901.808594 353.171875 929.820312 325.152344 C 957.839844 297.140625 977.90625 264.230469 989.996094 229.234375 C 999.144531 202.773438 1003.765625 175.070312 1003.855469 147.34375 Z M 757.832031 414.414062 C 800.800781 442.382812 835.976562 493.9375 871.136719 545.519531 C 911.714844 605.019531 952.300781 664.519531 1002.996094 684.3125 C 1005.851562 649.429688 1001.527344 614.101562 989.984375 580.746094 C 977.890625 545.761719 957.828125 512.851562 929.804688 484.828125 C 909.320312 464.34375 886.238281 448.117188 861.65625 436.167969 C 836.398438 423.882812 809.488281 416.0625 782.132812 412.699219 C 774.03125 413.632812 765.917969 414.207031 757.820312 414.414062 Z M 977.648438 688.84375 C 932.007812 661.882812 895.257812 608 858.523438 554.128906 C 817.945312 494.628906 777.359375 435.128906 726.664062 415.320312 C 726.085938 422.207031 725.816406 429.152344 725.816406 436.0625 C 725.816406 464.277344 730.425781 492.171875 739.664062 518.890625 C 751.753906 553.875 771.816406 586.785156 799.839844 614.792969 C 827.851562 642.816406 860.761719 662.878906 895.746094 674.972656 C 922.207031 684.121094 949.910156 688.738281 977.648438 688.828125 Z M 710.578125 442.820312 C 682.605469 485.789062 631.054688 520.964844 579.488281 556.136719 C 519.988281 596.714844 460.488281 637.300781 440.691406 687.996094 C 475.574219 690.851562 510.902344 686.527344 544.261719 674.984375 C 579.242188 662.894531 612.152344 642.828125 640.175781 614.804688 C 660.664062 594.320312 676.886719 571.238281 688.839844 546.65625 C 701.121094 521.398438 708.941406 494.5 712.304688 467.144531 C 711.371094 459.042969 710.796875 450.933594 710.589844 442.832031 Z M 436.148438 662.636719 C 463.109375 616.996094 516.992188 580.246094 570.863281 543.507812 C 630.363281 502.933594 689.863281 462.347656 709.667969 411.648438 C 702.785156 411.0625 695.835938 410.804688 688.929688 410.804688 C 660.738281 410.804688 632.78125 415.425781 606.089844 424.664062 C 571.105469 436.753906 538.195312 456.816406 510.183594 484.839844 C 482.175781 512.851562 462.113281 545.761719 450.007812 580.757812 C 440.859375 607.21875 436.238281 634.921875 436.148438 662.664062 Z M 1017.265625 114.558594 C 1022.039062 154.621094 1017.75 195.621094 1004.417969 234.210938 C 991.558594 271.421875 970.292969 306.355469 940.65625 335.988281 C 911.023438 365.625 876.089844 386.890625 838.878906 399.75 C 833.289062 401.683594 827.644531 403.421875 821.953125 404.984375 C 837.792969 409.308594 853.3125 415.117188 868.308594 422.410156 C 894.476562 435.140625 918.992188 452.339844 940.65625 474.003906 C 970.292969 503.636719 991.558594 538.570312 1004.417969 575.78125 C 1017.75 614.359375 1022.039062 655.355469 1017.265625 695.433594 C 1016.90625 698.925781 1014.179688 701.828125 1010.546875 702.253906 C 970.433594 707.050781 929.398438 702.765625 890.78125 689.417969 C 853.558594 676.546875 818.648438 655.292969 789.003906 625.644531 C 759.367188 596.007812 738.101562 561.089844 725.242188 523.867188 C 723.308594 518.277344 721.570312 512.632812 720.007812 506.953125 C 715.683594 522.792969 709.875 538.3125 702.582031 553.296875 C 689.847656 579.464844 672.652344 603.980469 650.988281 625.644531 C 621.355469 655.277344 586.421875 676.546875 549.210938 689.40625 C 510.632812 702.738281 469.636719 707.023438 429.570312 702.253906 C 426.078125 701.90625 423.175781 699.167969 422.738281 695.535156 C 417.941406 655.417969 422.226562 614.382812 435.574219 575.765625 C 448.433594 538.542969 469.699219 503.625 499.335938 473.988281 C 528.96875 444.355469 563.902344 423.089844 601.109375 410.230469 C 606.703125 408.296875 612.34375 406.558594 618.027344 404.996094 C 602.1875 400.671875 586.664062 394.863281 571.667969 387.566406 C 545.5 374.835938 520.996094 357.640625 499.320312 335.976562 C 469.6875 306.339844 448.421875 271.421875 435.5625 234.199219 C 422.203125 195.582031 417.929688 154.546875 422.726562 114.429688 C 423.160156 110.796875 426.066406 108.070312 429.558594 107.714844 C 469.621094 102.941406 510.621094 107.226562 549.199219 120.5625 C 586.410156 133.421875 621.339844 154.6875 650.976562 184.320312 C 680.609375 213.957031 701.875 248.875 714.738281 286.097656 C 716.667969 291.691406 718.421875 297.332031 719.96875 303.027344 C 724.292969 287.1875 730.105469 271.664062 737.386719 256.667969 C 750.117188 230.5 767.3125 205.984375 788.976562 184.320312 C 818.613281 154.6875 853.53125 133.421875 890.753906 120.546875 C 929.371094 107.1875 970.40625 102.914062 1010.519531 107.714844 C 1014.140625 108.136719 1016.878906 111.039062 1017.238281 114.535156 Z M 1017.265625 114.558594 " fill-opacity="1" fill-rule="nonzero"/></g></svg>