<svg xmlns="http://www.w3.org/2000/svg" xmlns:xlink="http://www.w3.org/1999/xlink" width="1920" zoomAndPan="magnify" viewBox="0 0 1440 809.999993" height="1080" preserveAspectRatio="xMidYMid meet" version="1.0"><defs><clipPath id="86a8eaac05"><path d="M 206 0 L 1200.765625 0 L 1200.765625 807 L 206 807 Z M 206 0 " clip-rule="nonzero"/></clipPath><clipPath id="2998eaf65a"><path d="M 889 129 L 994.765625 129 L 994.765625 413 L 889 413 Z M 889 129 " clip-rule="nonzero"/></clipPath><clipPath id="52f4fc0d4d"><rect x="0" width="995" y="0" height="807"/></clipPath></defs><g clip-path="url(#86a8eaac05)"><g transform="matrix(1, 0, 0, 1, 206, 0.000000000000039746)"><g clip-path="url(#52f4fc0d4d)"><path fill="#9eb2df" d="M 988.285156 1.203125 C 963.886719 57.359375 895.628906 153.753906 815.050781 236.722656 C 734.472656 319.695312 641.386719 387.6875 537.042969 439.90625 C 432.699219 492.121094 318.398438 529.042969 228.148438 548.730469 C 137.902344 568.421875 137.902344 568.421875 197.050781 552.136719 C 197.050781 552.136719 312.316406 510.078125 417.757812 461.296875 C 523.203125 412.515625 618.519531 353.058594 705.839844 283.953125 C 793.160156 214.84375 872.527344 134.230469 913.609375 92.59375 C 986.964844 0.363281 956.007812 51.800781 988.285156 1.203125 Z M 988.285156 1.203125 " fill-opacity="1" fill-rule="nonzero"/><path fill="#9eb2df" d="M 404.75 503.082031 C 402.976562 516.726562 393.128906 540.90625 378.886719 562.101562 C 364.648438 583.300781 346.285156 601.417969 323.988281 616.3125 C 301.691406 631.207031 275.613281 642.839844 247.917969 649.886719 C 220.21875 656.933594 193.226562 659.292969 165.226562 658.445312 C 137.226562 657.597656 108.257812 653.769531 78.328125 646.988281 C 48.398438 640.207031 17.507812 630.484375 8.523438 614.199219 C -0.464844 597.914062 8.164062 597.570312 17.207031 596.027344 C 26.253906 594.484375 35.734375 591.703125 45.65625 587.652344 C 55.578125 583.601562 65.929688 578.253906 73.011719 573.976562 C 80.09375 569.703125 83.84375 567.121094 87.695312 564.292969 C 91.550781 561.460938 95.503906 558.382812 99.558594 555.058594 C 103.609375 551.730469 107.761719 548.15625 119.09375 537.21875 C 130.429688 526.28125 147.195312 509.910156 160.90625 496.683594 C 174.617188 483.453125 185.285156 473.355469 192.964844 466.34375 C 200.644531 459.332031 205.578125 455.21875 210.976562 451.085938 C 216.378906 446.949219 224.492188 440.800781 231.949219 435.605469 C 239.410156 430.410156 246.246094 426.164062 252.527344 422.851562 C 258.808594 419.539062 264.636719 417.171875 270.835938 415.554688 C 277.039062 413.941406 284.085938 412.996094 291.109375 413.042969 C 298.128906 413.085938 305.070312 414.136719 311.859375 416.164062 C 318.648438 418.195312 325.25 421.175781 331.820312 425.222656 C 338.386719 429.269531 344.347656 433.988281 349.390625 439.191406 C 354.429688 444.390625 358.5 450.085938 361.496094 456.253906 C 364.492188 462.421875 366.351562 468.988281 366.960938 478.191406 C 367.570312 487.398438 366.300781 498.621094 362.800781 509.207031 C 359.300781 519.792969 353.65625 529.601562 345.996094 538.527344 C 338.335938 547.453125 328.769531 555.507812 316.816406 562.167969 C 304.863281 568.832031 293.300781 572.847656 282.546875 574.949219 C 271.792969 577.050781 261.84375 577.191406 252.785156 575.238281 C 243.726562 573.289062 235.738281 569.207031 230.148438 562.902344 C 224.554688 556.597656 222.742188 550.789062 222.414062 544.859375 C 222.082031 538.929688 223.261719 533.039062 225.804688 527.3125 C 228.351562 521.582031 232.183594 516.015625 238.546875 511.574219 C 244.910156 507.132812 251.214844 505.707031 257.019531 505.519531 C 262.824219 505.335938 268.054688 506.460938 272.574219 508.8125 C 277.097656 511.160156 280.84375 514.664062 283.578125 517.539062 C 286.3125 520.410156 286.3125 520.410156 284.433594 518.5625 C 284.433594 518.5625 280.503906 515.0625 276.121094 513.128906 C 271.742188 511.191406 267.246094 510.414062 262.539062 510.695312 C 257.828125 510.972656 252.796875 512.304688 247.757812 514.460938 C 242.714844 516.617188 239.832031 521.308594 237.503906 526.214844 C 235.179688 531.125 234.011719 535.601562 233.929688 539.699219 C 233.847656 543.792969 234.710938 547.636719 236.210938 550.886719 C 237.710938 554.136719 242.769531 557.28125 248.96875 559.285156 C 255.167969 561.285156 262.269531 561.746094 270.441406 560.546875 C 278.617188 559.347656 287.914062 556.464844 298.035156 551.894531 C 308.152344 547.324219 316.863281 540.585938 324.019531 533.300781 C 331.179688 526.019531 336.429688 518.539062 339.890625 510.820312 C 343.347656 503.097656 345.113281 495.035156 345.226562 486.359375 C 345.339844 477.683594 344.695312 473.746094 343.308594 469.777344 C 341.925781 465.804688 339.785156 461.976562 336.789062 458.226562 C 333.796875 454.472656 329.875 450.789062 325.003906 447.234375 C 320.132812 443.675781 315.28125 440.980469 310.421875 439.035156 C 305.558594 437.085938 300.722656 435.878906 295.851562 435.378906 C 290.980469 434.878906 286.023438 435.082031 280.855469 436.023438 C 275.6875 436.960938 272.113281 438.046875 267.582031 440.097656 C 263.046875 442.148438 257.550781 445.234375 251.195312 449.359375 C 244.839844 453.484375 237.664062 458.636719 229.59375 464.898438 C 221.523438 471.164062 219.179688 472.726562 214.039062 477.214844 C 208.898438 481.699219 200.453125 489.53125 188.886719 500.5625 C 177.320312 511.59375 162.660156 525.800781 144.875 543.21875 C 127.089844 560.636719 122.359375 564.847656 117.972656 568.566406 C 113.589844 572.28125 109.277344 575.761719 105.03125 579.003906 C 100.785156 582.246094 96.605469 585.253906 92.367188 588.101562 C 88.125 590.945312 76.636719 597.667969 65.265625 603.140625 C 53.890625 608.609375 42.726562 612.746094 31.757812 615.519531 C 20.789062 618.292969 10.023438 619.667969 2.554688 609.144531 C -4.914062 598.625 24.695312 609.507812 54.125 617.925781 C 83.550781 626.34375 111.855469 631.890625 139.039062 634.582031 C 166.222656 637.277344 192.296875 637.136719 217.160156 634.53125 C 242.019531 631.925781 268.867188 624.191406 292.492188 613.527344 C 316.117188 602.863281 336.386719 589.253906 353.503906 572.625 C 370.617188 555.996094 384.746094 536.230469 392.203125 525.808594 C 404.007812 502.824219 400.398438 515.640625 404.75 503.082031 Z M 404.75 503.082031 " fill-opacity="1" fill-rule="nonzero"/><path fill="#9eb2df" d="M 460.082031 412.699219 C 446.816406 414.632812 421.0625 411.050781 396.3125 401.488281 C 371.566406 391.925781 348.039062 376.644531 325.929688 355.816406 C 303.820312 334.992188 283.144531 308.777344 267.527344 283.527344 C 251.910156 258.273438 242.117188 239.964844 234.46875 225.035156 C 226.816406 210.105469 221.289062 198.503906 217.8125 189.960938 C 214.332031 181.421875 212.800781 174.71875 219.761719 167.625 C 226.722656 160.53125 228.109375 160.730469 229.476562 160.992188 C 230.84375 161.253906 232.1875 161.578125 233.507812 161.96875 C 234.828125 162.359375 236.121094 162.816406 244.640625 166.753906 C 253.160156 170.691406 267.296875 177.214844 279.640625 182.761719 C 291.988281 188.3125 302.539062 192.878906 311.265625 196.460938 C 319.992188 200.042969 326.851562 202.625 361.410156 213.246094 C 395.972656 223.871094 459.804688 243.292969 467.078125 246.722656 C 474.351562 250.152344 480.632812 254.078125 486.246094 258.640625 C 491.855469 263.199219 496.761719 268.390625 500.910156 274.171875 C 505.058594 279.953125 508.515625 286.484375 512.089844 295.925781 C 515.664062 305.367188 518.226562 314.308594 519.785156 322.871094 C 521.347656 331.429688 521.867188 339.617188 521.28125 347.425781 C 520.695312 355.230469 518.910156 362.753906 515.945312 368.8125 C 512.984375 374.875 509.101562 379.972656 504.246094 384.003906 C 499.386719 388.03125 493.703125 390.8125 487.46875 392.339844 C 481.238281 393.867188 474.5625 394.230469 466.71875 393.554688 C 458.871094 392.878906 451.296875 391.292969 443.980469 388.878906 C 436.664062 386.460938 429.636719 383.195312 422.945312 379.0625 C 416.25 374.933594 409.679688 369.835938 404.390625 364.125 C 399.097656 358.414062 394.992188 352.589844 392.082031 346.527344 C 389.171875 340.464844 387.496094 334.222656 387.105469 327.902344 C 386.714844 321.578125 387.734375 314.800781 390.769531 308.535156 C 393.808594 302.269531 397.617188 297.378906 402.289062 293.800781 C 406.957031 290.222656 412.375 288.164062 418.238281 287.640625 C 424.101562 287.121094 430.601562 288.105469 435.167969 290.511719 C 439.734375 292.914062 443.289062 295.84375 445.984375 299.363281 C 448.683594 302.886719 450.472656 306.910156 451.34375 311.328125 C 452.21875 315.742188 452.179688 320.4375 451.492188 325.265625 C 450.804688 330.097656 449.25 333.832031 446.847656 336.316406 C 444.445312 338.796875 441.339844 339.851562 438.832031 339.707031 C 436.320312 339.566406 436.320312 339.566406 437.898438 339.332031 C 437.898438 339.332031 440.769531 337.878906 442.617188 336.261719 C 444.464844 334.644531 445.519531 332.210938 445.875 328.734375 C 446.230469 325.257812 445.859375 320.613281 445.078125 316.859375 C 444.296875 313.105469 443.027344 310.019531 441.21875 307.515625 C 439.414062 305.011719 437.097656 302.960938 434.152344 301.308594 C 431.207031 299.65625 428.097656 298.5625 423.824219 298.652344 C 419.546875 298.742188 415.988281 299.707031 413.082031 301.5 C 410.171875 303.292969 407.6875 306.003906 405.535156 309.867188 C 403.378906 313.730469 401.792969 318.414062 401.8125 322.492188 C 401.835938 326.570312 402.640625 330.757812 404.398438 334.933594 C 406.15625 339.109375 408.890625 343.339844 412.652344 347.671875 C 416.414062 352 421.089844 356.21875 426.640625 359.773438 C 432.191406 363.328125 437.949219 366.199219 443.804688 368.378906 C 449.660156 370.558594 455.660156 372.019531 461.839844 372.765625 C 468.019531 373.511719 474.335938 373.578125 478.363281 372.992188 C 482.394531 372.40625 485.585938 371.277344 488.121094 369.644531 C 490.65625 368.007812 492.765625 365.828125 494.5625 362.84375 C 496.359375 359.859375 497.730469 356.1875 498.640625 351.050781 C 499.546875 345.910156 499.695312 340.058594 499.007812 333.519531 C 498.316406 326.980469 496.734375 319.757812 494.222656 311.875 C 491.707031 303.996094 488.320312 295.644531 485.734375 291.273438 C 483.148438 286.902344 479.980469 282.882812 476.234375 279.261719 C 472.492188 275.636719 468.136719 272.394531 463.117188 269.523438 C 458.097656 266.65625 453.117188 264.433594 389.445312 245.058594 C 325.769531 225.683594 319.324219 223.480469 311.390625 220.394531 C 303.457031 217.304688 293.839844 213.277344 282.496094 208.296875 C 271.152344 203.3125 258.066406 197.375 243.253906 190.488281 C 228.445312 183.605469 228.328125 183.574219 227.777344 183.390625 C 227.230469 183.207031 226.632812 183.042969 225.980469 182.898438 C 225.328125 182.75 224.625 182.628906 228.925781 180.238281 C 233.230469 177.847656 234.859375 172.449219 236.265625 176.539062 C 237.667969 180.625 241.441406 189.253906 247.464844 201.527344 C 253.488281 213.804688 261.722656 229.605469 271.929688 248.78125 C 282.136719 267.953125 299.972656 297.152344 318.890625 321.160156 C 337.808594 345.171875 357.90625 364.175781 379.316406 378.3125 C 400.726562 392.449219 423.605469 401.902344 435.425781 406.519531 C 460.128906 411.917969 447.199219 411.917969 460.082031 412.699219 Z M 460.082031 412.699219 " fill-opacity="1" fill-rule="nonzero"/><path fill="#9eb2df" d="M 526.207031 486.226562 C 523.546875 492.152344 517.65625 503.894531 512.90625 517.144531 C 508.15625 530.394531 504.585938 545.316406 502.253906 562.027344 C 499.921875 578.738281 498.820312 597.273438 498.894531 610.980469 C 498.96875 624.691406 499.660156 632.875 500.699219 641.515625 C 501.742188 650.15625 503.167969 659.257812 505.019531 668.8125 C 506.871094 678.363281 509.078125 688.378906 512.894531 704.152344 C 516.710938 719.921875 521.390625 738.5625 525.367188 753.453125 C 529.34375 768.347656 532.757812 779.386719 535.46875 786.265625 C 538.183594 793.148438 539.285156 794.976562 530.253906 792.410156 C 521.21875 789.84375 520.785156 775.296875 521.207031 761.339844 C 521.628906 747.382812 522.914062 734.015625 525.070312 721.238281 C 527.226562 708.464844 530.261719 696.289062 533.015625 687.480469 C 535.769531 678.671875 537.875 672.519531 540.1875 666.292969 C 542.5 660.070312 545.019531 653.773438 547.746094 647.410156 C 550.472656 641.046875 553.40625 634.609375 555.949219 629.207031 C 558.492188 623.808594 561.167969 618.386719 564.675781 611.648438 C 568.179688 604.910156 572.523438 596.824219 577.71875 587.371094 C 582.910156 577.921875 588.953125 567.097656 592.824219 560.132812 C 596.695312 553.167969 597.96875 550.664062 599.203125 548.152344 C 600.433594 545.640625 601.632812 543.121094 602.789062 540.597656 C 603.949219 538.074219 605.070312 535.542969 607.269531 530.296875 C 609.46875 525.050781 612.425781 517.503906 614.851562 510.589844 C 617.277344 503.675781 619.175781 497.410156 620.554688 491.816406 C 621.933594 486.222656 622.796875 481.328125 623.171875 477.21875 C 623.546875 473.113281 623.195312 469.65625 621.976562 465.976562 C 620.757812 462.296875 618.535156 458.300781 615.214844 453.960938 C 611.890625 449.617188 607.40625 444.96875 603.96875 442.242188 C 600.53125 439.515625 598.117188 438.609375 596.023438 438.378906 C 593.933594 438.148438 591.832031 438.503906 589.375 439.632812 C 586.914062 440.761719 584.03125 442.890625 581.304688 446.164062 C 578.578125 449.4375 575.804688 454.488281 573.574219 460.191406 C 571.34375 465.890625 569.652344 472.273438 568.5625 479.371094 C 567.46875 486.464844 567.003906 494.273438 567.234375 502.050781 C 567.464844 509.828125 568.34375 516.417969 569.710938 521.601562 C 571.082031 526.789062 572.820312 530.5625 574.761719 533.039062 C 576.703125 535.515625 578.847656 536.953125 579.910156 537.425781 C 580.972656 537.894531 581.085938 537.933594 581.421875 537.800781 C 581.757812 537.664062 582.429688 537.09375 583.335938 535.914062 C 584.242188 534.734375 585.230469 532.894531 586.285156 530.117188 C 587.335938 527.339844 588.320312 523.992188 588.949219 521.085938 C 589.578125 518.183594 589.898438 515.746094 589.921875 513.808594 C 589.945312 511.867188 589.730469 510.449219 589.109375 508.292969 C 588.488281 506.136719 587.1875 503.269531 584.601562 499.5625 C 582.015625 495.859375 578.226562 491.382812 573.25 486.191406 C 568.277344 480.996094 562.214844 474.996094 556.816406 470.507812 C 551.414062 466.019531 551.414062 466.019531 555.175781 468.800781 C 555.175781 468.800781 563.179688 473.722656 570.085938 478.144531 C 576.988281 482.566406 582.535156 486.84375 586.863281 490.855469 C 591.1875 494.871094 594.292969 498.703125 596.125 502.21875 C 597.957031 505.730469 598.808594 507.65625 599.382812 510.367188 C 599.957031 513.074219 600.125 516.070312 599.933594 519.378906 C 599.746094 522.6875 599.199219 526.332031 598.328125 530.417969 C 597.453125 534.503906 596.300781 537.734375 594.972656 540.417969 C 593.648438 543.101562 591.988281 545.414062 589.84375 547.292969 C 587.703125 549.167969 585.023438 550.40625 581.722656 550.664062 C 578.417969 550.921875 573.226562 549.394531 568.621094 546.117188 C 564.019531 542.839844 560.390625 538.171875 557.65625 532.363281 C 554.917969 526.554688 552.953125 519.648438 551.605469 511.5625 C 550.253906 503.476562 549.804688 494.210938 550.125 485.550781 C 550.441406 476.890625 551.539062 468.726562 553.472656 461.074219 C 555.40625 453.421875 558.175781 446.300781 561.964844 439.542969 C 565.757812 432.78125 570.6875 427.726562 575.59375 424.277344 C 580.5 420.828125 585.949219 418.640625 591.75 417.941406 C 597.550781 417.242188 603.367188 418.152344 609.242188 420.683594 C 615.113281 423.214844 622.097656 429.074219 627.566406 434.757812 C 633.039062 440.445312 637.292969 446.472656 640.320312 452.8125 C 643.351562 459.152344 645.027344 465.785156 645.222656 472.328125 C 645.421875 478.871094 644.726562 484.621094 643.492188 490.753906 C 642.257812 496.882812 640.5 503.492188 638.222656 510.605469 C 635.949219 517.71875 633.160156 525.355469 629.871094 533.503906 C 626.585938 541.652344 625.382812 544.433594 624.167969 547.140625 C 622.953125 549.847656 621.699219 552.546875 620.40625 555.238281 C 619.113281 557.929688 617.78125 560.613281 616.347656 563.40625 C 614.910156 566.199219 608.292969 577.949219 602.578125 588.226562 C 596.867188 598.507812 592.019531 607.386719 588.042969 614.855469 C 584.066406 622.324219 580.96875 628.367188 578.730469 633.015625 C 576.492188 637.664062 573.511719 643.953125 570.785156 650.058594 C 568.058594 656.164062 565.535156 662.183594 563.21875 668.109375 C 560.902344 674.039062 558.789062 679.878906 556.878906 685.636719 C 554.96875 691.390625 551.625 702.234375 549.132812 713.480469 C 546.640625 724.730469 544.929688 736.644531 544.007812 749.226562 C 543.085938 761.8125 542.957031 775.066406 543.628906 790.015625 C 544.296875 804.96875 522.667969 809.65625 518.910156 802.792969 C 515.15625 795.925781 511.710938 786.367188 507.921875 773.375 C 504.136719 760.382812 500.007812 743.796875 495.667969 723.535156 C 491.328125 703.273438 489.1875 692.566406 487.433594 682.234375 C 485.675781 671.898438 484.378906 662 483.441406 652.542969 C 482.507812 643.089844 481.980469 634.074219 481.898438 625.363281 C 481.8125 616.652344 483.339844 596.214844 486.257812 577.667969 C 489.179688 559.121094 493.464844 542.511719 499.199219 527.914062 C 504.929688 513.320312 512.121094 500.839844 516.875 495.8125 C 525.589844 485.742188 522.242188 491.269531 526.207031 486.226562 Z M 526.207031 486.226562 " fill-opacity="1" fill-rule="nonzero"/><path fill="#9eb2df" d="M 663.867188 283.945312 C 658.558594 284.90625 648.292969 284.75 638.390625 283.714844 C 628.488281 282.679688 618.960938 280.84375 609.796875 278.332031 C 600.636719 275.824219 591.835938 272.679688 583.40625 268.910156 C 574.972656 265.144531 566.886719 260.820312 559.828125 256.453125 C 552.773438 252.082031 546.679688 247.992188 540.535156 243.375 C 534.390625 238.761719 527.910156 233.230469 520.664062 226.34375 C 513.421875 219.457031 505.097656 210.789062 495.253906 199.8125 C 485.414062 188.839844 473.6875 175.136719 466.574219 166.363281 C 459.457031 157.59375 458.644531 156.492188 456.644531 153.898438 C 454.648438 151.304688 452.039062 147.984375 449.300781 144.503906 C 446.5625 141.019531 444.046875 137.769531 442.117188 135.070312 C 440.1875 132.375 438.21875 128.300781 448.589844 123.335938 C 458.964844 118.371094 462.441406 120.671875 465.675781 122.777344 C 468.910156 124.882812 471.902344 126.785156 474.65625 128.476562 C 477.40625 130.167969 479.910156 131.644531 482.15625 132.890625 C 484.402344 134.140625 486.378906 135.152344 488.273438 136.023438 C 490.164062 136.890625 492.199219 137.738281 494.296875 138.527344 C 496.390625 139.320312 498.542969 140.0625 500.753906 140.757812 C 502.964844 141.457031 505.234375 142.113281 507.558594 142.734375 C 509.882812 143.355469 512.265625 143.949219 515.914062 144.738281 C 519.5625 145.527344 525.828125 146.574219 534.046875 147.632812 C 542.265625 148.695312 552.390625 149.75 564.382812 150.796875 C 576.375 151.839844 590.230469 152.867188 605.9375 153.871094 C 621.644531 154.875 639.203125 155.855469 649.464844 156.398438 C 659.726562 156.941406 661.449219 157.132812 663.144531 157.421875 C 664.839844 157.714844 666.503906 158.097656 668.136719 158.570312 C 669.769531 159.042969 671.367188 159.59375 672.917969 160.25 C 674.46875 160.910156 675.988281 161.621094 678.796875 163.171875 C 681.605469 164.722656 685.667969 167.347656 689.644531 170.394531 C 693.621094 173.441406 697.453125 176.953125 701.1875 180.871094 C 704.917969 184.785156 708.472656 189.167969 711.886719 193.972656 C 715.296875 198.78125 718.519531 204.039062 721.03125 208.796875 C 723.542969 213.554688 725.164062 217.523438 726.269531 221.511719 C 727.375 225.496094 727.914062 229.484375 727.875 233.433594 C 727.835938 237.382812 727.125 241.242188 725.71875 244.894531 C 724.308594 248.546875 722.203125 251.886719 719.191406 254.972656 C 716.179688 258.058594 712.269531 260.644531 707.863281 262.445312 C 703.457031 264.246094 698.640625 265.320312 693.460938 265.738281 C 688.277344 266.15625 682.75 265.910156 676.890625 265.074219 C 671.03125 264.234375 664.847656 262.816406 659.109375 260.992188 C 653.371094 259.164062 648.628906 257.042969 644.445312 254.5 C 640.257812 251.957031 636.667969 248.992188 633.703125 245.65625 C 630.738281 242.320312 628.453125 238.652344 626.867188 234.734375 C 625.28125 230.8125 624.445312 226.703125 624.351562 222.613281 C 624.257812 218.523438 624.890625 214.757812 626.289062 211.429688 C 627.683594 208.105469 629.832031 205.339844 632.640625 203.347656 C 635.449219 201.351562 638.753906 200.257812 642.34375 200.082031 C 645.9375 199.90625 649.726562 200.550781 653.71875 202.085938 C 657.714844 203.621094 661.371094 205.683594 664.363281 208.058594 C 667.359375 210.4375 669.65625 213.101562 671.28125 215.941406 C 672.910156 218.777344 673.882812 221.714844 674.242188 224.675781 C 674.601562 227.632812 674.449219 230.554688 674.335938 232.746094 C 674.21875 234.933594 674.21875 234.933594 674.296875 233.476562 C 674.296875 233.476562 674.449219 230.554688 673.757812 227.789062 C 673.0625 225.023438 671.886719 222.488281 670.269531 220.214844 C 668.652344 217.941406 666.59375 215.933594 664.070312 214.199219 C 661.550781 212.464844 658.546875 210.996094 654.996094 209.871094 C 651.445312 208.75 648.273438 208.203125 645.695312 208.242188 C 643.117188 208.285156 641.136719 208.835938 639.679688 209.707031 C 638.222656 210.578125 637.171875 211.75 636.433594 213.300781 C 635.691406 214.851562 635.285156 216.855469 635.28125 219.347656 C 635.28125 221.839844 635.785156 224.660156 636.742188 227.273438 C 637.695312 229.886719 639.125 232.316406 641.023438 234.558594 C 642.921875 236.804688 645.3125 238.855469 648.214844 240.691406 C 651.117188 242.527344 654.546875 244.101562 658.527344 245.367188 C 662.503906 246.636719 668.253906 247.871094 673.527344 248.601562 C 678.796875 249.332031 683.539062 249.539062 687.6875 249.296875 C 691.839844 249.058594 695.355469 248.425781 698.199219 247.464844 C 701.039062 246.507812 703.195312 245.3125 704.773438 243.933594 C 706.351562 242.554688 707.207031 241.367188 707.835938 239.996094 C 708.46875 238.625 708.839844 237.085938 708.957031 235.320312 C 709.078125 233.554688 708.898438 231.535156 708.359375 229.273438 C 707.816406 227.011719 706.90625 224.53125 705.578125 221.890625 C 704.253906 219.25 701.339844 214.523438 698.347656 210.261719 C 695.359375 206 692.324219 202.179688 689.230469 198.820312 C 686.136719 195.457031 683.027344 192.519531 679.898438 190.011719 C 676.769531 187.503906 673.667969 185.386719 670.5 183.621094 C 667.328125 181.859375 666.566406 181.507812 665.636719 181.121094 C 664.707031 180.730469 663.777344 180.429688 662.886719 180.136719 C 661.992188 179.84375 661.117188 179.609375 660.257812 179.425781 C 659.402344 179.246094 658.558594 179.117188 657.710938 179.039062 C 656.867188 178.964844 638.019531 178 620.960938 177.003906 C 603.902344 176.007812 588.671875 174.984375 575.253906 173.9375 C 561.835938 172.890625 550.226562 171.820312 540.398438 170.722656 C 530.570312 169.625 522.492188 168.496094 516.15625 167.324219 C 509.816406 166.15625 507.019531 165.492188 504.414062 164.828125 C 501.808594 164.164062 499.214844 163.453125 496.640625 162.6875 C 494.066406 161.917969 491.511719 161.089844 488.972656 160.1875 C 486.4375 159.285156 483.921875 158.304688 481.421875 157.234375 C 478.921875 156.160156 476.535156 155.019531 474.007812 153.6875 C 471.476562 152.351562 468.804688 150.835938 465.960938 149.132812 C 463.117188 147.433594 460.09375 145.550781 456.878906 143.488281 C 453.664062 141.429688 450.246094 139.191406 446.847656 136.925781 C 443.449219 134.660156 459.519531 122.148438 459.734375 122.066406 C 459.949219 121.984375 461.8125 124.550781 464.253906 127.859375 C 466.695312 131.171875 469.347656 134.726562 471.78125 138.007812 C 474.210938 141.289062 476.117188 143.945312 476.699219 144.96875 C 477.28125 145.988281 489.777344 162.074219 500.132812 175.070312 C 510.488281 188.070312 519.046875 198.332031 526.234375 206.390625 C 533.425781 214.445312 539.550781 220.769531 545.113281 225.878906 C 550.679688 230.992188 556.054688 235.378906 561.671875 239.628906 C 567.285156 243.878906 574.296875 248.785156 581.609375 253.234375 C 588.925781 257.683594 596.640625 261.664062 604.761719 265.210938 C 612.882812 268.757812 621.4375 271.859375 630.460938 274.519531 C 639.484375 277.179688 648.996094 279.441406 653.867188 281.128906 C 663.917969 283.164062 658.683594 283.597656 663.867188 283.945312 Z M 663.867188 283.945312 " fill-opacity="1" fill-rule="nonzero"/><path fill="#9eb2df" d="M 726.101562 357.390625 C 724.621094 360.203125 721.53125 365.789062 719.121094 372.179688 C 716.710938 378.574219 714.957031 385.863281 713.851562 394.125 C 712.746094 402.382812 712.328125 411.648438 712.476562 420.359375 C 712.625 429.070312 712.996094 436.792969 713.554688 444.828125 C 714.109375 452.859375 714.804688 461.203125 715.675781 469.859375 C 716.546875 478.515625 717.539062 487.488281 718.492188 494.882812 C 719.445312 502.273438 720.304688 508.546875 721.308594 515.777344 C 722.308594 523.007812 723.425781 531.195312 724.71875 540.335938 C 726.011719 549.476562 727.40625 559.570312 728.335938 566.011719 C 729.261719 572.453125 729.632812 574.316406 729.949219 575.605469 C 730.261719 576.890625 730.46875 577.480469 730.21875 577.070312 C 729.972656 576.65625 728.273438 574.980469 724.644531 574.175781 C 721.015625 573.367188 719.074219 573.964844 717.90625 574.71875 C 716.742188 575.46875 716.207031 576.023438 716.023438 576.265625 C 715.835938 576.503906 715.851562 576.457031 716.414062 574.222656 C 716.972656 571.992188 718.644531 566.199219 720.554688 560.417969 C 722.464844 554.636719 724.570312 548.855469 726.894531 543.089844 C 729.222656 537.328125 731.789062 531.585938 738.171875 519.324219 C 744.554688 507.066406 753.363281 490.550781 760.617188 476.765625 C 767.875 462.980469 773.566406 451.933594 777.6875 443.664062 C 781.808594 435.394531 784.3125 430 786.460938 424.875 C 788.613281 419.753906 791.132812 413.46875 793.4375 407.484375 C 795.738281 401.5 797.71875 395.777344 799.394531 390.324219 C 801.074219 384.867188 802.417969 379.679688 803.578125 372.957031 C 804.742188 366.234375 805.132812 358.417969 804.386719 352.121094 C 803.644531 345.820312 801.902344 340.976562 799.277344 337.269531 C 796.65625 333.558594 792.964844 330.65625 788.996094 329.515625 C 785.023438 328.371094 779.976562 328.792969 775.503906 330.363281 C 771.027344 331.933594 766.875 334.757812 762.960938 339.113281 C 759.042969 343.46875 755.375 349.453125 753.339844 354.265625 C 751.304688 359.074219 750.746094 362.261719 750.679688 365.855469 C 750.613281 369.449219 751.0625 373.464844 752.074219 377.898438 C 753.085938 382.332031 754.660156 387.171875 756.304688 390.761719 C 757.949219 394.347656 759.46875 396.308594 760.714844 397.339844 C 761.957031 398.371094 762.890625 398.722656 763.960938 398.664062 C 765.03125 398.601562 766.59375 397.867188 767.6875 396.808594 C 768.777344 395.75 769.625 394.035156 770.289062 392.011719 C 770.953125 389.984375 771.398438 387.636719 771.613281 384.96875 C 771.832031 382.296875 771.84375 379.308594 771.6875 376.691406 C 771.53125 374.070312 771.195312 372.140625 770.582031 370.3125 C 769.972656 368.488281 769.085938 366.753906 767.898438 365.113281 C 766.710938 363.476562 765.125 362.0625 763.734375 361.164062 C 762.347656 360.269531 762.347656 360.269531 763.273438 360.867188 C 763.273438 360.867188 765.125 362.0625 766.859375 363.289062 C 768.597656 364.515625 770.160156 365.925781 771.476562 367.589844 C 772.796875 369.257812 773.863281 371.171875 774.65625 373.3125 C 775.449219 375.457031 776.296875 378.757812 776.785156 381.898438 C 777.269531 385.039062 777.40625 388.019531 777.210938 390.835938 C 777.011719 393.65625 776.460938 396.3125 775.332031 399.046875 C 774.199219 401.78125 771.359375 404.464844 768.355469 405.964844 C 765.351562 407.464844 761.957031 407.730469 758.714844 406.625 C 755.472656 405.515625 752.613281 403.351562 749.925781 400.1875 C 747.238281 397.027344 744.4375 391.402344 742.367188 386.191406 C 740.292969 380.976562 738.886719 375.910156 738.128906 370.988281 C 737.371094 366.066406 737.3125 361.289062 738.078125 356.484375 C 738.847656 351.683594 742.234375 343.019531 746.570312 335.773438 C 750.90625 328.527344 756.277344 322.691406 762.722656 318.488281 C 769.167969 314.28125 776.546875 311.925781 785.132812 311.546875 C 793.714844 311.167969 802.34375 314.972656 808.507812 320.246094 C 814.671875 325.515625 819.097656 332.445312 821.707031 340.589844 C 824.316406 348.738281 825.265625 357.921875 824.679688 368.082031 C 824.097656 378.242188 822.925781 384.359375 821.496094 390.261719 C 820.066406 396.164062 818.304688 402.277344 816.246094 408.625 C 814.1875 414.96875 811.792969 421.527344 809.03125 428.222656 C 806.269531 434.917969 804.578125 438.992188 801.320312 445.804688 C 798.0625 452.617188 793.316406 462.019531 787.035156 474.101562 C 780.757812 486.179688 772.945312 500.953125 763.625 518.367188 C 754.304688 535.777344 751.945312 540.820312 749.605469 546.171875 C 747.265625 551.523438 745.046875 556.84375 743.011719 562.15625 C 740.976562 567.472656 739.125 572.785156 737.394531 578.238281 C 735.660156 583.691406 734.648438 586.046875 733.960938 587.1875 C 733.277344 588.328125 732.363281 589.523438 730.992188 590.773438 C 729.621094 592.023438 727.554688 593.167969 723.851562 593.515625 C 720.144531 593.863281 716.003906 591.9375 713.921875 589.390625 C 711.839844 586.84375 710.925781 584.683594 710.332031 582.535156 C 709.734375 580.386719 709.289062 578.0625 708.9375 575.425781 C 708.589844 572.789062 707.507812 561.957031 706.554688 552.105469 C 705.605469 542.253906 704.761719 533.355469 704.070312 525.40625 C 703.375 517.457031 702.746094 510.460938 702.285156 504.390625 C 701.824219 498.320312 701.234375 488.929688 700.800781 479.847656 C 700.367188 470.769531 700.136719 462.003906 700.089844 453.558594 C 700.046875 445.113281 700.183594 436.988281 700.488281 429.144531 C 700.789062 421.300781 701.769531 410.890625 703.476562 401.511719 C 705.183594 392.132812 707.683594 383.859375 710.941406 376.734375 C 714.203125 369.613281 718.210938 363.695312 720.800781 361.429688 C 725.527344 356.859375 723.960938 359.699219 726.101562 357.390625 Z M 726.101562 357.390625 " fill-opacity="1" fill-rule="nonzero"/><path fill="#9eb2df" d="M 826.066406 151.136719 C 820.480469 153.699219 809.0625 156.121094 797.734375 156.863281 C 786.40625 157.609375 775.238281 156.8125 764.304688 154.472656 C 753.371094 152.132812 742.707031 148.300781 732.425781 143.476562 C 722.144531 138.65625 710.730469 131.988281 697.890625 122.953125 C 685.050781 113.921875 670.753906 102.507812 655.011719 88.671875 C 639.269531 74.835938 622.066406 58.585938 611.769531 47.859375 C 601.472656 37.132812 600.449219 34.816406 600.097656 31.402344 C 599.746094 27.988281 601.246094 23.691406 604.285156 20.976562 C 607.320312 18.257812 610.160156 17.320312 619.179688 19.816406 C 628.203125 22.308594 637.636719 26.207031 646.234375 29.234375 C 654.835938 32.265625 662.585938 34.4375 669.4375 35.773438 C 676.289062 37.105469 682.207031 37.636719 686.585938 37.675781 C 690.964844 37.714844 693.851562 37.699219 697.09375 37.574219 C 700.335938 37.449219 703.925781 37.214844 707.859375 36.863281 C 711.789062 36.515625 716.054688 36.050781 740.039062 32.546875 C 764.023438 29.042969 807.816406 22.535156 812.289062 22.332031 C 816.761719 22.128906 820.835938 22.265625 824.804688 22.722656 C 828.773438 23.179688 832.625 23.960938 836.347656 25.078125 C 840.074219 26.195312 844.503906 28.070312 853.996094 34.417969 C 863.492188 40.765625 870.996094 47.546875 876.421875 54.960938 C 881.84375 62.378906 884.917969 70.535156 885.132812 79.066406 C 885.351562 87.597656 882.496094 96.378906 876.476562 104.585938 C 870.457031 112.796875 863.355469 119.230469 855.152344 123.992188 C 846.953125 128.753906 837.796875 131.820312 827.820312 133.214844 C 817.839844 134.609375 806.964844 134.359375 801.546875 133.058594 C 796.128906 131.753906 791.640625 130.011719 787.707031 127.761719 C 783.777344 125.515625 780.453125 122.722656 777.867188 119.367188 C 775.277344 116.015625 773.371094 111.757812 773.085938 107.433594 C 772.796875 103.109375 773.582031 99.101562 775.277344 95.335938 C 776.96875 91.574219 779.5 88.109375 782.742188 84.882812 C 785.980469 81.65625 790.164062 78.472656 792.84375 77.773438 C 795.523438 77.074219 797.730469 77.148438 799.90625 77.640625 C 802.082031 78.136719 804.238281 78.988281 806.40625 80.167969 C 808.570312 81.351562 810.796875 82.878906 813.324219 84.917969 C 815.855469 86.957031 818.003906 88.960938 819.777344 90.957031 C 821.550781 92.953125 822.957031 94.929688 823.996094 96.898438 C 825.03125 98.867188 825.714844 100.984375 825.6875 104.144531 C 825.660156 107.300781 824.480469 110.015625 822.308594 112 C 820.136719 113.980469 817.144531 115.230469 814.484375 115.613281 C 811.820312 115.996094 811.820312 115.996094 813.445312 115.402344 C 813.445312 115.402344 816.230469 113.191406 818.113281 111.527344 C 820 109.863281 820.875 108.183594 820.960938 106.386719 C 821.050781 104.589844 820.394531 102.378906 819.683594 101.230469 C 818.96875 100.082031 817.878906 98.777344 816.414062 97.40625 C 814.949219 96.035156 813.101562 94.601562 810.902344 93.085938 C 808.699219 91.570312 806.128906 90.046875 804.273438 89.167969 C 802.417969 88.289062 800.800781 87.695312 799.464844 87.398438 C 798.125 87.097656 797.089844 87.050781 796.34375 87.175781 C 795.601562 87.300781 796.085938 87 793.40625 89.722656 C 790.726562 92.449219 788.730469 95.089844 787.476562 97.496094 C 786.222656 99.90625 785.660156 102.082031 785.621094 104.097656 C 785.582031 106.113281 785.914062 107.675781 787.058594 109.277344 C 788.199219 110.878906 789.84375 112.457031 792.066406 113.839844 C 794.285156 115.222656 797.148438 116.421875 800.714844 117.339844 C 804.285156 118.253906 807.792969 118.835938 816.558594 118.007812 C 825.328125 117.175781 832.964844 115.210938 839.488281 112.125 C 846.011719 109.035156 851.542969 104.835938 856.25 99.460938 C 860.960938 94.085938 864.671875 87.921875 865.238281 83.882812 C 865.804688 79.847656 865.074219 75.929688 862.730469 71.667969 C 860.390625 67.410156 856.039062 62.671875 849.390625 57.664062 C 842.742188 52.660156 833.804688 47.492188 831.917969 46.847656 C 830.03125 46.207031 827.570312 45.550781 824.941406 45.097656 C 822.3125 44.644531 819.507812 44.398438 816.511719 44.375 C 813.519531 44.351562 810.933594 44.488281 767.234375 50.980469 C 723.53125 57.476562 718.589844 58.078125 714.152344 58.53125 C 709.710938 58.988281 705.558594 59.328125 701.691406 59.546875 C 697.820312 59.769531 694.226562 59.867188 691.027344 59.847656 C 687.832031 59.824219 681.128906 59.78125 673.320312 58.796875 C 665.515625 57.816406 657.136719 55.933594 648.144531 53.183594 C 639.148438 50.4375 629.507812 46.835938 619.511719 42.46875 C 609.511719 38.105469 614.949219 38.746094 616.5625 37.90625 C 618.171875 37.0625 620.257812 34.558594 620.820312 31.753906 C 621.382812 28.945312 621.050781 27.570312 620.324219 26.5625 C 619.59375 25.558594 636.921875 43.722656 652.699219 59.539062 C 668.476562 75.351562 682.753906 88.71875 695.457031 99.695312 C 708.160156 110.671875 719.347656 119.160156 729.042969 125.265625 C 738.738281 131.371094 748.027344 136.542969 757.519531 140.394531 C 767.011719 144.242188 776.929688 146.859375 787.308594 148.375 C 797.691406 149.890625 808.601562 150.28125 814.363281 150.882812 C 825.917969 150.367188 820.269531 152.25 826.066406 151.136719 Z M 826.066406 151.136719 " fill-opacity="1" fill-rule="nonzero"/><g clip-path="url(#2998eaf65a)"><path fill="#9eb2df" d="M 891.355469 193.925781 C 891.5 194.628906 891.609375 195.925781 891.722656 197.074219 C 891.839844 198.226562 891.960938 199.226562 892.082031 200.070312 C 892.203125 200.917969 892.328125 201.601562 892.953125 204.132812 C 893.578125 206.660156 894.535156 210.746094 895.277344 214.160156 C 896.023438 217.574219 896.566406 220.320312 896.953125 222.402344 C 897.339844 224.488281 897.574219 225.9375 898.296875 231.738281 C 899.019531 237.539062 900.136719 247.019531 901.007812 254.753906 C 901.882812 262.492188 902.550781 268.476562 903.023438 272.699219 C 903.492188 276.921875 903.792969 279.339844 904.152344 281.910156 C 904.511719 284.484375 905.054688 288.171875 905.628906 291.667969 C 906.203125 295.167969 906.804688 298.476562 907.414062 301.601562 C 908.019531 304.722656 908.664062 307.65625 909.589844 311.449219 C 910.511719 315.242188 911.816406 320.082031 913.226562 325.007812 C 914.636719 329.929688 916.1875 334.929688 917.878906 340.003906 C 919.566406 345.082031 921.363281 350.242188 922.8125 354.1875 C 924.261719 358.132812 925.464844 361.242188 926.914062 364.992188 C 928.363281 368.746094 930.074219 373.128906 932.085938 378.128906 C 934.09375 383.128906 936.34375 388.761719 937.714844 392.113281 C 939.085938 395.460938 939.429688 396.125 939.5625 396.328125 C 939.691406 396.53125 939.382812 396.117188 937.558594 394.898438 C 935.734375 393.683594 930.84375 393.316406 929.304688 393.902344 C 927.761719 394.492188 926.480469 395.558594 925.78125 396.570312 C 925.078125 397.582031 924.824219 398.226562 924.757812 398.429688 C 924.695312 398.632812 924.691406 398.453125 924.40625 394.953125 C 924.125 391.457031 923.660156 384.996094 923.351562 379.238281 C 923.042969 373.476562 922.835938 368.410156 922.808594 364.003906 C 922.785156 359.597656 922.90625 355.816406 923.117188 352.652344 C 923.328125 349.484375 923.632812 346.125 924.078125 342.640625 C 924.519531 339.15625 925.109375 335.550781 925.8125 331.816406 C 926.515625 328.082031 927.339844 324.21875 928.226562 320.519531 C 929.109375 316.824219 930.015625 313.480469 931.011719 310.144531 C 932.003906 306.8125 933.085938 303.488281 934.253906 300.171875 C 935.421875 296.855469 936.679688 293.546875 940.554688 284.941406 C 944.429688 276.332031 949.910156 264.425781 954.273438 254.792969 C 958.636719 245.160156 961.878906 237.816406 964.03125 232.871094 C 966.183594 227.921875 967.089844 225.675781 967.992188 222.894531 C 968.898438 220.117188 970.09375 216.34375 971.082031 212.59375 C 972.074219 208.847656 972.820312 205.113281 973.371094 201.398438 C 973.917969 197.6875 974.226562 193.980469 974.148438 188.617188 C 974.070312 183.253906 973.121094 176.523438 971.273438 170.761719 C 969.425781 164.996094 966.730469 160.101562 963.179688 155.890625 C 959.628906 151.683594 955.070312 148.09375 951.382812 146.796875 C 947.695312 145.503906 942.757812 145.875 938.140625 147.121094 C 933.527344 148.363281 929.136719 150.570312 924.894531 153.835938 C 920.652344 157.101562 916.558594 161.503906 914.097656 165 C 911.632812 168.496094 910.496094 170.886719 909.570312 173.332031 C 908.644531 175.773438 907.929688 178.277344 907.40625 180.851562 C 906.886719 183.421875 906.609375 186.074219 906.574219 188.917969 C 906.542969 191.757812 906.78125 194.640625 907.199219 196.90625 C 907.617188 199.175781 908.140625 200.808594 908.660156 201.808594 C 909.183594 202.808594 909.597656 203.285156 911.078125 203.746094 C 912.558594 204.210938 915.570312 204.695312 918.425781 204.632812 C 921.285156 204.570312 924.035156 203.992188 926.753906 202.890625 C 929.472656 201.785156 932.167969 200.074219 934.117188 198.179688 C 936.0625 196.285156 937.15625 194.277344 937.671875 192.105469 C 938.1875 189.929688 938.117188 187.515625 937.390625 184.828125 C 936.664062 182.140625 935.246094 179.195312 933.570312 177.101562 C 931.894531 175.007812 931.894531 175.007812 933.023438 176.398438 C 933.023438 176.398438 935.308594 179.152344 937.253906 181.707031 C 939.203125 184.261719 940.4375 186.945312 940.929688 189.753906 C 941.421875 192.566406 941.109375 195.457031 939.921875 198.421875 C 938.734375 201.386719 935.941406 204.480469 932.925781 206.847656 C 929.910156 209.21875 926.558594 210.964844 922.894531 211.980469 C 919.230469 212.996094 915.328125 213.34375 911.152344 212.957031 C 906.976562 212.574219 904.164062 211.273438 902.234375 209.402344 C 900.304688 207.527344 898.871094 205.175781 897.792969 202.417969 C 896.710938 199.660156 895.941406 196.480469 895.375 192.789062 C 894.8125 189.097656 894.695312 185.601562 894.894531 182.292969 C 895.09375 178.980469 895.546875 175.699219 896.292969 172.460938 C 897.035156 169.222656 898.054688 166.03125 899.5 162.632812 C 900.945312 159.238281 905.277344 152.699219 910.199219 147.234375 C 915.125 141.765625 920.730469 137.453125 926.933594 134.324219 C 933.140625 131.195312 939.890625 129.351562 947.941406 129.027344 C 955.988281 128.703125 964.707031 133.125 970.984375 138.203125 C 977.261719 143.28125 982.367188 149.507812 986.144531 156.777344 C 989.925781 164.042969 992.394531 172.203125 993.625 181.101562 C 994.855469 190 994.828125 194.988281 994.5 199.507812 C 994.175781 204.027344 993.578125 208.554688 992.722656 213.089844 C 991.863281 217.621094 990.753906 222.15625 989.4375 226.46875 C 988.125 230.78125 987.792969 232.28125 986.265625 236.429688 C 984.738281 240.578125 982.207031 246.671875 978.527344 254.925781 C 974.84375 263.179688 970.070312 273.660156 964.21875 286.324219 C 958.363281 298.988281 957.34375 301.582031 956.242188 304.558594 C 955.136719 307.535156 954.117188 310.515625 953.171875 313.496094 C 952.230469 316.476562 951.367188 319.460938 950.589844 322.421875 C 949.816406 325.382812 948.992188 328.988281 948.277344 332.480469 C 947.5625 335.972656 946.960938 339.300781 946.472656 342.464844 C 945.988281 345.628906 945.570312 348.617188 945.265625 351.503906 C 944.960938 354.386719 944.703125 357.128906 944.554688 360.527344 C 944.40625 363.925781 944.359375 368.152344 944.40625 373.164062 C 944.449219 378.175781 944.613281 383.957031 944.878906 390.550781 C 945.140625 397.144531 945.148438 398.917969 944.976562 400.527344 C 944.808594 402.136719 944.390625 403.867188 943.519531 405.761719 C 942.652344 407.65625 941.117188 409.582031 939.363281 410.851562 C 937.609375 412.121094 934.566406 413.199219 930.167969 412.070312 C 925.769531 410.941406 924.011719 409.222656 923.058594 407.804688 C 922.101562 406.386719 921.417969 405.039062 920.765625 403.5 C 920.109375 401.957031 917.890625 395.722656 915.953125 390.171875 C 914.015625 384.617188 912.320312 379.691406 910.855469 375.390625 C 909.390625 371.089844 908.136719 367.417969 907.164062 364.328125 C 906.195312 361.234375 904.488281 355.753906 902.960938 350.316406 C 901.429688 344.878906 900.019531 339.527344 898.765625 334.25 C 897.507812 328.972656 896.367188 323.78125 895.398438 318.667969 C 894.433594 313.554688 893.910156 310.453125 893.453125 307.210938 C 892.996094 303.96875 892.585938 300.558594 892.246094 296.984375 C 891.910156 293.410156 891.617188 289.667969 891.378906 285.785156 C 891.136719 281.902344 891.042969 280.5 890.917969 277.332031 C 890.796875 274.164062 890.652344 269.28125 890.523438 262.652344 C 890.394531 256.019531 890.285156 247.636719 890.261719 237.492188 C 890.238281 227.347656 890.253906 226.480469 890.226562 224.929688 C 890.199219 223.382812 890.09375 221.097656 889.953125 218.101562 C 889.816406 215.105469 889.648438 211.398438 889.496094 206.976562 C 889.347656 202.550781 889.359375 201.808594 889.417969 200.984375 C 889.480469 200.164062 889.589844 199.21875 889.753906 198.140625 C 889.914062 197.066406 890.117188 195.863281 890.324219 195.21875 C 890.574219 193.882812 891.316406 194.621094 891.355469 193.925781 Z M 891.355469 193.925781 " fill-opacity="1" fill-rule="nonzero"/></g><path fill="#9eb2df" d="M 207.632812 328.507812 L 207.636719 328.472656 C 207.671875 328.222656 207.816406 328.101562 208.078125 328.105469 C 212.851562 330.601562 219.390625 333.476562 227.691406 336.730469 C 278.054688 353.304688 303.449219 362.210938 303.875 363.445312 C 320.511719 372.644531 331.8125 379.351562 337.769531 383.570312 C 339.980469 385.039062 342.679688 386.996094 345.871094 389.433594 C 353.550781 395.976562 357.136719 399.324219 356.628906 399.480469 L 370.789062 408.882812 L 315.574219 388.09375 C 291.382812 377.140625 276.296875 369.851562 270.320312 366.226562 C 290.078125 381.410156 305.121094 391.460938 315.441406 396.382812 C 325.894531 402.136719 343.09375 407.980469 367.039062 413.917969 L 366.085938 414.339844 L 357.71875 416.347656 L 348.753906 416.945312 L 339.183594 416.128906 L 329.015625 413.894531 L 318.246094 410.25 L 306.875 405.191406 C 290.765625 396.515625 277.441406 388.132812 266.894531 380.042969 C 256.734375 372.195312 248.511719 365.488281 242.226562 359.921875 C 235.082031 353.707031 224.390625 344.203125 210.148438 331.40625 C 208.296875 329.589844 207.457031 328.625 207.632812 328.507812 Z M 207.632812 328.507812 " fill-opacity="1" fill-rule="nonzero"/><path fill="#9eb2df" d="M 362.585938 683.761719 L 362.601562 683.015625 C 366.058594 661.667969 371.46875 639.867188 378.832031 617.613281 C 383.175781 605.601562 386.046875 598.109375 387.445312 595.140625 C 394.734375 581.402344 399.449219 573.214844 401.589844 570.585938 C 411.867188 557.640625 418.308594 550.410156 420.914062 548.898438 C 425.554688 545.226562 431.265625 541.378906 438.042969 537.351562 L 472.5625 508.820312 C 440.566406 566.390625 420.367188 599.835938 411.960938 609.148438 C 444.832031 578.09375 467 543.320312 478.472656 504.839844 C 479.65625 508.949219 480.175781 514.90625 480.035156 522.710938 C 480.039062 535.039062 477.160156 551.621094 471.410156 572.460938 C 467.128906 584.40625 462.144531 594.285156 456.457031 602.101562 C 450.46875 610.34375 442.898438 619.070312 433.746094 628.28125 L 369.820312 686.234375 C 367.550781 688.070312 365.644531 688.820312 364.105469 688.496094 C 363.207031 687.644531 362.703125 686.066406 362.585938 683.761719 Z M 362.585938 683.761719 " fill-opacity="1" fill-rule="nonzero"/><path fill="#9eb2df" d="M 496.195312 223.800781 L 499.378906 228.039062 C 505.132812 236.339844 513.355469 244.011719 524.050781 251.050781 C 527.671875 253.183594 531.464844 255.199219 535.425781 257.105469 L 601.957031 287.960938 C 606.007812 290.242188 608.488281 292.128906 609.40625 293.621094 C 621.058594 308.828125 623.347656 321.976562 616.277344 333.066406 C 610.460938 323.515625 603.351562 315.867188 594.949219 310.128906 C 586.46875 304.054688 574.242188 298.472656 558.269531 293.390625 C 565.710938 296.992188 574.128906 302.257812 583.527344 309.183594 L 604.0625 325.105469 C 606.40625 326.972656 609.53125 329.984375 613.4375 334.136719 C 601.222656 330.90625 591.339844 328.074219 583.792969 325.644531 L 581.125 324.578125 L 570.90625 319.144531 L 560.574219 311.664062 L 550.128906 302.136719 L 539.570312 290.5625 L 528.898438 276.945312 L 518.113281 261.277344 L 507.210938 243.566406 Z M 496.195312 223.800781 " fill-opacity="1" fill-rule="nonzero"/><path fill="#9eb2df" d="M 659.503906 420.019531 L 659.648438 415.667969 C 659.824219 413.140625 660.148438 410.707031 660.628906 408.363281 C 661.578125 404.328125 662.417969 401.539062 663.152344 400.007812 C 664.503906 396.207031 667.230469 391.914062 671.328125 387.125 L 674.949219 378.457031 C 674.832031 379.972656 674.566406 382.023438 674.144531 384.609375 L 672.039062 396.226562 L 671.578125 400.632812 L 669.691406 421.871094 C 669.542969 423.636719 669.25 425.367188 668.8125 427.066406 C 672.300781 417.742188 675.164062 407.921875 677.410156 397.605469 C 678.320312 389.085938 678.402344 382.289062 677.664062 377.210938 C 679.089844 378.378906 679.914062 379.332031 680.140625 380.070312 C 680.414062 380.722656 681.175781 384.144531 682.425781 390.34375 C 683.03125 394.847656 683.375 398.308594 683.453125 400.730469 C 683.707031 405.390625 683.773438 410.417969 683.648438 415.808594 C 683.324219 424.753906 682.71875 431.890625 681.828125 437.230469 C 681.640625 438.640625 681.273438 440.511719 680.722656 442.839844 C 679.84375 446.585938 678.34375 452.390625 676.222656 460.253906 C 675.714844 462.5 675.328125 464.445312 675.058594 466.09375 C 673.800781 473.175781 673.246094 480.652344 673.390625 488.515625 C 673.1875 489.371094 672.957031 489.804688 672.703125 489.824219 C 672.394531 489.859375 672.070312 489.363281 671.734375 488.328125 L 670.183594 482.046875 C 666.957031 468.523438 664.308594 456.625 662.234375 446.359375 C 661.359375 441.886719 660.636719 436.964844 660.0625 431.585938 C 659.730469 427.503906 659.542969 423.648438 659.503906 420.019531 Z M 659.503906 420.019531 " fill-opacity="1" fill-rule="nonzero"/><path fill="#9eb2df" d="M 727.429688 169.914062 L 727.46875 169.933594 C 727.597656 169.988281 727.835938 170.070312 728.195312 170.1875 C 728.046875 170.128906 727.847656 170.054688 727.59375 169.964844 L 727.429688 169.90625 L 727.429688 169.914062 M 676.308594 134.121094 L 676.316406 134.082031 C 682.269531 139.976562 690.15625 144.875 699.972656 148.777344 C 704.3125 150.875 717.25 154.121094 738.789062 158.515625 C 742.070312 159.449219 746.34375 161.472656 751.621094 164.582031 C 759.429688 170.40625 765.164062 178.757812 768.820312 189.632812 C 762.652344 183.855469 757.972656 180.316406 754.78125 179.007812 C 748.488281 176.019531 739.664062 173.09375 728.304688 170.230469 C 730.316406 171.007812 732.859375 172.242188 735.933594 173.933594 L 760.351562 187.65625 L 770.117188 193.5 L 770.453125 194.5 C 756.875 195.449219 742.140625 190.859375 726.242188 180.726562 C 704.671875 165.558594 688.027344 150.023438 676.308594 134.121094 Z M 676.308594 134.121094 " fill-opacity="1" fill-rule="nonzero"/><path fill="#9eb2df" d="M 828.363281 285.550781 L 828.441406 282.164062 C 828.625 278.140625 829.136719 274.085938 829.980469 270.003906 C 831.03125 264.902344 832.597656 259.75 834.675781 254.550781 L 838.539062 233.847656 L 843.652344 261.558594 L 844.828125 267.144531 C 848.316406 281.960938 852.335938 297.335938 856.878906 313.277344 L 857.605469 317.085938 L 854.25 282.957031 C 853.398438 275.273438 852.589844 269.191406 851.824219 264.722656 C 851.796875 262.214844 848.757812 252.058594 842.710938 234.253906 C 850.65625 241.054688 855.257812 245.253906 856.515625 246.855469 C 858.242188 249.542969 862.035156 257.496094 867.902344 270.714844 C 870.433594 276.84375 872.742188 284.164062 874.820312 292.671875 C 876.355469 299.667969 877.117188 307.625 877.109375 316.546875 L 873.910156 357.558594 L 872.769531 399.175781 C 872.3125 399.921875 871.960938 400.214844 871.714844 400.050781 C 871.339844 399.8125 871.015625 399.378906 870.734375 398.757812 C 863.019531 381.019531 857.582031 368.757812 854.421875 361.976562 C 849.984375 352.367188 845.730469 343.535156 841.65625 335.472656 L 837.183594 324.28125 C 834.140625 315.683594 831.742188 307.871094 829.988281 300.839844 C 828.90625 295.792969 828.363281 290.695312 828.363281 285.550781 Z M 828.363281 285.550781 " fill-opacity="1" fill-rule="nonzero"/></g></g></g></svg>