<svg xmlns="http://www.w3.org/2000/svg" xmlns:xlink="http://www.w3.org/1999/xlink" width="1920" zoomAndPan="magnify" viewBox="0 0 1440 809.999993" height="1080" preserveAspectRatio="xMidYMid meet" version="1.0"><path fill="#7d452d" d="M 691.226562 700.738281 C 712.660156 668.5625 714.960938 630.132812 777.792969 547.539062 C 846.582031 457.105469 948.988281 319.363281 1070.664062 331.070312 C 1103.355469 334.21875 1142.054688 346.089844 1158.566406 387.515625 C 1174.84375 428.339844 1141.691406 483.75 1099.011719 501.4375 C 1057.847656 518.492188 1012.410156 520.398438 969.632812 531.652344 C 865.632812 559.019531 763.046875 620.054688 691.226562 700.738281 Z M 691.226562 700.738281 " fill-opacity="1" fill-rule="evenodd"/><path fill="#7d452d" d="M 673.429688 713.253906 C 673.1875 662.914062 682.019531 404.160156 746.742188 241.425781 C 786.148438 142.332031 838.59375 84.515625 904.714844 68.964844 C 980.328125 51.183594 1058.316406 98.109375 1035.859375 188.773438 C 1014.042969 276.847656 947.109375 297.144531 871.382812 367.695312 C 794.195312 439.601562 698.578125 602.507812 673.429688 713.253906 Z M 673.429688 713.253906 " fill-opacity="1" fill-rule="evenodd"/><path fill="#7d452d" d="M 660.585938 700.710938 C 639.148438 668.539062 636.851562 630.109375 574.019531 547.511719 C 505.226562 457.082031 402.824219 319.335938 281.144531 331.046875 C 248.457031 334.191406 209.757812 346.0625 193.242188 387.488281 C 176.964844 428.3125 210.121094 483.726562 252.800781 501.414062 C 293.964844 518.46875 339.402344 520.371094 382.175781 531.625 C 486.179688 558.996094 588.765625 620.027344 660.585938 700.710938 Z M 660.585938 700.710938 " fill-opacity="1" fill-rule="evenodd"/><path fill="#7d452d" d="M 678.476562 713.238281 C 678.71875 662.894531 669.886719 404.140625 605.160156 241.410156 C 565.753906 142.316406 513.3125 84.503906 447.1875 68.953125 C 371.578125 51.171875 293.59375 98.097656 316.046875 188.757812 C 337.863281 276.835938 404.792969 297.128906 480.523438 367.679688 C 557.707031 439.585938 653.324219 602.492188 678.476562 713.238281 Z M 678.476562 713.238281 " fill-opacity="1" fill-rule="evenodd"/><path fill="#572512" d="M 1153.640625 371.25 C 1136.652344 357.613281 1117.269531 348.523438 1095.949219 344.96875 C 1076.921875 341.800781 1056.621094 343.453125 1035.199219 350.863281 C 1013.46875 357.902344 990.925781 370.722656 966.746094 388.269531 C 956.59375 395.609375 946.292969 403.828125 935.582031 412.78125 C 925.839844 420.910156 915.839844 429.730469 905.484375 439.070312 C 891.917969 451.273438 877.6875 464.34375 863.097656 478.765625 C 854.171875 487.617188 844.992188 496.769531 835.65625 506.457031 C 822.597656 519.992188 809.335938 534.289062 795.613281 549.585938 C 776.945312 570.488281 757.679688 592.710938 737.964844 617.09375 C 753.558594 589.714844 768.734375 564.371094 784.1875 540.796875 C 795.613281 523.363281 807.039062 507.144531 818.464844 491.851562 C 826.679688 480.785156 834.890625 470.324219 843.207031 460.421875 C 856.824219 444.082031 870.390625 429.230469 883.960938 416.027344 C 892.378906 407.894531 900.792969 400.46875 909.210938 393.621094 C 918.339844 386.15625 927.417969 379.464844 936.398438 373.375 C 945.222656 367.367188 953.941406 361.9375 962.511719 357.210938 C 986.332031 344.125 1008.878906 335.664062 1029.996094 331.28125 C 1054.988281 326.53125 1077.945312 327.75 1098.5 334.5625 C 1119.921875 341.664062 1138.4375 354.308594 1153.640625 371.25 Z M 1153.640625 371.25 " fill-opacity="1" fill-rule="evenodd"/><path fill="#572512" d="M 198.144531 371.25 C 213.34375 354.308594 231.859375 341.664062 253.28125 334.5625 C 273.839844 327.75 296.792969 326.53125 321.785156 331.28125 C 342.902344 335.664062 365.449219 344.125 389.269531 357.210938 C 397.839844 361.9375 406.5625 367.367188 415.386719 373.375 C 424.363281 379.464844 433.441406 386.15625 442.574219 393.621094 C 450.988281 400.46875 459.40625 407.894531 467.820312 416.027344 C 481.390625 429.230469 494.957031 444.082031 508.578125 460.421875 C 516.890625 470.324219 525.105469 480.785156 533.316406 491.851562 C 544.742188 507.144531 556.167969 523.363281 567.59375 540.796875 C 583.046875 564.371094 598.222656 589.714844 613.816406 617.09375 C 594.101562 592.710938 574.835938 570.488281 556.167969 549.585938 C 542.445312 534.289062 529.183594 519.992188 516.125 506.457031 C 506.792969 496.769531 497.609375 487.617188 488.683594 478.765625 C 474.097656 464.34375 459.863281 451.273438 446.296875 439.070312 C 435.941406 429.730469 425.945312 420.910156 416.203125 412.78125 C 405.488281 403.828125 395.1875 395.609375 385.035156 388.273438 C 360.859375 370.722656 338.3125 357.902344 316.582031 350.863281 C 295.160156 343.453125 274.859375 341.800781 255.832031 344.96875 C 234.511719 348.523438 215.128906 357.613281 198.144531 371.25 Z M 198.144531 371.25 " fill-opacity="1" fill-rule="evenodd"/><path fill="#572512" d="M 1009 88.800781 C 978.089844 70.769531 950.640625 62.964844 921.984375 69.761719 C 898.679688 75.273438 874.933594 90.699219 847.816406 118.171875 C 827.785156 137.902344 808.796875 169.925781 790.511719 210.636719 C 783.324219 226.59375 776.390625 243.84375 769.429688 262.234375 C 763.160156 278.914062 756.9375 296.574219 750.777344 314.96875 C 742.558594 339.417969 734.332031 365.226562 726.757812 392.273438 C 721.960938 409.3125 717.238281 426.734375 712.777344 444.632812 C 706.328125 470.425781 700.417969 496.925781 695.023438 524.21875 C 687.269531 563.554688 680.605469 604.023438 675.851562 645.546875 C 675.765625 603.546875 677.367188 562.34375 680.871094 522.214844 C 683.320312 494.144531 686.691406 466.792969 690.769531 440.222656 C 693.65625 421.640625 696.871094 403.53125 700.570312 385.878906 C 706.429688 357.664062 713.191406 330.6875 720.84375 305.402344 C 725.496094 290.148438 730.570312 275.527344 735.867188 261.59375 C 741.574219 246.542969 747.699219 232.285156 753.992188 218.828125 C 760.199219 205.511719 766.527344 193.015625 773.066406 181.46875 C 792.820312 146.660156 813.671875 119.945312 833.859375 102.902344 C 866.378906 76.136719 894.058594 62.160156 920.039062 58.964844 C 950.800781 55.1875 978.847656 66.15625 1009 88.800781 Z M 1009 88.800781 " fill-opacity="1" fill-rule="evenodd"/><path fill="#572512" d="M 342.820312 88.804688 C 372.972656 66.164062 401.019531 55.191406 431.78125 58.96875 C 457.761719 62.164062 485.441406 76.140625 517.960938 102.90625 C 538.148438 119.949219 559 146.667969 578.753906 181.472656 C 585.289062 193.023438 591.621094 205.515625 597.824219 218.832031 C 604.117188 232.292969 610.242188 246.546875 615.953125 261.597656 C 621.246094 275.53125 626.324219 290.152344 630.972656 305.40625 C 638.628906 330.691406 645.386719 357.667969 651.246094 385.882812 C 654.949219 403.539062 658.160156 421.644531 661.050781 440.230469 C 665.128906 466.796875 668.5 494.152344 670.949219 522.21875 C 674.457031 562.351562 676.058594 603.558594 675.96875 645.550781 C 671.210938 604.03125 664.550781 563.558594 656.796875 524.222656 C 651.402344 496.929688 645.492188 470.433594 639.042969 444.636719 C 634.582031 426.738281 629.859375 409.316406 625.0625 392.28125 C 617.488281 365.230469 609.261719 339.425781 601.042969 314.972656 C 594.882812 296.578125 588.660156 278.917969 582.386719 262.242188 C 575.429688 243.847656 568.496094 226.601562 561.304688 210.640625 C 543.019531 169.929688 524.035156 137.90625 504 118.175781 C 476.886719 90.703125 453.140625 75.28125 429.835938 69.765625 C 401.179688 62.96875 373.730469 70.777344 342.820312 88.804688 Z M 342.820312 88.804688 " fill-opacity="1" fill-rule="evenodd"/><path fill="#b1896e" d="M 674.957031 713.089844 C 689.296875 686.535156 695.828125 658.105469 720.980469 608.261719 C 730.601562 589.203125 742.886719 567.050781 759.285156 540.769531 C 798.28125 478.257812 848.679688 403.769531 910.914062 350.867188 C 954.859375 313.519531 1004.695312 286.902344 1060.425781 281.761719 C 1081.132812 279.851562 1104.234375 280.851562 1124.988281 288.65625 C 1145.097656 296.21875 1163.101562 310 1175.074219 333.457031 C 1188.167969 359.113281 1188.585938 390.390625 1175.929688 418.378906 C 1165.222656 442.058594 1145.140625 463.425781 1115.453125 476.605469 C 1100.589844 483.203125 1086.109375 487.824219 1071.175781 491.652344 C 1041.5 499.257812 1009.96875 503.621094 969.472656 515.132812 C 914.855469 530.660156 862.9375 560.476562 816.230469 597.824219 C 769.671875 635.046875 728.296875 679.765625 694.585938 725.539062 C 690.953125 730.464844 684.136719 731.742188 678.964844 728.46875 C 673.796875 725.191406 672.046875 718.476562 674.957031 713.089844 Z M 727.414062 649.160156 C 750.257812 624.375 775.160156 600.828125 801.679688 579.621094 C 850.855469 540.300781 905.597656 509.066406 963.105469 492.71875 C 1003.835938 481.136719 1035.546875 476.726562 1065.394531 469.078125 C 1079.089844 465.570312 1092.375 461.359375 1106.003906 455.308594 C 1129.824219 444.730469 1146.109375 427.773438 1154.699219 408.773438 C 1164.34375 387.445312 1164.300781 363.605469 1154.328125 344.054688 C 1145.351562 326.46875 1131.859375 316.136719 1116.785156 310.464844 C 1099.363281 303.914062 1079.949219 303.359375 1062.5625 304.964844 C 1011.582031 309.667969 966.199219 334.460938 926.003906 368.628906 C 865.601562 419.964844 816.898438 492.433594 779.054688 553.105469 C 763.097656 578.675781 751.140625 600.21875 741.78125 618.761719 C 736.167969 629.886719 731.472656 639.945312 727.414062 649.160156 Z M 727.414062 649.160156 " fill-opacity="1" fill-rule="evenodd"/><path fill="#b1896e" d="M 675.082031 724.1875 C 672.503906 693.417969 670.632812 588.484375 680.277344 471.328125 C 687.238281 386.753906 700.214844 295.835938 723.101562 221.746094 C 741.167969 163.261719 763.125 113.9375 790.292969 77.785156 C 815.101562 44.777344 844.335938 22.53125 878.75 13.433594 C 929.636719 -0.0195312 971.515625 10.667969 997.945312 37.644531 C 1023.117188 63.328125 1034.792969 104.523438 1025.398438 156.210938 C 1020.023438 185.800781 1008.878906 208.539062 993.566406 228.738281 C 964.046875 267.6875 918.0625 296.664062 868.484375 350.753906 C 830.023438 392.71875 791.625 456.359375 760.347656 526.835938 C 731.894531 590.941406 709.359375 660.722656 698.167969 725.203125 C 697.167969 730.976562 692.03125 735.113281 686.179688 734.851562 C 680.324219 734.597656 675.574219 730.03125 675.082031 724.1875 Z M 696.359375 632.585938 C 707.972656 593.679688 722.539062 554.597656 739.054688 517.382812 C 771.46875 444.339844 811.445312 378.5 851.3125 335.003906 C 900.273438 281.585938 945.839844 253.128906 975 214.660156 C 988.21875 197.222656 997.835938 177.589844 1002.476562 152.042969 C 1010.21875 109.425781 1002.0625 75.132812 981.308594 53.957031 C 959.953125 32.160156 925.8125 25.09375 884.703125 35.960938 C 855.089844 43.792969 830.261719 63.382812 808.917969 91.785156 C 783.117188 126.121094 762.523438 173.082031 745.359375 228.625 C 722.933594 301.234375 710.320312 390.355469 703.5 473.242188 C 698.644531 532.214844 696.730469 588.046875 696.359375 632.585938 Z M 696.359375 632.585938 " fill-opacity="1" fill-rule="evenodd"/><path fill="#b1896e" d="M 659.996094 725.394531 C 626.285156 679.621094 584.90625 634.902344 538.351562 597.683594 C 491.636719 560.335938 439.722656 530.519531 385.101562 514.996094 C 344.605469 503.480469 313.074219 499.121094 283.398438 491.515625 C 268.46875 487.6875 253.988281 483.070312 239.121094 476.46875 C 209.433594 463.289062 189.351562 441.921875 178.644531 418.242188 C 165.988281 390.257812 166.402344 358.976562 179.5 333.320312 C 191.46875 309.863281 209.476562 296.085938 229.585938 288.519531 C 250.339844 280.714844 273.441406 279.714844 294.148438 281.625 C 349.878906 286.761719 399.714844 313.382812 443.660156 350.726562 C 505.894531 403.628906 556.292969 478.117188 595.289062 540.628906 C 611.691406 566.910156 623.976562 589.058594 633.597656 608.121094 C 658.75 657.960938 665.285156 686.390625 679.625 712.945312 C 682.535156 718.332031 680.78125 725.046875 675.617188 728.324219 C 670.445312 731.601562 663.625 730.320312 659.996094 725.394531 Z M 627.164062 649.015625 C 623.105469 639.800781 618.410156 629.742188 612.800781 618.617188 C 603.4375 600.074219 591.480469 578.535156 575.523438 552.960938 C 537.675781 492.292969 488.972656 419.824219 428.570312 368.488281 C 388.371094 334.324219 342.988281 309.527344 292.007812 304.828125 C 274.621094 303.222656 255.210938 303.777344 237.789062 310.328125 C 222.714844 316 209.222656 326.332031 200.246094 343.917969 C 190.269531 363.472656 190.226562 387.3125 199.871094 408.636719 C 208.464844 427.636719 224.75 444.597656 248.570312 455.171875 C 262.199219 461.222656 275.484375 465.433594 289.179688 468.941406 C 319.027344 476.589844 350.738281 481 391.46875 492.578125 C 448.980469 508.929688 503.71875 540.160156 552.898438 579.480469 C 579.417969 600.683594 604.320312 624.234375 627.164062 649.015625 Z M 627.164062 649.015625 " fill-opacity="1" fill-rule="evenodd"/><path fill="#b1896e" d="M 653.574219 725.203125 C 642.382812 660.722656 619.847656 590.941406 591.394531 526.835938 C 560.117188 456.359375 521.71875 392.71875 483.257812 350.753906 C 433.679688 296.664062 387.695312 267.6875 358.175781 228.738281 C 342.863281 208.539062 331.714844 185.800781 326.34375 156.210938 C 316.949219 104.523438 328.625 63.328125 353.792969 37.644531 C 380.226562 10.667969 422.105469 -0.0195312 472.992188 13.433594 C 507.40625 22.53125 536.640625 44.777344 561.449219 77.785156 C 588.617188 113.9375 610.574219 163.261719 628.640625 221.746094 C 651.527344 295.835938 664.503906 386.753906 671.464844 471.328125 C 681.105469 588.484375 679.238281 693.417969 676.660156 724.1875 C 676.167969 730.03125 671.417969 734.597656 665.5625 734.851562 C 659.710938 735.113281 654.574219 730.976562 653.574219 725.203125 Z M 655.382812 632.585938 C 655.011719 588.046875 653.097656 532.214844 648.242188 473.242188 C 641.421875 390.355469 628.808594 301.234375 606.378906 228.625 C 589.21875 173.082031 568.625 126.121094 542.824219 91.785156 C 521.480469 63.382812 496.648438 43.792969 467.035156 35.960938 C 425.929688 25.09375 391.789062 32.160156 370.433594 53.957031 C 349.679688 75.132812 341.523438 109.425781 349.265625 152.042969 C 353.90625 177.589844 363.523438 197.222656 376.738281 214.660156 C 405.902344 253.128906 451.46875 281.585938 500.429688 335.003906 C 540.296875 378.5 580.273438 444.339844 612.6875 517.382812 C 629.203125 554.597656 643.769531 593.679688 655.382812 632.585938 Z M 655.382812 632.585938 " fill-opacity="1" fill-rule="evenodd"/><path fill="#b1896e" d="M 685.835938 791.980469 C 680.609375 805.929688 671.6875 809.992188 664.597656 792.148438 C 654.339844 766.339844 637.980469 732.660156 619.265625 707.089844 C 574.5 645.90625 544.351562 611.105469 563.535156 585.90625 C 580.75 563.285156 608.265625 576.894531 608.265625 576.894531 C 608.265625 576.894531 611.960938 543.472656 647.898438 543.910156 C 660.472656 544.066406 669.492188 555.507812 675.871094 562.8125 C 682.25 555.507812 691.265625 544.066406 703.84375 543.910156 C 739.78125 543.472656 740.75 577.542969 740.75 577.542969 C 740.75 577.542969 771.410156 564.15625 788.207031 585.90625 C 807.570312 610.976562 777.242188 645.90625 732.472656 707.089844 C 711.824219 735.304688 695.648438 765.820312 685.835938 791.980469 Z M 685.835938 791.980469 " fill-opacity="1" fill-rule="evenodd"/><path fill="#fff7ef" d="M 684.042969 719.238281 C 698.410156 692.632812 701.589844 663.484375 725 613.132812 C 733.84375 594.113281 745.542969 572.085938 761.773438 546.070312 C 799.902344 484.953125 848.882812 405.199219 909.488281 349.707031 C 952.863281 309.992188 1002.203125 282.695312 1057.683594 282.882812 C 1076.871094 282.945312 1098.140625 285.5625 1117.269531 294.441406 C 1134.640625 302.507812 1150.265625 315.699219 1161.035156 336.789062 C 1172.59375 359.445312 1170.125 387.785156 1158.558594 413.273438 C 1147.730469 437.128906 1128.980469 458.445312 1106.84375 470.117188 C 1093.90625 476.945312 1080.414062 482.324219 1066.636719 486.957031 C 1035.023438 497.574219 1001.882812 504.214844 970.597656 515.632812 C 916.492188 535.378906 863.597656 564.070312 815.65625 599.472656 C 767.785156 634.824219 724.851562 676.867188 690.589844 723.386719 C 689.378906 725.03125 687.101562 725.457031 685.382812 724.363281 C 683.660156 723.273438 683.074219 721.035156 684.042969 719.238281 Z M 702.429688 695.574219 C 733.699219 657.621094 770.636719 623.0625 811.046875 593.21875 C 859.585938 557.378906 913.148438 528.328125 967.933594 508.335938 C 999.285156 496.894531 1032.488281 490.234375 1064.167969 479.59375 C 1077.546875 475.09375 1090.65625 469.878906 1103.222656 463.25 C 1123.90625 452.335938 1141.363281 432.359375 1151.484375 410.0625 C 1162.035156 386.8125 1164.660156 360.984375 1154.113281 340.320312 C 1144.246094 320.984375 1129.929688 308.882812 1114 301.484375 C 1095.917969 293.097656 1075.792969 290.707031 1057.652344 290.652344 C 1004.101562 290.472656 956.601562 317.097656 914.730469 355.4375 C 854.644531 410.453125 806.164062 489.585938 768.359375 550.183594 C 752.335938 575.875 740.773438 597.625 732.042969 616.40625 C 716.140625 650.609375 709.515625 675.058594 702.429688 695.574219 Z M 702.429688 695.574219 " fill-opacity="1" fill-rule="evenodd"/><path fill="#fff7ef" d="M 682.820312 723.535156 C 679.894531 688.617188 673.550781 557.433594 685.449219 421.8125 C 691.5 352.855469 702.269531 282.757812 720.5625 223.535156 C 738.496094 165.5 761.453125 119.792969 789.46875 86.527344 C 813.738281 57.699219 841.820312 38.160156 873.75 27.9375 C 914.332031 14.941406 956.984375 20 986.980469 41.046875 C 1016.214844 61.566406 1033.683594 97.21875 1025.53125 146.492188 C 1020.582031 176.410156 1010.378906 199.644531 996.402344 219.941406 C 966.222656 263.796875 918.15625 293.71875 867.65625 348.8125 C 830.050781 389.839844 789.480469 455.523438 756.359375 525.546875 C 724.113281 593.730469 698.925781 666.039062 690.535156 723.769531 C 690.25 725.722656 688.546875 727.15625 686.570312 727.089844 C 684.601562 727.03125 682.984375 725.503906 682.820312 723.535156 Z M 688.597656 691.691406 C 700.183594 639.539062 722.28125 579.441406 749.339844 522.226562 C 782.828125 451.425781 823.910156 385.046875 861.929688 343.5625 C 912.128906 288.792969 960 259.132812 990.007812 215.539062 C 1003.378906 196.109375 1013.132812 173.863281 1017.875 145.222656 C 1025.421875 99.574219 1009.601562 66.414062 982.519531 47.40625 C 954.339844 27.632812 914.242188 23.125 876.117188 35.332031 C 845.53125 45.128906 818.660156 63.910156 795.40625 91.527344 C 767.957031 124.128906 745.554688 168.960938 727.988281 225.828125 C 709.835938 284.566406 699.1875 354.097656 693.1875 422.492188 C 683.683594 530.796875 685.859375 636.25 688.597656 691.691406 Z M 688.597656 691.691406 " fill-opacity="1" fill-rule="evenodd"/><path fill="#fff7ef" d="M 664.011719 723.246094 C 629.75 676.726562 586.8125 634.683594 538.941406 599.332031 C 491 563.929688 438.105469 535.238281 384 515.496094 C 352.714844 504.078125 319.574219 497.441406 287.960938 486.820312 C 274.179688 482.1875 260.691406 476.8125 247.75 469.984375 C 225.617188 458.3125 206.863281 436.996094 196.039062 413.140625 C 184.46875 387.648438 182 359.3125 193.558594 336.652344 C 204.328125 315.566406 219.953125 302.375 237.324219 294.308594 C 256.449219 285.429688 277.722656 282.8125 296.910156 282.746094 C 352.390625 282.558594 401.730469 309.851562 445.109375 349.570312 C 505.714844 405.058594 554.695312 484.8125 592.824219 545.929688 C 609.054688 571.945312 620.757812 593.972656 629.597656 612.992188 C 653.011719 663.339844 656.191406 692.492188 670.558594 719.097656 C 671.527344 720.894531 670.941406 723.128906 669.21875 724.222656 C 667.5 725.3125 665.222656 724.890625 664.011719 723.246094 Z M 652.171875 695.433594 C 645.082031 674.917969 638.457031 650.46875 622.554688 616.265625 C 613.824219 597.484375 602.261719 575.734375 586.238281 550.042969 C 548.433594 489.449219 499.949219 410.3125 439.863281 355.300781 C 397.992188 316.960938 350.492188 290.335938 296.9375 290.515625 C 278.800781 290.574219 258.675781 292.960938 240.59375 301.351562 C 224.664062 308.746094 210.347656 320.847656 200.480469 340.1875 C 189.933594 360.847656 192.558594 386.679688 203.113281 409.929688 C 213.230469 432.226562 230.6875 452.203125 251.375 463.117188 C 263.941406 469.742188 277.046875 474.960938 290.429688 479.457031 C 322.109375 490.101562 355.308594 496.757812 386.664062 508.199219 C 441.449219 528.191406 495.011719 557.238281 543.550781 593.082031 C 583.964844 622.921875 620.898438 657.480469 652.171875 695.433594 Z M 652.171875 695.433594 " fill-opacity="1" fill-rule="evenodd"/><path fill="#fff7ef" d="M 661.207031 723.769531 C 652.8125 666.039062 627.628906 593.730469 595.382812 525.546875 C 562.261719 455.523438 521.691406 389.839844 484.085938 348.8125 C 433.585938 293.71875 385.519531 263.796875 355.335938 219.941406 C 341.363281 199.644531 331.15625 176.410156 326.210938 146.492188 C 318.058594 97.21875 335.527344 61.566406 364.761719 41.046875 C 394.757812 20 437.40625 14.941406 477.992188 27.9375 C 509.921875 38.160156 538 57.699219 562.273438 86.527344 C 590.289062 119.792969 613.246094 165.5 631.179688 223.535156 C 649.472656 282.757812 660.242188 352.855469 666.292969 421.8125 C 678.191406 557.433594 671.847656 688.617188 668.921875 723.535156 C 668.757812 725.503906 667.140625 727.03125 665.171875 727.089844 C 663.195312 727.15625 661.492188 725.722656 661.207031 723.769531 Z M 663.144531 691.691406 C 665.882812 636.25 668.058594 530.796875 658.554688 422.492188 C 652.554688 354.097656 641.90625 284.566406 623.753906 225.828125 C 606.1875 168.960938 583.785156 124.128906 556.332031 91.527344 C 533.078125 63.910156 506.210938 45.128906 475.625 35.332031 C 437.5 23.125 397.402344 27.632812 369.222656 47.40625 C 342.140625 66.414062 326.320312 99.574219 333.867188 145.222656 C 338.609375 173.863281 348.363281 196.109375 361.734375 215.539062 C 391.742188 259.132812 439.609375 288.792969 489.8125 343.5625 C 527.832031 385.046875 568.914062 451.425781 602.398438 522.226562 C 629.460938 579.441406 651.558594 639.539062 663.144531 691.691406 Z M 663.144531 691.691406 " fill-opacity="1" fill-rule="evenodd"/><path fill="#b1896e" d="M 684.972656 793.820312 C 680.207031 807.082031 671.246094 808.242188 665.859375 794.636719 C 664.292969 790.679688 662.691406 786.472656 660.898438 782.152344 C 651.695312 759.960938 638.953125 734.183594 624.703125 713.839844 C 584.226562 656.039062 556.96875 623.160156 574.3125 599.355469 C 589.878906 577.984375 614.757812 590.84375 614.757812 590.84375 C 614.757812 590.84375 618.101562 559.269531 650.59375 559.679688 C 661.960938 559.824219 670.121094 570.636719 675.886719 577.535156 C 681.652344 570.636719 689.804688 559.824219 701.179688 559.679688 C 733.671875 559.269531 734.550781 591.453125 734.550781 591.453125 C 734.550781 591.453125 762.269531 578.808594 777.460938 599.355469 C 794.964844 623.039062 767.546875 656.039062 727.0625 713.839844 C 711.257812 736.414062 698.339844 760.546875 689.371094 782.414062 C 687.78125 786.296875 686.3125 790.105469 684.972656 793.820312 Z M 684.972656 793.820312 " fill-opacity="1" fill-rule="evenodd"/><path fill="#fff7ef" d="M 688.972656 795.261719 C 685.832031 803.996094 680.664062 808.167969 676.042969 808.539062 C 671.246094 808.925781 665.589844 805.503906 661.90625 796.203125 L 656.976562 783.78125 C 652.382812 772.714844 646.90625 760.746094 640.792969 749.015625 C 634.800781 737.511719 628.195312 726.230469 621.226562 716.277344 C 598.140625 683.3125 579.359375 658.359375 570.519531 638.578125 C 563.019531 621.792969 562.484375 608.371094 570.875 596.851562 C 577.175781 588.203125 584.835938 584.496094 592.070312 583.257812 C 599.773438 581.9375 607.023438 583.53125 611.636719 585.042969 C 613.113281 579.664062 616.421875 571.273438 623.574219 564.8125 C 629.550781 559.417969 638.164062 555.273438 650.644531 555.433594 C 655.964844 555.5 660.710938 557.449219 664.917969 560.375 C 669.136719 563.308594 672.78125 567.257812 675.886719 570.90625 C 678.992188 567.257812 682.632812 563.308594 686.855469 560.375 C 691.054688 557.449219 695.808594 555.5 701.121094 555.433594 C 713.78125 555.273438 722.148438 559.597656 727.75 565.191406 C 734.308594 571.738281 736.984375 580.191406 738.070312 585.683594 C 742.847656 584.253906 750.320312 582.6875 758.148438 583.648438 C 766.132812 584.636719 774.472656 588.164062 780.878906 596.828125 C 789.359375 608.304688 788.835938 621.742188 781.304688 638.566406 C 772.4375 658.355469 753.617188 683.335938 730.546875 716.277344 C 723.023438 727.023438 716.160156 738.121094 710.082031 749.15625 C 703.539062 761.03125 697.898438 772.828125 693.304688 784.027344 Z M 680.976562 792.378906 L 685.441406 780.796875 C 690.152344 769.320312 695.929688 757.222656 702.636719 745.054688 C 708.859375 733.757812 715.882812 722.398438 723.582031 711.402344 C 746.253906 679.03125 764.835938 654.535156 773.542969 635.089844 C 779.542969 621.703125 780.792969 611.011719 774.039062 601.878906 C 769.277344 595.429688 763.054688 592.820312 757.101562 592.09375 C 746.300781 590.761719 736.316406 595.316406 736.316406 595.316406 C 735.019531 595.90625 733.511719 595.8125 732.300781 595.058594 C 731.09375 594.304688 730.34375 592.992188 730.304688 591.566406 C 730.304688 591.566406 729.992188 579.441406 721.742188 571.203125 C 717.449219 566.914062 710.941406 563.808594 701.230469 563.933594 C 697.667969 563.980469 694.523438 565.390625 691.707031 567.351562 C 686.554688 570.9375 682.453125 576.304688 679.148438 580.265625 C 678.339844 581.230469 677.140625 581.789062 675.886719 581.789062 C 674.625 581.789062 673.433594 581.230469 672.625 580.265625 C 669.320312 576.304688 665.21875 570.9375 660.058594 567.351562 C 657.246094 565.390625 654.101562 563.980469 650.539062 563.933594 C 640.757812 563.808594 633.953125 566.894531 629.273438 571.121094 C 620.261719 579.261719 618.984375 591.292969 618.984375 591.292969 C 618.835938 592.6875 618.007812 593.921875 616.773438 594.589844 C 615.539062 595.25 614.050781 595.265625 612.804688 594.621094 C 612.804688 594.621094 603.664062 589.898438 593.5 591.636719 C 588.109375 592.5625 582.445312 595.40625 577.742188 601.859375 C 571.058594 611.039062 572.300781 621.730469 578.28125 635.105469 C 586.964844 654.546875 605.503906 679.007812 628.1875 711.402344 C 635.363281 721.644531 642.164062 733.246094 648.332031 745.089844 C 654.5625 757.042969 660.148438 769.242188 664.824219 780.523438 L 669.808594 793.070312 C 670.875 795.765625 672.050781 797.769531 673.375 799.035156 C 674.042969 799.671875 674.667969 800.121094 675.359375 800.0625 C 676.15625 799.996094 676.847656 799.414062 677.566406 798.621094 C 678.867188 797.191406 680.003906 795.082031 680.976562 792.378906 Z M 680.976562 792.378906 " fill-opacity="1" fill-rule="evenodd"/><path fill="#ffbf6e" d="M 1099.386719 329.773438 C 1098.898438 328.75 1098.921875 327.792969 1099.230469 326.910156 C 1099.066406 327.464844 1099.007812 328.0625 1099.089844 328.671875 C 1099.140625 329.058594 1099.242188 329.429688 1099.386719 329.773438 Z M 1101.910156 324.113281 C 1102.785156 323.800781 1103.777344 323.773438 1104.722656 324.101562 C 1105.90625 324.511719 1106.347656 325.105469 1106.550781 325.339844 C 1107.691406 326.65625 1107.726562 327.957031 1107.496094 329.023438 C 1107.277344 330.023438 1106.699219 331.316406 1105 332.039062 C 1104.75 332.144531 1103.460938 332.378906 1103.460938 332.378906 C 1103.460938 332.378906 1103.753906 332.359375 1103.847656 332.347656 C 1102.703125 332.492188 1101.601562 332.167969 1100.742188 331.519531 C 1100.695312 331.484375 1100.652344 331.449219 1100.609375 331.414062 C 1100.082031 330.980469 1099.65625 330.421875 1099.386719 329.773438 C 1099.480469 329.980469 1099.605469 330.191406 1099.75 330.40625 C 1099.074219 329.347656 1098.871094 328 1099.3125 326.726562 C 1099.34375 326.640625 1099.375 326.558594 1099.40625 326.476562 C 1099.34375 326.621094 1099.285156 326.765625 1099.230469 326.910156 C 1099.621094 325.621094 1100.609375 324.5625 1101.910156 324.113281 Z M 1101.910156 324.113281 " fill-opacity="1" fill-rule="evenodd"/><path fill="#ffbf6e" d="M 1089.6875 318.257812 C 1089.679688 318.246094 1089.675781 318.234375 1089.667969 318.222656 C 1088.621094 316.121094 1089.476562 313.566406 1091.582031 312.523438 C 1093.683594 311.476562 1096.238281 312.335938 1097.28125 314.433594 L 1097.539062 315.03125 C 1098.316406 317.246094 1097.152344 319.671875 1094.9375 320.453125 C 1092.867188 321.179688 1090.601562 320.203125 1089.6875 318.257812 Z M 1089.6875 318.257812 " fill-opacity="1" fill-rule="evenodd"/><path fill="#ffbf6e" d="M 1083.535156 339.148438 C 1081.617188 340.230469 1079.15625 339.667969 1077.914062 337.808594 C 1076.605469 335.859375 1077.128906 333.21875 1079.082031 331.910156 C 1079.027344 331.945312 1078.925781 332.019531 1078.925781 332.019531 C 1078.925781 332.019531 1080.484375 331.171875 1081.335938 331.125 C 1083.683594 330.988281 1085.695312 332.78125 1085.828125 335.121094 C 1085.929688 336.851562 1084.976562 338.402344 1083.535156 339.148438 Z M 1083.535156 339.148438 " fill-opacity="1" fill-rule="evenodd"/><path fill="#ffbf6e" d="M 1069.085938 318.722656 C 1070.359375 320.335938 1070.304688 322.679688 1068.867188 324.234375 C 1067.273438 325.957031 1064.578125 326.0625 1062.859375 324.46875 C 1062.601562 324.226562 1062.183594 323.675781 1062.183594 323.675781 C 1062.183594 323.675781 1062.257812 323.789062 1062.300781 323.84375 C 1060.890625 321.972656 1061.265625 319.304688 1063.136719 317.890625 C 1065.003906 316.476562 1067.675781 316.847656 1069.085938 318.722656 Z M 1069.085938 318.722656 " fill-opacity="1" fill-rule="evenodd"/><path fill="#ffbf6e" d="M 1041.042969 346.191406 C 1040.222656 344.046875 1041.261719 341.625 1043.394531 340.746094 C 1045.5625 339.847656 1048.050781 340.882812 1048.945312 343.050781 L 1049.160156 343.660156 C 1049.808594 345.917969 1048.5 348.273438 1046.242188 348.917969 C 1044.050781 349.546875 1041.765625 348.332031 1041.042969 346.191406 Z M 1041.042969 346.191406 " fill-opacity="1" fill-rule="evenodd"/><path fill="#ffbf6e" d="M 1025.894531 329.296875 C 1026.347656 329.78125 1026.691406 330.378906 1026.878906 331.0625 C 1027.507812 333.324219 1026.175781 335.667969 1023.914062 336.292969 C 1022.960938 336.554688 1021.886719 336.535156 1020.792969 335.957031 C 1020.296875 335.695312 1019.0625 334.320312 1019.0625 334.320312 C 1019.0625 334.320312 1019.214844 334.550781 1019.257812 334.609375 C 1017.84375 332.738281 1018.210938 330.070312 1020.078125 328.652344 C 1021.886719 327.28125 1024.445312 327.582031 1025.894531 329.296875 Z M 1024.167969 328.175781 C 1023.285156 327.859375 1022.429688 327.882812 1021.648438 328.097656 C 1022.515625 327.859375 1023.386719 327.90625 1024.167969 328.175781 Z M 1024.167969 328.175781 " fill-opacity="1" fill-rule="evenodd"/><path fill="#ffbf6e" d="M 1002.074219 337.277344 C 1002.070312 337.257812 1002.066406 337.238281 1002.058594 337.222656 C 1001.5 334.945312 1002.902344 332.640625 1005.183594 332.085938 C 1007.460938 331.527344 1009.761719 332.929688 1010.320312 335.207031 C 1010.304688 335.152344 1010.277344 335.039062 1010.277344 335.039062 C 1010.277344 335.039062 1010.453125 335.785156 1010.472656 336.136719 C 1010.605469 338.480469 1008.816406 340.492188 1006.476562 340.628906 C 1004.351562 340.75 1002.507812 339.292969 1002.074219 337.277344 Z M 1002.074219 337.277344 " fill-opacity="1" fill-rule="evenodd"/><path fill="#ffbf6e" d="M 998.261719 350.523438 C 1000.214844 350.199219 1002.1875 351.28125 1002.921875 353.199219 C 1003.757812 355.390625 1002.660156 357.851562 1000.46875 358.6875 L 999.105469 358.976562 C 996.765625 359.128906 994.742188 357.351562 994.589844 355.011719 C 994.445312 352.769531 996.066406 350.816406 998.261719 350.523438 Z M 998.261719 350.523438 " fill-opacity="1" fill-rule="evenodd"/><path fill="#ffbf6e" d="M 982.425781 357.308594 C 982.488281 357.402344 982.550781 357.5 982.609375 357.601562 C 983.785156 359.628906 983.101562 362.234375 981.074219 363.414062 C 981.035156 363.433594 977.449219 365.074219 975.421875 362.132812 C 975.390625 362.085938 975.316406 361.976562 975.304688 361.964844 C 973.972656 360.035156 974.453125 357.382812 976.386719 356.046875 C 978.316406 354.714844 980.960938 355.195312 982.296875 357.125 C 982.308594 357.140625 982.425781 357.308594 982.425781 357.308594 Z M 982.425781 357.308594 " fill-opacity="1" fill-rule="evenodd"/><path fill="#ffbf6e" d="M 958.234375 361.511719 C 958.578125 361.761719 958.894531 362.070312 959.160156 362.429688 C 959.425781 362.789062 959.539062 363.035156 959.589844 363.148438 C 960.234375 364.5 960.007812 365.476562 959.894531 365.949219 C 959.675781 366.894531 959.203125 367.585938 958.628906 368.113281 C 958.144531 368.558594 955.71875 370.375 953.109375 368.308594 C 953.023438 368.238281 952.699219 367.9375 952.699219 367.9375 C 951.078125 366.332031 951.007812 363.714844 952.570312 362.03125 C 954.0625 360.417969 956.515625 360.222656 958.234375 361.511719 Z M 952.035156 367.035156 C 952.097656 367.152344 952.1875 367.300781 952.320312 367.484375 C 952.214844 367.339844 952.121094 367.1875 952.035156 367.035156 Z M 952.035156 367.035156 " fill-opacity="1" fill-rule="evenodd"/><path fill="#ffbf6e" d="M 947.355469 381.722656 C 947.585938 381.617188 947.824219 381.472656 948.085938 381.28125 C 947.761719 381.519531 947.414062 381.707031 947.058594 381.839844 C 946.9375 381.886719 946.808594 381.921875 946.679688 381.957031 C 946.761719 381.9375 946.835938 381.917969 946.910156 381.894531 C 945.210938 382.464844 943.265625 381.910156 942.140625 380.390625 C 940.75 378.503906 941.140625 375.839844 943.03125 374.445312 C 943.792969 373.882812 944.382812 373.703125 945.078125 373.613281 C 945.515625 373.558594 946.011719 373.554688 946.605469 373.695312 C 948.890625 374.226562 950.316406 376.515625 949.777344 378.800781 C 949.464844 380.152344 948.53125 381.203125 947.355469 381.722656 Z M 947.355469 381.722656 C 947.203125 381.792969 947.058594 381.851562 946.910156 381.894531 C 946.957031 381.878906 947.011719 381.859375 947.058594 381.839844 C 947.160156 381.804688 947.261719 381.765625 947.355469 381.722656 Z M 945.402344 382.078125 C 945.160156 382.066406 944.914062 382.03125 944.675781 381.972656 C 944.9375 382.035156 945.175781 382.066406 945.402344 382.078125 Z M 945.402344 382.078125 " fill-opacity="1" fill-rule="evenodd"/><path fill="#ffbf6e" d="M 915.855469 388.277344 C 917.441406 389.589844 917.871094 391.902344 916.785156 393.722656 C 915.582031 395.738281 912.972656 396.394531 910.960938 395.191406 L 909.660156 394.09375 C 908.054688 392.386719 908.132812 389.691406 909.84375 388.085938 C 911.554688 386.480469 914.242188 386.5625 915.851562 388.269531 C 915.855469 388.273438 915.855469 388.273438 915.855469 388.277344 Z M 915.855469 388.277344 " fill-opacity="1" fill-rule="evenodd"/><path fill="#ffbf6e" d="M 898.785156 400.734375 C 900.09375 401.625 900.847656 403.210938 900.597656 404.875 C 900.253906 407.195312 898.09375 408.800781 895.773438 408.457031 C 894.9375 408.332031 893.378906 407.277344 893.378906 407.277344 C 893.378906 407.277344 893.601562 407.472656 893.707031 407.554688 C 891.828125 406.148438 891.445312 403.484375 892.851562 401.601562 C 894.25 399.730469 896.910156 399.339844 898.785156 400.734375 Z M 898.785156 400.734375 " fill-opacity="1" fill-rule="evenodd"/><path fill="#ffbf6e" d="M 876.15625 425.289062 C 877.21875 427.175781 876.683594 429.601562 874.871094 430.859375 C 872.945312 432.195312 870.292969 431.714844 868.957031 429.789062 L 868.394531 428.722656 C 867.5625 426.527344 868.671875 424.074219 870.867188 423.242188 C 872.910156 422.46875 875.183594 423.382812 876.15625 425.289062 Z M 876.15625 425.289062 " fill-opacity="1" fill-rule="evenodd"/><path fill="#ffbf6e" d="M 1119.015625 342.726562 C 1119.117188 342.664062 1119.277344 342.570312 1119.375 342.523438 C 1121.46875 341.472656 1124.023438 342.324219 1125.078125 344.421875 C 1126.105469 346.472656 1125.3125 348.960938 1123.320312 350.054688 C 1123.214844 350.113281 1123.050781 350.207031 1122.949219 350.257812 C 1120.851562 351.308594 1118.296875 350.457031 1117.25 348.359375 C 1116.222656 346.304688 1117.015625 343.816406 1119.015625 342.726562 Z M 1119.015625 342.726562 " fill-opacity="1" fill-rule="evenodd"/><path fill="#ffbf6e" d="M 1130.289062 332.691406 C 1130.457031 334.679688 1129.195312 336.574219 1127.199219 337.132812 C 1124.945312 337.769531 1122.597656 336.449219 1121.960938 334.191406 C 1121.847656 333.78125 1121.792969 332.882812 1121.792969 332.882812 C 1121.792969 330.59375 1123.609375 328.703125 1125.914062 328.632812 C 1128.238281 328.558594 1130.1875 330.375 1130.289062 332.691406 Z M 1130.289062 332.691406 " fill-opacity="1" fill-rule="evenodd"/><path fill="#ffbf6e" d="M 1137.566406 346.324219 C 1139.371094 345.332031 1141.675781 345.769531 1142.972656 347.441406 C 1144.410156 349.296875 1144.074219 351.96875 1142.222656 353.40625 L 1141.234375 353.992188 C 1139.082031 354.929688 1136.578125 353.949219 1135.636719 351.796875 C 1134.734375 349.734375 1135.601562 347.34375 1137.566406 346.324219 Z M 1137.566406 346.324219 " fill-opacity="1" fill-rule="evenodd"/><path fill="#ffbf6e" d="M 968.109375 62.597656 C 968.195312 60.28125 970.132812 58.453125 972.457031 58.507812 C 974.804688 58.5625 976.667969 60.511719 976.609375 62.859375 L 976.59375 63.195312 C 976.390625 65.53125 974.324219 67.265625 971.988281 67.066406 C 969.695312 66.867188 967.988281 64.878906 968.109375 62.597656 Z M 968.109375 62.597656 " fill-opacity="1" fill-rule="evenodd"/><path fill="#ffbf6e" d="M 954.90625 68.792969 C 955.3125 66.5625 957.414062 65.027344 959.675781 65.34375 C 962 65.667969 963.625 67.816406 963.300781 70.140625 L 962.980469 71.355469 C 962.074219 73.519531 959.578125 74.542969 957.417969 73.636719 C 955.492188 72.832031 954.472656 70.765625 954.90625 68.792969 Z M 954.90625 68.792969 " fill-opacity="1" fill-rule="evenodd"/><path fill="#ffbf6e" d="M 951.796875 47.019531 C 952.179688 47.960938 952.21875 49.042969 951.84375 50.074219 C 951.035156 52.273438 948.585938 53.40625 946.386719 52.597656 C 945.632812 52.320312 945.054688 51.882812 944.59375 51.34375 C 944.101562 50.753906 943.609375 49.085938 943.609375 49.085938 C 943.609375 49.085938 943.644531 49.308594 943.664062 49.40625 C 943.183594 47.109375 944.660156 44.855469 946.953125 44.375 C 949.027344 43.941406 951.066406 45.101562 951.796875 47.019531 Z M 950.519531 45.292969 C 950.175781 45.015625 949.785156 44.785156 949.320312 44.617188 C 949.769531 44.78125 950.167969 45.011719 950.519531 45.292969 Z M 950.519531 45.292969 " fill-opacity="1" fill-rule="evenodd"/><path fill="#ffbf6e" d="M 916.75 53.011719 C 917.460938 54.59375 917.152344 56.519531 915.839844 57.804688 C 914.164062 59.441406 911.46875 59.410156 909.832031 57.730469 C 909.484375 57.378906 908.667969 55.449219 908.667969 55.449219 C 908.667969 55.449219 908.921875 56.300781 909.054688 56.558594 C 907.972656 54.480469 908.78125 51.910156 910.859375 50.824219 C 912.9375 49.742188 915.507812 50.546875 916.59375 52.628906 C 916.636719 52.710938 916.691406 52.851562 916.75 53.011719 Z M 916.75 53.011719 " fill-opacity="1" fill-rule="evenodd"/><path fill="#ffbf6e" d="M 897.34375 48.171875 C 896.410156 46.054688 897.351562 43.566406 899.464844 42.597656 C 901.597656 41.621094 904.125 42.5625 905.101562 44.695312 L 905.207031 44.945312 C 906.074219 47.125 905.011719 49.597656 902.832031 50.46875 C 900.679688 51.328125 898.242188 50.296875 897.34375 48.171875 Z M 897.34375 48.171875 " fill-opacity="1" fill-rule="evenodd"/><path fill="#ffbf6e" d="M 926.53125 61.402344 C 927.066406 59.378906 929.035156 58.015625 931.167969 58.289062 C 933.5 58.585938 935.144531 60.71875 934.847656 63.042969 L 934.507812 64.269531 C 933.558594 66.417969 931.046875 67.386719 928.898438 66.4375 C 926.945312 65.570312 925.960938 63.40625 926.53125 61.402344 Z M 926.53125 61.402344 " fill-opacity="1" fill-rule="evenodd"/><path fill="#ffbf6e" d="M 890.28125 75.816406 C 890.5 73.5625 892.460938 71.855469 894.746094 71.980469 C 897.050781 72.105469 898.832031 74.050781 898.761719 76.347656 C 898.761719 76.347656 898.671875 77.273438 898.523438 77.699219 C 897.769531 79.917969 895.347656 81.105469 893.128906 80.34375 C 891.195312 79.683594 890.046875 77.765625 890.28125 75.816406 Z M 890.28125 75.816406 " fill-opacity="1" fill-rule="evenodd"/><path fill="#ffbf6e" d="M 888.976562 45.601562 C 888.992188 45.765625 889.019531 46.019531 889.019531 46.175781 C 889.046875 48.523438 887.167969 50.449219 884.820312 50.476562 C 882.542969 50.503906 880.660156 48.730469 880.527344 46.480469 C 880.511719 46.308594 880.484375 46.035156 880.484375 45.863281 C 880.472656 43.515625 882.375 41.605469 884.71875 41.597656 C 886.988281 41.589844 888.847656 43.363281 888.976562 45.601562 Z M 888.976562 45.601562 " fill-opacity="1" fill-rule="evenodd"/><path fill="#ffbf6e" d="M 869.75 62.769531 C 870.625 64.492188 870.234375 66.652344 868.691406 67.945312 C 866.898438 69.453125 864.210938 69.222656 862.707031 67.425781 L 861.847656 65.859375 C 861.125 63.625 862.355469 61.226562 864.585938 60.507812 C 866.65625 59.835938 868.863281 60.839844 869.75 62.769531 Z M 869.75 62.769531 " fill-opacity="1" fill-rule="evenodd"/><path fill="#ffbf6e" d="M 837.140625 80.851562 C 836.476562 78.691406 837.625 76.367188 839.777344 75.597656 C 841.984375 74.808594 844.421875 75.960938 845.210938 78.171875 L 845.421875 78.917969 C 845.949219 81.203125 844.519531 83.488281 842.234375 84.015625 C 839.957031 84.539062 837.679688 83.125 837.140625 80.851562 Z M 837.140625 80.851562 " fill-opacity="1" fill-rule="evenodd"/><path fill="#ffbf6e" d="M 858.019531 100.203125 C 858.328125 101.734375 857.773438 103.382812 856.457031 104.40625 C 854.601562 105.84375 851.929688 105.507812 850.492188 103.65625 C 850 103.019531 849.558594 100.964844 849.558594 100.964844 C 849.558594 100.964844 849.566406 101.140625 849.574219 101.214844 C 849.324219 98.882812 851.011719 96.78125 853.339844 96.53125 C 855.644531 96.28125 857.714844 97.917969 858.019531 100.203125 Z M 858.019531 100.203125 " fill-opacity="1" fill-rule="evenodd"/><path fill="#ffbf6e" d="M 816.199219 111.128906 C 815.5 109.515625 815.855469 107.566406 817.226562 106.308594 C 818.949219 104.722656 821.640625 104.835938 823.226562 106.5625 C 823.523438 106.882812 823.78125 107.257812 823.984375 107.675781 C 824.183594 108.097656 824.328125 108.585938 824.402344 109.007812 C 824.808594 111.320312 823.257812 113.523438 820.949219 113.929688 C 818.863281 114.292969 816.867188 113.070312 816.199219 111.128906 Z M 816.199219 111.128906 " fill-opacity="1" fill-rule="evenodd"/><path fill="#ffbf6e" d="M 803.574219 128.460938 C 802.277344 127.238281 801.839844 125.273438 802.632812 123.570312 C 803.625 121.441406 806.152344 120.519531 808.28125 121.507812 C 809.15625 121.914062 810.441406 123.710938 810.441406 123.710938 C 810.441406 123.710938 809.683594 122.554688 809.179688 122.183594 C 811.066406 123.578125 811.46875 126.242188 810.066406 128.128906 C 808.671875 130.015625 806.007812 130.414062 804.125 129.019531 C 803.953125 128.890625 803.761719 128.6875 803.574219 128.460938 Z M 803.574219 128.460938 " fill-opacity="1" fill-rule="evenodd"/><path fill="#ffbf6e" d="M 799.203125 129.691406 C 797.8125 131.585938 795.152344 132 793.257812 130.617188 C 791.363281 129.230469 790.953125 126.566406 792.335938 124.675781 L 792.359375 124.644531 C 793.742188 122.75 796.402344 122.335938 798.296875 123.722656 C 800.191406 125.105469 800.605469 127.765625 799.222656 129.660156 Z M 799.203125 129.691406 " fill-opacity="1" fill-rule="evenodd"/><path fill="#ffbf6e" d="M 795.886719 141.320312 C 796.902344 139.207031 799.445312 138.3125 801.558594 139.328125 C 803.675781 140.34375 804.566406 142.882812 803.554688 145 L 803.550781 145.011719 C 802.53125 147.125 799.996094 148.019531 797.875 147.003906 C 795.765625 145.988281 794.871094 143.449219 795.886719 141.332031 Z M 795.886719 141.320312 " fill-opacity="1" fill-rule="evenodd"/><path fill="#ffbf6e" d="M 781.332031 156.324219 C 781.339844 156.238281 781.347656 156.15625 781.359375 156.070312 C 781.355469 156.09375 781.355469 156.113281 781.355469 156.136719 C 781.53125 154.671875 782.460938 153.339844 783.914062 152.726562 C 783.582031 152.867188 783.289062 153.023438 783.035156 153.195312 C 784.519531 152.09375 786.613281 152.050781 788.148438 153.226562 C 789.355469 154.144531 789.808594 155.449219 789.835938 156.527344 C 789.867188 157.929688 789.441406 159.617188 787.230469 160.554688 C 785.066406 161.46875 782.574219 160.460938 781.65625 158.300781 C 781.386719 157.652344 781.285156 156.976562 781.332031 156.324219 Z M 781.359375 156.070312 C 781.449219 155.058594 781.859375 153.984375 783.035156 153.195312 C 782.726562 153.425781 782.441406 153.707031 782.195312 154.03125 C 781.722656 154.648438 781.449219 155.351562 781.359375 156.070312 Z M 782.089844 159.039062 C 782.324219 159.378906 782.625 159.703125 783 159.988281 C 782.636719 159.714844 782.332031 159.390625 782.089844 159.039062 Z M 782.089844 159.039062 " fill-opacity="1" fill-rule="evenodd"/><path fill="#ffbf6e" d="M 778.011719 184.398438 C 778.011719 184.398438 778.21875 184.382812 778.285156 184.375 C 778.191406 184.386719 778.101562 184.394531 778.011719 184.398438 Z M 776.4375 176.125 C 777.515625 175.742188 778.75 175.792969 779.84375 176.371094 C 781.148438 177.058594 781.539062 177.933594 781.753906 178.40625 C 782.433594 179.933594 782.214844 181.285156 781.414062 182.496094 C 781.09375 182.972656 778.011719 184.398438 778.011719 184.398438 C 775.792969 184.511719 773.835938 182.875 773.578125 180.632812 C 773.34375 178.609375 774.578125 176.75 776.4375 176.125 Z M 773.914062 178.550781 C 773.542969 179.410156 773.46875 180.332031 773.785156 181.335938 C 773.519531 180.445312 773.546875 179.464844 773.914062 178.550781 Z M 774.105469 182.128906 C 774.347656 182.613281 774.796875 183.320312 775.871094 183.890625 C 775.097656 183.476562 774.496094 182.855469 774.105469 182.128906 Z M 774.105469 182.128906 " fill-opacity="1" fill-rule="evenodd"/><path fill="#ffbf6e" d="M 754.671875 208.890625 C 754.964844 206.5625 757.097656 204.914062 759.425781 205.210938 C 761.75 205.507812 763.398438 207.636719 763.105469 209.964844 L 763.101562 209.980469 C 762.808594 212.308594 760.675781 213.957031 758.351562 213.660156 C 756.023438 213.367188 754.375 211.234375 754.671875 208.90625 Z M 754.671875 208.890625 " fill-opacity="1" fill-rule="evenodd"/><path fill="#ffbf6e" d="M 373.019531 77.808594 C 373.171875 75.511719 375.140625 73.746094 377.453125 73.851562 C 379.792969 73.957031 381.613281 75.945312 381.507812 78.292969 L 381.484375 78.558594 C 381.25 80.894531 379.160156 82.597656 376.828125 82.359375 C 374.53125 82.128906 372.84375 80.097656 373.019531 77.808594 Z M 373.019531 77.808594 " fill-opacity="1" fill-rule="evenodd"/><path fill="#ffbf6e" d="M 390.628906 56.054688 C 390.144531 53.808594 391.539062 51.570312 393.78125 51.027344 C 396.066406 50.476562 398.363281 51.882812 398.914062 54.164062 C 398.898438 54.078125 398.84375 53.902344 398.84375 53.902344 C 398.84375 53.902344 399.121094 55.359375 399.003906 56.042969 C 398.605469 58.355469 396.402344 59.910156 394.089844 59.507812 C 392.277344 59.195312 390.929688 57.769531 390.628906 56.054688 Z M 390.628906 56.054688 " fill-opacity="1" fill-rule="evenodd"/><path fill="#ffbf6e" d="M 398.527344 76.035156 C 399.269531 78.261719 398.0625 80.667969 395.835938 81.410156 C 393.613281 82.148438 391.203125 80.941406 390.460938 78.714844 L 390.261719 78.027344 C 389.71875 75.746094 391.128906 73.449219 393.410156 72.90625 C 395.691406 72.359375 397.988281 73.769531 398.527344 76.054688 Z M 398.527344 76.035156 " fill-opacity="1" fill-rule="evenodd"/><path fill="#ffbf6e" d="M 418.261719 53.152344 C 418.238281 53.039062 418.1875 52.816406 418.1875 52.816406 C 418.1875 52.816406 418.222656 52.96875 418.261719 53.152344 C 418.292969 53.300781 418.324219 53.472656 418.339844 53.585938 C 418.597656 55.921875 416.914062 58.023438 414.582031 58.285156 C 412.375 58.53125 410.375 57.035156 409.949219 54.898438 C 409.925781 54.8125 409.90625 54.722656 409.894531 54.660156 C 409.480469 52.347656 411.011719 50.136719 413.324219 49.71875 C 415.632812 49.304688 417.84375 50.839844 418.261719 53.152344 Z M 418.261719 53.152344 " fill-opacity="1" fill-rule="evenodd"/><path fill="#ffbf6e" d="M 437.585938 43.210938 C 437.421875 45.09375 436.007812 46.703125 434.058594 47.03125 C 431.746094 47.417969 429.550781 45.855469 429.164062 43.542969 C 429.0625 42.949219 429.085938 42.53125 429.152344 42.089844 C 429.226562 41.65625 429.355469 41.195312 429.664062 40.652344 C 430.8125 38.609375 433.410156 37.886719 435.453125 39.042969 C 436.980469 39.902344 437.769531 41.570312 437.585938 43.210938 Z M 437.378906 44.140625 C 437.296875 44.378906 437.195312 44.609375 437.066406 44.835938 C 437.203125 44.585938 437.304688 44.359375 437.378906 44.140625 Z M 437.605469 42.789062 C 437.605469 42.589844 437.585938 42.378906 437.546875 42.132812 C 437.582031 42.351562 437.605469 42.570312 437.605469 42.789062 Z M 437.605469 42.789062 " fill-opacity="1" fill-rule="evenodd"/><path fill="#ffbf6e" d="M 451.554688 46.566406 C 450.417969 44.554688 451.097656 41.988281 453.097656 40.8125 C 455.117188 39.621094 457.730469 40.292969 458.914062 42.3125 L 459.214844 42.867188 C 460.207031 44.992188 459.296875 47.527344 457.175781 48.527344 C 455.078125 49.511719 452.582031 48.632812 451.554688 46.566406 Z M 451.554688 46.566406 " fill-opacity="1" fill-rule="evenodd"/><path fill="#ffbf6e" d="M 433.707031 60.601562 C 435.527344 60.777344 437.09375 62.125 437.464844 64.007812 C 437.917969 66.3125 436.421875 68.550781 434.117188 69.003906 C 433.566406 69.113281 433.179688 69.105469 432.804688 69.066406 C 432.410156 69.023438 432 68.949219 431.429688 68.6875 C 429.296875 67.707031 428.359375 65.183594 429.339844 63.050781 C 430.128906 61.328125 431.925781 60.386719 433.707031 60.601562 Z M 434.222656 60.695312 C 434.480469 60.757812 434.730469 60.847656 434.976562 60.960938 C 434.691406 60.828125 434.449219 60.75 434.222656 60.695312 Z M 433.144531 60.582031 C 432.949219 60.589844 432.730469 60.609375 432.46875 60.664062 C 432.699219 60.617188 432.921875 60.59375 433.144531 60.582031 Z M 433.144531 60.582031 " fill-opacity="1" fill-rule="evenodd"/><path fill="#ffbf6e" d="M 446.585938 66.265625 C 445.863281 64.148438 446.910156 61.808594 449.007812 60.953125 C 451.179688 60.066406 453.664062 61.113281 454.546875 63.289062 C 454.484375 63.125 454.296875 62.78125 454.296875 62.78125 C 454.296875 62.78125 454.96875 65.507812 454.710938 66.304688 C 454.433594 67.175781 453.917969 67.953125 453.023438 68.554688 C 451.070312 69.863281 448.433594 69.34375 447.125 67.394531 C 446.882812 67.039062 446.707031 66.65625 446.585938 66.265625 Z M 446.820312 63.1875 C 447.140625 62.523438 447.632812 61.933594 448.285156 61.496094 C 447.585938 61.964844 447.125 62.542969 446.820312 63.1875 Z M 446.820312 63.1875 " fill-opacity="1" fill-rule="evenodd"/><path fill="#ffbf6e" d="M 485.570312 50.171875 C 485.660156 50.390625 485.722656 50.609375 485.746094 50.8125 C 485.96875 53.148438 484.261719 55.226562 481.925781 55.457031 C 480.082031 55.632812 478.398438 54.605469 477.65625 53.015625 C 477.550781 52.855469 477.464844 52.699219 477.417969 52.558594 C 477.125 51.742188 477.007812 50.777344 477.453125 49.601562 C 478.285156 47.410156 480.742188 46.304688 482.9375 47.140625 C 484.3125 47.664062 485.261719 48.832031 485.570312 50.171875 Z M 485.605469 50.359375 C 485.738281 51.09375 485.679688 51.875 485.398438 52.625 C 485.722656 51.765625 485.738281 51.015625 485.605469 50.359375 Z M 485.558594 50.148438 C 485.523438 50.003906 485.480469 49.863281 485.429688 49.726562 C 485.128906 48.871094 483.488281 47.4375 483.488281 47.4375 C 483.488281 47.4375 485.015625 48.871094 485.558594 50.148438 Z M 485.558594 50.148438 " fill-opacity="1" fill-rule="evenodd"/><path fill="#ffbf6e" d="M 488.453125 65.773438 C 488.652344 65.582031 488.859375 65.390625 489.023438 65.28125 C 490.972656 63.972656 493.617188 64.492188 494.917969 66.441406 C 496.117188 68.226562 495.78125 70.597656 494.21875 71.984375 C 494.046875 72.160156 493.867188 72.335938 493.722656 72.441406 C 491.832031 73.835938 489.171875 73.4375 487.777344 71.550781 C 486.4375 69.738281 486.757812 67.207031 488.453125 65.773438 Z M 488.453125 65.773438 " fill-opacity="1" fill-rule="evenodd"/><path fill="#ffbf6e" d="M 471.765625 89.273438 C 473.058594 90.882812 473.015625 93.242188 471.582031 94.808594 C 469.996094 96.535156 467.300781 96.652344 465.578125 95.066406 L 464.609375 93.800781 C 463.539062 91.714844 464.363281 89.148438 466.449219 88.078125 C 468.308594 87.125 470.542969 87.671875 471.765625 89.273438 Z M 471.765625 89.273438 " fill-opacity="1" fill-rule="evenodd"/><path fill="#ffbf6e" d="M 526.261719 86.285156 C 527.789062 87.9375 527.769531 90.519531 526.175781 92.148438 C 524.539062 93.824219 521.84375 93.851562 520.167969 92.210938 L 519.441406 91.355469 C 518.105469 89.429688 518.582031 86.777344 520.507812 85.4375 C 522.359375 84.152344 524.878906 84.542969 526.261719 86.285156 Z M 526.261719 86.285156 " fill-opacity="1" fill-rule="evenodd"/><path fill="#ffbf6e" d="M 515.070312 101.125 C 516.878906 102.539062 517.242188 105.148438 515.871094 107.003906 C 514.46875 108.890625 511.804688 109.285156 509.921875 107.890625 L 508.617188 106.648438 C 507.152344 104.8125 507.460938 102.132812 509.296875 100.675781 C 511.054688 99.28125 513.574219 99.5 515.070312 101.125 Z M 515.070312 101.125 " fill-opacity="1" fill-rule="evenodd"/><path fill="#ffbf6e" d="M 542.269531 112.835938 C 542.316406 112.917969 542.363281 112.996094 542.394531 113.054688 C 543.472656 115.140625 542.65625 117.707031 540.574219 118.785156 C 538.488281 119.867188 535.925781 119.050781 534.84375 116.964844 C 534.894531 117.054688 534.992188 117.226562 534.992188 117.226562 C 534.992188 117.226562 534.316406 115.992188 534.195312 115.292969 C 533.796875 112.980469 535.351562 110.777344 537.660156 110.375 C 539.617188 110.035156 541.496094 111.097656 542.269531 112.835938 Z M 542.269531 112.835938 " fill-opacity="1" fill-rule="evenodd"/><path fill="#ffbf6e" d="M 545.839844 130.929688 C 545.875 130.992188 545.90625 131.054688 545.929688 131.105469 C 546.929688 133.226562 546.015625 135.761719 543.890625 136.757812 C 541.769531 137.753906 539.230469 136.839844 538.234375 134.714844 C 538.292969 134.84375 538.4375 135.085938 538.4375 135.085938 C 538.4375 135.085938 537.660156 133.515625 537.632812 132.589844 C 537.570312 130.246094 539.425781 128.289062 541.769531 128.226562 C 543.609375 128.179688 545.207031 129.308594 545.839844 130.929688 Z M 545.839844 130.929688 " fill-opacity="1" fill-rule="evenodd"/><path fill="#ffbf6e" d="M 568.183594 144.070312 C 569.285156 144.992188 569.894531 146.453125 569.664062 147.976562 C 569.3125 150.296875 567.140625 151.890625 564.820312 151.539062 C 564.277344 151.457031 563.777344 151.277344 563.3125 151.015625 C 562.8125 150.730469 561.953125 149.824219 561.953125 149.824219 C 561.953125 149.824219 562.042969 149.933594 562.089844 149.984375 C 560.535156 148.226562 560.699219 145.535156 562.457031 143.984375 C 564.117188 142.519531 566.601562 142.582031 568.183594 144.070312 Z M 568.183594 144.070312 " fill-opacity="1" fill-rule="evenodd"/><path fill="#ffbf6e" d="M 559.832031 161.5 C 561.191406 162.003906 562.253906 163.191406 562.535156 164.71875 C 562.957031 167.027344 561.429688 169.246094 559.121094 169.667969 C 558.449219 169.792969 557.796875 169.757812 557.164062 169.589844 C 556.5625 169.425781 555.949219 169.105469 555.460938 168.71875 C 553.613281 167.273438 553.289062 164.597656 554.734375 162.753906 C 555.964844 161.179688 558.089844 160.710938 559.832031 161.5 Z M 559.832031 161.5 " fill-opacity="1" fill-rule="evenodd"/><path fill="#ffbf6e" d="M 581.933594 169.984375 C 583.296875 170.976562 583.992188 172.726562 583.5625 174.457031 C 582.992188 176.734375 580.683594 178.121094 578.40625 177.550781 C 577.703125 177.375 576.421875 176.433594 576.421875 176.433594 C 574.792969 174.855469 574.683594 172.257812 576.207031 170.550781 C 577.691406 168.890625 580.1875 168.667969 581.933594 169.984375 Z M 581.933594 169.984375 " fill-opacity="1" fill-rule="evenodd"/><path fill="#ffbf6e" d="M 592.453125 211.976562 C 592.453125 211.976562 592.730469 212.269531 592.785156 212.316406 C 592.667969 212.210938 592.558594 212.09375 592.453125 211.976562 Z M 598.257812 205.820312 C 599.605469 206.832031 600.277344 208.59375 599.8125 210.320312 C 599.519531 211.414062 598.933594 212.09375 598.332031 212.570312 C 597.457031 213.257812 596.378906 213.625 595.082031 213.433594 C 594.535156 213.351562 592.453125 211.976562 592.453125 211.976562 C 591.054688 210.363281 591.058594 207.917969 592.542969 206.308594 C 594.042969 204.679688 596.535156 204.492188 598.257812 205.820312 Z M 595.785156 204.972656 C 594.726562 204.9375 593.832031 205.292969 593.082031 205.882812 C 593.835938 205.285156 594.792969 204.953125 595.785156 204.972656 Z M 593.066406 205.894531 C 592.46875 206.367188 591.890625 207.046875 591.601562 208.128906 C 591.847656 207.210938 592.375 206.441406 593.066406 205.894531 Z M 593.066406 205.894531 " fill-opacity="1" fill-rule="evenodd"/><path fill="#ffbf6e" d="M 455.238281 400.773438 C 455.238281 400.773438 456.101562 400.808594 456.296875 400.847656 C 457.402344 401.0625 458.058594 401.601562 458.40625 401.929688 C 459.363281 402.832031 459.714844 403.878906 459.742188 404.917969 C 459.757812 405.75 459.574219 406.699219 458.835938 407.640625 C 458.640625 407.890625 458.144531 408.683594 456.652344 409.113281 C 456.085938 409.273438 455.503906 409.3125 454.949219 409.242188 C 454.640625 409.207031 454.34375 409.136719 454.058594 409.039062 C 454.148438 409.066406 454.234375 409.089844 454.324219 409.113281 C 452.957031 408.726562 451.816406 407.660156 451.394531 406.195312 C 451.363281 406.074219 451.332031 405.957031 451.3125 405.835938 C 451.355469 406.078125 451.417969 406.347656 451.519531 406.625 C 451.296875 406.085938 451.183594 405.492188 451.203125 404.871094 C 451.285156 402.652344 453.058594 400.886719 455.238281 400.773438 Z M 454.058594 409.039062 C 452.5625 408.558594 451.847656 407.546875 451.519531 406.625 C 451.976562 407.746094 452.902344 408.636719 454.058594 409.039062 Z M 451.246094 404.675781 C 451.320312 403.75 451.699219 402.878906 452.304688 402.195312 C 451.539062 403.039062 451.296875 403.910156 451.246094 404.675781 Z M 452.625 401.878906 C 453.09375 401.449219 453.664062 401.121094 454.3125 400.9375 C 453.339844 401.214844 452.859375 401.648438 452.625 401.878906 Z M 455.238281 400.773438 C 455.355469 400.769531 455.484375 400.769531 455.605469 400.773438 C 455.601562 400.773438 455.238281 400.773438 455.238281 400.773438 Z M 455.238281 400.773438 " fill-opacity="1" fill-rule="evenodd"/><path fill="#ffbf6e" d="M 434.84375 404.644531 C 433.199219 403.75 432.28125 401.832031 432.738281 399.921875 C 433.28125 397.640625 435.574219 396.230469 437.859375 396.773438 C 438.511719 396.929688 438.863281 397.125 439.1875 397.332031 C 439.714844 397.667969 440.253906 398.101562 440.722656 399.023438 C 441.777344 401.117188 440.933594 403.675781 438.839844 404.734375 C 437.527344 405.398438 436.035156 405.3125 434.84375 404.644531 Z M 433.609375 403.59375 C 433.425781 403.371094 433.265625 403.121094 433.132812 402.855469 C 433.28125 403.15625 433.441406 403.394531 433.609375 403.59375 Z M 433.609375 403.59375 " fill-opacity="1" fill-rule="evenodd"/><path fill="#ffbf6e" d="M 436.511719 383.683594 C 438.695312 383.542969 440.65625 385.09375 440.988281 387.292969 C 441.339844 389.613281 439.742188 391.78125 437.421875 392.132812 L 436.703125 392.1875 C 434.359375 392.230469 432.421875 390.359375 432.378906 388.011719 C 432.335938 385.679688 434.183594 383.746094 436.511719 383.683594 Z M 436.511719 383.683594 " fill-opacity="1" fill-rule="evenodd"/><path fill="#ffbf6e" d="M 420.882812 372.492188 C 420.9375 372.566406 420.996094 372.644531 421.03125 372.707031 C 422.320312 374.667969 421.773438 377.308594 419.808594 378.59375 C 417.867188 379.863281 415.269531 379.339844 413.972656 377.433594 C 413.898438 377.332031 413.816406 377.214844 413.765625 377.128906 C 412.550781 375.121094 413.195312 372.503906 415.199219 371.292969 C 417.128906 370.128906 419.613281 370.671875 420.882812 372.492188 Z M 414.066406 377.566406 C 414.117188 377.628906 414.15625 377.683594 414.167969 377.695312 C 414.15625 377.683594 414.121094 377.632812 414.066406 377.566406 Z M 414.066406 377.566406 " fill-opacity="1" fill-rule="evenodd"/><path fill="#ffbf6e" d="M 409.660156 353.839844 C 411.621094 354.019531 413.253906 355.550781 413.488281 357.578125 C 413.765625 359.910156 412.09375 362.023438 409.761719 362.296875 L 407.921875 362.144531 C 405.65625 361.523438 404.324219 359.183594 404.945312 356.921875 C 405.519531 354.828125 407.570312 353.527344 409.660156 353.839844 Z M 409.660156 353.839844 " fill-opacity="1" fill-rule="evenodd"/><path fill="#ffbf6e" d="M 381.050781 353.101562 C 381.160156 353.152344 381.28125 353.214844 381.367188 353.265625 C 383.394531 354.449219 384.078125 357.058594 382.890625 359.082031 C 381.75 361.027344 379.304688 361.730469 377.320312 360.734375 C 377.25 360.703125 377.175781 360.667969 377.121094 360.640625 C 375.046875 359.546875 374.25 356.976562 375.339844 354.898438 C 376.425781 352.832031 378.980469 352.027344 381.050781 353.101562 Z M 381.039062 353.09375 C 380.941406 353.046875 380.808594 352.984375 380.808594 352.984375 C 380.808594 352.984375 380.914062 353.035156 381.039062 353.09375 Z M 381.039062 353.09375 " fill-opacity="1" fill-rule="evenodd"/><path fill="#ffbf6e" d="M 377.367188 333.753906 C 379.265625 334.824219 380.066406 337.195312 379.136719 339.21875 C 378.171875 341.351562 375.640625 342.296875 373.507812 341.324219 L 371.820312 340.183594 C 370.136719 338.550781 370.09375 335.855469 371.726562 334.171875 C 373.242188 332.605469 375.675781 332.457031 377.367188 333.753906 Z M 377.367188 333.753906 " fill-opacity="1" fill-rule="evenodd"/><path fill="#ffbf6e" d="M 333.472656 313.691406 C 331.183594 313.335938 329.59375 311.210938 329.910156 308.910156 C 330.230469 306.585938 332.375 304.957031 334.699219 305.277344 L 335.867188 305.550781 C 338.0625 306.367188 339.191406 308.8125 338.378906 311.015625 C 337.628906 313.03125 335.515625 314.144531 333.472656 313.691406 Z M 333.472656 313.691406 " fill-opacity="1" fill-rule="evenodd"/><path fill="#ffbf6e" d="M 331.0625 323.578125 C 331.0625 323.578125 332.261719 323.714844 332.8125 323.964844 C 334.945312 324.933594 335.890625 327.457031 334.925781 329.59375 C 334.125 331.34375 332.289062 332.292969 330.480469 332.046875 C 328.277344 331.777344 326.632812 329.839844 326.753906 327.59375 C 326.882812 325.308594 328.792969 323.542969 331.0625 323.578125 Z M 331.0625 323.578125 " fill-opacity="1" fill-rule="evenodd"/><path fill="#ffbf6e" d="M 315.875 328.339844 C 313.574219 328.125 311.855469 326.105469 312.027344 323.792969 C 312.195312 321.453125 314.234375 319.695312 316.574219 319.863281 L 317.625 320.03125 C 319.886719 320.652344 321.222656 322.992188 320.605469 325.253906 C 320.03125 327.355469 317.96875 328.65625 315.875 328.339844 Z M 315.875 328.339844 " fill-opacity="1" fill-rule="evenodd"/><path fill="#ffbf6e" d="M 304.8125 320.34375 C 304.351562 322.53125 302.261719 324.007812 300.027344 323.675781 C 299.410156 323.585938 298.84375 323.367188 298.355469 323.050781 C 298.53125 323.148438 298.726562 323.246094 298.945312 323.34375 C 297.9375 322.902344 297.175781 322.113281 296.757812 321.175781 C 296.726562 321.105469 296.695312 321.035156 296.667969 320.960938 C 296.667969 320.96875 296.675781 320.972656 296.675781 320.980469 C 296.285156 319.972656 296.269531 318.820312 296.734375 317.753906 C 297.664062 315.597656 300.171875 314.605469 302.320312 315.539062 C 304.351562 316.417969 304.503906 317.53125 304.699219 318.144531 C 304.859375 318.640625 304.8125 320.34375 304.8125 320.34375 Z M 298.355469 323.050781 C 297.089844 322.339844 296.835938 321.53125 296.675781 320.980469 C 296.699219 321.046875 296.726562 321.113281 296.757812 321.175781 C 297.09375 321.941406 297.648438 322.597656 298.355469 323.050781 Z M 298.355469 323.050781 " fill-opacity="1" fill-rule="evenodd"/><path fill="#ffbf6e" d="M 273.230469 326.210938 C 275.550781 326.582031 277.125 328.765625 276.757812 331.082031 C 276.382812 333.398438 274.203125 334.980469 271.882812 334.605469 L 271.3125 334.542969 C 268.988281 334.222656 267.363281 332.074219 267.683594 329.75 C 268.003906 327.425781 270.152344 325.800781 272.476562 326.121094 Z M 273.230469 326.210938 " fill-opacity="1" fill-rule="evenodd"/><path fill="#ffbf6e" d="M 254.769531 319.167969 C 257.003906 318.851562 259.109375 320.347656 259.539062 322.585938 C 259.980469 324.890625 258.460938 327.117188 256.15625 327.554688 L 255.066406 327.667969 C 252.726562 327.816406 250.703125 326.039062 250.550781 323.699219 C 250.402344 321.355469 252.179688 319.332031 254.519531 319.183594 C 254.589844 319.175781 254.699219 319.171875 254.769531 319.167969 Z M 254.769531 319.167969 " fill-opacity="1" fill-rule="evenodd"/><path fill="#ffbf6e" d="M 251.636719 342.902344 C 253.246094 343.066406 254.695312 344.144531 255.242188 345.773438 C 255.992188 347.996094 254.800781 350.414062 252.578125 351.164062 C 251.644531 351.476562 249.898438 351.207031 249.898438 351.207031 C 249.898438 351.207031 250.035156 351.242188 250.101562 351.257812 C 247.820312 350.738281 246.382812 348.457031 246.910156 346.167969 C 247.40625 344 249.472656 342.601562 251.636719 342.902344 Z M 251.636719 342.902344 " fill-opacity="1" fill-rule="evenodd"/><path fill="#ffbf6e" d="M 230.402344 339.367188 C 230.519531 339.382812 230.753906 339.421875 230.886719 339.449219 C 233.1875 339.917969 234.671875 342.167969 234.195312 344.46875 C 233.722656 346.765625 231.476562 348.25 229.179688 347.777344 L 228.269531 347.59375 C 226.011719 346.949219 224.703125 344.597656 225.34375 342.339844 C 225.96875 340.148438 228.207031 338.851562 230.402344 339.367188 Z M 230.402344 339.367188 " fill-opacity="1" fill-rule="evenodd"/><path fill="#ffbf6e" d="M 214.84375 343.40625 C 215.65625 343.183594 216.546875 343.195312 217.398438 343.496094 C 219.609375 344.28125 220.769531 346.714844 219.984375 348.925781 C 219.734375 349.628906 219.320312 350.25 218.722656 350.757812 C 218.144531 351.257812 215.949219 351.8125 215.949219 351.8125 C 215.949219 351.8125 216.191406 351.792969 216.273438 351.78125 C 213.949219 352.082031 211.816406 350.4375 211.511719 348.113281 C 211.230469 345.898438 212.699219 343.863281 214.84375 343.40625 Z M 212.445312 345.144531 C 212.246094 345.4375 212.09375 345.75 211.96875 346.085938 C 212.09375 345.746094 212.253906 345.429688 212.445312 345.144531 Z M 212.445312 345.144531 " fill-opacity="1" fill-rule="evenodd"/><path fill="#ffbf6e" d="M 208.113281 359.898438 C 209.632812 358.113281 212.320312 357.90625 214.105469 359.429688 C 215.886719 360.957031 216.09375 363.644531 214.566406 365.425781 L 214.535156 365.464844 C 213.011719 367.246094 210.324219 367.457031 208.542969 365.929688 C 206.761719 364.40625 206.554688 361.71875 208.074219 359.9375 Z M 208.113281 359.898438 " fill-opacity="1" fill-rule="evenodd"/><path fill="#ffbf6e" d="M 228.554688 320.695312 C 230.902344 320.644531 232.851562 322.507812 232.902344 324.851562 C 232.953125 327.199219 231.09375 329.144531 228.75 329.199219 L 228.632812 329.199219 C 226.289062 329.238281 224.351562 327.363281 224.316406 325.019531 C 224.273438 322.671875 226.144531 320.738281 228.492188 320.699219 Z M 228.554688 320.695312 " fill-opacity="1" fill-rule="evenodd"/><path fill="#ffbf6e" d="M 354.804688 338.683594 C 356.773438 338.878906 358.40625 340.4375 358.613281 342.480469 C 358.855469 344.816406 357.15625 346.90625 354.820312 347.144531 C 354.421875 347.1875 354.171875 347.175781 353.914062 347.148438 C 353.605469 347.121094 353.277344 347.070312 352.78125 346.882812 C 350.589844 346.058594 349.476562 343.605469 350.300781 341.410156 C 351.003906 339.53125 352.898438 338.445312 354.804688 338.683594 Z M 354.804688 338.683594 " fill-opacity="1" fill-rule="evenodd"/><path fill="#ffbf6e" d="M 745.335938 244.917969 C 743.007812 244.855469 741.164062 242.929688 741.203125 240.597656 C 741.242188 238.253906 743.179688 236.378906 745.527344 236.417969 L 745.882812 236.4375 C 748.222656 236.632812 749.957031 238.691406 749.761719 241.03125 C 749.566406 243.3125 747.601562 245.023438 745.335938 244.917969 Z M 745.335938 244.917969 " fill-opacity="1" fill-rule="evenodd"/><path fill="#ffbf6e" d="M 599.808594 243.972656 C 599.808594 243.960938 599.800781 243.953125 599.800781 243.941406 C 599.238281 241.664062 600.625 239.359375 602.90625 238.792969 C 605.183594 238.230469 607.492188 239.621094 608.054688 241.898438 C 608.023438 241.78125 607.921875 241.464844 607.921875 241.464844 C 607.921875 241.464844 608.171875 244.273438 607.757812 245.078125 C 606.683594 247.164062 604.117188 247.988281 602.03125 246.914062 C 600.839844 246.300781 600.058594 245.195312 599.808594 243.972656 Z M 599.808594 243.972656 " fill-opacity="1" fill-rule="evenodd"/><path fill="#ffbf6e" d="M 472.847656 422.023438 C 474.71875 421.324219 476.890625 422.03125 477.964844 423.804688 C 479.179688 425.8125 478.535156 428.429688 476.527344 429.644531 L 475.007812 430.242188 C 472.714844 430.757812 470.441406 429.316406 469.925781 427.027344 C 469.429688 424.835938 470.730469 422.65625 472.847656 422.023438 Z M 472.847656 422.023438 " fill-opacity="1" fill-rule="evenodd"/><path fill="#ffbf6e" d="M 854.527344 442.199219 C 855.558594 441.609375 856.832031 441.453125 858.042969 441.878906 C 860.257812 442.65625 861.421875 445.085938 860.640625 447.296875 C 860.339844 448.167969 859.863281 448.738281 859.347656 449.175781 C 858.835938 449.605469 857.460938 450.097656 857.460938 450.097656 C 855.25 450.59375 853.019531 449.257812 852.425781 447.050781 C 851.902344 445.105469 852.820312 443.109375 854.527344 442.199219 Z M 853.304688 443.246094 C 853.03125 443.578125 852.796875 443.976562 852.621094 444.480469 C 852.785156 444.023438 853.015625 443.609375 853.304688 443.246094 Z M 853.304688 443.246094 " fill-opacity="1" fill-rule="evenodd"/></svg>