<svg xmlns="http://www.w3.org/2000/svg" xmlns:xlink="http://www.w3.org/1999/xlink" width="1920" zoomAndPan="magnify" viewBox="0 0 1440 809.999993" height="1080" preserveAspectRatio="xMidYMid meet" version="1.0"><path fill="#ffbf6e" d="M 691.320312 700.738281 C 712.761719 668.5625 715.0625 630.132812 777.90625 547.539062 C 846.707031 457.105469 949.132812 319.363281 1070.832031 331.070312 C 1103.527344 334.21875 1142.234375 346.089844 1158.75 387.515625 C 1175.03125 428.339844 1141.871094 483.75 1099.183594 501.4375 C 1058.011719 518.492188 1012.566406 520.398438 969.78125 531.652344 C 865.761719 559.019531 763.15625 620.054688 691.320312 700.738281 Z M 691.320312 700.738281 " fill-opacity="1" fill-rule="evenodd"/><path fill="#ffbf6e" d="M 673.519531 713.253906 C 673.277344 662.914062 682.113281 404.160156 746.847656 241.425781 C 786.261719 142.332031 838.714844 84.515625 904.851562 68.964844 C 980.476562 51.183594 1058.476562 98.109375 1036.015625 188.773438 C 1014.199219 276.847656 947.253906 297.144531 871.511719 367.695312 C 794.3125 439.601562 698.675781 602.507812 673.519531 713.253906 Z M 673.519531 713.253906 " fill-opacity="1" fill-rule="evenodd"/><path fill="#ffbf6e" d="M 660.675781 700.710938 C 639.238281 668.539062 636.9375 630.109375 574.09375 547.511719 C 505.289062 457.082031 402.867188 319.335938 281.167969 331.046875 C 248.472656 334.191406 209.765625 346.0625 193.25 387.488281 C 176.96875 428.3125 210.128906 483.726562 252.816406 501.414062 C 293.988281 518.46875 339.433594 520.371094 382.21875 531.625 C 486.238281 558.996094 588.839844 620.027344 660.675781 700.710938 Z M 660.675781 700.710938 " fill-opacity="1" fill-rule="evenodd"/><path fill="#ffbf6e" d="M 678.570312 713.238281 C 678.8125 662.894531 669.976562 404.140625 605.242188 241.410156 C 565.828125 142.316406 513.375 84.503906 447.242188 68.953125 C 371.617188 51.171875 293.617188 98.097656 316.078125 188.757812 C 337.894531 276.835938 404.839844 297.128906 480.582031 367.679688 C 557.78125 439.585938 653.414062 602.492188 678.570312 713.238281 Z M 678.570312 713.238281 " fill-opacity="1" fill-rule="evenodd"/><path fill="#572512" d="M 1153.820312 371.25 C 1136.832031 357.613281 1117.445312 348.523438 1096.121094 344.96875 C 1077.089844 341.800781 1056.785156 343.453125 1035.359375 350.863281 C 1013.625 357.902344 991.074219 370.722656 966.894531 388.269531 C 956.742188 395.609375 946.4375 403.828125 935.722656 412.78125 C 925.976562 420.910156 915.980469 429.730469 905.621094 439.070312 C 892.050781 451.273438 877.816406 464.34375 863.226562 478.765625 C 854.296875 487.617188 845.117188 496.769531 835.78125 506.457031 C 822.71875 519.992188 809.453125 534.289062 795.730469 549.585938 C 777.058594 570.488281 757.789062 592.710938 738.070312 617.09375 C 753.667969 589.714844 768.84375 564.371094 784.304688 540.796875 C 795.730469 523.363281 807.160156 507.144531 818.585938 491.851562 C 826.800781 480.785156 835.015625 470.324219 843.332031 460.421875 C 856.953125 444.082031 870.523438 429.230469 884.09375 416.027344 C 892.511719 407.894531 900.929688 400.46875 909.347656 393.621094 C 918.476562 386.15625 927.558594 379.464844 936.539062 373.375 C 945.363281 367.367188 954.089844 361.9375 962.660156 357.210938 C 986.484375 344.125 1009.035156 335.664062 1030.15625 331.28125 C 1055.152344 326.53125 1078.113281 327.75 1098.671875 334.5625 C 1120.097656 341.664062 1138.617188 354.308594 1153.820312 371.25 Z M 1153.820312 371.25 " fill-opacity="1" fill-rule="evenodd"/><path fill="#572512" d="M 198.148438 371.25 C 213.351562 354.308594 231.871094 341.664062 253.296875 334.5625 C 273.859375 327.75 296.816406 326.53125 321.8125 331.28125 C 342.933594 335.664062 365.484375 344.125 389.308594 357.210938 C 397.882812 361.9375 406.605469 367.367188 415.429688 373.375 C 424.410156 379.464844 433.492188 386.15625 442.621094 393.621094 C 451.039062 400.46875 459.457031 407.894531 467.875 416.027344 C 481.445312 429.230469 495.015625 444.082031 508.640625 460.421875 C 516.953125 470.324219 525.167969 480.785156 533.382812 491.851562 C 544.808594 507.144531 556.238281 523.363281 567.667969 540.796875 C 583.125 564.371094 598.300781 589.714844 613.898438 617.09375 C 594.179688 592.710938 574.910156 570.488281 556.238281 549.585938 C 542.515625 534.289062 529.25 519.992188 516.191406 506.457031 C 506.851562 496.769531 497.671875 487.617188 488.742188 478.765625 C 474.152344 464.34375 459.917969 451.273438 446.347656 439.070312 C 435.992188 429.730469 425.992188 420.910156 416.246094 412.78125 C 405.535156 403.828125 395.226562 395.609375 385.074219 388.273438 C 360.894531 370.722656 338.34375 357.902344 316.609375 350.863281 C 295.183594 343.453125 274.878906 341.800781 255.847656 344.96875 C 234.523438 348.523438 215.136719 357.613281 198.148438 371.25 Z M 198.148438 371.25 " fill-opacity="1" fill-rule="evenodd"/><path fill="#572512" d="M 1009.15625 88.800781 C 978.238281 70.769531 950.785156 62.964844 922.121094 69.761719 C 898.8125 75.273438 875.0625 90.699219 847.945312 118.171875 C 827.90625 137.902344 808.917969 169.925781 790.628906 210.636719 C 783.4375 226.59375 776.503906 243.84375 769.542969 262.234375 C 763.269531 278.914062 757.046875 296.574219 750.886719 314.96875 C 742.664062 339.417969 734.433594 365.226562 726.859375 392.273438 C 722.0625 409.3125 717.339844 426.734375 712.878906 444.632812 C 706.425781 470.425781 700.515625 496.925781 695.121094 524.21875 C 687.363281 563.554688 680.703125 604.023438 675.945312 645.546875 C 675.859375 603.546875 677.460938 562.34375 680.964844 522.214844 C 683.414062 494.144531 686.785156 466.792969 690.863281 440.222656 C 693.753906 421.640625 696.96875 403.53125 700.667969 385.878906 C 706.53125 357.664062 713.289062 330.6875 720.949219 305.402344 C 725.597656 290.148438 730.675781 275.527344 735.972656 261.59375 C 741.683594 246.542969 747.808594 232.285156 754.101562 218.828125 C 760.308594 205.511719 766.640625 193.015625 773.179688 181.46875 C 792.933594 146.660156 813.789062 119.945312 833.980469 102.902344 C 866.507812 76.136719 894.191406 62.160156 920.179688 58.964844 C 950.941406 55.1875 978.996094 66.15625 1009.15625 88.800781 Z M 1009.15625 88.800781 " fill-opacity="1" fill-rule="evenodd"/><path fill="#572512" d="M 342.851562 88.804688 C 373.007812 66.164062 401.0625 55.191406 431.828125 58.96875 C 457.816406 62.164062 485.5 76.140625 518.023438 102.90625 C 538.214844 119.949219 559.070312 146.667969 578.828125 181.472656 C 585.367188 193.023438 591.699219 205.515625 597.90625 218.832031 C 604.199219 232.292969 610.324219 246.546875 616.035156 261.597656 C 621.332031 275.53125 626.40625 290.152344 631.058594 305.40625 C 638.714844 330.691406 645.476562 357.667969 651.335938 385.882812 C 655.039062 403.539062 658.253906 421.644531 661.140625 440.230469 C 665.21875 466.796875 668.589844 494.152344 671.039062 522.21875 C 674.550781 562.351562 676.152344 603.558594 676.0625 645.550781 C 671.304688 604.03125 664.640625 563.558594 656.886719 524.222656 C 651.492188 496.929688 645.578125 470.433594 639.128906 444.636719 C 634.667969 426.738281 629.945312 409.316406 625.144531 392.28125 C 617.570312 365.230469 609.34375 339.425781 601.121094 314.972656 C 594.960938 296.578125 588.738281 278.917969 582.464844 262.242188 C 575.503906 243.847656 568.570312 226.601562 561.378906 210.640625 C 543.089844 169.929688 524.101562 137.90625 504.0625 118.175781 C 476.945312 90.703125 453.195312 75.28125 429.882812 69.765625 C 401.222656 62.96875 373.769531 70.777344 342.851562 88.804688 Z M 342.851562 88.804688 " fill-opacity="1" fill-rule="evenodd"/><path fill="#b1896e" d="M 675.050781 713.089844 C 689.390625 686.535156 695.925781 658.105469 721.082031 608.261719 C 730.703125 589.203125 742.992188 567.050781 759.394531 540.769531 C 798.398438 478.257812 848.804688 403.769531 911.050781 350.867188 C 955 313.519531 1004.847656 286.902344 1060.589844 281.761719 C 1081.296875 279.851562 1104.402344 280.851562 1125.160156 288.65625 C 1145.273438 296.21875 1163.285156 310 1175.257812 333.457031 C 1188.355469 359.113281 1188.773438 390.390625 1176.113281 418.378906 C 1165.402344 442.058594 1145.320312 463.425781 1115.628906 476.605469 C 1100.757812 483.203125 1086.277344 487.824219 1071.339844 491.652344 C 1041.660156 499.257812 1010.125 503.621094 969.621094 515.132812 C 914.992188 530.660156 863.066406 560.476562 816.347656 597.824219 C 769.78125 635.046875 728.398438 679.765625 694.679688 725.539062 C 691.050781 730.464844 684.230469 731.742188 679.058594 728.46875 C 673.890625 725.191406 672.140625 718.476562 675.050781 713.089844 Z M 727.515625 649.160156 C 750.367188 624.375 775.269531 600.828125 801.796875 579.621094 C 850.980469 540.300781 905.730469 509.066406 963.253906 492.71875 C 1003.992188 481.136719 1035.707031 476.726562 1065.558594 469.078125 C 1079.253906 465.570312 1092.542969 461.359375 1106.175781 455.308594 C 1130 444.730469 1146.289062 427.773438 1154.882812 408.773438 C 1164.527344 387.445312 1164.484375 363.605469 1154.507812 344.054688 C 1145.527344 326.46875 1132.035156 316.136719 1116.957031 310.464844 C 1099.53125 303.914062 1080.117188 303.359375 1062.726562 304.964844 C 1011.738281 309.667969 966.347656 334.460938 926.140625 368.628906 C 865.730469 419.964844 817.019531 492.433594 779.164062 553.105469 C 763.207031 578.675781 751.246094 600.21875 741.882812 618.761719 C 736.273438 629.886719 731.578125 639.945312 727.515625 649.160156 Z M 727.515625 649.160156 " fill-opacity="1" fill-rule="evenodd"/><path fill="#b1896e" d="M 675.175781 724.1875 C 672.59375 693.417969 670.726562 588.484375 680.371094 471.328125 C 687.332031 386.753906 700.3125 295.835938 723.203125 221.746094 C 741.273438 163.261719 763.234375 113.9375 790.410156 77.785156 C 815.222656 44.777344 844.460938 22.53125 878.878906 13.433594 C 929.777344 -0.0195312 971.664062 10.667969 998.097656 37.644531 C 1023.273438 63.328125 1034.949219 104.523438 1025.558594 156.210938 C 1020.179688 185.800781 1009.03125 208.539062 993.71875 228.738281 C 964.191406 267.6875 918.203125 296.664062 868.613281 350.753906 C 830.144531 392.71875 791.738281 456.359375 760.453125 526.835938 C 731.996094 590.941406 709.457031 660.722656 698.265625 725.203125 C 697.261719 730.976562 692.128906 735.113281 686.273438 734.851562 C 680.417969 734.597656 675.664062 730.03125 675.175781 724.1875 Z M 696.453125 632.585938 C 708.074219 593.679688 722.640625 554.597656 739.160156 517.382812 C 771.578125 444.339844 811.566406 378.5 851.4375 335.003906 C 900.410156 281.585938 945.984375 253.128906 975.148438 214.660156 C 988.371094 197.222656 997.988281 177.589844 1002.628906 152.042969 C 1010.371094 109.425781 1002.214844 75.132812 981.457031 53.957031 C 960.097656 32.160156 925.949219 25.09375 884.835938 35.960938 C 855.21875 43.792969 830.382812 63.382812 809.035156 91.785156 C 783.230469 126.121094 762.632812 173.082031 745.46875 228.625 C 723.035156 301.234375 710.421875 390.355469 703.597656 473.242188 C 698.742188 532.214844 696.828125 588.046875 696.453125 632.585938 Z M 696.453125 632.585938 " fill-opacity="1" fill-rule="evenodd"/><path fill="#b1896e" d="M 660.085938 725.394531 C 626.371094 679.621094 584.984375 634.902344 538.417969 597.683594 C 491.699219 560.335938 439.773438 530.519531 385.144531 514.996094 C 344.640625 503.480469 313.101562 499.121094 283.421875 491.515625 C 268.488281 487.6875 254.003906 483.070312 239.132812 476.46875 C 209.441406 463.289062 189.359375 441.921875 178.648438 418.242188 C 165.988281 390.257812 166.402344 358.976562 179.503906 333.320312 C 191.472656 309.863281 209.484375 296.085938 229.597656 288.519531 C 250.355469 280.714844 273.460938 279.714844 294.171875 281.625 C 349.910156 286.761719 399.757812 313.382812 443.710938 350.726562 C 505.957031 403.628906 556.367188 478.117188 595.371094 540.628906 C 611.773438 566.910156 624.058594 589.058594 633.683594 608.121094 C 658.84375 657.960938 665.375 686.390625 679.71875 712.945312 C 682.628906 718.332031 680.875 725.046875 675.710938 728.324219 C 670.539062 731.601562 663.71875 730.320312 660.085938 725.394531 Z M 627.25 649.015625 C 623.1875 639.800781 618.492188 629.742188 612.882812 618.617188 C 603.519531 600.074219 591.558594 578.535156 575.597656 552.960938 C 537.746094 492.292969 489.03125 419.824219 428.621094 368.488281 C 388.414062 334.324219 343.023438 309.527344 292.03125 304.828125 C 274.644531 303.222656 255.226562 303.777344 237.800781 310.328125 C 222.726562 316 209.230469 326.332031 200.253906 343.917969 C 190.277344 363.472656 190.234375 387.3125 199.878906 408.636719 C 208.472656 427.636719 224.761719 444.597656 248.585938 455.171875 C 262.21875 461.222656 275.507812 465.433594 289.203125 468.941406 C 319.054688 476.589844 350.773438 481 391.511719 492.578125 C 449.03125 508.929688 503.78125 540.160156 552.96875 579.480469 C 579.492188 600.683594 604.398438 624.234375 627.25 649.015625 Z M 627.25 649.015625 " fill-opacity="1" fill-rule="evenodd"/><path fill="#b1896e" d="M 653.664062 725.203125 C 642.472656 660.722656 619.933594 590.941406 591.472656 526.835938 C 560.191406 456.359375 521.785156 392.71875 483.316406 350.753906 C 433.726562 296.664062 387.738281 267.6875 358.210938 228.738281 C 342.898438 208.539062 331.746094 185.800781 326.371094 156.210938 C 316.976562 104.523438 328.65625 63.328125 353.828125 37.644531 C 380.265625 10.667969 422.152344 -0.0195312 473.046875 13.433594 C 507.46875 22.53125 536.707031 44.777344 561.519531 77.785156 C 588.695312 113.9375 610.65625 163.261719 628.726562 221.746094 C 651.617188 295.835938 664.597656 386.753906 671.558594 471.328125 C 681.203125 588.484375 679.335938 693.417969 676.753906 724.1875 C 676.261719 730.03125 671.511719 734.597656 665.65625 734.851562 C 659.800781 735.113281 654.664062 730.976562 653.664062 725.203125 Z M 655.472656 632.585938 C 655.101562 588.046875 653.1875 532.214844 648.332031 473.242188 C 641.507812 390.355469 628.894531 301.234375 606.460938 228.625 C 589.296875 173.082031 568.699219 126.121094 542.890625 91.785156 C 521.542969 63.382812 496.710938 43.792969 467.09375 35.960938 C 425.976562 25.09375 391.832031 32.160156 370.472656 53.957031 C 349.714844 75.132812 341.554688 109.425781 349.300781 152.042969 C 353.941406 177.589844 363.558594 197.222656 376.777344 214.660156 C 405.945312 253.128906 451.519531 281.585938 500.488281 335.003906 C 540.363281 378.5 580.351562 444.339844 612.769531 517.382812 C 629.289062 554.597656 643.855469 593.679688 655.472656 632.585938 Z M 655.472656 632.585938 " fill-opacity="1" fill-rule="evenodd"/><path fill="#b1896e" d="M 685.929688 791.980469 C 680.703125 805.929688 671.78125 809.992188 664.6875 792.148438 C 654.429688 766.339844 638.066406 732.660156 619.347656 707.089844 C 574.574219 645.90625 544.417969 611.105469 563.605469 585.90625 C 580.828125 563.285156 608.34375 576.894531 608.34375 576.894531 C 608.34375 576.894531 612.042969 543.472656 647.988281 543.910156 C 660.5625 544.066406 669.585938 555.507812 675.964844 562.8125 C 682.34375 555.507812 691.359375 544.066406 703.941406 543.910156 C 739.882812 543.472656 740.855469 577.542969 740.855469 577.542969 C 740.855469 577.542969 771.519531 564.15625 788.320312 585.90625 C 807.6875 610.976562 777.355469 645.90625 732.574219 707.089844 C 711.925781 735.304688 695.746094 765.820312 685.929688 791.980469 Z M 685.929688 791.980469 " fill-opacity="1" fill-rule="evenodd"/><path fill="#fff7ef" d="M 684.140625 719.238281 C 698.507812 692.632812 701.6875 663.484375 725.101562 613.132812 C 733.945312 594.113281 745.648438 572.085938 761.882812 546.070312 C 800.019531 484.953125 849.007812 405.199219 909.621094 349.707031 C 953.007812 309.992188 1002.355469 282.695312 1057.84375 282.882812 C 1077.039062 282.945312 1098.3125 285.5625 1117.445312 294.441406 C 1134.820312 302.507812 1150.445312 315.699219 1161.214844 336.789062 C 1172.777344 359.445312 1170.308594 387.785156 1158.738281 413.273438 C 1147.910156 437.128906 1129.15625 458.445312 1107.015625 470.117188 C 1094.074219 476.945312 1080.582031 482.324219 1066.800781 486.957031 C 1035.183594 497.574219 1002.035156 504.214844 970.742188 515.632812 C 916.628906 535.378906 863.726562 564.070312 815.773438 599.472656 C 767.894531 634.824219 724.953125 676.867188 690.683594 723.386719 C 689.472656 725.03125 687.199219 725.457031 685.480469 724.363281 C 683.753906 723.273438 683.167969 721.035156 684.140625 719.238281 Z M 702.527344 695.574219 C 733.804688 657.621094 770.746094 623.0625 811.164062 593.21875 C 859.710938 557.378906 913.285156 528.328125 968.078125 508.335938 C 999.4375 496.894531 1032.644531 490.234375 1064.332031 479.59375 C 1077.714844 475.09375 1090.824219 469.878906 1103.390625 463.25 C 1124.082031 452.335938 1141.542969 432.359375 1151.664062 410.0625 C 1162.21875 386.8125 1164.84375 360.984375 1154.292969 340.320312 C 1144.425781 320.984375 1130.105469 308.882812 1114.171875 301.484375 C 1096.089844 293.097656 1075.960938 290.707031 1057.816406 290.652344 C 1004.253906 290.472656 956.746094 317.097656 914.867188 355.4375 C 854.769531 410.453125 806.28125 489.585938 768.46875 550.183594 C 752.445312 575.875 740.878906 597.625 732.148438 616.40625 C 716.242188 650.609375 709.617188 675.058594 702.527344 695.574219 Z M 702.527344 695.574219 " fill-opacity="1" fill-rule="evenodd"/><path fill="#fff7ef" d="M 682.914062 723.535156 C 679.988281 688.617188 673.644531 557.433594 685.542969 421.8125 C 691.59375 352.855469 702.367188 282.757812 720.664062 223.535156 C 738.601562 165.5 761.5625 119.792969 789.582031 86.527344 C 813.859375 57.699219 841.945312 38.160156 873.878906 27.9375 C 914.46875 14.941406 957.128906 20 987.128906 41.046875 C 1016.371094 61.566406 1033.84375 97.21875 1025.691406 146.492188 C 1020.738281 176.410156 1010.53125 199.644531 996.554688 219.941406 C 966.367188 263.796875 918.292969 293.71875 867.785156 348.8125 C 830.171875 389.839844 789.59375 455.523438 756.46875 525.546875 C 724.214844 593.730469 699.023438 666.039062 690.632812 723.769531 C 690.34375 725.722656 688.640625 727.15625 686.667969 727.089844 C 684.699219 727.03125 683.078125 725.503906 682.914062 723.535156 Z M 688.695312 691.691406 C 700.28125 639.539062 722.382812 579.441406 749.449219 522.226562 C 782.941406 451.425781 824.03125 385.046875 862.058594 343.5625 C 912.265625 288.792969 960.144531 259.132812 990.160156 215.539062 C 1003.535156 196.109375 1013.289062 173.863281 1018.03125 145.222656 C 1025.578125 99.574219 1009.753906 66.414062 982.671875 47.40625 C 954.484375 27.632812 914.378906 23.125 876.246094 35.332031 C 845.652344 45.128906 818.78125 63.910156 795.523438 91.527344 C 768.066406 124.128906 745.660156 168.960938 728.089844 225.828125 C 709.9375 284.566406 699.285156 354.097656 693.28125 422.492188 C 683.777344 530.796875 685.953125 636.25 688.695312 691.691406 Z M 688.695312 691.691406 " fill-opacity="1" fill-rule="evenodd"/><path fill="#fff7ef" d="M 664.105469 723.246094 C 629.835938 676.726562 586.890625 634.683594 539.011719 599.332031 C 491.0625 563.929688 438.15625 535.238281 384.042969 515.496094 C 352.75 504.078125 319.601562 497.441406 287.984375 486.820312 C 274.203125 482.1875 260.707031 476.8125 247.765625 469.984375 C 225.628906 458.3125 206.875 436.996094 196.042969 413.140625 C 184.472656 387.648438 182.003906 359.3125 193.566406 336.652344 C 204.335938 315.566406 219.960938 302.375 237.335938 294.308594 C 256.46875 285.429688 277.742188 282.8125 296.9375 282.746094 C 352.425781 282.558594 401.773438 309.851562 445.160156 349.570312 C 505.777344 405.058594 554.765625 484.8125 592.902344 545.929688 C 609.136719 571.945312 620.839844 593.972656 629.683594 612.992188 C 653.101562 663.339844 656.28125 692.492188 670.648438 719.097656 C 671.621094 720.894531 671.035156 723.128906 669.308594 724.222656 C 667.589844 725.3125 665.316406 724.890625 664.105469 723.246094 Z M 652.261719 695.433594 C 645.171875 674.917969 638.546875 650.46875 622.640625 616.265625 C 613.90625 597.484375 602.34375 575.734375 586.316406 550.042969 C 548.503906 489.449219 500.011719 410.3125 439.914062 355.300781 C 398.035156 316.960938 350.527344 290.335938 296.964844 290.515625 C 278.820312 290.574219 258.691406 292.960938 240.609375 301.351562 C 224.675781 308.746094 210.355469 320.847656 200.488281 340.1875 C 189.9375 360.847656 192.566406 386.679688 203.117188 409.929688 C 213.242188 432.226562 230.703125 452.203125 251.390625 463.117188 C 263.960938 469.742188 277.070312 474.960938 290.453125 479.457031 C 322.136719 490.101562 355.347656 496.757812 386.707031 508.199219 C 441.5 528.191406 495.074219 557.238281 543.621094 593.082031 C 584.042969 622.921875 620.984375 657.480469 652.261719 695.433594 Z M 652.261719 695.433594 " fill-opacity="1" fill-rule="evenodd"/><path fill="#fff7ef" d="M 661.296875 723.769531 C 652.902344 666.039062 627.714844 593.730469 595.460938 525.546875 C 562.335938 455.523438 521.757812 389.839844 484.144531 348.8125 C 433.636719 293.71875 385.5625 263.796875 355.371094 219.941406 C 341.398438 199.644531 331.1875 176.410156 326.238281 146.492188 C 318.085938 97.21875 335.558594 61.566406 364.796875 41.046875 C 394.800781 20 437.457031 14.941406 478.050781 27.9375 C 509.984375 38.160156 538.070312 57.699219 562.34375 86.527344 C 590.367188 119.792969 613.328125 165.5 631.261719 223.535156 C 649.5625 282.757812 660.332031 352.855469 666.386719 421.8125 C 678.285156 557.433594 671.941406 688.617188 669.015625 723.535156 C 668.847656 725.503906 667.230469 727.03125 665.261719 727.089844 C 663.289062 727.15625 661.585938 725.722656 661.296875 723.769531 Z M 663.234375 691.691406 C 665.976562 636.25 668.152344 530.796875 658.644531 422.492188 C 652.644531 354.097656 641.992188 284.566406 623.839844 225.828125 C 606.269531 168.960938 583.863281 124.128906 556.40625 91.527344 C 533.148438 63.910156 506.273438 45.128906 475.683594 35.332031 C 437.546875 23.125 397.445312 27.632812 369.257812 47.40625 C 342.171875 66.414062 326.351562 99.574219 333.898438 145.222656 C 338.640625 173.863281 348.394531 196.109375 361.769531 215.539062 C 391.78125 259.132812 439.660156 288.792969 489.871094 343.5625 C 527.898438 385.046875 568.988281 451.425781 602.480469 522.226562 C 629.542969 579.441406 651.648438 639.539062 663.234375 691.691406 Z M 663.234375 691.691406 " fill-opacity="1" fill-rule="evenodd"/><path fill="#b1896e" d="M 685.070312 793.820312 C 680.300781 807.082031 671.339844 808.242188 665.949219 794.636719 C 664.382812 790.679688 662.78125 786.472656 660.988281 782.152344 C 651.785156 759.960938 639.039062 734.183594 624.789062 713.839844 C 584.304688 656.039062 557.039062 623.160156 574.386719 599.355469 C 589.957031 577.984375 614.839844 590.84375 614.839844 590.84375 C 614.839844 590.84375 618.183594 559.269531 650.683594 559.679688 C 662.050781 559.824219 670.210938 570.636719 675.980469 577.535156 C 681.746094 570.636719 689.902344 559.824219 701.277344 559.679688 C 733.777344 559.269531 734.652344 591.453125 734.652344 591.453125 C 734.652344 591.453125 762.378906 578.808594 777.570312 599.355469 C 795.082031 623.039062 767.65625 656.039062 727.167969 713.839844 C 711.359375 736.414062 698.4375 760.546875 689.46875 782.414062 C 687.875 786.296875 686.40625 790.105469 685.070312 793.820312 Z M 685.070312 793.820312 " fill-opacity="1" fill-rule="evenodd"/><path fill="#fff7ef" d="M 689.070312 795.261719 C 685.925781 803.996094 680.757812 808.167969 676.132812 808.539062 C 671.339844 808.925781 665.679688 805.503906 661.996094 796.203125 L 657.066406 783.78125 C 652.472656 772.714844 646.992188 760.746094 640.878906 749.015625 C 634.886719 737.511719 628.28125 726.230469 621.308594 716.277344 C 598.222656 683.3125 579.4375 658.359375 570.59375 638.578125 C 563.089844 621.792969 562.558594 608.371094 570.949219 596.851562 C 577.25 588.203125 584.914062 584.496094 592.148438 583.257812 C 599.855469 581.9375 607.105469 583.53125 611.71875 585.042969 C 613.195312 579.664062 616.503906 571.273438 623.65625 564.8125 C 629.636719 559.417969 638.25 555.273438 650.734375 555.433594 C 656.054688 555.5 660.800781 557.449219 665.007812 560.375 C 669.230469 563.308594 672.875 567.257812 675.980469 570.90625 C 679.085938 567.257812 682.730469 563.308594 686.949219 560.375 C 691.152344 557.449219 695.90625 555.5 701.21875 555.433594 C 713.878906 555.273438 722.25 559.597656 727.851562 565.191406 C 734.410156 571.738281 737.089844 580.191406 738.171875 585.683594 C 742.953125 584.253906 750.425781 582.6875 758.253906 583.648438 C 766.246094 584.636719 774.585938 588.164062 780.992188 596.828125 C 789.472656 608.304688 788.953125 621.742188 781.417969 638.566406 C 772.550781 658.355469 753.722656 683.335938 730.648438 716.277344 C 723.125 727.023438 716.261719 738.121094 710.179688 749.15625 C 703.636719 761.03125 697.992188 772.828125 693.398438 784.027344 Z M 681.070312 792.378906 L 685.535156 780.796875 C 690.246094 769.320312 696.023438 757.222656 702.734375 745.054688 C 708.960938 733.757812 715.984375 722.398438 723.683594 711.402344 C 746.359375 679.03125 764.949219 654.535156 773.65625 635.089844 C 779.65625 621.703125 780.90625 611.011719 774.152344 601.878906 C 769.386719 595.429688 763.164062 592.820312 757.210938 592.09375 C 746.40625 590.761719 736.421875 595.316406 736.421875 595.316406 C 735.125 595.90625 733.617188 595.8125 732.40625 595.058594 C 731.195312 594.304688 730.449219 592.992188 730.40625 591.566406 C 730.40625 591.566406 730.097656 579.441406 721.84375 571.203125 C 717.546875 566.914062 711.042969 563.808594 701.328125 563.933594 C 697.765625 563.980469 694.621094 565.390625 691.804688 567.351562 C 686.652344 570.9375 682.546875 576.304688 679.242188 580.265625 C 678.433594 581.230469 677.234375 581.789062 675.980469 581.789062 C 674.71875 581.789062 673.523438 581.230469 672.71875 580.265625 C 669.410156 576.304688 665.308594 570.9375 660.152344 567.351562 C 657.335938 565.390625 654.191406 563.980469 650.625 563.933594 C 640.84375 563.808594 634.039062 566.894531 629.355469 571.121094 C 620.34375 579.261719 619.066406 591.292969 619.066406 591.292969 C 618.917969 592.6875 618.089844 593.921875 616.855469 594.589844 C 615.621094 595.25 614.132812 595.265625 612.886719 594.621094 C 612.886719 594.621094 603.746094 589.898438 593.582031 591.636719 C 588.183594 592.5625 582.519531 595.40625 577.820312 601.859375 C 571.132812 611.039062 572.375 621.730469 578.355469 635.105469 C 587.042969 654.546875 605.585938 679.007812 628.269531 711.402344 C 635.449219 721.644531 642.25 733.246094 648.421875 745.089844 C 654.652344 757.042969 660.238281 769.242188 664.914062 780.523438 L 669.902344 793.070312 C 670.96875 795.765625 672.144531 797.769531 673.46875 799.035156 C 674.132812 799.671875 674.761719 800.121094 675.453125 800.0625 C 676.25 799.996094 676.941406 799.414062 677.660156 798.621094 C 678.960938 797.191406 680.097656 795.082031 681.070312 792.378906 Z M 681.070312 792.378906 " fill-opacity="1" fill-rule="evenodd"/><path fill="#ffbf6e" d="M 1099.558594 329.773438 C 1099.066406 328.75 1099.09375 327.792969 1099.402344 326.910156 C 1099.238281 327.464844 1099.179688 328.0625 1099.257812 328.671875 C 1099.3125 329.058594 1099.414062 329.429688 1099.558594 329.773438 Z M 1102.078125 324.113281 C 1102.957031 323.800781 1103.949219 323.773438 1104.894531 324.101562 C 1106.078125 324.511719 1106.519531 325.105469 1106.722656 325.339844 C 1107.863281 326.65625 1107.898438 327.957031 1107.667969 329.023438 C 1107.449219 330.023438 1106.871094 331.316406 1105.171875 332.039062 C 1104.921875 332.144531 1103.632812 332.378906 1103.632812 332.378906 C 1103.632812 332.378906 1103.925781 332.359375 1104.015625 332.347656 C 1102.871094 332.492188 1101.769531 332.167969 1100.914062 331.519531 C 1100.867188 331.484375 1100.824219 331.449219 1100.78125 331.414062 C 1100.253906 330.980469 1099.828125 330.421875 1099.558594 329.773438 C 1099.652344 329.980469 1099.773438 330.191406 1099.917969 330.40625 C 1099.242188 329.347656 1099.039062 328 1099.484375 326.726562 C 1099.515625 326.640625 1099.546875 326.558594 1099.578125 326.476562 C 1099.515625 326.621094 1099.457031 326.765625 1099.402344 326.910156 C 1099.792969 325.621094 1100.78125 324.5625 1102.078125 324.113281 Z M 1102.078125 324.113281 " fill-opacity="1" fill-rule="evenodd"/><path fill="#ffbf6e" d="M 1089.855469 318.257812 C 1089.847656 318.246094 1089.84375 318.234375 1089.839844 318.222656 C 1088.789062 316.121094 1089.648438 313.566406 1091.75 312.523438 C 1093.851562 311.476562 1096.40625 312.335938 1097.449219 314.433594 L 1097.710938 315.03125 C 1098.488281 317.246094 1097.320312 319.671875 1095.109375 320.453125 C 1093.039062 321.179688 1090.769531 320.203125 1089.855469 318.257812 Z M 1089.855469 318.257812 " fill-opacity="1" fill-rule="evenodd"/><path fill="#ffbf6e" d="M 1083.703125 339.148438 C 1081.785156 340.230469 1079.320312 339.667969 1078.082031 337.808594 C 1076.773438 335.859375 1077.292969 333.21875 1079.246094 331.910156 C 1079.195312 331.945312 1079.09375 332.019531 1079.09375 332.019531 C 1079.09375 332.019531 1080.652344 331.171875 1081.503906 331.125 C 1083.851562 330.988281 1085.863281 332.78125 1085.996094 335.121094 C 1086.097656 336.851562 1085.144531 338.402344 1083.703125 339.148438 Z M 1083.703125 339.148438 " fill-opacity="1" fill-rule="evenodd"/><path fill="#ffbf6e" d="M 1069.253906 318.722656 C 1070.523438 320.335938 1070.472656 322.679688 1069.035156 324.234375 C 1067.4375 325.957031 1064.746094 326.0625 1063.023438 324.46875 C 1062.765625 324.226562 1062.347656 323.675781 1062.347656 323.675781 C 1062.347656 323.675781 1062.421875 323.789062 1062.464844 323.84375 C 1061.054688 321.972656 1061.429688 319.304688 1063.300781 317.890625 C 1065.171875 316.476562 1067.839844 316.847656 1069.253906 318.722656 Z M 1069.253906 318.722656 " fill-opacity="1" fill-rule="evenodd"/><path fill="#ffbf6e" d="M 1041.203125 346.191406 C 1040.382812 344.046875 1041.421875 341.625 1043.554688 340.746094 C 1045.722656 339.847656 1048.214844 340.882812 1049.109375 343.050781 L 1049.320312 343.660156 C 1049.96875 345.917969 1048.660156 348.273438 1046.402344 348.917969 C 1044.210938 349.546875 1041.925781 348.332031 1041.203125 346.191406 Z M 1041.203125 346.191406 " fill-opacity="1" fill-rule="evenodd"/><path fill="#ffbf6e" d="M 1026.050781 329.296875 C 1026.503906 329.78125 1026.851562 330.378906 1027.035156 331.0625 C 1027.664062 333.324219 1026.332031 335.667969 1024.070312 336.292969 C 1023.117188 336.554688 1022.042969 336.535156 1020.949219 335.957031 C 1020.453125 335.695312 1019.21875 334.320312 1019.21875 334.320312 C 1019.21875 334.320312 1019.371094 334.550781 1019.414062 334.609375 C 1018 332.738281 1018.367188 330.070312 1020.234375 328.652344 C 1022.042969 327.28125 1024.605469 327.582031 1026.050781 329.296875 Z M 1024.328125 328.175781 C 1023.441406 327.859375 1022.585938 327.882812 1021.804688 328.097656 C 1022.671875 327.859375 1023.542969 327.90625 1024.328125 328.175781 Z M 1024.328125 328.175781 " fill-opacity="1" fill-rule="evenodd"/><path fill="#ffbf6e" d="M 1002.230469 337.277344 C 1002.222656 337.257812 1002.21875 337.238281 1002.214844 337.222656 C 1001.652344 334.945312 1003.054688 332.640625 1005.335938 332.085938 C 1007.613281 331.527344 1009.914062 332.929688 1010.472656 335.207031 C 1010.457031 335.152344 1010.429688 335.039062 1010.429688 335.039062 C 1010.429688 335.039062 1010.605469 335.785156 1010.628906 336.136719 C 1010.761719 338.480469 1008.972656 340.492188 1006.628906 340.628906 C 1004.507812 340.75 1002.660156 339.292969 1002.230469 337.277344 Z M 1002.230469 337.277344 " fill-opacity="1" fill-rule="evenodd"/><path fill="#ffbf6e" d="M 998.414062 350.523438 C 1000.367188 350.199219 1002.339844 351.28125 1003.074219 353.199219 C 1003.910156 355.390625 1002.8125 357.851562 1000.621094 358.6875 L 999.257812 358.976562 C 996.917969 359.128906 994.894531 357.351562 994.742188 355.011719 C 994.597656 352.769531 996.21875 350.816406 998.414062 350.523438 Z M 998.414062 350.523438 " fill-opacity="1" fill-rule="evenodd"/><path fill="#ffbf6e" d="M 982.574219 357.308594 C 982.636719 357.402344 982.703125 357.5 982.761719 357.601562 C 983.9375 359.628906 983.25 362.234375 981.222656 363.414062 C 981.183594 363.433594 977.597656 365.074219 975.570312 362.132812 C 975.539062 362.085938 975.464844 361.976562 975.453125 361.964844 C 974.121094 360.035156 974.601562 357.382812 976.53125 356.046875 C 978.464844 354.714844 981.109375 355.195312 982.445312 357.125 C 982.457031 357.140625 982.574219 357.308594 982.574219 357.308594 Z M 982.574219 357.308594 " fill-opacity="1" fill-rule="evenodd"/><path fill="#ffbf6e" d="M 958.378906 361.511719 C 958.726562 361.761719 959.039062 362.070312 959.304688 362.429688 C 959.570312 362.789062 959.683594 363.035156 959.734375 363.148438 C 960.378906 364.5 960.152344 365.476562 960.039062 365.949219 C 959.820312 366.894531 959.347656 367.585938 958.773438 368.113281 C 958.289062 368.558594 955.863281 370.375 953.253906 368.308594 C 953.167969 368.238281 952.84375 367.9375 952.84375 367.9375 C 951.21875 366.332031 951.152344 363.714844 952.714844 362.03125 C 954.207031 360.417969 956.660156 360.222656 958.378906 361.511719 Z M 952.179688 367.035156 C 952.242188 367.152344 952.332031 367.300781 952.464844 367.484375 C 952.359375 367.339844 952.261719 367.1875 952.179688 367.035156 Z M 952.179688 367.035156 " fill-opacity="1" fill-rule="evenodd"/><path fill="#ffbf6e" d="M 947.5 381.722656 C 947.730469 381.617188 947.96875 381.472656 948.230469 381.28125 C 947.90625 381.519531 947.558594 381.707031 947.203125 381.839844 C 947.078125 381.886719 946.953125 381.921875 946.824219 381.957031 C 946.902344 381.9375 946.980469 381.917969 947.054688 381.894531 C 945.355469 382.464844 943.40625 381.910156 942.285156 380.390625 C 940.890625 378.503906 941.285156 375.839844 943.171875 374.445312 C 943.933594 373.882812 944.523438 373.703125 945.222656 373.613281 C 945.660156 373.558594 946.152344 373.554688 946.75 373.695312 C 949.03125 374.226562 950.460938 376.515625 949.921875 378.800781 C 949.609375 380.152344 948.675781 381.203125 947.5 381.722656 Z M 947.5 381.722656 C 947.347656 381.792969 947.203125 381.851562 947.054688 381.894531 C 947.101562 381.878906 947.152344 381.859375 947.203125 381.839844 C 947.304688 381.804688 947.402344 381.765625 947.5 381.722656 Z M 945.546875 382.078125 C 945.300781 382.066406 945.058594 382.03125 944.816406 381.972656 C 945.078125 382.035156 945.316406 382.066406 945.546875 382.078125 Z M 945.546875 382.078125 " fill-opacity="1" fill-rule="evenodd"/><path fill="#ffbf6e" d="M 915.992188 388.277344 C 917.578125 389.589844 918.007812 391.902344 916.921875 393.722656 C 915.722656 395.738281 913.109375 396.394531 911.09375 395.191406 L 909.796875 394.09375 C 908.191406 392.386719 908.269531 389.691406 909.976562 388.085938 C 911.691406 386.480469 914.378906 386.5625 915.988281 388.269531 C 915.992188 388.273438 915.992188 388.273438 915.992188 388.277344 Z M 915.992188 388.277344 " fill-opacity="1" fill-rule="evenodd"/><path fill="#ffbf6e" d="M 898.917969 400.734375 C 900.226562 401.625 900.984375 403.210938 900.734375 404.875 C 900.386719 407.195312 898.226562 408.800781 895.90625 408.457031 C 895.070312 408.332031 893.511719 407.277344 893.511719 407.277344 C 893.511719 407.277344 893.734375 407.472656 893.839844 407.554688 C 891.960938 406.148438 891.578125 403.484375 892.984375 401.601562 C 894.382812 399.730469 897.042969 399.339844 898.917969 400.734375 Z M 898.917969 400.734375 " fill-opacity="1" fill-rule="evenodd"/><path fill="#ffbf6e" d="M 876.289062 425.289062 C 877.347656 427.175781 876.816406 429.601562 875 430.859375 C 873.074219 432.195312 870.421875 431.714844 869.085938 429.789062 L 868.523438 428.722656 C 867.691406 426.527344 868.800781 424.074219 870.996094 423.242188 C 873.042969 422.46875 875.3125 423.382812 876.289062 425.289062 Z M 876.289062 425.289062 " fill-opacity="1" fill-rule="evenodd"/><path fill="#ffbf6e" d="M 1119.191406 342.726562 C 1119.292969 342.664062 1119.453125 342.570312 1119.546875 342.523438 C 1121.644531 341.472656 1124.199219 342.324219 1125.253906 344.421875 C 1126.28125 346.472656 1125.488281 348.960938 1123.496094 350.054688 C 1123.390625 350.113281 1123.226562 350.207031 1123.125 350.257812 C 1121.027344 351.308594 1118.472656 350.457031 1117.425781 348.359375 C 1116.398438 346.304688 1117.191406 343.816406 1119.191406 342.726562 Z M 1119.191406 342.726562 " fill-opacity="1" fill-rule="evenodd"/><path fill="#ffbf6e" d="M 1130.464844 332.691406 C 1130.632812 334.679688 1129.371094 336.574219 1127.375 337.132812 C 1125.121094 337.769531 1122.773438 336.449219 1122.132812 334.191406 C 1122.023438 333.78125 1121.96875 332.882812 1121.96875 332.882812 C 1121.96875 330.59375 1123.785156 328.703125 1126.089844 328.632812 C 1128.414062 328.558594 1130.363281 330.375 1130.464844 332.691406 Z M 1130.464844 332.691406 " fill-opacity="1" fill-rule="evenodd"/><path fill="#ffbf6e" d="M 1137.746094 346.324219 C 1139.546875 345.332031 1141.851562 345.769531 1143.152344 347.441406 C 1144.589844 349.296875 1144.253906 351.96875 1142.402344 353.40625 L 1141.410156 353.992188 C 1139.261719 354.929688 1136.753906 353.949219 1135.8125 351.796875 C 1134.914062 349.734375 1135.78125 347.34375 1137.746094 346.324219 Z M 1137.746094 346.324219 " fill-opacity="1" fill-rule="evenodd"/><path fill="#ffbf6e" d="M 968.257812 62.597656 C 968.34375 60.28125 970.28125 58.453125 972.605469 58.507812 C 974.953125 58.5625 976.816406 60.511719 976.757812 62.859375 L 976.742188 63.195312 C 976.539062 65.53125 974.472656 67.265625 972.136719 67.066406 C 969.84375 66.867188 968.132812 64.878906 968.257812 62.597656 Z M 968.257812 62.597656 " fill-opacity="1" fill-rule="evenodd"/><path fill="#ffbf6e" d="M 955.050781 68.792969 C 955.457031 66.5625 957.558594 65.027344 959.820312 65.34375 C 962.148438 65.667969 963.769531 67.816406 963.445312 70.140625 L 963.125 71.355469 C 962.222656 73.519531 959.726562 74.542969 957.5625 73.636719 C 955.636719 72.832031 954.617188 70.765625 955.050781 68.792969 Z M 955.050781 68.792969 " fill-opacity="1" fill-rule="evenodd"/><path fill="#ffbf6e" d="M 951.9375 47.019531 C 952.320312 47.960938 952.363281 49.042969 951.988281 50.074219 C 951.175781 52.273438 948.730469 53.40625 946.53125 52.597656 C 945.777344 52.320312 945.195312 51.882812 944.738281 51.34375 C 944.242188 50.753906 943.753906 49.085938 943.753906 49.085938 C 943.753906 49.085938 943.785156 49.308594 943.804688 49.40625 C 943.328125 47.109375 944.800781 44.855469 947.09375 44.375 C 949.171875 43.941406 951.210938 45.101562 951.9375 47.019531 Z M 950.660156 45.292969 C 950.320312 45.015625 949.925781 44.785156 949.464844 44.617188 C 949.910156 44.78125 950.308594 45.011719 950.660156 45.292969 Z M 950.660156 45.292969 " fill-opacity="1" fill-rule="evenodd"/><path fill="#ffbf6e" d="M 916.886719 53.011719 C 917.597656 54.59375 917.289062 56.519531 915.976562 57.804688 C 914.300781 59.441406 911.605469 59.410156 909.96875 57.730469 C 909.621094 57.378906 908.800781 55.449219 908.800781 55.449219 C 908.800781 55.449219 909.058594 56.300781 909.191406 56.558594 C 908.109375 54.480469 908.917969 51.910156 910.996094 50.824219 C 913.074219 49.742188 915.644531 50.546875 916.730469 52.628906 C 916.773438 52.710938 916.828125 52.851562 916.886719 53.011719 Z M 916.886719 53.011719 " fill-opacity="1" fill-rule="evenodd"/><path fill="#ffbf6e" d="M 897.476562 48.171875 C 896.542969 46.054688 897.488281 43.566406 899.601562 42.597656 C 901.734375 41.621094 904.261719 42.5625 905.234375 44.695312 L 905.34375 44.945312 C 906.210938 47.125 905.144531 49.597656 902.96875 50.46875 C 900.8125 51.328125 898.375 50.296875 897.476562 48.171875 Z M 897.476562 48.171875 " fill-opacity="1" fill-rule="evenodd"/><path fill="#ffbf6e" d="M 926.667969 61.402344 C 927.207031 59.378906 929.175781 58.015625 931.308594 58.289062 C 933.640625 58.585938 935.285156 60.71875 934.988281 63.042969 L 934.648438 64.269531 C 933.699219 66.417969 931.1875 67.386719 929.039062 66.4375 C 927.082031 65.570312 926.097656 63.40625 926.667969 61.402344 Z M 926.667969 61.402344 " fill-opacity="1" fill-rule="evenodd"/><path fill="#ffbf6e" d="M 890.414062 75.816406 C 890.632812 73.5625 892.59375 71.855469 894.878906 71.980469 C 897.183594 72.105469 898.964844 74.050781 898.898438 76.347656 C 898.898438 76.347656 898.804688 77.273438 898.65625 77.699219 C 897.902344 79.917969 895.480469 81.105469 893.261719 80.34375 C 891.328125 79.683594 890.179688 77.765625 890.414062 75.816406 Z M 890.414062 75.816406 " fill-opacity="1" fill-rule="evenodd"/><path fill="#ffbf6e" d="M 889.109375 45.601562 C 889.125 45.765625 889.152344 46.019531 889.152344 46.175781 C 889.179688 48.523438 887.300781 50.449219 884.953125 50.476562 C 882.675781 50.503906 880.789062 48.730469 880.65625 46.480469 C 880.640625 46.308594 880.613281 46.035156 880.613281 45.863281 C 880.605469 43.515625 882.503906 41.605469 884.851562 41.597656 C 887.117188 41.589844 888.980469 43.363281 889.109375 45.601562 Z M 889.109375 45.601562 " fill-opacity="1" fill-rule="evenodd"/><path fill="#ffbf6e" d="M 869.878906 62.769531 C 870.753906 64.492188 870.363281 66.652344 868.820312 67.945312 C 867.027344 69.453125 864.339844 69.222656 862.832031 67.425781 L 861.976562 65.859375 C 861.253906 63.625 862.480469 61.226562 864.710938 60.507812 C 866.78125 59.835938 868.992188 60.839844 869.878906 62.769531 Z M 869.878906 62.769531 " fill-opacity="1" fill-rule="evenodd"/><path fill="#ffbf6e" d="M 837.265625 80.851562 C 836.601562 78.691406 837.75 76.367188 839.898438 75.597656 C 842.109375 74.808594 844.546875 75.960938 845.332031 78.171875 L 845.546875 78.917969 C 846.074219 81.203125 844.640625 83.488281 842.359375 84.015625 C 840.082031 84.539062 837.800781 83.125 837.265625 80.851562 Z M 837.265625 80.851562 " fill-opacity="1" fill-rule="evenodd"/><path fill="#ffbf6e" d="M 858.144531 100.203125 C 858.453125 101.734375 857.898438 103.382812 856.585938 104.40625 C 854.726562 105.84375 852.054688 105.507812 850.617188 103.65625 C 850.125 103.019531 849.683594 100.964844 849.683594 100.964844 C 849.683594 100.964844 849.691406 101.140625 849.699219 101.214844 C 849.449219 98.882812 851.136719 96.78125 853.464844 96.53125 C 855.769531 96.28125 857.839844 97.917969 858.144531 100.203125 Z M 858.144531 100.203125 " fill-opacity="1" fill-rule="evenodd"/><path fill="#ffbf6e" d="M 816.316406 111.128906 C 815.621094 109.515625 815.976562 107.566406 817.34375 106.308594 C 819.070312 104.722656 821.761719 104.835938 823.347656 106.5625 C 823.644531 106.882812 823.902344 107.257812 824.101562 107.675781 C 824.304688 108.097656 824.449219 108.585938 824.523438 109.007812 C 824.929688 111.320312 823.378906 113.523438 821.070312 113.929688 C 818.984375 114.292969 816.988281 113.070312 816.316406 111.128906 Z M 816.316406 111.128906 " fill-opacity="1" fill-rule="evenodd"/><path fill="#ffbf6e" d="M 803.691406 128.460938 C 802.394531 127.238281 801.957031 125.273438 802.75 123.570312 C 803.738281 121.441406 806.269531 120.519531 808.398438 121.507812 C 809.277344 121.914062 810.558594 123.710938 810.558594 123.710938 C 810.558594 123.710938 809.800781 122.554688 809.296875 122.183594 C 811.1875 123.578125 811.585938 126.242188 810.1875 128.128906 C 808.792969 130.015625 806.125 130.414062 804.242188 129.019531 C 804.070312 128.890625 803.878906 128.6875 803.691406 128.460938 Z M 803.691406 128.460938 " fill-opacity="1" fill-rule="evenodd"/><path fill="#ffbf6e" d="M 799.316406 129.691406 C 797.929688 131.585938 795.265625 132 793.371094 130.617188 C 791.476562 129.230469 791.066406 126.566406 792.453125 124.675781 L 792.472656 124.644531 C 793.855469 122.75 796.519531 122.335938 798.414062 123.722656 C 800.308594 125.105469 800.722656 127.765625 799.339844 129.660156 Z M 799.316406 129.691406 " fill-opacity="1" fill-rule="evenodd"/><path fill="#ffbf6e" d="M 796 141.320312 C 797.019531 139.207031 799.5625 138.3125 801.675781 139.328125 C 803.792969 140.34375 804.683594 142.882812 803.671875 145 L 803.664062 145.011719 C 802.648438 147.125 800.109375 148.019531 797.992188 147.003906 C 795.878906 145.988281 794.984375 143.449219 796 141.332031 Z M 796 141.320312 " fill-opacity="1" fill-rule="evenodd"/><path fill="#ffbf6e" d="M 781.445312 156.324219 C 781.449219 156.238281 781.460938 156.15625 781.472656 156.070312 C 781.464844 156.09375 781.464844 156.113281 781.464844 156.136719 C 781.640625 154.671875 782.574219 153.339844 784.027344 152.726562 C 783.695312 152.867188 783.402344 153.023438 783.148438 153.195312 C 784.632812 152.09375 786.726562 152.050781 788.261719 153.226562 C 789.472656 154.144531 789.921875 155.449219 789.949219 156.527344 C 789.980469 157.929688 789.554688 159.617188 787.34375 160.554688 C 785.179688 161.46875 782.683594 160.460938 781.769531 158.300781 C 781.5 157.652344 781.398438 156.976562 781.445312 156.324219 Z M 781.472656 156.070312 C 781.5625 155.058594 781.972656 153.984375 783.148438 153.195312 C 782.839844 153.425781 782.550781 153.707031 782.308594 154.03125 C 781.832031 154.648438 781.5625 155.351562 781.472656 156.070312 Z M 782.199219 159.039062 C 782.433594 159.378906 782.738281 159.703125 783.109375 159.988281 C 782.75 159.714844 782.445312 159.390625 782.199219 159.039062 Z M 782.199219 159.039062 " fill-opacity="1" fill-rule="evenodd"/><path fill="#ffbf6e" d="M 778.125 184.398438 C 778.125 184.398438 778.332031 184.382812 778.394531 184.375 C 778.304688 184.386719 778.214844 184.394531 778.125 184.398438 Z M 776.546875 176.125 C 777.628906 175.742188 778.863281 175.792969 779.953125 176.371094 C 781.257812 177.058594 781.652344 177.933594 781.867188 178.40625 C 782.546875 179.933594 782.328125 181.285156 781.523438 182.496094 C 781.207031 182.972656 778.125 184.398438 778.125 184.398438 C 775.90625 184.511719 773.945312 182.875 773.691406 180.632812 C 773.457031 178.609375 774.691406 176.75 776.546875 176.125 Z M 774.027344 178.550781 C 773.652344 179.410156 773.578125 180.332031 773.898438 181.335938 C 773.632812 180.445312 773.660156 179.464844 774.027344 178.550781 Z M 774.21875 182.128906 C 774.457031 182.613281 774.910156 183.320312 775.984375 183.890625 C 775.207031 183.476562 774.605469 182.855469 774.21875 182.128906 Z M 774.21875 182.128906 " fill-opacity="1" fill-rule="evenodd"/><path fill="#ffbf6e" d="M 754.78125 208.890625 C 755.074219 206.5625 757.207031 204.914062 759.535156 205.210938 C 761.859375 205.507812 763.507812 207.636719 763.214844 209.964844 L 763.210938 209.980469 C 762.917969 212.308594 760.785156 213.957031 758.457031 213.660156 C 756.132812 213.367188 754.484375 211.234375 754.78125 208.90625 Z M 754.78125 208.890625 " fill-opacity="1" fill-rule="evenodd"/><path fill="#ffbf6e" d="M 373.058594 77.808594 C 373.210938 75.511719 375.179688 73.746094 377.492188 73.851562 C 379.832031 73.957031 381.652344 75.945312 381.546875 78.292969 L 381.523438 78.558594 C 381.289062 80.894531 379.199219 82.597656 376.867188 82.359375 C 374.570312 82.128906 372.882812 80.097656 373.058594 77.808594 Z M 373.058594 77.808594 " fill-opacity="1" fill-rule="evenodd"/><path fill="#ffbf6e" d="M 390.667969 56.054688 C 390.183594 53.808594 391.578125 51.570312 393.824219 51.027344 C 396.109375 50.476562 398.40625 51.882812 398.957031 54.164062 C 398.9375 54.078125 398.886719 53.902344 398.886719 53.902344 C 398.886719 53.902344 399.164062 55.359375 399.046875 56.042969 C 398.648438 58.355469 396.441406 59.910156 394.132812 59.507812 C 392.316406 59.195312 390.972656 57.769531 390.667969 56.054688 Z M 390.667969 56.054688 " fill-opacity="1" fill-rule="evenodd"/><path fill="#ffbf6e" d="M 398.570312 76.035156 C 399.3125 78.261719 398.105469 80.667969 395.878906 81.410156 C 393.652344 82.148438 391.242188 80.941406 390.503906 78.714844 L 390.300781 78.027344 C 389.757812 75.746094 391.167969 73.449219 393.453125 72.90625 C 395.734375 72.359375 398.027344 73.769531 398.570312 76.054688 Z M 398.570312 76.035156 " fill-opacity="1" fill-rule="evenodd"/><path fill="#ffbf6e" d="M 418.308594 53.152344 C 418.285156 53.039062 418.234375 52.816406 418.234375 52.816406 C 418.234375 52.816406 418.269531 52.96875 418.308594 53.152344 C 418.339844 53.300781 418.371094 53.472656 418.386719 53.585938 C 418.640625 55.921875 416.960938 58.023438 414.628906 58.285156 C 412.421875 58.53125 410.417969 57.035156 409.992188 54.898438 C 409.972656 54.8125 409.949219 54.722656 409.941406 54.660156 C 409.523438 52.347656 411.058594 50.136719 413.367188 49.71875 C 415.679688 49.304688 417.890625 50.839844 418.308594 53.152344 Z M 418.308594 53.152344 " fill-opacity="1" fill-rule="evenodd"/><path fill="#ffbf6e" d="M 437.636719 43.210938 C 437.472656 45.09375 436.058594 46.703125 434.109375 47.03125 C 431.792969 47.417969 429.601562 45.855469 429.210938 43.542969 C 429.109375 42.949219 429.132812 42.53125 429.203125 42.089844 C 429.277344 41.65625 429.402344 41.195312 429.710938 40.652344 C 430.863281 38.609375 433.460938 37.886719 435.503906 39.042969 C 437.03125 39.902344 437.820312 41.570312 437.636719 43.210938 Z M 437.429688 44.140625 C 437.34375 44.378906 437.242188 44.609375 437.117188 44.835938 C 437.253906 44.585938 437.355469 44.359375 437.429688 44.140625 Z M 437.652344 42.789062 C 437.652344 42.589844 437.636719 42.378906 437.59375 42.132812 C 437.632812 42.351562 437.652344 42.570312 437.652344 42.789062 Z M 437.652344 42.789062 " fill-opacity="1" fill-rule="evenodd"/><path fill="#ffbf6e" d="M 451.609375 46.566406 C 450.46875 44.554688 451.152344 41.988281 453.152344 40.8125 C 455.167969 39.621094 457.78125 40.292969 458.96875 42.3125 L 459.265625 42.867188 C 460.261719 44.992188 459.351562 47.527344 457.230469 48.527344 C 455.132812 49.511719 452.636719 48.632812 451.609375 46.566406 Z M 451.609375 46.566406 " fill-opacity="1" fill-rule="evenodd"/><path fill="#ffbf6e" d="M 433.757812 60.601562 C 435.578125 60.777344 437.140625 62.125 437.515625 64.007812 C 437.96875 66.3125 436.472656 68.550781 434.167969 69.003906 C 433.613281 69.113281 433.230469 69.105469 432.851562 69.066406 C 432.460938 69.023438 432.050781 68.949219 431.480469 68.6875 C 429.34375 67.707031 428.410156 65.183594 429.386719 63.050781 C 430.175781 61.328125 431.972656 60.386719 433.757812 60.601562 Z M 434.273438 60.695312 C 434.527344 60.757812 434.78125 60.847656 435.023438 60.960938 C 434.742188 60.828125 434.496094 60.75 434.273438 60.695312 Z M 433.195312 60.582031 C 432.996094 60.589844 432.777344 60.609375 432.515625 60.664062 C 432.746094 60.617188 432.96875 60.59375 433.195312 60.582031 Z M 433.195312 60.582031 " fill-opacity="1" fill-rule="evenodd"/><path fill="#ffbf6e" d="M 446.636719 66.265625 C 445.914062 64.148438 446.960938 61.808594 449.058594 60.953125 C 451.230469 60.066406 453.714844 61.113281 454.597656 63.289062 C 454.535156 63.125 454.347656 62.78125 454.347656 62.78125 C 454.347656 62.78125 455.019531 65.507812 454.765625 66.304688 C 454.488281 67.175781 453.972656 67.953125 453.078125 68.554688 C 451.125 69.863281 448.484375 69.34375 447.175781 67.394531 C 446.933594 67.039062 446.757812 66.65625 446.636719 66.265625 Z M 446.871094 63.1875 C 447.191406 62.523438 447.6875 61.933594 448.335938 61.496094 C 447.636719 61.964844 447.175781 62.542969 446.871094 63.1875 Z M 446.871094 63.1875 " fill-opacity="1" fill-rule="evenodd"/><path fill="#ffbf6e" d="M 485.628906 50.171875 C 485.71875 50.390625 485.78125 50.609375 485.804688 50.8125 C 486.027344 53.148438 484.320312 55.226562 481.984375 55.457031 C 480.140625 55.632812 478.453125 54.605469 477.714844 53.015625 C 477.609375 52.855469 477.523438 52.699219 477.472656 52.558594 C 477.183594 51.742188 477.066406 50.777344 477.511719 49.601562 C 478.34375 47.410156 480.800781 46.304688 482.992188 47.140625 C 484.371094 47.664062 485.320312 48.832031 485.628906 50.171875 Z M 485.664062 50.359375 C 485.796875 51.09375 485.738281 51.875 485.457031 52.625 C 485.78125 51.765625 485.796875 51.015625 485.664062 50.359375 Z M 485.617188 50.148438 C 485.582031 50.003906 485.539062 49.863281 485.488281 49.726562 C 485.1875 48.871094 483.546875 47.4375 483.546875 47.4375 C 483.546875 47.4375 485.074219 48.871094 485.617188 50.148438 Z M 485.617188 50.148438 " fill-opacity="1" fill-rule="evenodd"/><path fill="#ffbf6e" d="M 488.511719 65.773438 C 488.710938 65.582031 488.917969 65.390625 489.082031 65.28125 C 491.03125 63.972656 493.675781 64.492188 494.980469 66.441406 C 496.175781 68.226562 495.839844 70.597656 494.277344 71.984375 C 494.105469 72.160156 493.925781 72.335938 493.78125 72.441406 C 491.894531 73.835938 489.230469 73.4375 487.835938 71.550781 C 486.496094 69.738281 486.816406 67.207031 488.511719 65.773438 Z M 488.511719 65.773438 " fill-opacity="1" fill-rule="evenodd"/><path fill="#ffbf6e" d="M 471.824219 89.273438 C 473.117188 90.882812 473.074219 93.242188 471.636719 94.808594 C 470.050781 96.535156 467.355469 96.652344 465.632812 95.066406 L 464.664062 93.800781 C 463.59375 91.714844 464.417969 89.148438 466.503906 88.078125 C 468.363281 87.125 470.597656 87.671875 471.824219 89.273438 Z M 471.824219 89.273438 " fill-opacity="1" fill-rule="evenodd"/><path fill="#ffbf6e" d="M 526.328125 86.285156 C 527.855469 87.9375 527.832031 90.519531 526.242188 92.148438 C 524.601562 93.824219 521.910156 93.851562 520.234375 92.210938 L 519.503906 91.355469 C 518.167969 89.429688 518.648438 86.777344 520.574219 85.4375 C 522.425781 84.152344 524.945312 84.542969 526.328125 86.285156 Z M 526.328125 86.285156 " fill-opacity="1" fill-rule="evenodd"/><path fill="#ffbf6e" d="M 515.136719 101.125 C 516.945312 102.539062 517.304688 105.148438 515.933594 107.003906 C 514.535156 108.890625 511.867188 109.285156 509.984375 107.890625 L 508.679688 106.648438 C 507.214844 104.8125 507.523438 102.132812 509.359375 100.675781 C 511.117188 99.28125 513.640625 99.5 515.136719 101.125 Z M 515.136719 101.125 " fill-opacity="1" fill-rule="evenodd"/><path fill="#ffbf6e" d="M 542.335938 112.835938 C 542.386719 112.917969 542.433594 112.996094 542.464844 113.054688 C 543.539062 115.140625 542.726562 117.707031 540.644531 118.785156 C 538.558594 119.867188 535.992188 119.050781 534.914062 116.964844 C 534.960938 117.054688 535.0625 117.226562 535.0625 117.226562 C 535.0625 117.226562 534.386719 115.992188 534.261719 115.292969 C 533.863281 112.980469 535.417969 110.777344 537.726562 110.375 C 539.6875 110.035156 541.566406 111.097656 542.335938 112.835938 Z M 542.335938 112.835938 " fill-opacity="1" fill-rule="evenodd"/><path fill="#ffbf6e" d="M 545.910156 130.929688 C 545.945312 130.992188 545.976562 131.054688 546 131.105469 C 547 133.226562 546.082031 135.761719 543.960938 136.757812 C 541.835938 137.753906 539.296875 136.839844 538.300781 134.714844 C 538.363281 134.84375 538.503906 135.085938 538.503906 135.085938 C 538.503906 135.085938 537.726562 133.515625 537.703125 132.589844 C 537.636719 130.246094 539.496094 128.289062 541.835938 128.226562 C 543.679688 128.179688 545.273438 129.308594 545.910156 130.929688 Z M 545.910156 130.929688 " fill-opacity="1" fill-rule="evenodd"/><path fill="#ffbf6e" d="M 568.257812 144.070312 C 569.359375 144.992188 569.96875 146.453125 569.734375 147.976562 C 569.386719 150.296875 567.214844 151.890625 564.894531 151.539062 C 564.351562 151.457031 563.847656 151.277344 563.386719 151.015625 C 562.886719 150.730469 562.023438 149.824219 562.023438 149.824219 C 562.023438 149.824219 562.113281 149.933594 562.164062 149.984375 C 560.609375 148.226562 560.773438 145.535156 562.53125 143.984375 C 564.191406 142.519531 566.675781 142.582031 568.257812 144.070312 Z M 568.257812 144.070312 " fill-opacity="1" fill-rule="evenodd"/><path fill="#ffbf6e" d="M 559.90625 161.5 C 561.261719 162.003906 562.328125 163.191406 562.609375 164.71875 C 563.03125 167.027344 561.503906 169.246094 559.191406 169.667969 C 558.523438 169.792969 557.867188 169.757812 557.234375 169.589844 C 556.632812 169.425781 556.019531 169.105469 555.53125 168.71875 C 553.683594 167.273438 553.359375 164.597656 554.808594 162.753906 C 556.035156 161.179688 558.160156 160.710938 559.90625 161.5 Z M 559.90625 161.5 " fill-opacity="1" fill-rule="evenodd"/><path fill="#ffbf6e" d="M 582.007812 169.984375 C 583.371094 170.976562 584.070312 172.726562 583.636719 174.457031 C 583.070312 176.734375 580.757812 178.121094 578.480469 177.550781 C 577.777344 177.375 576.496094 176.433594 576.496094 176.433594 C 574.867188 174.855469 574.761719 172.257812 576.28125 170.550781 C 577.765625 168.890625 580.265625 168.667969 582.007812 169.984375 Z M 582.007812 169.984375 " fill-opacity="1" fill-rule="evenodd"/><path fill="#ffbf6e" d="M 592.53125 211.976562 C 592.53125 211.976562 592.808594 212.269531 592.863281 212.316406 C 592.746094 212.210938 592.636719 212.09375 592.53125 211.976562 Z M 598.339844 205.820312 C 599.683594 206.832031 600.355469 208.59375 599.890625 210.320312 C 599.597656 211.414062 599.015625 212.09375 598.414062 212.570312 C 597.535156 213.257812 596.460938 213.625 595.160156 213.433594 C 594.613281 213.351562 592.53125 211.976562 592.53125 211.976562 C 591.132812 210.363281 591.136719 207.917969 592.621094 206.308594 C 594.121094 204.679688 596.613281 204.492188 598.339844 205.820312 Z M 595.863281 204.972656 C 594.804688 204.9375 593.910156 205.292969 593.160156 205.882812 C 593.914062 205.285156 594.875 204.953125 595.863281 204.972656 Z M 593.144531 205.894531 C 592.546875 206.367188 591.96875 207.046875 591.679688 208.128906 C 591.925781 207.210938 592.453125 206.441406 593.144531 205.894531 Z M 593.144531 205.894531 " fill-opacity="1" fill-rule="evenodd"/><path fill="#ffbf6e" d="M 455.292969 400.773438 C 455.292969 400.773438 456.152344 400.808594 456.351562 400.847656 C 457.457031 401.0625 458.113281 401.601562 458.457031 401.929688 C 459.417969 402.832031 459.765625 403.878906 459.792969 404.917969 C 459.808594 405.75 459.628906 406.699219 458.890625 407.640625 C 458.691406 407.890625 458.199219 408.683594 456.707031 409.113281 C 456.136719 409.273438 455.558594 409.3125 455.003906 409.242188 C 454.695312 409.207031 454.398438 409.136719 454.109375 409.039062 C 454.199219 409.066406 454.285156 409.089844 454.375 409.113281 C 453.007812 408.726562 451.871094 407.660156 451.449219 406.195312 C 451.417969 406.074219 451.386719 405.957031 451.363281 405.835938 C 451.40625 406.078125 451.46875 406.347656 451.570312 406.625 C 451.347656 406.085938 451.234375 405.492188 451.257812 404.871094 C 451.335938 402.652344 453.109375 400.886719 455.292969 400.773438 Z M 454.109375 409.039062 C 452.613281 408.558594 451.902344 407.546875 451.570312 406.625 C 452.027344 407.746094 452.953125 408.636719 454.109375 409.039062 Z M 451.300781 404.675781 C 451.375 403.75 451.753906 402.878906 452.359375 402.195312 C 451.59375 403.039062 451.347656 403.910156 451.300781 404.675781 Z M 452.679688 401.878906 C 453.144531 401.449219 453.714844 401.121094 454.367188 400.9375 C 453.390625 401.214844 452.914062 401.648438 452.679688 401.878906 Z M 455.292969 400.773438 C 455.410156 400.769531 455.535156 400.769531 455.660156 400.773438 C 455.652344 400.773438 455.292969 400.773438 455.292969 400.773438 Z M 455.292969 400.773438 " fill-opacity="1" fill-rule="evenodd"/><path fill="#ffbf6e" d="M 434.890625 404.644531 C 433.246094 403.75 432.332031 401.832031 432.789062 399.921875 C 433.332031 397.640625 435.625 396.230469 437.910156 396.773438 C 438.5625 396.929688 438.914062 397.125 439.238281 397.332031 C 439.765625 397.667969 440.304688 398.101562 440.773438 399.023438 C 441.824219 401.117188 440.984375 403.675781 438.886719 404.734375 C 437.578125 405.398438 436.082031 405.3125 434.890625 404.644531 Z M 433.65625 403.59375 C 433.476562 403.371094 433.316406 403.121094 433.183594 402.855469 C 433.332031 403.15625 433.492188 403.394531 433.65625 403.59375 Z M 433.65625 403.59375 " fill-opacity="1" fill-rule="evenodd"/><path fill="#ffbf6e" d="M 436.5625 383.683594 C 438.746094 383.542969 440.707031 385.09375 441.039062 387.292969 C 441.390625 389.613281 439.792969 391.78125 437.472656 392.132812 L 436.753906 392.1875 C 434.40625 392.230469 432.46875 390.359375 432.425781 388.011719 C 432.382812 385.679688 434.230469 383.746094 436.5625 383.683594 Z M 436.5625 383.683594 " fill-opacity="1" fill-rule="evenodd"/><path fill="#ffbf6e" d="M 420.929688 372.492188 C 420.984375 372.566406 421.042969 372.644531 421.078125 372.707031 C 422.367188 374.667969 421.820312 377.308594 419.855469 378.59375 C 417.914062 379.863281 415.316406 379.339844 414.015625 377.433594 C 413.941406 377.332031 413.863281 377.214844 413.808594 377.128906 C 412.597656 375.121094 413.238281 372.503906 415.246094 371.292969 C 417.171875 370.128906 419.660156 370.671875 420.929688 372.492188 Z M 414.113281 377.566406 C 414.160156 377.628906 414.203125 377.683594 414.214844 377.695312 C 414.203125 377.683594 414.167969 377.632812 414.113281 377.566406 Z M 414.113281 377.566406 " fill-opacity="1" fill-rule="evenodd"/><path fill="#ffbf6e" d="M 409.707031 353.839844 C 411.664062 354.019531 413.300781 355.550781 413.53125 357.578125 C 413.808594 359.910156 412.136719 362.023438 409.808594 362.296875 L 407.964844 362.144531 C 405.699219 361.523438 404.367188 359.183594 404.992188 356.921875 C 405.566406 354.828125 407.613281 353.527344 409.707031 353.839844 Z M 409.707031 353.839844 " fill-opacity="1" fill-rule="evenodd"/><path fill="#ffbf6e" d="M 381.089844 353.101562 C 381.199219 353.152344 381.324219 353.214844 381.40625 353.265625 C 383.433594 354.449219 384.117188 357.058594 382.929688 359.082031 C 381.789062 361.027344 379.34375 361.730469 377.359375 360.734375 C 377.289062 360.703125 377.214844 360.667969 377.160156 360.640625 C 375.085938 359.546875 374.285156 356.976562 375.378906 354.898438 C 376.464844 352.832031 379.019531 352.027344 381.089844 353.101562 Z M 381.078125 353.09375 C 380.980469 353.046875 380.847656 352.984375 380.847656 352.984375 C 380.847656 352.984375 380.957031 353.035156 381.078125 353.09375 Z M 381.078125 353.09375 " fill-opacity="1" fill-rule="evenodd"/><path fill="#ffbf6e" d="M 377.40625 333.753906 C 379.304688 334.824219 380.105469 337.195312 379.175781 339.21875 C 378.210938 341.351562 375.679688 342.296875 373.546875 341.324219 L 371.859375 340.183594 C 370.171875 338.550781 370.128906 335.855469 371.765625 334.171875 C 373.28125 332.605469 375.714844 332.457031 377.40625 333.753906 Z M 377.40625 333.753906 " fill-opacity="1" fill-rule="evenodd"/><path fill="#ffbf6e" d="M 333.503906 313.691406 C 331.214844 313.335938 329.621094 311.210938 329.941406 308.910156 C 330.261719 306.585938 332.40625 304.957031 334.730469 305.277344 L 335.898438 305.550781 C 338.09375 306.367188 339.222656 308.8125 338.410156 311.015625 C 337.660156 313.03125 335.546875 314.144531 333.503906 313.691406 Z M 333.503906 313.691406 " fill-opacity="1" fill-rule="evenodd"/><path fill="#ffbf6e" d="M 331.089844 323.578125 C 331.089844 323.578125 332.292969 323.714844 332.84375 323.964844 C 334.976562 324.933594 335.921875 327.457031 334.953125 329.59375 C 334.15625 331.34375 332.320312 332.292969 330.511719 332.046875 C 328.308594 331.777344 326.664062 329.839844 326.785156 327.59375 C 326.914062 325.308594 328.824219 323.542969 331.089844 323.578125 Z M 331.089844 323.578125 " fill-opacity="1" fill-rule="evenodd"/><path fill="#ffbf6e" d="M 315.902344 328.339844 C 313.601562 328.125 311.882812 326.105469 312.054688 323.792969 C 312.222656 321.453125 314.261719 319.695312 316.605469 319.863281 L 317.652344 320.03125 C 319.914062 320.652344 321.25 322.992188 320.632812 325.253906 C 320.058594 327.355469 318 328.65625 315.902344 328.339844 Z M 315.902344 328.339844 " fill-opacity="1" fill-rule="evenodd"/><path fill="#ffbf6e" d="M 304.835938 320.34375 C 304.378906 322.53125 302.285156 324.007812 300.050781 323.675781 C 299.433594 323.585938 298.871094 323.367188 298.378906 323.050781 C 298.554688 323.148438 298.753906 323.246094 298.972656 323.34375 C 297.960938 322.902344 297.199219 322.113281 296.785156 321.175781 C 296.75 321.105469 296.71875 321.035156 296.691406 320.960938 C 296.691406 320.96875 296.699219 320.972656 296.699219 320.980469 C 296.308594 319.972656 296.292969 318.820312 296.757812 317.753906 C 297.6875 315.597656 300.195312 314.605469 302.34375 315.539062 C 304.378906 316.417969 304.527344 317.53125 304.726562 318.144531 C 304.882812 318.640625 304.835938 320.34375 304.835938 320.34375 Z M 298.378906 323.050781 C 297.113281 322.339844 296.859375 321.53125 296.699219 320.980469 C 296.726562 321.046875 296.75 321.113281 296.785156 321.175781 C 297.117188 321.941406 297.671875 322.597656 298.378906 323.050781 Z M 298.378906 323.050781 " fill-opacity="1" fill-rule="evenodd"/><path fill="#ffbf6e" d="M 273.25 326.210938 C 275.570312 326.582031 277.144531 328.765625 276.777344 331.082031 C 276.40625 333.398438 274.222656 334.980469 271.902344 334.605469 L 271.332031 334.542969 C 269.007812 334.222656 267.382812 332.074219 267.703125 329.75 C 268.023438 327.425781 270.171875 325.800781 272.5 326.121094 Z M 273.25 326.210938 " fill-opacity="1" fill-rule="evenodd"/><path fill="#ffbf6e" d="M 254.785156 319.167969 C 257.019531 318.851562 259.128906 320.347656 259.554688 322.585938 C 259.996094 324.890625 258.480469 327.117188 256.175781 327.554688 L 255.082031 327.667969 C 252.742188 327.816406 250.71875 326.039062 250.566406 323.699219 C 250.417969 321.355469 252.195312 319.332031 254.535156 319.183594 C 254.605469 319.175781 254.714844 319.171875 254.785156 319.167969 Z M 254.785156 319.167969 " fill-opacity="1" fill-rule="evenodd"/><path fill="#ffbf6e" d="M 251.652344 342.902344 C 253.261719 343.066406 254.710938 344.144531 255.257812 345.773438 C 256.007812 347.996094 254.816406 350.414062 252.59375 351.164062 C 251.660156 351.476562 249.914062 351.207031 249.914062 351.207031 C 249.914062 351.207031 250.050781 351.242188 250.117188 351.257812 C 247.835938 350.738281 246.398438 348.457031 246.925781 346.167969 C 247.417969 344 249.488281 342.601562 251.652344 342.902344 Z M 251.652344 342.902344 " fill-opacity="1" fill-rule="evenodd"/><path fill="#ffbf6e" d="M 230.414062 339.367188 C 230.53125 339.382812 230.765625 339.421875 230.898438 339.449219 C 233.199219 339.917969 234.683594 342.167969 234.210938 344.46875 C 233.734375 346.765625 231.488281 348.25 229.191406 347.777344 L 228.28125 347.59375 C 226.023438 346.949219 224.714844 344.597656 225.351562 342.339844 C 225.980469 340.148438 228.21875 338.851562 230.414062 339.367188 Z M 230.414062 339.367188 " fill-opacity="1" fill-rule="evenodd"/><path fill="#ffbf6e" d="M 214.851562 343.40625 C 215.667969 343.183594 216.554688 343.195312 217.40625 343.496094 C 219.621094 344.28125 220.78125 346.714844 219.992188 348.925781 C 219.742188 349.628906 219.328125 350.25 218.734375 350.757812 C 218.152344 351.257812 215.960938 351.8125 215.960938 351.8125 C 215.960938 351.8125 216.199219 351.792969 216.285156 351.78125 C 213.957031 352.082031 211.824219 350.4375 211.519531 348.113281 C 211.238281 345.898438 212.707031 343.863281 214.851562 343.40625 Z M 212.453125 345.144531 C 212.253906 345.4375 212.101562 345.75 211.980469 346.085938 C 212.101562 345.746094 212.261719 345.429688 212.453125 345.144531 Z M 212.453125 345.144531 " fill-opacity="1" fill-rule="evenodd"/><path fill="#ffbf6e" d="M 208.121094 359.898438 C 209.640625 358.113281 212.328125 357.90625 214.113281 359.429688 C 215.894531 360.957031 216.101562 363.644531 214.574219 365.425781 L 214.542969 365.464844 C 213.023438 367.246094 210.335938 367.457031 208.550781 365.929688 C 206.769531 364.40625 206.558594 361.71875 208.082031 359.9375 Z M 208.121094 359.898438 " fill-opacity="1" fill-rule="evenodd"/><path fill="#ffbf6e" d="M 228.566406 320.695312 C 230.914062 320.644531 232.863281 322.507812 232.917969 324.851562 C 232.964844 327.199219 231.105469 329.144531 228.761719 329.199219 L 228.644531 329.199219 C 226.300781 329.238281 224.363281 327.363281 224.328125 325.019531 C 224.285156 322.671875 226.15625 320.738281 228.503906 320.699219 Z M 228.566406 320.695312 " fill-opacity="1" fill-rule="evenodd"/><path fill="#ffbf6e" d="M 354.839844 338.683594 C 356.808594 338.878906 358.441406 340.4375 358.648438 342.480469 C 358.890625 344.816406 357.191406 346.90625 354.855469 347.144531 C 354.457031 347.1875 354.207031 347.175781 353.949219 347.148438 C 353.640625 347.121094 353.3125 347.070312 352.816406 346.882812 C 350.625 346.058594 349.511719 343.605469 350.335938 341.410156 C 351.039062 339.53125 352.933594 338.445312 354.839844 338.683594 Z M 354.839844 338.683594 " fill-opacity="1" fill-rule="evenodd"/><path fill="#ffbf6e" d="M 745.441406 244.917969 C 743.113281 244.855469 741.265625 242.929688 741.308594 240.597656 C 741.347656 238.253906 743.285156 236.378906 745.632812 236.417969 L 745.988281 236.4375 C 748.328125 236.632812 750.066406 238.691406 749.867188 241.03125 C 749.671875 243.3125 747.707031 245.023438 745.441406 244.917969 Z M 745.441406 244.917969 " fill-opacity="1" fill-rule="evenodd"/><path fill="#ffbf6e" d="M 599.886719 243.972656 C 599.886719 243.960938 599.882812 243.953125 599.882812 243.941406 C 599.316406 241.664062 600.707031 239.359375 602.984375 238.792969 C 605.261719 238.230469 607.570312 239.621094 608.136719 241.898438 C 608.105469 241.78125 608.003906 241.464844 608.003906 241.464844 C 608.003906 241.464844 608.253906 244.273438 607.839844 245.078125 C 606.761719 247.164062 604.199219 247.988281 602.113281 246.914062 C 600.917969 246.300781 600.136719 245.195312 599.886719 243.972656 Z M 599.886719 243.972656 " fill-opacity="1" fill-rule="evenodd"/><path fill="#ffbf6e" d="M 472.902344 422.023438 C 474.777344 421.324219 476.949219 422.03125 478.023438 423.804688 C 479.234375 425.8125 478.59375 428.429688 476.585938 429.644531 L 475.0625 430.242188 C 472.769531 430.757812 470.496094 429.316406 469.980469 427.027344 C 469.484375 424.835938 470.785156 422.65625 472.902344 422.023438 Z M 472.902344 422.023438 " fill-opacity="1" fill-rule="evenodd"/><path fill="#ffbf6e" d="M 854.652344 442.199219 C 855.683594 441.609375 856.957031 441.453125 858.171875 441.878906 C 860.386719 442.65625 861.550781 445.085938 860.769531 447.296875 C 860.464844 448.167969 859.992188 448.738281 859.476562 449.175781 C 858.964844 449.605469 857.585938 450.097656 857.585938 450.097656 C 855.375 450.59375 853.148438 449.257812 852.550781 447.050781 C 852.027344 445.105469 852.945312 443.109375 854.652344 442.199219 Z M 853.429688 443.246094 C 853.15625 443.578125 852.921875 443.976562 852.746094 444.480469 C 852.914062 444.023438 853.140625 443.609375 853.429688 443.246094 Z M 853.429688 443.246094 " fill-opacity="1" fill-rule="evenodd"/></svg>